<svg width="31" height="51" viewBox="0 0 31 51" fill="none" xmlns="http://www.w3.org/2000/svg">
    <path d="M25.7134 50.8028C27.0622 45.7692 28.9284 41.1054 30.7086 36.1874C30.7279 36.1155 28.0531 35.1676 27.8849 35.5078C27.0103 37.0461 26.2409 38.7668 25.5628 40.4348C25.0099 33.5814 22.6683 26.7882 20.1532 20.6422C16.7009 12.2412 11.2479 4.6914 2.93744 0.614892C2.3288 0.297663 1.15382 0.368187 0.760905 0.108761C9.24857 4.38689 14.4229 12.4015 17.635 21.1235C20.6083 29.0109 23.1681 37.8664 21.9064 46.3145C21.3992 45.3308 20.8921 44.3471 20.4517 43.6896C19.1305 41.7171 17.7181 39.7972 16.013 38.1072C15.7639 37.8863 14.7327 37.9953 14.5555 37.7937C16.2259 40.4764 18.1699 43.0011 19.6579 45.7891C20.6388 47.5934 21.1305 49.4977 23.1581 50.2722C23.4983 50.4405 25.6363 51.0904 25.7134 50.8028Z" fill="#F65699"/>
    </svg>
    