<svg width="31" height="51" viewBox="0 0 31 51" fill="none" xmlns="http://www.w3.org/2000/svg">
    <path d="M5.46237 50.8028C4.11361 45.7692 2.24739 41.1054 0.467176 36.1874C0.447908 36.1155 3.12265 35.1676 3.2909 35.5078C4.16552 37.0461 4.93485 38.7668 5.61301 40.4348C6.16588 33.5814 8.50753 26.7882 11.0226 20.6422C14.4749 12.2412 19.9279 4.6914 28.2383 0.614892C28.847 0.297663 30.022 0.368187 30.4149 0.108761C21.9272 4.38689 16.7529 12.4015 13.5408 21.1235C10.5674 29.0109 8.00767 37.8664 9.2694 46.3145C9.77654 45.3308 10.2837 44.3471 10.7241 43.6896C12.0453 41.7171 13.4576 39.7972 15.1628 38.1072C15.4119 37.8863 16.4431 37.9953 16.6203 37.7937C14.9498 40.4764 13.0059 43.0011 11.5178 45.7891C10.5369 47.5934 10.0453 49.4977 8.01773 50.2722C7.67745 50.4405 5.53944 51.0904 5.46237 50.8028Z" fill="#F65699"/>
    </svg>
    