<svg width="54" height="24" viewBox="0 0 54 24" fill="none" xmlns="http://www.w3.org/2000/svg">
    <path d="M0.442114 2.59296C3.04771 7.10599 5.02587 11.7234 7.24464 16.4598C7.28186 16.5242 9.84346 15.3032 9.72182 14.9436C9.25253 13.2374 8.57984 11.4767 7.87991 9.81772C13.1169 14.2729 19.5762 17.4206 25.7005 19.9881C34.0821 23.4873 43.2765 24.97 52.0354 21.9761C52.6901 21.7701 53.471 20.8894 53.9323 20.795C44.9055 23.7716 35.5795 21.7632 27.1408 17.8671C19.4612 14.3924 11.3894 9.9406 6.30782 3.07471C7.36199 3.41167 8.41616 3.74863 9.19249 3.90215C11.5215 4.36271 13.8777 4.72158 16.2785 4.71089C16.6109 4.69094 17.2629 3.88468 17.5307 3.90196C14.4527 3.18618 11.2928 2.77549 8.26922 1.85633C6.2998 1.27412 4.60554 0.275166 2.62419 1.16121C2.2646 1.28286 0.293223 2.33507 0.442114 2.59296Z" fill="#F65699"/>
    </svg>
    