<svg width="57" height="15" viewBox="0 0 57 15" fill="none" xmlns="http://www.w3.org/2000/svg">
    <path d="M56.5393 11.7459C52.8544 8.06098 49.7486 4.1129 46.3795 0.112175C46.3269 0.0595344 44.1686 1.90197 44.3792 2.21782C45.2741 3.74441 46.3795 5.271 47.485 6.69231C41.2733 3.74441 34.2194 2.37574 27.6393 1.48084C18.6377 0.2701 9.37287 1.21764 1.68727 6.37647C1.10822 6.74495 0.581807 7.79777 0.160678 8.00834C8.10948 2.79687 17.6375 2.3231 26.7971 3.90233C35.1143 5.271 44.0633 7.48193 50.7487 12.7987C49.6433 12.746 48.5378 12.6934 47.7482 12.746C45.3794 12.904 43.0105 13.1672 40.6943 13.7989C40.3785 13.9041 39.9573 14.8517 39.6941 14.9043C42.8526 14.799 46.011 14.3779 49.1695 14.4832C51.2225 14.5358 53.1176 15.0622 54.8021 13.6936C55.1179 13.483 56.7498 11.9564 56.5393 11.7459Z" fill="#F65699"/>
    </svg>
    