<svg width="28" height="54" viewBox="0 0 28 54" fill="none" xmlns="http://www.w3.org/2000/svg">
    <path d="M6.97986 0.570783C5.1822 5.4621 2.90257 9.93835 0.685646 14.6756C0.659966 14.7455 3.23821 15.931 3.43649 15.6073C4.44641 14.1542 5.36794 12.51 6.19391 10.91C6.12582 17.7854 7.84465 24.7622 9.79461 31.1102C12.4744 39.7885 17.2236 47.7998 25.1321 52.6099C25.7096 52.9808 26.8862 53.0166 27.2541 53.3104C19.1873 48.2835 14.7576 39.8345 12.346 30.8581C10.0968 22.7346 8.34692 13.6842 10.3662 5.38446C10.7824 6.40991 11.1987 7.43535 11.5779 8.12993C12.7157 10.2137 13.9489 12.2532 15.4946 14.0903C15.7227 14.3328 16.7595 14.3172 16.9178 14.534C15.4964 11.7115 13.7883 9.0216 12.558 6.11069C11.744 4.22524 11.4262 2.28424 9.47688 1.32986C9.15318 1.13158 7.08258 0.291279 6.97986 0.570783Z" fill="#F65699"/>
    </svg>
    