<svg width="34" height="48" viewBox="0 0 34 48" fill="none" xmlns="http://www.w3.org/2000/svg">
    <path d="M32.361 0.480162C27.3274 1.82892 22.3553 2.5446 17.2061 3.46191C17.1342 3.48117 17.6506 6.27152 18.0294 6.24709C19.799 6.23538 21.6738 6.04132 23.4574 5.79462C17.7986 9.70011 13.0863 15.1246 9.02127 20.3757C3.47193 27.566 -0.33989 36.0634 0.284986 45.2987C0.31458 45.9844 0.963143 46.9667 0.934932 47.4367C0.396071 37.9471 4.74979 29.4587 10.6972 22.3159C16.0412 15.7973 22.4304 9.15268 30.3775 6.02131C29.7792 6.95235 29.1809 7.88339 28.8317 8.59353C27.784 10.724 26.8275 12.9071 26.2165 15.2288C26.1497 15.555 26.7598 16.3935 26.6737 16.6477C28.1618 13.8598 29.3763 10.9139 31.0467 8.23122C32.1188 6.47959 33.5222 5.10161 33.1792 2.95844C33.1548 2.57963 32.6486 0.40309 32.361 0.480162Z" fill="#F65699"/>
    </svg>
    