<svg viewBox="0 0 43 43" fill="none" xmlns="http://www.w3.org/2000/svg">
<path d="M38.8467 22.8602C38.4477 24.1846 37.777 24.6473 36.6351 24.8766C35.1281 25.1737 33.7103 25.9081 32.2203 26.3241C30.777 26.7274 29.304 27.1179 27.8225 27.2325C26.0566 27.3684 25.2586 26.5491 24.9827 24.7789C24.6643 22.7328 24.3459 20.6868 23.8959 18.6322C22.9238 21.8414 22.771 25.4114 19.5873 27.4787C17.6516 28.7352 15.4739 29.1428 13.1434 29.0027C13.6698 28.7947 14.1834 28.5357 14.7268 28.3829C19.634 26.999 21.714 23.2422 22.7583 18.6959C23.1955 16.7941 23.3526 14.8287 23.879 12.8633C24.2483 14.9263 24.5879 17.0021 25.0039 19.0567C25.3223 20.6231 25.6619 22.1937 26.1458 23.7134C26.7528 25.6279 28.0093 26.3835 29.9578 25.8869C31.6982 25.4454 33.3665 24.728 35.0687 24.1337C35.073 23.9724 35.0772 23.8111 35.0814 23.6498C33.8249 23.1955 32.5812 22.4145 31.3119 22.372C30.0809 22.3296 28.8244 23.0427 27.623 23.4163C28.714 20.8056 30.3101 20.1179 32.7128 21.4551C34.6018 22.5036 36.5587 23.0894 38.8467 22.8602Z" fill="#936F45"/>
<path d="M5.76883 23.9721C5.76883 24.1504 5.77732 24.3329 5.76883 24.5112C5.64997 27.2407 6.46925 28.336 9.81853 27.6355C12.0726 27.1643 13.881 26.1328 13.4989 22.9703C13.1423 20.0285 12.8282 17.0783 12.5183 14.1323C12.4632 13.5889 12.5098 13.0371 12.5098 12.1074C13.5117 13.2154 14.038 13.8903 13.9871 15.1596C13.9022 17.333 14.2248 19.5319 14.4583 21.7095C14.955 26.2899 12.1533 29.4354 7.50927 29.4439C5.31462 29.4439 4.29158 28.2341 4.75004 26.0989C4.91135 25.3602 5.21698 24.6513 5.45895 23.9297C5.56083 23.9424 5.66695 23.9594 5.76883 23.9721Z" fill="#936F45"/>
<path d="M20.7622 22.6637C19.701 20.4988 18.3256 19.0725 16.496 17.9858C15.8635 17.608 15.6428 16.534 15.1122 15.5449C18.0624 16.1053 20.3462 19.0598 20.7622 22.6637Z" fill="#936F45"/>
<path d="M21.2342 2.59931C31.6598 2.59931 40.1455 11.0808 40.1455 21.5107C40.1455 31.9406 31.6641 40.422 21.2342 40.422C10.8043 40.422 2.32282 31.9363 2.32282 21.5107C2.32282 11.085 10.8085 2.59931 21.2342 2.59931ZM21.2342 0.498047C9.62842 0.498047 0.221558 9.90491 0.221558 21.5107C0.221558 33.1164 9.62842 42.5233 21.2342 42.5233C32.8399 42.5233 42.2468 33.1164 42.2468 21.5107C42.2468 9.90491 32.8399 0.498047 21.2342 0.498047Z" fill="#936F45"/>
</svg>
