<svg viewBox="0 0 43 43" fill="none" xmlns="http://www.w3.org/2000/svg">
<path d="M9.37859 21.4519C9.32918 14.7319 14.9374 9.0742 21.9045 9.17303C28.6245 9.27185 34.0351 14.8554 33.9857 21.6495C33.9115 28.4189 28.328 33.8295 21.4598 33.7801C14.8139 33.706 9.32918 28.1224 9.4033 21.4519H9.37859ZM33.7633 21.4766C33.7633 14.7813 28.328 9.37067 21.608 9.39537C14.8633 9.39537 9.50212 14.9295 9.55153 21.6248C9.60094 28.2213 15.0609 33.6072 21.7315 33.5825C28.328 33.5825 33.7633 28.0977 33.7386 21.4766H33.7633Z" fill="#936F45" stroke="#936F45" stroke-width="0.147968" stroke-miterlimit="10"/>
<path d="M35.982 22.7683H34.3762C34.6479 22.2989 34.895 21.8542 35.1667 21.3847C34.9197 20.9647 34.6479 20.4953 34.3762 20.0012C34.7715 19.8777 35.7597 19.9271 35.8832 20.0753C36.2044 19.5318 36.5009 19.013 36.8467 18.42C37.1432 18.9389 37.4397 19.433 37.7362 19.9518H39.342C39.0703 20.4459 38.7985 20.8906 38.5515 21.3353C38.7985 21.78 39.0703 22.2495 39.342 22.7436H37.7362C37.4644 23.213 37.1679 23.7318 36.8467 24.3C36.5503 23.7812 36.2538 23.2871 35.9573 22.7683H35.982ZM35.4138 21.1624C35.5373 20.8659 35.6609 20.5694 35.7597 20.2977C35.5126 20.2977 35.2656 20.2977 34.9691 20.3471C35.1173 20.6436 35.2656 20.9153 35.4138 21.1624C35.6609 21.5824 35.9079 22.0024 36.2044 22.4471H37.5632C37.7362 22.1506 37.9585 21.8047 38.1562 21.4589C38.1809 21.3847 38.1562 21.2612 38.1314 21.1871C37.9832 20.8906 37.8103 20.6189 37.6126 20.273C37.2173 20.273 36.7726 20.273 36.3279 20.273C36.2538 20.273 36.155 20.3471 36.1056 20.4212C35.9326 20.693 35.7844 20.9647 35.6362 21.2365C35.5373 21.1871 35.4632 21.1624 35.4138 21.1377V21.1624ZM37.3903 19.9271C37.2173 19.6553 37.0691 19.3835 36.8715 19.0871C36.6985 19.3835 36.5503 19.6306 36.402 19.9271H37.3903ZM36.3773 22.793C36.5503 23.0894 36.6985 23.3365 36.8715 23.6329C37.0444 23.3365 37.1926 23.0647 37.3409 22.793H36.3773ZM38.7985 22.4224C38.6503 22.1506 38.502 21.9036 38.3785 21.6565C38.255 21.9283 38.1315 22.1506 38.0079 22.4224H38.8232H38.7985ZM35.7597 22.3977C35.6114 22.1259 35.4632 21.9035 35.3397 21.7059C35.2162 21.953 35.0926 22.1753 34.9691 22.3977H35.735H35.7597ZM38.7738 20.3224H38.0079C38.1562 20.5694 38.2797 20.7918 38.4032 21.0141C38.5267 20.7918 38.6256 20.5694 38.7738 20.3224Z" fill="#936F45"/>
<path d="M9.5744 34.4526C10.4391 33.3408 11.2791 32.2291 12.1438 31.1173C12.7615 31.6114 13.4038 32.0808 13.9968 32.5996C14.4909 33.0196 14.5156 33.5385 14.1944 34.0573C13.8732 34.5514 13.3544 34.6996 12.7862 34.4526C12.7368 34.4526 12.6873 34.4032 12.6379 34.3785V36.7255C12.1438 36.5526 12.0203 36.3796 12.045 35.9596C12.0697 35.5396 12.0944 35.0949 12.1191 34.6749C12.1191 34.2549 11.9956 33.9338 11.625 33.6867C11.4768 33.5879 11.3532 33.4891 11.1803 33.3408C10.8097 33.8349 10.4391 34.3043 10.0438 34.7985C9.89558 34.6749 9.74734 34.5761 9.5744 34.4526ZM11.4521 32.9455C11.9215 33.2667 12.3415 33.6126 12.7862 33.8844C13.1568 34.1067 13.5026 34.0079 13.7003 33.7114C13.8979 33.4396 13.8485 33.0937 13.5273 32.822C13.132 32.4761 12.712 32.1796 12.292 31.8585C11.9956 32.229 11.7485 32.575 11.4273 32.9703L11.4521 32.9455Z" fill="#936F45"/>
<path d="M30.9448 9.7596C30.5248 10.229 30.1048 10.6737 29.6848 11.1431C29.5366 11.0196 29.4131 10.8961 29.2648 10.7478C30.2284 9.71019 31.1425 8.67254 32.106 7.63489C32.699 8.20312 33.3166 8.74666 33.8848 9.3396C34.2801 9.7596 34.2307 10.3278 33.8848 10.7972C33.5389 11.1925 33.0201 11.2914 32.526 11.0443C32.4519 11.0196 32.3778 10.9702 32.3531 10.9702C32.2789 11.7361 32.1801 12.5019 32.106 13.3172C31.5378 12.9219 31.5131 12.8973 31.6119 12.3043C31.686 11.8843 31.7354 11.4643 31.7848 11.069C31.8342 10.7478 31.7107 10.4761 31.4637 10.2537C31.2907 10.1055 31.1425 9.95725 30.9695 9.78431L30.9448 9.7596ZM31.2413 9.41371C31.6613 9.7843 32.0566 10.1549 32.5013 10.4761C32.8472 10.7231 33.2178 10.649 33.4648 10.3525C33.6872 10.0808 33.6378 9.7349 33.3413 9.43843C32.9707 9.06784 32.6001 8.74666 32.2048 8.37607C31.8836 8.69725 31.5872 9.01842 31.2413 9.41371Z" fill="#936F45"/>
<path d="M20.1779 34.9584C20.8697 34.9584 21.5614 34.9337 22.2532 34.9584C22.945 35.0079 23.3403 35.4772 23.5626 36.0949C23.785 36.7372 23.7603 37.3796 23.5379 38.022C23.2909 38.6643 22.8214 39.0349 22.1297 39.0843C21.5614 39.1337 20.9932 39.1337 20.425 39.1337C20.3509 39.1337 20.2026 39.0349 20.2026 38.9608C20.2026 37.6267 20.2026 36.2925 20.2026 34.9337L20.1779 34.9584ZM20.7461 38.6643C21.2403 38.6643 21.7097 38.6643 22.1544 38.5902C22.6485 38.5161 22.945 38.1949 23.0191 37.7255C23.0685 37.3549 23.0932 36.9596 23.0685 36.5643C23.0438 36.1443 22.8709 35.749 22.4509 35.5761C21.8826 35.329 21.2897 35.4525 20.7461 35.4772V38.689V38.6643Z" fill="#936F45"/>
<path d="M18.8361 36.0709C18.7867 37.1333 18.1691 38.418 16.7361 38.418C15.5749 38.418 14.6361 37.5039 14.6608 36.3674C14.6608 35.1074 15.6244 34.045 16.7114 34.045C17.922 34.045 18.8361 34.9098 18.8361 36.0709ZM18.2432 36.2933C18.2679 35.3051 17.922 34.811 17.2302 34.6133C16.5632 34.4157 15.9455 34.638 15.6243 35.2803C15.4514 35.6015 15.3279 35.9721 15.2785 36.3427C15.1796 36.9604 15.5008 37.5039 16.0444 37.7757C16.662 38.0721 17.2549 37.9733 17.6996 37.5039C18.0949 37.0839 18.2432 36.5898 18.2679 36.2933H18.2432Z" fill="#936F45"/>
<path d="M12.3117 7.681C12.3117 6.59394 13.2258 5.67981 14.387 5.67981C15.4741 5.67981 16.5117 6.79159 16.5117 8.02688C16.5117 9.11394 15.5976 10.0033 14.4611 10.0281C13.2999 10.0281 12.3364 8.99041 12.3117 7.65629V7.681ZM14.4858 9.58334C15.3258 9.55864 15.9682 8.94099 15.9435 8.1504C15.9435 7.43393 15.6223 6.81629 15.0046 6.42099C14.2882 5.92688 13.1517 6.37158 12.9046 7.21158C12.6823 7.97746 13.2258 9.13863 13.967 9.45981C14.1399 9.53392 14.3129 9.55864 14.4858 9.60806V9.58334Z" fill="#936F45"/>
<path d="M27.6106 5.22015C28.5494 5.66485 29.4635 6.08485 30.4024 6.52955C30.3282 6.7025 30.2541 6.82603 30.18 6.97426C29.4141 6.60367 28.6729 6.25778 27.9071 5.8872C27.7341 6.25778 27.5612 6.62837 27.3635 7.02367C28.08 7.36955 28.7718 7.71543 29.4882 8.06131C29.4141 8.20954 29.34 8.35778 29.2659 8.50601C28.5494 8.18484 27.8577 7.83897 27.1412 7.51779C26.9435 7.93779 26.7459 8.33308 26.5235 8.77778C27.3141 9.14837 28.08 9.51896 28.8706 9.91425C28.7965 10.0625 28.7471 10.186 28.673 10.359C27.7094 9.91425 26.7706 9.46956 25.7823 9.00014C26.3753 7.74014 26.9682 6.48014 27.5859 5.19543L27.6106 5.22015Z" fill="#936F45"/>
<path d="M20.3773 5.28914C20.1056 5.38797 19.8832 5.51149 19.6856 5.09149C19.6114 4.94326 19.3397 4.79501 19.1667 4.79501C18.8209 4.79501 18.475 4.86913 18.1538 4.96795C17.9067 5.04207 17.7832 5.26443 17.8079 5.5362C17.8326 5.80796 18.0303 5.98091 18.302 6.00562C18.722 6.05503 19.142 6.07972 19.562 6.12913C20.2538 6.20325 20.6244 6.47502 20.7726 7.01855C20.8714 7.38914 20.7726 7.71032 20.5503 8.00679C20.0067 8.69855 18.5738 8.84679 17.882 8.30326C17.6103 8.08091 17.462 7.80914 17.4373 7.46325C17.7091 7.36443 17.9067 7.29032 18.0797 7.66091C18.2773 8.08091 18.8456 8.22914 19.4138 8.0809C19.5867 8.03149 19.7597 7.98208 19.9079 7.90796C20.155 7.75973 20.3032 7.53738 20.2538 7.24091C20.2044 6.94444 20.0067 6.79619 19.735 6.74678C19.2656 6.67266 18.7714 6.64796 18.302 6.57384C17.6597 6.47502 17.3385 6.15384 17.2891 5.61031C17.2397 5.11619 17.5115 4.67149 18.0797 4.47384C18.4503 4.35031 18.8703 4.3009 19.2656 4.3009C19.8338 4.3009 20.2538 4.7456 20.3526 5.31384L20.3773 5.28914Z" fill="#936F45"/>
<path d="M22.5133 6.38829C22.4145 7.05535 22.3157 7.69771 22.2169 8.34006C22.0192 8.31536 21.871 8.29065 21.6486 8.24124C21.8463 6.85771 22.0439 5.49889 22.2416 4.11536C22.4145 4.11536 22.5874 4.11536 22.8098 4.14007C22.7357 4.73301 22.6616 5.27653 22.5874 5.86947C23.3286 5.9683 24.0451 6.06713 24.7616 6.19066C24.8357 5.59772 24.9345 5.0789 25.0086 4.51066C25.2063 4.53537 25.3792 4.56007 25.5769 4.58477C25.3792 5.9683 25.1816 7.35183 24.9839 8.71065C24.9345 8.71065 24.8851 8.73536 24.8604 8.71065C24.4157 8.66124 24.4157 8.66124 24.4898 8.19183C24.5639 7.69771 24.6133 7.17888 24.6875 6.66006C23.9463 6.56124 23.2298 6.46242 22.5133 6.3636V6.38829Z" fill="#936F45"/>
<path d="M10.2694 10.8626C10.2694 11.1343 10.22 11.4061 10.22 11.6779C10.22 11.7767 10.2941 11.9002 10.3682 11.999C10.64 12.2708 10.9365 12.5426 11.2576 12.839C11.0847 13.012 10.9859 13.1355 10.8377 13.2838C9.84942 12.2708 8.88588 11.2826 7.89764 10.2696C8.04588 10.1214 8.16941 10.0226 8.26824 9.89905C8.73765 10.3685 9.23177 10.8132 9.72588 11.3073C9.72588 11.2085 9.72588 11.1343 9.72588 11.0602C9.72588 10.2202 9.72587 9.40493 9.79999 8.56493C9.79999 8.31787 10.0718 8.12023 10.22 7.87317C10.2694 7.87317 10.2941 7.89787 10.3435 7.92257C10.3188 8.68845 10.2694 9.47904 10.2447 10.2943C11.2576 10.4673 12.2459 10.6155 13.2588 10.7885C13.0118 11.2332 12.8388 11.332 12.3447 11.2332C11.6529 11.1096 10.9612 10.9861 10.2447 10.8379L10.2694 10.8626Z" fill="#936F45"/>
<path d="M8.02257 29.7775C7.62727 30.0493 7.25669 30.2716 6.93551 30.5434C6.66375 30.7657 6.51551 30.7163 6.39198 30.4446C6.39198 30.3951 6.34256 30.3704 6.29315 30.2963C7.42962 29.5057 8.5661 28.6904 9.75198 27.8751C10.1967 28.5669 10.6661 29.2093 11.0367 29.901C11.2837 30.321 11.0861 30.8646 10.6908 31.1857C10.2461 31.5563 9.72727 31.6551 9.30727 31.3587C9.03551 31.161 8.81315 30.914 8.5908 30.6422C8.36845 30.3951 8.22022 30.0987 7.99786 29.7775H8.02257ZM8.41786 29.481C8.41786 29.481 8.49198 29.5798 8.51669 29.6293C8.78845 29.9998 9.03551 30.3951 9.35669 30.7163C9.62845 31.0128 9.99905 30.9881 10.3202 30.7163C10.6414 30.4446 10.6908 30.1728 10.4437 29.8022C10.2214 29.4563 9.99904 29.1351 9.77669 28.814C9.67787 28.641 9.57904 28.6657 9.4308 28.7645C9.10962 29.0116 8.76374 29.234 8.41786 29.5057V29.481Z" fill="#936F45"/>
<path d="M27.1173 33.8148C27.6362 33.5677 27.6362 33.5677 27.8091 34.0618C28.0809 34.8771 28.3773 35.6924 28.6244 36.5324C28.7726 37.0759 28.575 37.5453 28.1303 37.8665C27.6856 38.1877 27.1915 38.3359 26.6726 38.3359C26.0797 38.3359 25.7338 37.99 25.5115 37.4959C25.2644 36.9524 25.0915 36.3841 24.8691 35.8406C24.7456 35.4947 24.6221 35.1241 24.4738 34.7536C24.6468 34.6794 24.8197 34.63 24.9926 34.5312C25.215 35.1489 25.4374 35.7665 25.6597 36.3842C25.7585 36.6559 25.8573 36.9524 25.9809 37.2241C26.2526 37.7924 26.6973 37.9653 27.2903 37.743C27.9573 37.4959 28.2044 37.1006 28.0068 36.483C27.8091 35.8406 27.562 35.1983 27.3644 34.5806C27.2903 34.3336 27.1915 34.0865 27.0926 33.8394L27.1173 33.8148Z" fill="#936F45"/>
<path d="M5.82196 18.9376C6.76079 18.9376 7.69961 18.9376 8.63843 18.9376C8.66314 18.9376 8.68785 18.9376 8.78667 18.9624C8.51491 19.4071 8.26785 19.8518 7.99608 20.3212C8.24314 20.7659 8.5149 21.2353 8.81137 21.7541C8.31726 21.7541 7.84785 21.7788 7.40314 21.7541C7.20549 21.7541 7.13138 21.8282 7.05726 21.9517C6.8102 22.3964 6.56314 22.8165 6.29137 23.3106C5.9949 22.7918 5.69844 22.2976 5.40197 21.7788H3.79608C3.94432 21.5071 4.06785 21.3094 4.16667 21.0871C4.2655 20.9141 4.33961 20.7659 4.43843 20.6176C4.46314 20.5682 4.58667 20.5929 4.66078 20.5682C4.66078 20.5929 4.68549 20.6176 4.7102 20.6423C4.61137 20.8894 4.53726 21.1365 4.41373 21.4329H6.95843C7.15608 21.1118 7.37844 20.7412 7.60079 20.3459C7.42785 20.0741 7.27961 19.7529 7.08196 19.4812C7.03255 19.407 6.90903 19.3082 6.8102 19.3082C6.51373 19.3082 6.21726 19.3082 5.92079 19.3082C5.82197 19.3082 5.74784 19.2094 5.67373 19.1847C5.72314 19.1353 5.77256 19.0612 5.79726 19.0118L5.82196 18.9376ZM6.29137 22.6188C6.46431 22.2976 6.63726 22.0259 6.78549 21.7541H5.79726C5.9702 22.0506 6.11843 22.2976 6.29137 22.6188ZM8.19373 19.2835H7.27961C7.62549 19.3823 7.60079 19.8024 7.84785 19.9753C7.97138 19.7529 8.0702 19.5306 8.21844 19.2835H8.19373ZM7.40314 21.3835H8.21844C8.0702 21.1118 7.92196 20.8647 7.79843 20.6423C7.6749 20.8894 7.55138 21.1118 7.42785 21.3835H7.40314Z" fill="#936F45"/>
<path d="M31.9588 31.7808C31.8599 31.929 31.7611 32.0773 31.6623 32.2255C31.5882 32.2008 31.5141 32.1514 31.44 32.1267C30.9211 31.9043 30.4764 32.0032 30.0811 32.3738C29.6858 32.7443 29.5623 33.2137 29.7105 33.7079C29.9082 34.3008 30.3035 34.7702 30.8223 35.0914C31.2917 35.3632 31.9094 35.2643 32.3541 34.869C32.7494 34.5232 32.8482 34.029 32.6505 33.4855C32.6505 33.4361 32.6011 33.3867 32.5764 33.2879C32.7494 33.2137 32.9223 33.1396 33.0705 33.0655C33.4164 33.7573 33.367 34.3996 32.8976 34.9679C32.1317 35.882 31.0941 36.0549 30.1553 35.3138C29.4882 34.7949 29.0188 34.1526 29.0929 33.2632C29.167 32.1267 30.6494 30.842 31.9341 31.7561L31.9588 31.7808Z" fill="#936F45"/>
<path d="M33.4173 27.6674C33.5655 27.7663 33.6891 27.8403 33.8373 27.9392C33.5902 28.3345 33.3432 28.7051 33.0714 29.1251C34.1091 29.7921 35.122 30.4592 36.1597 31.1509C36.0608 31.2992 35.962 31.4474 35.8632 31.6203C34.8255 30.9533 33.8126 30.2863 32.7502 29.5945C32.5032 29.9898 32.2561 30.3604 32.0091 30.7557C31.8608 30.6815 31.7373 30.5827 31.5891 30.4839C32.2067 29.5451 32.7996 28.6062 33.442 27.6427L33.4173 27.6674Z" fill="#936F45"/>
<path d="M5.81723 18.9609C5.81723 18.9609 5.71841 19.0844 5.6937 19.1338C5.52076 19.455 5.32311 19.7515 5.15017 20.0727C5.07605 20.1962 5.02664 20.2456 4.90311 20.1468C4.90311 20.1468 4.8784 20.0974 4.8537 20.0727C4.97723 19.8009 5.10075 19.5044 5.22428 19.2326C5.22428 19.2079 5.24899 19.1585 5.27369 19.1338C5.59487 18.5656 5.94076 18.0221 6.31135 17.4044C6.60782 17.8985 6.87958 18.368 7.15135 18.8374C6.87958 18.9609 6.73135 18.8373 6.63253 18.615C6.55841 18.442 6.43488 18.2691 6.31135 18.0468C6.13841 18.3679 5.99016 18.6644 5.84193 18.9362L5.81723 18.9609Z" fill="#936F45"/>
<path d="M4.83372 20.1053C4.83372 20.1053 4.85843 20.1547 4.88314 20.1794C5.08078 20.5747 5.30314 20.9453 5.5255 21.3406C5.25373 21.4147 5.1055 21.3406 5.00667 21.1183C4.93256 20.9453 4.80903 20.7971 4.73491 20.6489C4.73491 20.6241 4.7102 20.5994 4.6855 20.5747C4.38902 20.0559 4.11726 19.5371 3.79608 18.9689C4.2902 18.9689 4.7102 18.9689 5.1549 18.9689C5.20432 18.9689 5.22902 19.0924 5.27843 19.1665C5.27843 19.1912 5.25372 19.2406 5.22902 19.2653C4.95725 19.2653 4.6855 19.29 4.38903 19.3148C4.56197 19.6112 4.7102 19.8583 4.85844 20.1053H4.83372Z" fill="#936F45"/>
<path d="M20.1253 20.2071C19.4582 20.3307 19.2359 20.6024 19.2112 21.2695C19.1865 22.1095 19.4088 22.8506 19.9029 23.6165C20.1006 23.0977 20.2735 22.6036 20.4465 22.1342C20.6441 21.6401 20.8171 21.1213 21.0394 20.6271C21.1135 20.4295 21.1135 20.2812 20.9653 20.1083C20.4465 19.4907 20.4218 18.8977 20.8418 18.3542C20.9653 18.206 21.0394 18.1318 21.2371 18.2307C21.4841 18.3542 21.7806 18.4283 22.0524 18.5271C22.3735 18.6259 22.5712 18.8483 22.5959 19.1942C22.5959 19.5401 22.5959 19.886 22.5959 20.2318C22.5465 20.2318 22.5218 20.2813 22.4971 20.2566C21.9782 20.2072 21.83 20.5283 21.7065 20.9483C21.41 21.7883 21.0888 22.6036 20.7924 23.4436C20.7676 23.5177 20.7429 23.5918 20.7182 23.666C21.5088 24.0118 21.9288 23.913 22.3488 23.2213C22.9171 22.3071 23.4853 21.3683 24.0782 20.4295C23.8559 20.3307 23.6582 20.2319 23.4359 20.133C23.0653 19.9601 22.8923 19.6883 22.9418 19.293C22.9912 18.9471 23.1147 18.626 23.2382 18.3048C23.2382 18.2554 23.4359 18.206 23.5347 18.2307C23.8312 18.3048 24.1029 18.4283 24.3994 18.5271C24.8935 18.7001 25.0418 18.9224 25.0665 19.4907C25.0665 19.9848 24.9676 20.4542 24.7206 20.8989C23.9794 22.233 23.2629 23.5671 22.5465 24.9012C22.2253 25.5189 21.83 25.6919 21.1382 25.6177C20.6935 25.5683 20.2488 25.6177 19.8288 25.6177C19.4829 25.6177 19.31 25.4942 19.2359 25.173C18.9888 23.9624 18.7418 22.7766 18.5441 21.566C18.4947 21.2695 18.5441 20.9236 18.6182 20.6271C18.6429 20.4048 18.6182 20.2319 18.47 20.0589C18.0006 19.4907 18.0253 18.8977 18.47 18.3295C18.5194 18.2801 18.6429 18.2307 18.717 18.2554C19.0876 18.3789 19.4335 18.4777 19.7794 18.6507C19.9276 18.7248 20.1006 18.9224 20.1253 19.0954C20.1747 19.466 20.1253 19.8613 20.1253 20.2566V20.2071Z" fill="#936F45"/>
<path d="M26.1306 22.9564C25.933 22.2153 26.0812 21.6223 26.353 21.0294C26.5506 20.5847 26.6741 20.2388 26.3283 19.7694C25.9577 19.2999 26.18 18.6823 26.7236 18.1388C26.9212 18.5094 27.2424 18.5341 27.613 18.5341C28.2059 18.5341 28.7741 18.5341 29.3671 18.5341C30.0341 18.5341 30.38 18.7564 30.6271 19.3741C30.973 20.1894 31.0224 21.0541 30.9977 21.9435C30.9977 23.0058 30.8 24.0435 30.4047 25.0317C30.2071 25.5258 30.133 25.5753 29.6141 25.5753C28.5024 25.5753 27.3906 25.5753 26.2541 25.5753C25.7353 25.5753 25.6859 25.5011 25.7847 25.007C25.9824 23.8706 26.0565 23.8211 27.2177 23.8211C27.8353 23.8211 28.4777 23.8211 29.0953 23.7717C29.6636 23.7223 30.0341 23.3764 30.0836 22.8082C30.133 22.2647 30.133 21.6964 30.0836 21.1282C30.0589 20.6341 29.7377 20.387 29.2436 20.387C28.6753 20.387 28.1071 20.4364 27.5141 20.4364C27.2671 20.4364 27.1188 20.6093 27.0941 20.807C27.0941 21.0293 27.2177 21.1529 27.44 21.2023C28.1071 21.3752 28.5024 22.1658 28.28 22.8576C28.2306 23.0305 27.9836 23.1047 27.7859 22.9811C27.6377 22.8823 27.5141 22.7835 27.4153 22.6599C27.2177 22.4376 26.9953 22.4623 26.773 22.6106C26.5753 22.7341 26.353 22.8329 26.1059 22.9811L26.1306 22.9564Z" fill="#936F45"/>
<path d="M15.7552 20.2116C15.0881 20.1869 14.3717 20.1621 13.6552 20.1127C13.2599 20.1127 12.8646 20.0633 12.4693 19.9892C12.0493 19.9151 11.8269 19.6433 11.8517 19.1986C11.8517 18.8774 11.9505 18.5316 12.0246 18.1857C13.4081 18.5068 14.767 18.4574 16.1258 18.4574C16.5211 18.4574 16.6693 18.6304 16.6446 19.0257C16.6199 19.4951 16.5458 19.9892 16.5211 20.4586C16.4717 21.2245 16.4469 21.9904 16.4469 22.7563C16.4469 23.3986 16.4469 24.041 16.4222 24.6833C16.3975 25.2516 16.1258 25.4492 15.5328 25.4492C15.5328 25.4492 15.4834 25.3998 15.4834 25.3751C15.4834 24.1892 15.434 22.9786 15.4834 21.7927C15.4834 21.2739 15.6564 20.7551 15.7799 20.1868L15.7552 20.2116Z" fill="#936F45"/>
<path d="M21.3615 2.59817C31.7874 2.59817 40.2615 11.0723 40.2615 21.4982C40.2615 31.9241 31.7874 40.3982 21.3615 40.3982C10.9356 40.3982 2.46151 31.9241 2.46151 21.4982C2.46151 11.0723 10.9356 2.59817 21.3615 2.59817ZM21.3615 0.498169C9.77444 0.498169 0.361511 9.91113 0.361511 21.4982C0.361511 33.0853 9.77444 42.4982 21.3615 42.4982C32.9486 42.4982 42.3615 33.0853 42.3615 21.4982C42.3615 9.91113 32.9486 0.498169 21.3615 0.498169Z" fill="#936F45"/>
</svg>
