<svg viewBox="0 0 43 43" fill="none" xmlns="http://www.w3.org/2000/svg">
<g clip-path="url(#clip0_4019_42060)">
<path d="M21.783 0.71106C10.3212 0.71106 0.992966 10.0351 0.992966 21.5011C0.992966 32.9671 10.317 42.2911 21.783 42.2911C33.249 42.2911 42.573 32.9629 42.573 21.5011C42.573 10.0393 33.2448 0.71106 21.783 0.71106ZM21.783 40.0651C17.1126 40.0651 12.8496 38.3179 9.58197 35.4577L13.5468 31.4887C13.9836 31.0519 13.9836 30.3505 13.5468 29.9137C13.11 29.4769 12.4086 29.4769 11.9718 29.9137L7.99857 33.8911C5.03757 30.6025 3.21897 26.2639 3.21897 21.5011C3.21897 11.2657 11.5476 2.93706 21.783 2.93706C26.5458 2.93706 30.8802 4.75566 34.173 7.71666L30.2712 11.6227C29.8344 12.0595 29.8344 12.7609 30.2712 13.1977C30.4896 13.4161 30.7752 13.5253 31.0566 13.5253C31.338 13.5253 31.6278 13.4161 31.842 13.1977L35.7354 9.30006C38.5956 12.5677 40.3428 16.8265 40.3428 21.5011C40.3428 31.7365 32.0142 40.0651 21.7788 40.0651H21.783Z" fill="#936F45"/>
<path d="M21.7851 10.545L21.3903 10.7256L11.6631 15.102L11.3439 15.2364C11.1885 15.3036 11.0877 15.4548 11.0877 15.6228V27.4374C11.0877 27.5886 11.1675 27.7272 11.3019 27.8028L11.5749 27.954L21.3021 33.3636L21.5835 33.5232C21.7095 33.5946 21.8691 33.5946 21.9951 33.5232L22.2765 33.3636L32.0037 27.954L32.2767 27.8028C32.4069 27.7272 32.4909 27.5886 32.4909 27.4374V15.6228C32.4909 15.4548 32.3901 15.2994 32.2347 15.2364L31.9155 15.102L22.1883 10.7256L21.7935 10.545H21.7851ZM21.9573 12.75L28.4547 15.6564C28.7781 15.7992 28.7865 16.257 28.4715 16.4166L21.9741 19.6632C21.8565 19.722 21.7179 19.722 21.6003 19.6632L15.1029 16.4166C14.7879 16.257 14.7963 15.8034 15.1197 15.6564L21.6171 12.75C21.7263 12.6996 21.8523 12.6996 21.9615 12.75H21.9573ZM13.6413 17.8698L20.5839 21.339C20.7267 21.4104 20.8149 21.5574 20.8149 21.7128V30.1338C20.8149 30.453 20.4705 30.6546 20.1891 30.4992L13.2465 26.6478C13.1121 26.5722 13.0323 26.4336 13.0323 26.2824V18.2436C13.0323 17.9328 13.3599 17.727 13.6413 17.8698ZM30.5379 18.2436V26.2824C30.5379 26.4336 30.4539 26.5764 30.3237 26.6478L23.3811 30.4992C23.0997 30.6546 22.7553 30.453 22.7553 30.1338V21.7128C22.7553 21.5532 22.8435 21.4062 22.9863 21.339L29.9289 17.8698C30.2061 17.7312 30.5379 17.9328 30.5379 18.2436Z" fill="#936F45"/>
</g>
<defs>
<clipPath id="clip0_4019_42060">
<rect width="42" height="42" fill="white" transform="translate(0.785934 0.498169)"/>
</clipPath>
</defs>
</svg>
