<svg width="20" height="20" viewBox="0 0 20 20" fill="none" xmlns="http://www.w3.org/2000/svg">
<g clip-path="url(#clip0_4781_56017)">
<path d="M19.7556 13.6034C19.5993 13.4471 19.3874 13.3594 19.1664 13.3594C18.9455 13.3594 18.7335 13.4471 18.5773 13.6034L13.8881 18.2934L11.6481 16.0825C11.4934 15.924 11.282 15.8333 11.0605 15.8306C10.839 15.8279 10.6254 15.9132 10.4668 16.0679C10.3083 16.2227 10.2176 16.434 10.2149 16.6556C10.2122 16.8771 10.2976 17.0906 10.4523 17.2492L12.7389 19.4992C12.8824 19.6538 13.0556 19.7779 13.2482 19.8638C13.4408 19.9497 13.6489 19.9958 13.8598 19.9992H13.8873C14.094 19.9999 14.2988 19.9595 14.4897 19.8804C14.6807 19.8013 14.8541 19.685 14.9998 19.5384L19.7556 14.7817C19.9118 14.6254 19.9996 14.4135 19.9996 14.1925C19.9996 13.9716 19.9118 13.7596 19.7556 13.6034V13.6034Z" fill="#2D2F36"/>
<path d="M9.24167 18.2987C7.63253 18.1516 6.10086 17.5399 4.8331 16.5381C3.56535 15.5362 2.61621 14.1874 2.10123 12.6558C1.58625 11.1242 1.52764 9.47598 1.93255 7.9117C2.33745 6.34741 3.1884 4.93459 4.3818 3.84522C5.5752 2.75584 7.05956 2.03692 8.65419 1.77597C10.2488 1.51501 11.8849 1.72329 13.3633 2.37543C14.8417 3.02758 16.0986 4.09546 16.981 5.44908C17.8634 6.8027 18.3333 8.38366 18.3333 9.9995C18.3333 10.2553 18.3208 10.5087 18.2992 10.7587C18.289 10.8679 18.3004 10.9781 18.333 11.0829C18.3655 11.1877 18.4183 11.2851 18.4886 11.3694C18.5588 11.4537 18.645 11.5234 18.7422 11.5743C18.8394 11.6252 18.9457 11.6564 19.055 11.6662C19.1642 11.6772 19.2745 11.6662 19.3795 11.634C19.4844 11.6017 19.5819 11.5489 19.6661 11.4785C19.7503 11.4081 19.8196 11.3215 19.87 11.224C19.9203 11.1264 19.9506 11.0198 19.9592 10.9103C19.9858 10.6078 20 10.3053 20 9.9995C19.9999 8.06043 19.436 6.16321 18.3771 4.53883C17.3181 2.91445 15.8097 1.63299 14.0356 0.850459C12.2614 0.0679328 10.298 -0.1819 8.3844 0.131377C6.4708 0.444655 4.68955 1.30753 3.25753 2.61494C1.82552 3.92236 0.804499 5.61791 0.318792 7.49517C-0.166914 9.37243 -0.0963565 11.3504 0.521875 13.1883C1.14011 15.0262 2.27934 16.6447 3.80088 17.8467C5.32241 19.0488 7.16061 19.7825 9.09167 19.9587H9.1675C9.38851 19.9685 9.60438 19.8901 9.76762 19.7408C9.93085 19.5915 10.0281 19.3834 10.0379 19.1624C10.0478 18.9414 9.96939 18.7255 9.82006 18.5623C9.67073 18.3991 9.46268 18.3018 9.24167 18.292V18.2987Z" fill="#2D2F36"/>
<path d="M9.16648 5.83333V9.65499L6.91066 11.9108C6.83106 11.9877 6.76758 12.0796 6.72391 12.1813C6.68023 12.283 6.65724 12.3923 6.65628 12.503C6.65532 12.6136 6.6764 12.7234 6.71831 12.8258C6.76021 12.9282 6.82208 13.0212 6.90033 13.0995C6.97857 13.1777 7.07161 13.2396 7.17403 13.2815C7.27644 13.3234 7.38617 13.3445 7.49682 13.3435C7.60747 13.3426 7.71682 13.3196 7.81849 13.2759C7.92016 13.2322 8.01211 13.1687 8.08899 13.0892L10.589 10.5892C10.7453 10.4329 10.8331 10.221 10.8331 9.99999V5.83333C10.8331 5.61232 10.7453 5.40036 10.5891 5.24408C10.4328 5.0878 10.2208 5 9.99981 5C9.7788 5 9.56684 5.0878 9.41056 5.24408C9.25428 5.40036 9.16648 5.61232 9.16648 5.83333V5.83333Z" fill="#2D2F36"/>
</g>
<defs>
<clipPath id="clip0_4781_56017">
<rect width="20" height="20" fill="white"/>
</clipPath>
</defs>
</svg>
