<svg width="17" height="17" viewBox="0 0 17 17" fill="none" xmlns="http://www.w3.org/2000/svg">
<path d="M12.8511 8.2988C12.8477 7.93492 12.7011 7.58702 12.443 7.33049L9.47582 4.3564C9.34623 4.22758 9.17093 4.15527 8.98821 4.15527C8.80548 4.15527 8.63018 4.22758 8.50059 4.3564C8.43577 4.4207 8.38431 4.4972 8.3492 4.58148C8.31408 4.66576 8.296 4.75617 8.296 4.84747C8.296 4.93878 8.31408 5.02918 8.3492 5.11346C8.38431 5.19775 8.43577 5.27424 8.50059 5.33854L10.7761 7.60715H3.85962C3.67618 7.60715 3.50026 7.68002 3.37055 7.80973C3.24084 7.93944 3.16797 8.11537 3.16797 8.2988C3.16797 8.48224 3.24084 8.65816 3.37055 8.78787C3.50026 8.91758 3.67618 8.99045 3.85962 8.99045H10.7761L8.50059 11.266C8.37035 11.3953 8.29682 11.5711 8.29617 11.7546C8.29552 11.9381 8.36781 12.1144 8.49714 12.2447C8.62646 12.3749 8.80222 12.4484 8.98576 12.4491C9.1693 12.4497 9.34558 12.3774 9.47582 12.2481L12.443 9.27403C12.7028 9.0158 12.8495 8.66508 12.8511 8.2988Z" fill="#2D2F36"/>
</svg>