<svg width="41" height="100" viewBox="0 0 41 100" fill="none" xmlns="http://www.w3.org/2000/svg">
    <path d="M40.8576 48.1523H0.164062V53.0034H40.8576V48.1523Z" fill="#2D2F36"/>
    <path d="M20.5132 40.6552C31.5897 40.6552 40.6025 31.6425 40.6025 20.5659C40.6025 9.48931 31.5897 0.476562 20.5132 0.476562C9.43659 0.476562 0.423828 9.48931 0.423828 20.5659C0.423828 31.6425 9.43659 40.6552 20.5132 40.6552ZM5.27063 20.5659C5.27063 12.1616 12.1089 5.32762 20.5089 5.32762C28.9089 5.32762 35.7472 12.1659 35.7472 20.5659C35.7472 28.9659 28.9089 35.8042 20.5089 35.8042C12.1089 35.8042 5.27063 28.9659 5.27063 20.5659Z" fill="#2D2F36"/>
    <path d="M22.8825 60.8594H18.0059V77.0976H22.8825V60.8594Z" fill="#2D2F36"/>
    <path d="M22.8825 83.2852H18.0059V99.5234H22.8825V83.2852Z" fill="#2D2F36"/>
    <path d="M4.72555 68.6977L2.36133 72.9629L16.5636 80.8354L18.9279 76.5702L4.72555 68.6977Z" fill="#2D2F36"/>
    <path d="M24.3388 79.5669L21.9746 83.832L36.1769 91.7045L38.5411 87.4394L24.3388 79.5669Z" fill="#2D2F36"/>
    <path d="M36.1691 68.6803L21.9668 76.5527L24.331 80.8179L38.5333 72.9454L36.1691 68.6803Z" fill="#2D2F36"/>
    <path d="M16.5558 79.5533L2.35352 87.4258L4.71773 91.6909L18.92 83.8185L16.5558 79.5533Z" fill="#2D2F36"/>
    </svg>
    