<svg viewBox="0 0 17 17" xmlns="http://www.w3.org/2000/svg">
<path d="M12.9735 5.97308C12.9116 5.91059 12.8378 5.861 12.7566 5.82715C12.6753 5.7933 12.5882 5.77588 12.5002 5.77588C12.4122 5.77588 12.3251 5.7933 12.2438 5.82715C12.1626 5.861 12.0888 5.91059 12.0269 5.97308L8.97354 9.0264C8.91156 9.08889 8.83783 9.13849 8.75659 9.17233C8.67535 9.20618 8.58821 9.2236 8.5002 9.2236C8.4122 9.2236 8.32506 9.20618 8.24382 9.17233C8.16258 9.13849 8.08885 9.08889 8.02687 9.0264L4.97354 5.97308C4.91156 5.91059 4.83783 5.861 4.75659 5.82715C4.67535 5.7933 4.58821 5.77588 4.5002 5.77588C4.41219 5.77588 4.32506 5.7933 4.24382 5.82715C4.16258 5.861 4.08884 5.91059 4.02687 5.97308C3.9027 6.09799 3.83301 6.26695 3.83301 6.44308C3.83301 6.6192 3.9027 6.78817 4.02687 6.91308L7.08687 9.97307C7.46187 10.3476 7.9702 10.558 8.5002 10.558C9.03021 10.558 9.53854 10.3476 9.91354 9.97307L12.9735 6.91308C13.0977 6.78817 13.1674 6.6192 13.1674 6.44308C13.1674 6.26695 13.0977 6.09799 12.9735 5.97308Z" fill="currentColor"/>
</svg>
