<svg viewBox="0 0 28 28" fill="none" xmlns="http://www.w3.org/2000/svg">
<path d="M10.0114 16.4385L15.355 21.7821C15.5731 21.9989 15.8682 22.1206 16.1757 22.1206C16.4833 22.1206 16.7783 21.9989 16.9965 21.7821C17.1056 21.6738 17.1922 21.5451 17.2513 21.4032C17.3104 21.2614 17.3408 21.1092 17.3408 20.9555C17.3408 20.8018 17.3104 20.6497 17.2513 20.5078C17.1922 20.3659 17.1056 20.2372 16.9965 20.1289L11.6412 14.797C11.5321 14.6888 11.4455 14.56 11.3864 14.4181C11.3273 14.2763 11.2969 14.1241 11.2969 13.9704C11.2969 13.8167 11.3273 13.6646 11.3864 13.5227C11.4455 13.3808 11.5321 13.2521 11.6412 13.1439L16.9965 7.81192C17.2157 7.59424 17.3394 7.2984 17.3405 6.98947C17.3416 6.68054 17.22 6.38382 17.0023 6.16461C16.7846 5.94539 16.4888 5.82162 16.1798 5.82052C15.8709 5.81943 15.5742 5.94111 15.355 6.15879L10.0114 11.5024C9.35734 12.1572 8.98998 13.0449 8.98998 13.9704C8.98998 14.896 9.35734 15.7836 10.0114 16.4385V16.4385Z" fill="#2D2F36"/>
</svg>
