<svg viewBox="0 0 16 16" xmlns="http://www.w3.org/2000/svg">
<path d="M10.2665 6.58663L7.20654 3.52663C7.08163 3.40246 6.91266 3.33276 6.73653 3.33276C6.56041 3.33276 6.39144 3.40246 6.26653 3.52663C6.20405 3.5886 6.15445 3.66233 6.12061 3.74357C6.08676 3.82481 6.06934 3.91195 6.06934 3.99996C6.06934 4.08797 6.08676 4.1751 6.12061 4.25634C6.15445 4.33758 6.20405 4.41132 6.26653 4.47329L9.3332 7.52663C9.39569 7.5886 9.44528 7.66234 9.47913 7.74358C9.51298 7.82481 9.5304 7.91195 9.5304 7.99996C9.5304 8.08797 9.51298 8.1751 9.47913 8.25634C9.44528 8.33758 9.39569 8.41132 9.3332 8.47329L6.26653 11.5266C6.141 11.6513 6.07012 11.8207 6.0695 11.9976C6.06887 12.1745 6.13855 12.3444 6.2632 12.47C6.38785 12.5955 6.55727 12.6664 6.73418 12.667C6.91109 12.6676 7.081 12.5979 7.20654 12.4733L10.2665 9.41329C10.6411 9.03829 10.8514 8.52996 10.8514 7.99996C10.8514 7.46996 10.6411 6.96163 10.2665 6.58663V6.58663Z" fill="currentColor"/>
</svg>
