<svg viewBox="0 0 16 16" fill="none" xmlns="http://www.w3.org/2000/svg">
<path d="M11.9999 4.19983C11.8749 4.07485 11.7053 4.00464 11.5285 4.00464C11.3518 4.00464 11.1822 4.07485 11.0572 4.19983L7.99988 7.25716L4.94255 4.19983C4.81753 4.07485 4.64799 4.00464 4.47121 4.00464C4.29444 4.00464 4.1249 4.07485 3.99988 4.19983C3.8749 4.32485 3.80469 4.49439 3.80469 4.67116C3.80469 4.84794 3.8749 5.01748 3.99988 5.1425L7.05721 8.19983L3.99988 11.2572C3.8749 11.3822 3.80469 11.5517 3.80469 11.7285C3.80469 11.9053 3.8749 12.0748 3.99988 12.1998C4.1249 12.3248 4.29444 12.395 4.47121 12.395C4.64799 12.395 4.81753 12.3248 4.94255 12.1998L7.99988 9.1425L11.0572 12.1998C11.1822 12.3248 11.3518 12.395 11.5285 12.395C11.7053 12.395 11.8749 12.3248 11.9999 12.1998C12.1249 12.0748 12.1951 11.9053 12.1951 11.7285C12.1951 11.5517 12.1249 11.3822 11.9999 11.2572L8.94254 8.19983L11.9999 5.1425C12.1249 5.01748 12.1951 4.84794 12.1951 4.67116C12.1951 4.49439 12.1249 4.32485 11.9999 4.19983Z" fill="#2D2F36"/>
</svg>
