<svg  viewBox="0 0 32 32" fill="none" xmlns="http://www.w3.org/2000/svg">
<rect x="0.5" y="0.5" width="31" height="31" rx="15.5" stroke="#2D2F36"/>
<g clip-path="url(#clip0_1446_33115)">
<path d="M20.9497 20.1249L16.825 16.0001L20.9497 11.8753C21.0591 11.7659 21.1206 11.6175 21.1206 11.4628C21.1206 11.3081 21.0591 11.1597 20.9497 11.0503V11.0503C20.8404 10.9409 20.692 10.8795 20.5373 10.8795C20.3826 10.8795 20.2342 10.9409 20.1248 11.0503L16 15.1751L11.8752 11.0503C11.7658 10.9409 11.6174 10.8795 11.4627 10.8795C11.308 10.8795 11.1596 10.9409 11.0503 11.0503V11.0503C10.9409 11.1597 10.8794 11.3081 10.8794 11.4628C10.8794 11.6175 10.9409 11.7659 11.0503 11.8753L15.175 16.0001L11.0503 20.1249C10.9409 20.2343 10.8794 20.3826 10.8794 20.5373C10.8794 20.6921 10.9409 20.8404 11.0503 20.9498C11.1596 21.0592 11.308 21.1207 11.4627 21.1207C11.6174 21.1207 11.7658 21.0592 11.8752 20.9498L16 16.825L20.1248 20.9498C20.2342 21.0592 20.3826 21.1207 20.5373 21.1207C20.692 21.1207 20.8404 21.0592 20.9497 20.9498C21.0591 20.8404 21.1206 20.6921 21.1206 20.5373C21.1206 20.3826 21.0591 20.2343 20.9497 20.1249Z" fill="#2D2F36"/>
</g>
<defs>
<clipPath id="clip0_1446_33115">
<rect width="14" height="14" fill="white" transform="translate(16 6.10059) rotate(45)"/>
</clipPath>
</defs>
</svg>
