<svg fill="none" viewBox="0 0 15.1836 15.1836" xmlns="http://www.w3.org/2000/svg">
<g clip-path="url(#clip0_1007_11377)">
<path d="M14.9986 0.593923C14.8799 0.475319 14.7191 0.408691 14.5513 0.408691C14.3835 0.408691 14.2227 0.475319 14.104 0.593923L7.59215 7.10579L1.08029 0.593923C0.961647 0.475319 0.800759 0.408691 0.633003 0.408691C0.465247 0.408691 0.304359 0.475319 0.18572 0.593923C0.067116 0.712562 0.000488281 0.87345 0.000488281 1.04121C0.000488281 1.20896 0.067116 1.36985 0.18572 1.48849L6.69758 8.00035L0.18572 14.5122C0.067116 14.6309 0.000488281 14.7917 0.000488281 14.9595C0.000488281 15.1273 0.067116 15.2881 0.18572 15.4068C0.304359 15.5254 0.465247 15.592 0.633003 15.592C0.800759 15.592 0.961647 15.5254 1.08029 15.4068L7.59215 8.89492L14.104 15.4068C14.2227 15.5254 14.3835 15.592 14.5513 15.592C14.7191 15.592 14.8799 15.5254 14.9986 15.4068C15.1172 15.2881 15.1838 15.1273 15.1838 14.9595C15.1838 14.7917 15.1172 14.6309 14.9986 14.5122L8.48672 8.00035L14.9986 1.48849C15.1172 1.36985 15.1838 1.20896 15.1838 1.04121C15.1838 0.87345 15.1172 0.712562 14.9986 0.593923Z" fill="#222221"/>
</g>
<defs>
<clipPath id="clip0_1007_11377">
<rect width="15.1836" height="15.1836" fill="white" transform="translate(0 0.408203)"/>
</clipPath>
</defs>
</svg>
