<svg width="39" height="38" viewBox="0 0 39 38" fill="none" xmlns="http://www.w3.org/2000/svg">
<path d="M19.0933 0C8.60062 0 0.0654297 8.52268 0.0654297 19C0.0654297 29.4773 8.60062 38 19.0933 38C29.5861 38 38.1213 29.4773 38.1213 19C38.1213 8.52268 29.5861 0 19.0933 0ZM19.0933 35.9638C14.6365 35.9638 10.586 34.2278 7.55229 31.4135L11.3709 27.6005C11.7698 27.2022 11.7698 26.5592 11.3709 26.1609C10.9719 25.7626 10.3281 25.7626 9.92915 26.1609L6.13656 29.9479C3.6261 26.9891 2.10275 23.1705 2.10275 18.9981C2.10275 9.64359 9.72505 2.03432 19.0915 2.03432C23.27 2.03432 27.0942 3.55545 30.0574 6.06223L25.5541 10.5588C25.1552 10.9572 25.1552 11.6001 25.5541 11.9984C25.7527 12.1967 26.0143 12.2967 26.274 12.2967C26.5338 12.2967 26.7954 12.1967 26.994 11.9984L31.5232 7.47588C34.3417 10.5051 36.0802 14.5478 36.0802 19C36.0802 28.3546 28.4579 35.9638 19.0915 35.9638H19.0933Z" fill="url(#paint0_linear_1915_37885)"/>
<path d="M22.0565 10.2625V17.1584C22.0045 17.1733 21.9526 17.1899 21.9025 17.2085C21.2939 17.4215 20.7354 17.7773 20.1954 18.1404C20.3327 18.196 20.4682 18.2516 20.6036 18.3072C21.0174 18.4776 21.4479 18.6555 21.8746 18.7889C21.934 18.8074 21.9952 18.8259 22.0583 18.8426V19.6893C21.8932 19.6486 21.7336 19.6041 21.5796 19.5541C21.1213 19.4095 20.676 19.2261 20.2455 19.0483C19.8819 18.8963 19.5293 18.7518 19.1731 18.6314C19.1545 18.6258 19.136 18.6203 19.1193 18.6129C18.9319 18.548 18.7426 18.4924 18.5496 18.4461C17.7443 18.246 16.8797 18.2331 16.0299 18.4072V10.2588H15.2246V27.2467C15.2246 29.3514 16.9391 31.0615 19.045 31.0615C21.151 31.0615 22.8655 29.3514 22.8655 27.2467V10.2588H22.0602L22.0565 10.2625Z" fill="url(#paint1_linear_1915_37885)"/>
<path d="M24.1939 8.19433C24.1939 8.53153 24.0622 8.84837 23.8228 9.08737C23.5834 9.32638 23.2662 9.45792 22.9285 9.45792H15.2635C14.5658 9.45792 13.998 8.89097 13.998 8.19433C13.998 7.85898 14.1298 7.54217 14.3691 7.30317C14.6085 7.06416 14.9258 6.93262 15.2635 6.93262H22.9285C23.6261 6.93262 24.1939 7.49955 24.1939 8.19433Z" fill="url(#paint2_linear_1915_37885)"/>
<defs>
<linearGradient id="paint0_linear_1915_37885" x1="9.57939" y1="0" x2="34.8984" y2="38.0343" gradientUnits="userSpaceOnUse">
<stop stop-color="#B9846F"/>
<stop offset="0.276451" stop-color="#EFD0B6"/>
<stop offset="1" stop-color="#B08271"/>
</linearGradient>
<linearGradient id="paint1_linear_1915_37885" x1="17.1348" y1="10.2588" x2="29.8349" y2="17.2559" gradientUnits="userSpaceOnUse">
<stop stop-color="#B9846F"/>
<stop offset="0.276451" stop-color="#EFD0B6"/>
<stop offset="1" stop-color="#B08271"/>
</linearGradient>
<linearGradient id="paint2_linear_1915_37885" x1="16.547" y1="6.93262" x2="17.1333" y2="10.4835" gradientUnits="userSpaceOnUse">
<stop stop-color="#B9846F"/>
<stop offset="0.276451" stop-color="#EFD0B6"/>
<stop offset="1" stop-color="#B08271"/>
</linearGradient>
</defs>
</svg>
