<svg width="15" height="16" viewBox="0 0 15 16" fill="none" xmlns="http://www.w3.org/2000/svg">
<g clip-path="url(#clip0_2317_5103)">
<path d="M15 10.7934V13.9184C15 14.4156 14.8025 14.8926 14.4508 15.2442C14.0992 15.5958 13.6223 15.7934 13.125 15.7934H10C9.12319 15.7925 8.26202 15.561 7.50291 15.1222C6.74379 14.6834 6.11341 14.0527 5.675 13.2934C6.14617 13.29 6.61573 13.238 7.07625 13.1384C7.42697 13.5769 7.87187 13.9309 8.37799 14.1741C8.88411 14.4173 9.43847 14.5435 10 14.5434H13.125C13.2908 14.5434 13.4497 14.4775 13.5669 14.3603C13.6842 14.2431 13.75 14.0841 13.75 13.9184V10.7934C13.7499 10.2316 13.6233 9.67714 13.3796 9.17101C13.136 8.66487 12.7815 8.22008 12.3425 7.86961C12.443 7.40918 12.4958 6.93961 12.5 6.46836C13.2593 6.90676 13.89 7.53715 14.3288 8.29627C14.7676 9.05538 14.9991 9.91654 15 10.7934ZM11.2356 6.82523C11.2941 6.02001 11.1785 5.21163 10.8968 4.45504C10.615 3.69845 10.1737 3.01137 9.60286 2.44049C9.03198 1.86962 8.34491 1.42832 7.58832 1.14658C6.83172 0.864846 6.02335 0.749279 5.21812 0.807732C3.7912 0.97069 2.47308 1.64972 1.51199 2.71695C0.550892 3.78418 0.013142 5.16596 0 6.60211L0 9.75211C0 11.3346 0.941875 12.0434 1.875 12.0434H5.4375C6.87425 12.031 8.25688 11.4936 9.32487 10.5325C10.3929 9.5713 11.0725 8.25274 11.2356 6.82523ZM8.71875 3.32523C9.16246 3.76992 9.50547 4.30473 9.72458 4.89347C9.94369 5.48222 10.0338 6.11116 9.98875 6.73773C9.85535 7.85253 9.31906 8.88012 8.48083 9.62707C7.6426 10.374 6.56024 10.7888 5.4375 10.7934H1.875C1.295 10.7934 1.25 9.99648 1.25 9.75211V6.60211C1.25521 5.47984 1.67041 4.39817 2.41745 3.56066C3.16449 2.72314 4.19187 2.18752 5.30625 2.05461C5.41 2.04711 5.51375 2.04336 5.6175 2.04336C6.19329 2.04282 6.76355 2.15575 7.29568 2.37571C7.82781 2.59566 8.31137 2.91831 8.71875 3.32523Z" fill="#2D2F36"/>
</g>
<defs>
<clipPath id="clip0_2317_5103">
<rect width="15" height="15" fill="white" transform="translate(0 0.792969)"/>
</clipPath>
</defs>
</svg>
