<svg viewBox="0 0 20 20" fill="none" xmlns="http://www.w3.org/2000/svg">
<g clip-path="url(#clip0_2445_17818)">
<path d="M12.1868 16.4932H4.07009C2.99414 16.4919 1.96262 16.064 1.20181 15.3031C0.440998 14.5423 0.0130076 13.5108 0.0117188 12.4349L0.0117188 4.31813C0.0130076 3.24218 0.440998 2.21067 1.20181 1.44986C1.96262 0.689045 2.99414 0.261054 4.07009 0.259766L12.1868 0.259766C13.2628 0.261054 14.2943 0.689045 15.0551 1.44986C15.8159 2.21067 16.2439 3.24218 16.2452 4.31813V12.4349C16.2439 13.5108 15.8159 14.5423 15.0551 15.3031C14.2943 16.064 13.2628 16.4919 12.1868 16.4932ZM4.07009 1.88311C3.42428 1.88311 2.80492 2.13966 2.34827 2.59631C1.89161 3.05297 1.63507 3.67233 1.63507 4.31813V12.4349C1.63507 13.0807 1.89161 13.7 2.34827 14.1567C2.80492 14.6133 3.42428 14.8699 4.07009 14.8699H12.1868C12.8326 14.8699 13.452 14.6133 13.9086 14.1567C14.3653 13.7 14.6218 13.0807 14.6218 12.4349V4.31813C14.6218 3.67233 14.3653 3.05297 13.9086 2.59631C13.452 2.13966 12.8326 1.88311 12.1868 1.88311H4.07009ZM19.4919 15.6816V5.12981C19.4919 4.91454 19.4064 4.70809 19.2542 4.55587C19.1019 4.40365 18.8955 4.31813 18.6802 4.31813C18.4649 4.31813 18.2585 4.40365 18.1063 4.55587C17.9541 4.70809 17.8685 4.91454 17.8685 5.12981V15.6816C17.8685 16.3274 17.612 16.9467 17.1553 17.4034C16.6987 17.86 16.0793 18.1166 15.4335 18.1166H4.88176C4.66649 18.1166 4.46004 18.2021 4.30782 18.3543C4.1556 18.5065 4.07009 18.713 4.07009 18.9283C4.07009 19.1435 4.1556 19.35 4.30782 19.5022C4.46004 19.6544 4.66649 19.7399 4.88176 19.7399H15.4335C16.5095 19.7386 17.541 19.3107 18.3018 18.5498C19.0626 17.789 19.4906 16.7575 19.4919 15.6816Z" fill="#2D2F36"/>
</g>
<defs>
<clipPath id="clip0_2445_17818">
<rect width="19.4802" height="19.4802" fill="white" transform="translate(0.0117188 0.259766)"/>
</clipPath>
</defs>
</svg>
