<svg width="17" height="18" viewBox="0 0 17 18" fill="none" xmlns="http://www.w3.org/2000/svg">
<g clip-path="url(#clip0_1446_30241)">
<path d="M7.79167 8.99976C7.97953 8.99976 8.1597 9.07438 8.29253 9.20722C8.42537 9.34006 8.5 9.52023 8.5 9.70809C8.5 9.89595 8.42537 10.0761 8.29253 10.209C8.1597 10.3418 7.97953 10.4164 7.79167 10.4164H5.66667C5.4788 10.4164 5.29864 10.3418 5.1658 10.209C5.03296 10.0761 4.95833 9.89595 4.95833 9.70809C4.95833 9.52023 5.03296 9.34006 5.1658 9.20722C5.29864 9.07438 5.4788 8.99976 5.66667 8.99976H7.79167ZM12.0417 6.87476C12.0417 6.68689 11.967 6.50673 11.8342 6.37389C11.7014 6.24105 11.5212 6.16642 11.3333 6.16642H5.66667C5.4788 6.16642 5.29864 6.24105 5.1658 6.37389C5.03296 6.50673 4.95833 6.68689 4.95833 6.87476C4.95833 7.06262 5.03296 7.24278 5.1658 7.37562C5.29864 7.50846 5.4788 7.58309 5.66667 7.58309H11.3333C11.5212 7.58309 11.7014 7.50846 11.8342 7.37562C11.967 7.24278 12.0417 7.06262 12.0417 6.87476ZM5.66667 4.74976H11.3333C11.5212 4.74976 11.7014 4.67513 11.8342 4.54229C11.967 4.40945 12.0417 4.22928 12.0417 4.04142C12.0417 3.85356 11.967 3.67339 11.8342 3.54056C11.7014 3.40772 11.5212 3.33309 11.3333 3.33309H5.66667C5.4788 3.33309 5.29864 3.40772 5.1658 3.54056C5.03296 3.67339 4.95833 3.85356 4.95833 4.04142C4.95833 4.22928 5.03296 4.40945 5.1658 4.54229C5.29864 4.67513 5.4788 4.74976 5.66667 4.74976ZM14.1667 14.2726V16.9876C14.1667 17.0887 14.1368 17.1875 14.0807 17.2715C14.0246 17.3555 13.9448 17.421 13.8514 17.4597C13.7581 17.4984 13.6554 17.5085 13.5563 17.4888C13.4572 17.469 13.3661 17.4204 13.2947 17.3489L12.75 16.8049L12.2053 17.3489C12.1339 17.4204 12.0428 17.469 11.9437 17.4888C11.8446 17.5085 11.7419 17.4984 11.6486 17.4597C11.5552 17.421 11.4754 17.3555 11.4193 17.2715C11.3632 17.1875 11.3333 17.0887 11.3333 16.9876V14.2726C10.7931 13.9622 10.3707 13.4819 10.1319 12.9065C9.89304 12.331 9.8512 11.6928 10.0129 11.0911C10.1745 10.4894 10.5306 9.95805 11.0257 9.57979C11.5207 9.20154 12.127 8.99761 12.75 8.99976C12.9894 9.00275 13.2275 9.03655 13.4583 9.10034V4.04142C13.4583 3.47784 13.2345 2.93734 12.8359 2.53882C12.4374 2.14031 11.8969 1.91642 11.3333 1.91642H5.66667C5.10308 1.91642 4.56258 2.14031 4.16406 2.53882C3.76555 2.93734 3.54167 3.47784 3.54167 4.04142V12.5414C3.54167 13.105 3.76555 13.6455 4.16406 14.044C4.56258 14.4425 5.10308 14.6664 5.66667 14.6664H9.20833C9.39619 14.6664 9.57636 14.741 9.7092 14.8739C9.84204 15.0067 9.91667 15.1869 9.91667 15.3748C9.91667 15.5626 9.84204 15.7428 9.7092 15.8756C9.57636 16.0085 9.39619 16.0831 9.20833 16.0831H5.66667C4.7277 16.082 3.82752 15.7085 3.16357 15.0445C2.49962 14.3806 2.12612 13.4804 2.125 12.5414V4.04142C2.12612 3.10246 2.49962 2.20228 3.16357 1.53833C3.82752 0.874381 4.7277 0.500881 5.66667 0.499756L11.3333 0.499756C12.2723 0.500881 13.1725 0.874381 13.8364 1.53833C14.5004 2.20228 14.8739 3.10246 14.875 4.04142V9.97867C15.1525 10.2903 15.3567 10.66 15.4728 11.0607C15.589 11.4615 15.614 11.8831 15.5461 12.2948C15.4782 12.7064 15.319 13.0977 15.0804 13.4399C14.8417 13.7821 14.5295 14.0666 14.1667 14.2726V14.2726ZM14.1667 11.8331C14.1667 11.5529 14.0836 11.279 13.9279 11.046C13.7722 10.8131 13.551 10.6315 13.2921 10.5243C13.0333 10.417 12.7484 10.389 12.4736 10.4436C12.1988 10.4983 11.9464 10.6332 11.7483 10.8314C11.5501 11.0295 11.4152 11.2819 11.3606 11.5567C11.3059 11.8315 11.3339 12.1164 11.4412 12.3752C11.5484 12.6341 11.73 12.8553 11.9629 13.011C12.1959 13.1667 12.4698 13.2498 12.75 13.2498C13.1257 13.2498 13.4861 13.1005 13.7517 12.8348C14.0174 12.5691 14.1667 12.2088 14.1667 11.8331Z" fill="#2D2F36"/>
</g>
<defs>
<clipPath id="clip0_1446_30241">
<rect width="17" height="17" fill="white" transform="translate(0 0.499756)"/>
</clipPath>
</defs>
</svg>
