<svg  viewBox="0 0 39 38" fill="none" xmlns="http://www.w3.org/2000/svg">
<path d="M19.8565 38H19.7729C9.32257 38 0.820312 29.4953 0.820312 19.0418V18.9582C0.820312 8.50478 9.32257 0 19.7729 0H19.8565C30.3069 0 38.8091 8.50478 38.8091 18.9582V19.0418C38.8091 29.4953 30.3069 38 19.8565 38ZM19.7729 1.28626C10.0311 1.28626 2.10619 9.2135 2.10619 18.9582V19.0418C2.10619 28.7865 10.0311 36.7137 19.7729 36.7137H19.8565C29.5984 36.7137 37.5233 28.7865 37.5233 19.0418V18.9582C37.5233 9.2135 29.5984 1.28626 19.8565 1.28626H19.7729Z" fill="url(#paint0_linear_1878_6631)"/>
<path d="M20.8814 13.0582V15.8069H24.2807L23.7425 19.5095H20.8814V28.0403C20.3078 28.1199 19.7209 28.1615 19.1252 28.1615C18.4376 28.1615 17.7623 28.1066 17.1047 28.0005V19.5095H13.9697V15.8069H17.1047V12.4437C17.1047 10.3572 18.7956 8.66504 20.8823 8.66504V8.66681C20.8885 8.66681 20.8938 8.66504 20.9 8.66504H24.2816V11.8673H22.072C21.4153 11.8673 20.8823 12.4004 20.8823 13.0573L20.8814 13.0582Z" fill="url(#paint1_linear_1878_6631)"/>
<defs>
<linearGradient id="paint0_linear_1878_6631" x1="10.3175" y1="0" x2="35.6537" y2="37.9931" gradientUnits="userSpaceOnUse">
<stop stop-color="#C6937F"/>
<stop offset="0.276451" stop-color="#FFE5CF"/>
<stop offset="1" stop-color="#B08271"/>
</linearGradient>
<linearGradient id="paint1_linear_1878_6631" x1="16.5477" y1="8.66504" x2="30.2595" y2="19.5435" gradientUnits="userSpaceOnUse">
<stop stop-color="#C6937F"/>
<stop offset="0.276451" stop-color="#FFE5CF"/>
<stop offset="1" stop-color="#B08271"/>
</linearGradient>
</defs>
</svg>
