<svg  viewBox="0 0 25 24" fill="none" xmlns="http://www.w3.org/2000/svg">
    <rect x="0.470703" y="0.375" width="23.25" height="23.25" rx="11.625" stroke="#2D2F36" stroke-width="0.75"/>
    <g clip-path="url(#clip0_2052_39930)">
    <path d="M15.808 15.0934L12.7144 11.9998L15.808 8.90622C15.8901 8.82418 15.9362 8.7129 15.9362 8.59687C15.9362 8.48083 15.8901 8.36955 15.808 8.28751V8.28751C15.726 8.20546 15.6147 8.15937 15.4987 8.15937C15.3826 8.15937 15.2713 8.20546 15.1893 8.28751L12.0957 11.3811L9.00211 8.28751C8.92006 8.20546 8.80878 8.15937 8.69275 8.15937C8.57672 8.15937 8.46544 8.20546 8.38339 8.28751V8.28751C8.30135 8.36955 8.25525 8.48083 8.25525 8.59687C8.25525 8.7129 8.30135 8.82418 8.38339 8.90622L11.477 11.9998L8.38339 15.0934C8.30135 15.1755 8.25525 15.2867 8.25525 15.4028C8.25525 15.5188 8.30135 15.6301 8.38339 15.7121C8.46544 15.7942 8.57672 15.8403 8.69275 15.8403C8.80878 15.8403 8.92006 15.7942 9.00211 15.7121L12.0957 12.6185L15.1893 15.7121C15.2713 15.7942 15.3826 15.8403 15.4987 15.8403C15.6147 15.8403 15.726 15.7942 15.808 15.7121C15.8901 15.6301 15.9362 15.5188 15.9362 15.4028C15.9362 15.2867 15.8901 15.1755 15.808 15.0934Z" fill="#2D2F36"/>
    </g>
    <defs>
    <clipPath id="clip0_2052_39930">
    <rect width="10.5" height="10.5" fill="white" transform="translate(12.0957 4.5752) rotate(45)"/>
    </clipPath>
    </defs>
    </svg>
    