<svg viewBox="0 0 19 18" fill="none" xmlns="http://www.w3.org/2000/svg">
    <g clip-path="url(#clip0_2052_39929)">
    <path d="M10.4789 12.9503L8.03242 15.3968C7.32211 16.0881 6.36818 16.472 5.37701 16.4654C4.38583 16.4587 3.43713 16.0621 2.73615 15.3613C2.03517 14.6605 1.63829 13.712 1.63137 12.7208C1.62445 11.7296 2.00805 10.7756 2.69917 10.0651L5.14567 7.61634C5.2863 7.47561 5.36527 7.28477 5.3652 7.08582C5.36513 6.88687 5.28602 6.69609 5.14529 6.55546C5.00456 6.41483 4.81373 6.33587 4.61478 6.33594C4.41583 6.33601 4.22505 6.41511 4.08442 6.55584L1.63867 9.00458C0.650373 9.99338 0.0953517 11.3343 0.0957033 12.7323C0.0960549 14.1303 0.651751 15.4709 1.64054 16.4592C2.62934 17.4475 3.97023 18.0025 5.36825 18.0022C6.76626 18.0018 8.10687 17.4461 9.09517 16.4573L11.5417 14.0108C11.6783 13.8694 11.7539 13.6799 11.7522 13.4833C11.7505 13.2866 11.6716 13.0985 11.5325 12.9595C11.3935 12.8204 11.2054 12.7415 11.0087 12.7398C10.8121 12.7381 10.6226 12.8137 10.4812 12.9503H10.4789Z" fill="#2D2F36"/>
    <path d="M16.5545 1.54577C16.0665 1.05438 15.4858 0.664727 14.8461 0.39939C14.2064 0.134054 13.5204 -0.00169234 12.8278 1.84806e-05C12.1356 -0.00182032 11.4499 0.133577 10.8103 0.398382C10.1708 0.663187 9.59009 1.05215 9.10179 1.54277L6.65154 3.99002C6.51081 4.13065 6.43171 4.32143 6.43164 4.52038C6.43157 4.71933 6.51054 4.91016 6.65117 5.05089C6.7918 5.19162 6.98257 5.27073 7.18153 5.2708C7.38048 5.27087 7.57131 5.1919 7.71204 5.05127L10.1608 2.60477C10.51 2.25351 10.9253 1.97499 11.3829 1.78536C11.8404 1.59573 12.331 1.49874 12.8263 1.50002C13.572 1.50027 14.3009 1.72159 14.9208 2.13602C15.5407 2.55044 16.0239 3.13937 16.3092 3.82833C16.5944 4.5173 16.6691 5.27538 16.5236 6.00675C16.3781 6.73812 16.019 7.40993 15.4918 7.93727L13.0453 10.3838C12.9046 10.5245 12.8255 10.7154 12.8255 10.9144C12.8255 11.1134 12.9046 11.3043 13.0453 11.445C13.186 11.5857 13.3769 11.6648 13.5759 11.6648C13.7749 11.6648 13.9658 11.5857 14.1065 11.445L16.553 9.00002C17.5401 8.01084 18.0945 6.6706 18.0948 5.2732C18.0951 3.87581 17.5412 2.53534 16.5545 1.54577Z" fill="#2D2F36"/>
    <path d="M10.8149 6.21932L6.3149 10.7193C6.24327 10.7885 6.18613 10.8713 6.14683 10.9628C6.10752 11.0543 6.08683 11.1527 6.08597 11.2523C6.0851 11.3518 6.10408 11.4506 6.14179 11.5428C6.1795 11.6349 6.23519 11.7187 6.30561 11.7891C6.37603 11.8595 6.45977 11.9152 6.55194 11.9529C6.64411 11.9906 6.74287 12.0096 6.84245 12.0087C6.94204 12.0079 7.04045 11.9872 7.13196 11.9479C7.22346 11.9086 7.30622 11.8514 7.3754 11.7798L11.8754 7.27982C12.012 7.13837 12.0876 6.94892 12.0859 6.75227C12.0842 6.55562 12.0053 6.36751 11.8663 6.22846C11.7272 6.0894 11.5391 6.01053 11.3425 6.00882C11.1458 6.00711 10.9564 6.0827 10.8149 6.21932Z" fill="#2D2F36"/>
    </g>
    <defs>
    <clipPath id="clip0_2052_39929">
    <rect width="18" height="18" fill="white" transform="translate(0.0957031)"/>
    </clipPath>
    </defs>
    </svg>
    