<svg width="22" height="22" viewBox="0 0 22 22" fill="none" xmlns="http://www.w3.org/2000/svg">
<path d="M0.6875 5.74134H11.8814C12.1902 6.98889 13.3187 7.91672 14.6603 7.91672C16.0019 7.91672 17.1305 6.98889 17.4393 5.74134H21.3125C21.6922 5.74134 22 5.43351 22 5.05384C22 4.67417 21.6922 4.36634 21.3125 4.36634H17.4392C17.1305 3.11879 16.0019 2.19092 14.6603 2.19092C13.3186 2.19092 12.1901 3.11879 11.8814 4.36634H0.6875C0.307828 4.36634 0 4.67417 0 5.05384C0 5.43351 0.307828 5.74134 0.6875 5.74134ZM14.6603 3.56592C15.4808 3.56592 16.1483 4.23339 16.1483 5.0538C16.1483 5.87424 15.4808 6.54172 14.6603 6.54172C13.8399 6.54172 13.1724 5.87424 13.1724 5.0538C13.1724 4.23339 13.8399 3.56592 14.6603 3.56592ZM0.6875 11.6877H4.56079C4.86956 12.9353 5.99805 13.8631 7.33971 13.8631C8.68136 13.8631 9.80985 12.9353 10.1186 11.6877H21.3125C21.6922 11.6877 22 11.3799 22 11.0002C22 10.6205 21.6922 10.3127 21.3125 10.3127H10.1186C9.80981 9.06514 8.68132 8.13728 7.33966 8.13728C5.99801 8.13728 4.86952 9.06514 4.56075 10.3127H0.6875C0.307828 10.3127 0 10.6205 0 11.0002C0 11.3799 0.307785 11.6877 0.6875 11.6877ZM7.33966 9.51228C8.16011 9.51228 8.82759 10.1798 8.82759 11.0002C8.82759 11.8206 8.16011 12.4881 7.33966 12.4881C6.51922 12.4881 5.85174 11.8206 5.85174 11.0002C5.85174 10.1798 6.51922 9.51228 7.33966 9.51228ZM21.3125 16.2591H17.4392C17.1304 15.0115 16.0019 14.0836 14.6603 14.0836C13.3186 14.0836 12.1901 15.0115 11.8814 16.2591H0.6875C0.307828 16.2591 0 16.5669 0 16.9466C0 17.3262 0.307828 17.6341 0.6875 17.6341H11.8814C12.1902 18.8816 13.3187 19.8095 14.6603 19.8095C16.002 19.8095 17.1305 18.8816 17.4393 17.6341H21.3125C21.6922 17.6341 22 17.3262 22 16.9466C22 16.5669 21.6922 16.2591 21.3125 16.2591ZM14.6603 18.4345C13.8399 18.4345 13.1724 17.767 13.1724 16.9466C13.1724 16.1261 13.8399 15.4586 14.6603 15.4586C15.4808 15.4586 16.1483 16.1261 16.1483 16.9466C16.1483 17.767 15.4808 18.4345 14.6603 18.4345Z" fill="#2D2F36"/>
</svg>
