<svg width="39" height="38" viewBox="0 0 39 38" fill="none" xmlns="http://www.w3.org/2000/svg">
<path d="M19.0934 0C8.60064 0 0.0654297 8.52266 0.0654297 19C0.0654297 29.4773 8.60064 38 19.0934 38C29.5861 38 38.1213 29.4773 38.1213 19C38.1213 8.52266 29.5861 0 19.0934 0ZM19.0934 35.9657C14.6365 35.9657 10.586 34.2296 7.5523 31.4153L11.3709 27.6023C11.7698 27.204 11.7698 26.5611 11.3709 26.1627C10.9719 25.7644 10.3281 25.7644 9.92916 26.1627L6.13657 29.9498C3.62611 26.9909 2.10276 23.1724 2.10276 19C2.10276 9.64543 9.72506 2.03618 19.0915 2.03618C23.27 2.03618 27.0942 3.55729 30.0574 6.06406L25.5541 10.5607C25.1552 10.959 25.1552 11.602 25.5541 12.0003C25.7527 12.1985 26.0143 12.2986 26.2741 12.2986C26.5338 12.2986 26.7955 12.1985 26.994 12.0003L31.5232 7.47772C34.3417 10.507 36.0803 14.5497 36.0803 19.0018C36.0803 28.3564 28.458 35.9657 19.0915 35.9657H19.0934Z" fill="url(#paint0_linear_1915_37893)"/>
<path d="M20.4933 23.7186C20.304 23.8502 20.1741 24.0521 20.137 24.2837C20.1036 24.5097 20.163 24.745 20.3022 24.9266C20.4395 25.1082 20.651 25.2267 20.8792 25.2527C20.9108 25.2545 20.9423 25.2564 20.972 25.2564C21.1687 25.2564 21.3579 25.1897 21.5027 25.0656C23.0705 23.8687 23.9296 22.5884 24.2822 20.9209C24.3378 20.6671 24.2784 20.4077 24.117 20.2095C23.9593 20.0131 23.7163 19.8945 23.4639 19.8945H23.4583C23.0576 19.8945 22.7143 20.1799 22.6363 20.5689C22.3154 22.0808 21.6029 22.8719 20.4933 23.7186Z" fill="url(#paint1_linear_1915_37893)"/>
<path d="M19.6467 7.62628C19.4909 7.46139 19.2719 7.36503 19.0437 7.36133H19.0326C18.7988 7.36133 18.5761 7.45953 18.424 7.62443C18.4054 7.64481 16.626 9.51979 14.8744 11.9932C12.4326 15.4356 11.2451 18.2148 11.2451 20.4862C11.2451 24.7735 14.7409 28.2623 19.0344 28.2623C23.328 28.2623 26.8219 24.7735 26.8219 20.4862C26.8219 18.2148 25.6362 15.4356 23.1925 11.9932C21.441 9.51979 19.6634 7.64481 19.6467 7.62628ZM25.1352 20.4862C25.1352 23.8453 22.3984 26.5762 19.0344 26.5762C15.6705 26.5762 12.9336 23.8453 12.9336 20.4862C12.9336 18.6798 14.1415 15.9377 16.2475 12.9678C17.5092 11.1891 18.5353 10.0423 19.0326 9.50312C19.5187 10.0275 20.5633 11.1965 21.8195 12.9678C23.9273 15.9451 25.1352 18.6854 25.1352 20.4862Z" fill="url(#paint2_linear_1915_37893)"/>
<defs>
<linearGradient id="paint0_linear_1915_37893" x1="9.5794" y1="0" x2="34.8984" y2="38.0343" gradientUnits="userSpaceOnUse">
<stop stop-color="#B9846F"/>
<stop offset="0.276451" stop-color="#EFD0B6"/>
<stop offset="1" stop-color="#B08271"/>
</linearGradient>
<linearGradient id="paint1_linear_1915_37893" x1="21.1716" y1="19.8945" x2="24.9979" y2="24.3631" gradientUnits="userSpaceOnUse">
<stop stop-color="#B9846F"/>
<stop offset="0.276451" stop-color="#EFD0B6"/>
<stop offset="1" stop-color="#B08271"/>
</linearGradient>
<linearGradient id="paint2_linear_1915_37893" x1="15.1393" y1="7.36133" x2="30.1412" y2="24.1319" gradientUnits="userSpaceOnUse">
<stop stop-color="#B9846F"/>
<stop offset="0.276451" stop-color="#EFD0B6"/>
<stop offset="1" stop-color="#B08271"/>
</linearGradient>
</defs>
</svg>
