<svg width="38" height="38" viewBox="0 0 38 38" fill="none" xmlns="http://www.w3.org/2000/svg">
<g clip-path="url(#clip0_1446_32002)">
<path d="M19 0C8.52505 0 0 8.52121 0 19C0 29.4788 8.52121 38 19 38C29.4788 38 38 29.4749 38 19C38 8.52505 29.4749 0 19 0ZM19 35.9657C14.7317 35.9657 10.8358 34.3689 7.8495 31.755L11.4729 28.1277C11.8721 27.7285 11.8721 27.0875 11.4729 26.6883C11.0737 26.2891 10.4327 26.2891 10.0335 26.6883L6.40242 30.3232C3.69636 27.3178 2.03434 23.3527 2.03434 19C2.03434 9.64586 9.64586 2.03434 19 2.03434C23.3527 2.03434 27.3139 3.69636 30.3232 6.40242L26.7574 9.97212C26.3582 10.3713 26.3582 11.0123 26.7574 11.4115C26.957 11.6111 27.218 11.7109 27.4752 11.7109C27.7323 11.7109 27.9972 11.6111 28.1929 11.4115L31.7511 7.8495C34.3651 10.8358 35.9618 14.7279 35.9618 19C35.9618 28.3541 28.3503 35.9657 18.9962 35.9657H19Z" fill="url(#paint0_linear_1446_32002)"/>
<path d="M15.5035 11.8875H15.5131C15.8487 11.8843 16.1972 11.6423 16.2068 11.1841V9.85162C16.2133 9.56446 16.0423 9.30635 15.768 9.19665C15.497 9.08372 15.1905 9.15148 14.9905 9.36442C14.8646 9.49671 14.7969 9.66771 14.7969 9.84839V11.197C14.8195 11.652 15.1679 11.8875 15.5035 11.8875Z" fill="url(#paint1_linear_1446_32002)"/>
<path d="M23.7131 22.3834C23.5292 22.2737 23.313 22.2576 23.1162 22.3318C23.0872 22.3447 22.3548 22.619 21.4965 23.1158C20.7674 23.5385 20.164 23.9902 19.6962 24.4645V22.8835C20.3028 23.1513 20.9706 23.1545 21.603 22.8803C22.3096 22.5706 22.942 21.9382 23.4808 21.0025C23.9486 20.1927 24.1874 19.0828 24.1874 17.7019C24.1874 16.7533 24.0745 16.0467 24.068 16.0112V13.4526C24.0616 13.1622 23.8873 12.9074 23.6195 12.8041C23.3517 12.6976 23.0549 12.7654 22.8516 12.9783C22.7258 13.1106 22.6581 13.2848 22.6613 13.4591V15.5595C22.3677 15.6885 21.987 15.8692 21.4998 16.1499C20.7641 16.5758 20.1608 17.0275 19.6994 17.4986V17.0404C20.164 16.8952 20.5835 16.5952 20.8964 16.1725C21.3513 15.5498 21.5837 14.6883 21.5837 13.6075C21.5837 12.6589 21.2416 11.6103 20.5447 10.4004C20.1769 9.76156 19.8349 9.30018 19.6962 9.11628V6.7771C19.6962 6.48027 19.522 6.22215 19.2509 6.11568C18.9735 6.00598 18.6734 6.08019 18.4766 6.29636C18.354 6.42864 18.2927 6.59642 18.2927 6.78033V9.12273C18.141 9.32599 17.8119 9.76479 17.4441 10.4036C16.7569 11.5974 16.4052 12.675 16.4052 13.6107C16.4052 14.6916 16.6375 15.553 17.0957 16.1757C17.4119 16.6049 17.8152 16.8952 18.2927 17.0404V17.5018C17.8313 17.0307 17.2279 16.579 16.4923 16.1532C16.0051 15.8725 15.6147 15.6885 15.3308 15.5595V13.4623C15.3308 13.1719 15.1598 12.9138 14.892 12.8073C14.621 12.6976 14.3177 12.7622 14.1177 12.9751C13.9918 13.1074 13.9241 13.2816 13.9273 13.4623L13.9337 15.9531C13.9337 15.9531 13.8047 16.7017 13.8047 17.7083C13.8047 19.086 14.0434 20.1959 14.5113 21.0057C15.0469 21.9285 15.6954 22.5802 16.3955 22.8868C17.0247 23.1578 17.6926 23.1642 18.2959 22.8868V24.4677C17.728 23.8869 17.0344 23.4256 16.4955 23.1191C15.6373 22.6222 14.9114 22.3479 14.8823 22.3383C14.6113 22.2318 14.3016 22.306 14.1047 22.5286C14.0176 22.6319 13.9596 22.7512 13.937 22.8803C13.9305 22.9126 13.8047 23.6837 13.8047 24.6742C13.8047 26.0519 14.0434 27.1586 14.5113 27.9684C15.0501 28.9041 15.6857 29.5365 16.3923 29.8462C17.0247 30.1204 17.6926 30.1204 18.2959 29.8527V31.24C18.312 31.695 18.6605 31.9337 18.9993 31.9337C19.338 31.9337 19.6865 31.695 19.7026 31.2303V29.8494C20.306 30.1172 20.9739 30.1172 21.6062 29.843C22.3128 29.5332 22.9452 28.9009 23.4873 27.962C23.9551 27.1521 24.1938 26.0454 24.1938 24.6677C24.1938 23.674 24.068 22.9061 24.0616 22.8738C24.0261 22.6674 23.9035 22.4867 23.7196 22.3802L23.7131 22.3834ZM18.2798 27.7877C18.2443 28.12 18.0894 28.3588 17.8119 28.5169C17.5345 28.6782 17.2473 28.6879 16.9472 28.5556C16.5343 28.3749 16.0987 27.9168 15.7212 27.265C15.2953 26.5294 15.2017 25.4453 15.2017 24.671C15.2017 24.4032 15.2114 24.1967 15.2211 24.0289C15.3953 24.116 15.5825 24.2193 15.7857 24.3322C16.7182 24.8678 17.4441 25.5034 17.7764 26.0777C18.1539 26.7294 18.3314 27.336 18.2798 27.7845V27.7877ZM18.2798 20.8251C18.2443 21.1606 18.0959 21.3929 17.8055 21.5575C17.5345 21.7156 17.2505 21.7317 16.9472 21.5962C16.7085 21.4929 16.231 21.1864 15.7212 20.3024C15.3824 19.7152 15.1985 18.7924 15.205 17.7083C15.205 17.4405 15.2146 17.234 15.2243 17.0695C15.3663 17.1404 15.5405 17.234 15.7825 17.3695C16.4568 17.7599 17.3506 18.3762 17.7764 19.1183C18.1539 19.77 18.3314 20.3766 18.2798 20.8251ZM19.7059 20.8283C19.6542 20.3798 19.8349 19.7732 20.2092 19.1183C20.3479 18.8763 20.548 18.6311 20.7964 18.3955C21.1836 18.0277 21.6159 17.7148 22.1999 17.376C22.4483 17.234 22.6193 17.1404 22.7613 17.0695C22.771 17.2372 22.7774 17.4405 22.7807 17.7083C22.7807 18.8214 22.6032 19.7152 22.2644 20.3024C21.8869 20.9573 21.4514 21.4187 21.0384 21.5962C20.7415 21.7252 20.4447 21.7123 20.1705 21.5575C19.8994 21.3994 19.7414 21.1541 19.7059 20.8283ZM20.1801 13.6139C20.1801 14.3657 20.0317 14.982 19.7639 15.3465C19.5639 15.6143 19.3219 15.7402 18.996 15.7402C18.6702 15.7402 18.4217 15.6111 18.2249 15.3465C17.9571 14.9787 17.8087 14.3657 17.8087 13.6172C17.8087 12.7073 18.3411 11.6555 18.6573 11.1102C18.8057 10.8618 18.9089 10.6972 18.996 10.5649C19.0864 10.7037 19.1929 10.8682 19.3348 11.1102C19.651 11.6587 20.1834 12.7138 20.1834 13.6172L20.1801 13.6139ZM22.7774 24.671C22.7807 25.3034 22.7161 26.481 22.2644 27.265C21.7579 28.1426 21.2771 28.4524 21.0384 28.5556C20.7319 28.6879 20.4479 28.675 20.1705 28.5169C19.893 28.3588 19.7414 28.1168 19.7059 27.7877C19.6542 27.3425 19.8349 26.7359 20.2124 26.0809C20.3511 25.8422 20.548 25.6002 20.8029 25.3582C21.2739 24.9097 21.8224 24.5548 22.1999 24.3354C22.4483 24.1999 22.6193 24.1063 22.7645 24.0321C22.7742 24.1967 22.7839 24.3903 22.7839 24.671H22.7774Z" fill="url(#paint2_linear_1446_32002)"/>
<path d="M22.5894 11.8876H22.5991C22.9346 11.8843 23.2799 11.6423 23.2928 11.1842V9.85489C23.2992 9.56774 23.1282 9.30962 22.8572 9.19992C22.5862 9.09022 22.2797 9.15152 22.0796 9.36447C21.9538 9.49675 21.8828 9.67098 21.8828 9.85166V11.1971C21.9054 11.652 22.2506 11.8876 22.5894 11.8876Z" fill="url(#paint3_linear_1446_32002)"/>
</g>
<defs>
<linearGradient id="paint0_linear_1446_32002" x1="9.5" y1="0" x2="34.8333" y2="38" gradientUnits="userSpaceOnUse">
<stop stop-color="#B9846F"/>
<stop offset="0.276451" stop-color="#EFD0B6"/>
<stop offset="1" stop-color="#B08271"/>
</linearGradient>
<linearGradient id="paint1_linear_1446_32002" x1="15.1494" y1="9.14258" x2="17.0664" y2="10.6198" gradientUnits="userSpaceOnUse">
<stop stop-color="#B9846F"/>
<stop offset="0.276451" stop-color="#EFD0B6"/>
<stop offset="1" stop-color="#B08271"/>
</linearGradient>
<linearGradient id="paint2_linear_1446_32002" x1="16.402" y1="6.06543" x2="32.9179" y2="16.0151" gradientUnits="userSpaceOnUse">
<stop stop-color="#B9846F"/>
<stop offset="0.276451" stop-color="#EFD0B6"/>
<stop offset="1" stop-color="#B08271"/>
</linearGradient>
<linearGradient id="paint3_linear_1446_32002" x1="22.2353" y1="9.14648" x2="24.1503" y2="10.6242" gradientUnits="userSpaceOnUse">
<stop stop-color="#B9846F"/>
<stop offset="0.276451" stop-color="#EFD0B6"/>
<stop offset="1" stop-color="#B08271"/>
</linearGradient>
<clipPath id="clip0_1446_32002">
<rect width="38" height="38" fill="white"/>
</clipPath>
</defs>
</svg>
