<svg width="39" height="38" viewBox="0 0 39 38" fill="none" xmlns="http://www.w3.org/2000/svg">
<path d="M15.5573 14.2977C12.3232 14.3422 10.5196 15.528 9.83683 17.6364C10.6941 17.0435 11.7944 16.6044 13.1804 16.6044C16.1269 16.6044 17.9991 18.5164 17.9991 21.3938C17.9991 24.4693 15.8653 26.9724 12.3454 26.9724C8.31905 26.9724 6.73633 23.7227 6.73633 20.1172C6.73633 15.0425 9.92589 11.5056 15.5591 11.4834V14.2959L15.5573 14.2977ZM9.50655 20.3618C9.57335 22.7333 10.5178 24.184 12.4549 24.184C14.2807 24.184 15.3142 22.9093 15.3142 21.3715C15.3142 20.0079 14.4792 19.0649 12.7852 19.0649C11.5531 19.0649 10.4083 19.5262 9.50655 20.3618Z" fill="url(#paint0_linear_1915_37876)"/>
<path d="M31.6628 19.1097C31.6628 24.2733 29.2656 26.9746 25.8979 26.9746C22.5302 26.9746 20.1348 24.2733 20.1348 19.1097C20.1348 13.9461 22.5543 11.2021 25.8979 11.2021C29.2414 11.2021 31.6628 13.9257 31.6628 19.1097ZM22.9514 19.1097C22.9514 22.4947 24.0517 24.1844 25.8979 24.1844C27.7441 24.1844 28.8685 22.4928 28.8685 19.1097C28.8685 15.7266 27.7237 14.0128 25.8979 14.0128C24.0721 14.0128 22.9514 15.7266 22.9514 19.1097Z" fill="url(#paint1_linear_1915_37876)"/>
<path d="M19.0298 0C8.53705 0 0 8.52268 0 19C0 29.4773 8.53705 38 19.0298 38C29.5225 38 38.0577 29.4773 38.0577 19C38.0577 8.52268 29.5225 0 19.0298 0ZM19.0298 35.9638C9.65961 35.9638 2.03917 28.3527 2.03917 19C2.03917 9.6473 9.66147 2.0362 19.0298 2.0362C28.3981 2.0362 36.0185 9.6473 36.0185 19C36.0185 28.3527 28.3962 35.9638 19.0298 35.9638Z" fill="url(#paint2_linear_1915_37876)"/>
<defs>
<linearGradient id="paint0_linear_1915_37876" x1="9.55201" y1="11.4834" x2="20.6965" y2="23.6388" gradientUnits="userSpaceOnUse">
<stop stop-color="#B9846F"/>
<stop offset="0.276451" stop-color="#EFD0B6"/>
<stop offset="1" stop-color="#B08271"/>
</linearGradient>
<linearGradient id="paint1_linear_1915_37876" x1="23.0168" y1="11.2021" x2="34.36" y2="23.6383" gradientUnits="userSpaceOnUse">
<stop stop-color="#B9846F"/>
<stop offset="0.276451" stop-color="#EFD0B6"/>
<stop offset="1" stop-color="#B08271"/>
</linearGradient>
<linearGradient id="paint2_linear_1915_37876" x1="9.51442" y1="0" x2="34.833" y2="38.0355" gradientUnits="userSpaceOnUse">
<stop stop-color="#B9846F"/>
<stop offset="0.276451" stop-color="#EFD0B6"/>
<stop offset="1" stop-color="#B08271"/>
</linearGradient>
</defs>
</svg>
