<svg width="39" height="38" viewBox="0 0 39 38" fill="none" xmlns="http://www.w3.org/2000/svg">
<g clip-path="url(#clip0_1915_37900)">
<path d="M35.0552 20.2323C34.6942 21.4306 34.0873 21.8493 33.0542 22.0567C31.6907 22.3255 30.4079 22.9899 29.0599 23.3663C27.754 23.7312 26.4213 24.0845 25.0809 24.1882C23.4832 24.3111 22.7611 23.5699 22.5115 21.9683C22.2234 20.1171 21.9354 18.2659 21.5283 16.407C20.6488 19.3106 20.5105 22.5406 17.63 24.411C15.8786 25.5478 13.9083 25.9165 11.7998 25.7898C12.2761 25.6016 12.7408 25.3673 13.2324 25.2291C17.6722 23.977 19.5542 20.578 20.499 16.4646C20.8946 14.744 21.0367 12.9657 21.5129 11.1875C21.847 13.0541 22.1543 14.9322 22.5307 16.7911C22.8187 18.2083 23.126 19.6293 23.5638 21.0043C24.1131 22.7365 25.2499 23.4201 27.0128 22.9707C28.5875 22.5713 30.0968 21.9222 31.637 21.3845C31.6408 21.2386 31.6446 21.0926 31.6485 20.9467C30.5116 20.5357 29.3863 19.8291 28.238 19.7906C27.1242 19.7522 25.9873 20.3975 24.9004 20.7355C25.8875 18.3734 27.3316 17.7512 29.5054 18.9611C31.2145 19.9097 32.985 20.4397 35.0552 20.2323Z" fill="url(#paint0_linear_1915_37900)"/>
<path d="M5.13141 21.2386C5.13141 21.3999 5.13909 21.5651 5.13141 21.7264C5.02387 24.196 5.76512 25.1869 8.79542 24.5532C10.8348 24.1268 12.471 23.1935 12.1253 20.3322C11.8027 17.6706 11.5185 15.0014 11.2381 12.3359C11.1882 11.8443 11.2304 11.345 11.2304 10.5039C12.1368 11.5063 12.6131 12.117 12.567 13.2654C12.4902 15.2318 12.7821 17.2213 12.9933 19.1915C13.4427 23.3357 10.9078 26.1816 6.70609 26.1893C4.72045 26.1893 3.79485 25.0947 4.20964 23.1628C4.35559 22.4945 4.63212 21.8531 4.85103 21.2002C4.94321 21.2117 5.03923 21.2271 5.13141 21.2386Z" fill="url(#paint1_linear_1915_37900)"/>
<path d="M18.693 20.0541C17.7328 18.0954 16.4885 16.8049 14.8331 15.8217C14.2609 15.4799 14.0611 14.5082 13.5811 13.6133C16.2503 14.1203 18.3166 16.7934 18.693 20.0541Z" fill="url(#paint2_linear_1915_37900)"/>
<path d="M19.1237 1.90114C28.5565 1.90114 36.234 9.57484 36.234 19.0114C36.234 28.448 28.5603 36.1217 19.1237 36.1217C9.68714 36.1217 2.01345 28.4441 2.01345 19.0114C2.01345 9.57868 9.69098 1.90114 19.1237 1.90114ZM19.1237 0C8.62327 0 0.112305 8.51097 0.112305 19.0114C0.112305 29.5119 8.62327 38.0228 19.1237 38.0228C29.6242 38.0228 38.1351 29.5119 38.1351 19.0114C38.1351 8.51097 29.6242 0 19.1237 0Z" fill="url(#paint3_linear_1915_37900)"/>
</g>
<defs>
<linearGradient id="paint0_linear_1915_37900" x1="17.6136" y1="11.1875" x2="25.1473" y2="29.1553" gradientUnits="userSpaceOnUse">
<stop stop-color="#B9846F"/>
<stop offset="0.276451" stop-color="#EFD0B6"/>
<stop offset="1" stop-color="#B08271"/>
</linearGradient>
<linearGradient id="paint1_linear_1915_37900" x1="6.34538" y1="10.5039" x2="17.5345" y2="20.0617" gradientUnits="userSpaceOnUse">
<stop stop-color="#B9846F"/>
<stop offset="0.276451" stop-color="#EFD0B6"/>
<stop offset="1" stop-color="#B08271"/>
</linearGradient>
<linearGradient id="paint2_linear_1915_37900" x1="14.859" y1="13.6133" x2="19.4409" y2="19.0681" gradientUnits="userSpaceOnUse">
<stop stop-color="#B9846F"/>
<stop offset="0.276451" stop-color="#EFD0B6"/>
<stop offset="1" stop-color="#B08271"/>
</linearGradient>
<linearGradient id="paint3_linear_1915_37900" x1="9.61801" y1="0" x2="34.9666" y2="38.0228" gradientUnits="userSpaceOnUse">
<stop stop-color="#B9846F"/>
<stop offset="0.276451" stop-color="#EFD0B6"/>
<stop offset="1" stop-color="#B08271"/>
</linearGradient>
<clipPath id="clip0_1915_37900">
<rect width="38" height="38" fill="white" transform="translate(0.0654297)"/>
</clipPath>
</defs>
</svg>
