<svg width="16" height="16" viewBox="0 0 16 16" fill="none" xmlns="http://www.w3.org/2000/svg">
<g clip-path="url(#clip0_1098_2636)">
<path d="M7.59 0.410156C6.08884 0.410156 4.62139 0.855302 3.37323 1.6893C2.12506 2.5233 1.15223 3.7087 0.577758 5.09559C0.00328864 6.48248 -0.147019 8.00858 0.145843 9.48089C0.438705 10.9532 1.16158 12.3056 2.22306 13.3671C3.28454 14.4286 4.63695 15.1515 6.10927 15.4443C7.58158 15.7372 9.10768 15.5869 10.4946 15.0124C11.8815 14.4379 13.0669 13.4651 13.9009 12.2169C14.7349 10.9688 15.18 9.50132 15.18 8.00016C15.1778 5.98783 14.3775 4.05855 12.9545 2.63562C11.5316 1.21269 9.60233 0.412333 7.59 0.410156V0.410156ZM7.59 14.3252C6.33904 14.3252 5.11616 13.9542 4.07602 13.2592C3.03588 12.5642 2.22519 11.5764 1.74647 10.4206C1.26774 9.26489 1.14249 7.99314 1.38654 6.76621C1.63059 5.53928 2.23299 4.41227 3.11755 3.52771C4.00212 2.64314 5.12913 2.04074 6.35606 1.79669C7.58299 1.55264 8.85473 1.67789 10.0105 2.15662C11.1662 2.63534 12.154 3.44603 12.849 4.48617C13.544 5.52632 13.915 6.74919 13.915 8.00016C13.9132 9.67709 13.2462 11.2848 12.0604 12.4706C10.8747 13.6563 9.26693 14.3233 7.59 14.3252V14.3252Z" fill="currentColor"/>
<path d="M8.04356 3.61227C7.67881 3.54581 7.30392 3.56033 6.94541 3.6548C6.5869 3.74926 6.25353 3.92137 5.96889 4.15894C5.68426 4.39651 5.45531 4.69373 5.29826 5.02957C5.14121 5.36541 5.05989 5.73167 5.06006 6.10242C5.06006 6.27017 5.1267 6.43105 5.24531 6.54966C5.36393 6.66828 5.52481 6.73492 5.69256 6.73492C5.86031 6.73492 6.02119 6.66828 6.1398 6.54966C6.25842 6.43105 6.32506 6.27017 6.32506 6.10242C6.3249 5.91632 6.3658 5.73248 6.44485 5.56401C6.52389 5.39553 6.63914 5.24658 6.78236 5.12775C6.92559 5.00893 7.09327 4.92318 7.27344 4.8766C7.45361 4.83002 7.64185 4.82377 7.82471 4.85829C8.07457 4.90679 8.30431 5.02868 8.48456 5.20837C8.66482 5.38807 8.78742 5.61742 8.83671 5.86713C8.88649 6.12924 8.85212 6.40037 8.73852 6.64177C8.62492 6.88317 8.4379 7.08248 8.20421 7.21119C7.81723 7.43539 7.49745 7.75926 7.27819 8.14906C7.05892 8.53886 6.9482 8.98033 6.95756 9.42747V9.89742C6.95756 10.0652 7.02419 10.226 7.14281 10.3447C7.26143 10.4633 7.42231 10.5299 7.59005 10.5299C7.7578 10.5299 7.91868 10.4633 8.0373 10.3447C8.15591 10.226 8.22255 10.0652 8.22255 9.89742V9.42747C8.21462 9.20737 8.26481 8.98906 8.36807 8.79452C8.47133 8.59999 8.62403 8.43609 8.81078 8.31933C9.26903 8.06764 9.63805 7.68016 9.8671 7.21018C10.0962 6.7402 10.174 6.2108 10.0899 5.69479C10.0058 5.17877 9.76385 4.70149 9.39742 4.32857C9.03098 3.95565 8.55801 3.70541 8.04356 3.61227V3.61227Z" fill="currentColor"/>
<path d="M8.22253 11.7946C8.22253 11.4453 7.93935 11.1621 7.59002 11.1621C7.2407 11.1621 6.95752 11.4453 6.95752 11.7946C6.95752 12.1439 7.2407 12.4271 7.59002 12.4271C7.93935 12.4271 8.22253 12.1439 8.22253 11.7946Z" fill="currentColor"/>
</g>
<defs>
<clipPath id="clip0_1098_2636">
<rect width="15.18" height="15.18" fill="white" transform="translate(0 0.410156)"/>
</clipPath>
</defs>
</svg>