<svg width="15" height="16" viewBox="0 0 15 16" fill="none" xmlns="http://www.w3.org/2000/svg">
    <path fill-rule="evenodd" clip-rule="evenodd" d="M13.119 5.05996C11.7282 3.65298 10.2749 2.33738 8.76544 1.11896L8.03985 0.538689C7.91582 0.487104 7.78092 0.487104 7.6569 0.538689C7.53639 0.529253 7.41654 0.566435 7.31496 0.644771C7.21338 0.723107 7.13542 0.838465 7.09255 0.973892C7.05525 1.06407 7.03585 1.16337 7.03585 1.26403C7.03585 1.36469 7.05525 1.46399 7.09255 1.55416C7.15557 1.72725 7.27074 1.86541 7.41503 1.94101C7.41503 1.94101 7.67705 2.23114 7.91891 2.4971C8.76544 3.39169 10.2368 5.39845 11.4461 6.92166C10.3375 6.92166 9.22901 6.92166 8.08016 6.72824C6.9313 6.53482 6.30649 6.72824 5.41966 6.72824C3.88117 6.79481 2.34699 6.96432 0.824249 7.23598C0.723021 7.21523 0.619237 7.22124 0.520148 7.2536C0.421059 7.28596 0.329054 7.34388 0.25056 7.42331C0.172066 7.50275 0.108977 7.60178 0.0656993 7.7135C0.0224219 7.82522 0 7.94692 0 8.07012C0 8.19331 0.0224219 8.31501 0.0656993 8.42673C0.108977 8.53845 0.172066 8.63748 0.25056 8.71692C0.329054 8.79636 0.421059 8.85427 0.520148 8.88663C0.619237 8.91899 0.723021 8.925 0.824249 8.90425C2.11419 8.90425 3.44444 9.2911 4.85531 9.43617C5.77252 9.54927 6.69495 9.58966 7.61659 9.55706C9.19552 9.39864 10.7523 9.00889 12.2523 8.39652C11.0271 10.4568 9.59159 12.325 7.97938 13.9574C7.82169 14.0697 7.70761 14.2524 7.66226 14.4655C7.6398 14.5711 7.63488 14.6808 7.6478 14.7886C7.66071 14.8964 7.6912 15.0001 7.73752 15.0938C7.78384 15.1875 7.84508 15.2693 7.91776 15.3345C7.99043 15.3998 8.07311 15.4473 8.16107 15.4742C8.33873 15.5286 8.52712 15.4962 8.68482 15.3839C10.5553 14.0601 12.2644 12.4329 13.764 10.5484C14.1495 10.0846 14.494 9.57413 14.7919 9.02514C14.977 8.67289 15.042 8.24862 14.9733 7.84043C14.5319 6.76223 13.899 5.81314 13.119 5.05996Z" fill="#00955F"/>
    </svg>
    