<svg width="86" height="86" viewBox="0 0 86 86" fill="none" xmlns="http://www.w3.org/2000/svg">
<path fill-rule="evenodd" clip-rule="evenodd" d="M17.5005 28.5757C17.5005 22.7077 22.2575 17.9507 28.1255 17.9507C33.9935 17.9507 38.7505 22.7077 38.7505 28.5757C38.7505 34.4437 33.9935 39.2007 28.1255 39.2007C22.2575 39.2007 17.5005 34.4437 17.5005 28.5757ZM28.1255 26.4507C26.9519 26.4507 26.0005 27.4021 26.0005 28.5757C26.0005 29.7493 26.9519 30.7007 28.1255 30.7007C29.2991 30.7007 30.2505 29.7493 30.2505 28.5757C30.2505 27.4021 29.2991 26.4507 28.1255 26.4507Z" fill="#2D3648"/>
<path fill-rule="evenodd" clip-rule="evenodd" d="M0.500488 13.7007C0.500488 6.65905 6.20886 0.950684 13.2505 0.950684H72.7505C79.7921 0.950684 85.5005 6.65905 85.5005 13.7007V73.2007C85.5005 80.2423 79.7921 85.9507 72.7505 85.9507H13.2505C6.20886 85.9507 0.500488 80.2423 0.500488 73.2007V13.7007ZM13.2505 9.45068C10.9033 9.45068 9.00049 11.3535 9.00049 13.7007V73.2007C9.00049 75.0232 10.1477 76.5778 11.7593 77.1817L56.9956 31.9455C58.6553 30.2857 61.3463 30.2857 63.006 31.9455L77.0005 45.9399V13.7007C77.0005 11.3535 75.0977 9.45068 72.7505 9.45068H13.2505ZM77.0005 57.9608L60.0008 40.9611L23.5112 77.4507H72.7505C75.0977 77.4507 77.0005 75.5479 77.0005 73.2007V57.9608Z" fill="#2D3648"/>
</svg>
