<svg viewBox="0 0 19 18" fill="none" xmlns="http://www.w3.org/2000/svg">
    <path d="M14.0907 0H4.70329C2.10984 0 0 2.11046 0 4.70467V13.2953C0 15.8895 2.10984 18 4.70329 18H14.0907C16.6842 18 18.794 15.8895 18.794 13.2953V4.70467C18.794 2.11046 16.6842 0 14.0907 0ZM1.65917 4.70467C1.65917 3.02587 3.02498 1.65964 4.70329 1.65964H14.0907C15.769 1.65964 17.1348 3.02587 17.1348 4.70467V13.2953C17.1348 14.9741 15.769 16.3404 14.0907 16.3404H4.70329C3.02498 16.3404 1.65917 14.9741 1.65917 13.2953V4.70467Z" fill="#2D2F36"/>
    <path d="M9.39829 13.3743C11.81 13.3743 13.7731 11.4117 13.7731 8.9982C13.7731 6.58473 11.8111 4.62207 9.39829 4.62207C6.98554 4.62207 5.02344 6.58473 5.02344 8.9982C5.02344 11.4117 6.98554 13.3743 9.39829 13.3743ZM9.39829 6.28278C10.8959 6.28278 12.114 7.50121 12.114 8.99927C12.114 10.4973 10.8959 11.7158 9.39829 11.7158C7.90068 11.7158 6.68261 10.4973 6.68261 8.99927C6.68261 7.50121 7.90068 6.28278 9.39829 6.28278Z" fill="#2D2F36"/>
    <path d="M14.1768 5.32986C14.8262 5.32986 15.3555 4.80146 15.3555 4.15078C15.3555 3.5001 14.8273 2.97168 14.1768 2.97168C13.5263 2.97168 12.998 3.5001 12.998 4.15078C12.998 4.80146 13.5263 5.32986 14.1768 5.32986Z" fill="#2D2F36"/>
    </svg>
    