<svg  viewBox="0 0 39 38" fill="none" xmlns="http://www.w3.org/2000/svg">
<path d="M19.9727 38H19.8891C9.43878 38 0.936523 29.4953 0.936523 19.0418V18.9582C0.936523 8.50474 9.43878 0 19.8891 0H19.9727C30.4231 0 38.9253 8.50474 38.9253 18.9582V19.0418C38.9253 29.4953 30.4231 38 19.9727 38ZM19.8891 1.28626C10.1473 1.28626 2.22241 9.21347 2.22241 18.9582V19.0418C2.22241 28.7865 10.1473 36.7137 19.8891 36.7137H19.9727C29.7146 36.7137 37.6395 28.7865 37.6395 19.0418V18.9582C37.6395 9.21347 29.7146 1.28626 19.9727 1.28626H19.8891Z" fill="url(#paint0_linear_1878_6634)"/>
<path d="M24.38 9.91992H15.5103C13.0599 9.91992 11.0664 11.914 11.0664 14.3651V22.482C11.0664 24.9331 13.0599 26.9271 15.5103 26.9271H24.38C26.8304 26.9271 28.8239 24.9331 28.8239 22.482V14.3651C28.8239 11.914 26.8304 9.91992 24.38 9.91992ZM12.6341 14.3651C12.6341 12.7789 13.9245 11.488 15.5103 11.488H24.38C25.9657 11.488 27.2562 12.7789 27.2562 14.3651V22.482C27.2562 24.0682 25.9657 25.359 24.38 25.359H15.5103C13.9245 25.359 12.6341 24.0682 12.6341 22.482V14.3651Z" fill="url(#paint1_linear_1878_6634)"/>
<path d="M19.9451 22.5557C22.2238 22.5557 24.0786 20.7013 24.0786 18.4209C24.0786 16.1405 22.2248 14.2861 19.9451 14.2861C17.6654 14.2861 15.8115 16.1405 15.8115 18.4209C15.8115 20.7013 17.6654 22.5557 19.9451 22.5557ZM19.9451 15.8552C21.3601 15.8552 22.511 17.0065 22.511 18.4219C22.511 19.8373 21.3601 20.9886 19.9451 20.9886C18.5301 20.9886 17.3792 19.8373 17.3792 18.4219C17.3792 17.0065 18.5301 15.8552 19.9451 15.8552Z" fill="url(#paint2_linear_1878_6634)"/>
<path d="M24.4624 14.9517C25.076 14.9517 25.5761 14.4525 25.5761 13.8377C25.5761 13.2229 25.077 12.7236 24.4624 12.7236C23.8478 12.7236 23.3486 13.2229 23.3486 13.8377C23.3486 14.4525 23.8478 14.9517 24.4624 14.9517Z" fill="url(#paint3_linear_1878_6634)"/>
<defs>
<linearGradient id="paint0_linear_1878_6634" x1="10.4337" y1="0" x2="35.7699" y2="37.9931" gradientUnits="userSpaceOnUse">
<stop stop-color="#C6937F"/>
<stop offset="0.276451" stop-color="#FFE5CF"/>
<stop offset="1" stop-color="#B08271"/>
</linearGradient>
<linearGradient id="paint1_linear_1878_6634" x1="15.5058" y1="9.91992" x2="26.6485" y2="27.3713" gradientUnits="userSpaceOnUse">
<stop stop-color="#C6937F"/>
<stop offset="0.276451" stop-color="#FFE5CF"/>
<stop offset="1" stop-color="#B08271"/>
</linearGradient>
<linearGradient id="paint2_linear_1878_6634" x1="17.8783" y1="14.2861" x2="23.392" y2="22.5542" gradientUnits="userSpaceOnUse">
<stop stop-color="#C6937F"/>
<stop offset="0.276451" stop-color="#FFE5CF"/>
<stop offset="1" stop-color="#B08271"/>
</linearGradient>
<linearGradient id="paint3_linear_1878_6634" x1="23.9055" y1="12.7236" x2="25.3911" y2="14.9513" gradientUnits="userSpaceOnUse">
<stop stop-color="#C6937F"/>
<stop offset="0.276451" stop-color="#FFE5CF"/>
<stop offset="1" stop-color="#B08271"/>
</linearGradient>
</defs>
</svg>
