<svg width="39" height="38" viewBox="0 0 39 38" fill="none" xmlns="http://www.w3.org/2000/svg">
<path d="M8.22393 18.9582C8.17922 12.8782 13.2533 7.7594 19.5569 7.84881C25.6369 7.93822 30.5322 12.99 30.4875 19.1371C30.4204 25.2618 25.3686 30.157 19.1545 30.1123C13.1416 30.0453 8.17922 24.9935 8.24628 18.9582H8.22393ZM30.2863 18.9806C30.2863 12.9229 25.3686 8.02763 19.2886 8.04998C13.1863 8.04998 8.33569 13.057 8.3804 19.1147C8.4251 25.0829 13.3651 29.9559 19.4004 29.9335C25.3686 29.9335 30.2863 24.9712 30.2639 18.9806H30.2863Z" fill="url(#paint0_linear_1915_37908)" stroke="url(#paint1_linear_1915_37908)" stroke-width="0.133875" stroke-miterlimit="10"/>
<path d="M32.2938 20.1489H30.8408C31.0867 19.7242 31.3102 19.3219 31.5561 18.8972C31.3326 18.5172 31.0867 18.0925 30.8408 17.6454C31.1985 17.5337 32.0926 17.5784 32.2044 17.7125C32.4949 17.2207 32.7632 16.7513 33.0761 16.2148C33.3444 16.6843 33.6126 17.1313 33.8808 17.6007H35.3338C35.0879 18.0478 34.842 18.4501 34.6185 18.8525C34.842 19.2548 35.0879 19.6796 35.3338 20.1266H33.8808C33.6349 20.5513 33.3667 21.0207 33.0761 21.5348C32.8079 21.0654 32.5396 20.6184 32.2714 20.1489H32.2938ZM31.7796 18.696C31.8914 18.4278 32.0032 18.1595 32.0926 17.9137C31.8691 17.9137 31.6455 17.9137 31.3773 17.9584C31.5114 18.2266 31.6455 18.4725 31.7796 18.696C32.0032 19.076 32.2267 19.456 32.4949 19.8584H33.7244C33.8808 19.5901 34.082 19.2772 34.2608 18.9642C34.2832 18.8972 34.2608 18.7854 34.2385 18.7184C34.1043 18.4501 33.9479 18.2043 33.7691 17.8913C33.4114 17.8913 33.0091 17.8913 32.6067 17.8913C32.5396 17.8913 32.4502 17.9584 32.4055 18.0254C32.249 18.2713 32.1149 18.5172 31.9808 18.7631C31.8914 18.7184 31.8243 18.696 31.7796 18.6736V18.696ZM33.5679 17.5783C33.4114 17.3325 33.2773 17.0866 33.0985 16.8183C32.942 17.0866 32.8079 17.3101 32.6738 17.5783H33.5679ZM32.6514 20.1713C32.8079 20.4395 32.942 20.663 33.0985 20.9313C33.2549 20.663 33.389 20.4172 33.5232 20.1713H32.6514ZM34.842 19.836C34.7079 19.5901 34.5738 19.3666 34.462 19.1431C34.3502 19.389 34.2385 19.5901 34.1267 19.836H34.8643H34.842ZM32.0926 19.8136C31.9585 19.5678 31.8243 19.3666 31.7126 19.1878C31.6008 19.4113 31.4891 19.6125 31.3773 19.8136H32.0702H32.0926ZM34.8196 17.936H34.1267C34.2608 18.1595 34.3726 18.3607 34.4843 18.5619C34.5961 18.3607 34.6855 18.1595 34.8196 17.936Z" fill="url(#paint2_linear_1915_37908)"/>
<path d="M8.40137 30.7208C9.18372 29.7149 9.94372 28.709 10.7261 27.7031C11.2849 28.1502 11.8661 28.5749 12.4025 29.0443C12.8496 29.4243 12.872 29.8937 12.5814 30.3631C12.2908 30.8102 11.8214 30.9443 11.3073 30.7208C11.2626 30.7208 11.2178 30.676 11.1731 30.6537V32.7772C10.7261 32.6207 10.6143 32.4643 10.6367 32.0843C10.659 31.7043 10.6814 31.3019 10.7037 30.9219C10.7037 30.5419 10.592 30.2513 10.2567 30.0278C10.1225 29.9384 10.0108 29.849 9.85431 29.7149C9.51902 30.1619 9.18373 30.5866 8.82608 31.0337C8.69196 30.9219 8.55784 30.8325 8.40137 30.7208ZM10.1002 29.3572C10.5249 29.6478 10.9049 29.9608 11.3073 30.2066C11.6426 30.4078 11.9555 30.3184 12.1343 30.0502C12.3131 29.8043 12.2684 29.4913 11.9778 29.2454C11.6202 28.9325 11.2402 28.6643 10.8602 28.3737C10.592 28.709 10.3684 29.0219 10.0778 29.3796L10.1002 29.3572Z" fill="url(#paint3_linear_1915_37908)"/>
<path d="M27.7358 8.37939C27.3558 8.80409 26.9758 9.20646 26.5958 9.63116C26.4617 9.5194 26.3499 9.40763 26.2158 9.27351C27.0876 8.33468 27.9146 7.39586 28.7864 6.45703C29.3229 6.97115 29.8817 7.46292 30.3958 7.99939C30.7535 8.37939 30.7088 8.8935 30.3958 9.31821C30.0829 9.67585 29.6135 9.76526 29.1664 9.54173C29.0993 9.51938 29.0323 9.47468 29.0099 9.47468C28.9429 10.1676 28.8535 10.8606 28.7864 11.5982C28.2723 11.2406 28.2499 11.2182 28.3393 10.6818C28.4064 10.3018 28.4511 9.92175 28.4958 9.56411C28.5405 9.27352 28.4288 9.02761 28.2052 8.82644C28.0488 8.69232 27.9146 8.55821 27.7582 8.40174L27.7358 8.37939ZM28.004 8.06645C28.384 8.40174 28.7417 8.73704 29.1441 9.02762C29.457 9.25115 29.7923 9.18409 30.0158 8.91585C30.217 8.66997 30.1723 8.35704 29.9041 8.0888C29.5688 7.75351 29.2335 7.46292 28.8758 7.12763C28.5852 7.41821 28.317 7.7088 28.004 8.06645Z" fill="url(#paint4_linear_1915_37908)"/>
<path d="M17.9951 31.1786C18.621 31.1786 19.2469 31.1563 19.8728 31.1786C20.4986 31.2233 20.8563 31.648 21.0575 32.2068C21.2586 32.788 21.2363 33.3692 21.0351 33.9504C20.8116 34.5315 20.3869 34.8669 19.761 34.9116C19.2469 34.9563 18.7328 34.9563 18.2186 34.9563C18.1516 34.9563 18.0175 34.8668 18.0175 34.7998C18.0175 33.5927 18.0175 32.3857 18.0175 31.1562L17.9951 31.1786ZM18.5092 34.5316C18.9563 34.5316 19.381 34.5316 19.7833 34.4645C20.2304 34.3975 20.4987 34.1068 20.5657 33.6821C20.6104 33.3468 20.6328 32.9892 20.6104 32.6316C20.5881 32.2516 20.4316 31.8939 20.0516 31.7374C19.5375 31.5139 19.001 31.6257 18.5092 31.648V34.5539V34.5316Z" fill="url(#paint5_linear_1915_37908)"/>
<path d="M16.781 32.1845C16.7363 33.1457 16.1775 34.308 14.881 34.308C13.8304 34.308 12.981 33.481 13.0034 32.4527C13.0034 31.3127 13.8751 30.3516 14.8587 30.3516C15.954 30.3516 16.781 31.1339 16.781 32.1845ZM16.2445 32.3857C16.2669 31.4916 15.954 31.0445 15.3281 30.8657C14.7245 30.6869 14.1657 30.888 13.8751 31.4692C13.7187 31.7598 13.6069 32.0951 13.5622 32.4304C13.4728 32.9892 13.7634 33.481 14.2551 33.7269C14.814 33.9951 15.3504 33.9057 15.7528 33.481C16.1104 33.101 16.2445 32.6539 16.2669 32.3857H16.2445Z" fill="url(#paint6_linear_1915_37908)"/>
<path d="M10.8779 6.4981C10.8779 5.51457 11.705 4.6875 12.7556 4.6875C13.7391 4.6875 14.6779 5.69339 14.6779 6.81104C14.6779 7.79457 13.8509 8.59927 12.8226 8.62162C11.7721 8.62162 10.9003 7.6828 10.8779 6.47574V6.4981ZM12.845 8.21927C13.605 8.19692 14.1862 7.63809 14.1638 6.92279C14.1638 6.27456 13.8732 5.71574 13.3144 5.3581C12.6662 4.91104 11.6379 5.31339 11.4144 6.07339C11.2132 6.76633 11.705 7.81691 12.3756 8.1075C12.532 8.17456 12.6885 8.19692 12.845 8.24163V8.21927Z" fill="url(#paint7_linear_1915_37908)"/>
<path d="M24.7196 4.2726C25.569 4.67495 26.396 5.05495 27.2454 5.45731C27.1784 5.61378 27.1113 5.72554 27.0443 5.85966C26.3513 5.52436 25.6807 5.21142 24.9878 4.87612C24.8313 5.21142 24.6748 5.54671 24.496 5.90436C25.1443 6.2173 25.7701 6.53024 26.4184 6.84318C26.3513 6.97729 26.2843 7.11141 26.2172 7.24553C25.569 6.95494 24.9431 6.64201 24.2948 6.35143C24.116 6.73143 23.9372 7.08906 23.736 7.49141C24.4513 7.82671 25.1443 8.162 25.8595 8.51965C25.7925 8.65377 25.7478 8.76553 25.6807 8.922C24.809 8.51965 23.9595 8.11731 23.0654 7.6926C23.6019 6.5526 24.1384 5.4126 24.6972 4.25024L24.7196 4.2726Z" fill="url(#paint8_linear_1915_37908)"/>
<path d="M18.1753 4.33553C17.9294 4.42494 17.7282 4.5367 17.5494 4.1567C17.4823 4.02258 17.2364 3.88846 17.08 3.88846C16.767 3.88846 16.4541 3.95552 16.1635 4.04493C15.94 4.11199 15.8282 4.31317 15.8506 4.55905C15.8729 4.80494 16.0517 4.96141 16.2976 4.98377C16.6776 5.02847 17.0576 5.05081 17.4376 5.09552C18.0635 5.16258 18.3988 5.40846 18.5329 5.90023C18.6223 6.23552 18.5329 6.52611 18.3317 6.79435C17.84 7.42023 16.5435 7.55435 15.9176 7.06259C15.6717 6.86141 15.5376 6.61552 15.5153 6.30258C15.7611 6.21317 15.94 6.14611 16.0964 6.48141C16.2753 6.86141 16.7894 6.99552 17.3035 6.8614C17.46 6.8167 17.6164 6.77199 17.7506 6.70493C17.9741 6.57082 18.1082 6.36965 18.0635 6.10141C18.0188 5.83318 17.84 5.69905 17.5941 5.65434C17.1694 5.58728 16.7223 5.56493 16.2976 5.49787C15.7164 5.40846 15.4259 5.11787 15.3811 4.62611C15.3364 4.17905 15.5823 3.7767 16.0964 3.59788C16.4317 3.48611 16.8117 3.44141 17.1694 3.44141C17.6835 3.44141 18.0635 3.84375 18.1529 4.35787L18.1753 4.33553Z" fill="url(#paint9_linear_1915_37908)"/>
<path d="M20.1075 5.3299C20.0181 5.93343 19.9287 6.51461 19.8393 7.09579C19.6605 7.07344 19.5264 7.05108 19.3252 7.00638C19.504 5.75461 19.6828 4.5252 19.8617 3.27344C20.0181 3.27344 20.1746 3.27344 20.3758 3.2958C20.3087 3.83227 20.2417 4.32402 20.1746 4.86049C20.8452 4.94991 21.4934 5.03933 22.1417 5.15109C22.2087 4.61462 22.2981 4.14521 22.3652 3.63109C22.544 3.65345 22.7005 3.6758 22.8793 3.69815C22.7005 4.94991 22.5217 6.20167 22.3428 7.43109C22.2981 7.43109 22.2534 7.45344 22.2311 7.43109C21.8287 7.38638 21.8287 7.38638 21.8958 6.96168C21.9628 6.51462 22.0076 6.0452 22.0746 5.57579C21.404 5.48638 20.7558 5.39698 20.1075 5.30756V5.3299Z" fill="url(#paint10_linear_1915_37908)"/>
<path d="M9.02967 9.37656C9.02967 9.62244 8.98497 9.86833 8.98497 10.1142C8.98497 10.2036 9.05203 10.3154 9.11908 10.4048C9.36497 10.6507 9.6332 10.8966 9.92379 11.1648C9.76732 11.3213 9.67791 11.4331 9.5438 11.5672C8.64968 10.6507 7.77791 9.75657 6.88379 8.8401C7.01791 8.70598 7.12967 8.61658 7.21909 8.50482C7.64379 8.92952 8.09085 9.33187 8.53791 9.77893C8.53791 9.68952 8.53791 9.62245 8.53791 9.55539C8.53791 8.79539 8.5379 8.05775 8.60496 7.29775C8.60496 7.07423 8.85085 6.8954 8.98497 6.67188C9.02968 6.67188 9.05202 6.69422 9.09673 6.71657C9.07437 7.40951 9.02967 8.12481 9.00731 8.86245C9.92378 9.01892 10.8179 9.15305 11.7344 9.30952C11.5108 9.71188 11.3544 9.80129 10.9073 9.71188C10.2814 9.60011 9.65555 9.48834 9.00731 9.35422L9.02967 9.37656Z" fill="url(#paint11_linear_1915_37908)"/>
<path d="M6.99733 26.4907C6.63968 26.7366 6.30439 26.9378 6.0138 27.1837C5.76792 27.3848 5.6338 27.3401 5.52203 27.0943C5.52203 27.0496 5.47732 27.0272 5.43262 26.9601C6.46085 26.2449 7.48909 25.5072 8.56203 24.7695C8.96439 25.3954 9.38908 25.9766 9.72438 26.6025C9.94791 26.9825 9.76909 27.4743 9.41144 27.7649C9.00909 28.1001 8.53968 28.1895 8.15968 27.9213C7.9138 27.7425 7.71262 27.519 7.51144 27.2731C7.31027 27.0496 7.17615 26.7813 6.97498 26.4907H6.99733ZM7.35497 26.2225C7.35497 26.2225 7.42203 26.3119 7.44439 26.3566C7.69027 26.6919 7.9138 27.0496 8.20439 27.3401C8.45027 27.6084 8.78557 27.586 9.07616 27.3401C9.36675 27.0943 9.41144 26.8484 9.18791 26.5131C8.98674 26.2001 8.78557 25.9095 8.58439 25.619C8.49498 25.4625 8.40556 25.4848 8.27144 25.5742C7.98085 25.7978 7.66791 25.999 7.35497 26.2448V26.2225Z" fill="url(#paint12_linear_1915_37908)"/>
<path d="M24.2736 30.1429C24.743 29.9194 24.743 29.9194 24.8995 30.3664C25.1454 31.1041 25.4136 31.8417 25.6371 32.6017C25.7712 33.0935 25.5924 33.5182 25.1901 33.8088C24.7877 34.0994 24.3407 34.2335 23.8712 34.2335C23.3348 34.2335 23.0218 33.9206 22.8207 33.4735C22.5971 32.9817 22.4407 32.4676 22.2395 31.9759C22.1277 31.6629 22.016 31.3276 21.8818 30.9923C22.0383 30.9253 22.1948 30.8806 22.3512 30.7911C22.5524 31.35 22.7536 31.9088 22.9548 32.4676C23.0442 32.7135 23.1336 32.9817 23.2454 33.2276C23.4912 33.7417 23.8936 33.8982 24.4301 33.697C25.0336 33.4735 25.2571 33.1159 25.0783 32.5571C24.8995 31.9759 24.676 31.3947 24.4971 30.8359C24.4301 30.6123 24.3407 30.3888 24.2512 30.1653L24.2736 30.1429Z" fill="url(#paint13_linear_1915_37908)"/>
<path d="M5.00579 16.6836C5.8552 16.6836 6.70462 16.6836 7.55403 16.6836C7.57638 16.6836 7.59874 16.6836 7.68815 16.706C7.44227 17.1083 7.21874 17.5107 6.97285 17.9354C7.19638 18.3377 7.44226 18.7624 7.7105 19.2318C7.26344 19.2318 6.83873 19.2542 6.43638 19.2318C6.25756 19.2318 6.1905 19.2989 6.12344 19.4107C5.89991 19.813 5.67638 20.193 5.4305 20.6401C5.16226 20.1707 4.89403 19.7236 4.6258 19.2542H3.17285C3.30697 19.0083 3.41874 18.8295 3.50815 18.6283C3.59756 18.4719 3.66461 18.3377 3.75402 18.2036C3.77638 18.1589 3.88814 18.1812 3.9552 18.1589C3.9552 18.1812 3.97756 18.2036 3.99991 18.226C3.9105 18.4495 3.84344 18.673 3.73168 18.9413H6.03403C6.21285 18.6507 6.41403 18.3154 6.61521 17.9577C6.45874 17.7118 6.32461 17.4212 6.14579 17.1754C6.10108 17.1083 5.98933 17.0189 5.89991 17.0189C5.63168 17.0189 5.36344 17.0189 5.09521 17.0189C5.00579 17.0189 4.93873 16.9295 4.87167 16.9071C4.91638 16.8624 4.96109 16.7954 4.98344 16.7507L5.00579 16.6836ZM5.4305 20.0142C5.58697 19.7236 5.74344 19.4777 5.87756 19.2318H4.98344C5.13991 19.5001 5.27402 19.7236 5.4305 20.0142ZM7.15167 16.9965H6.32462C6.63756 17.0859 6.6152 17.466 6.83873 17.6224C6.9505 17.4213 7.03991 17.2201 7.17403 16.9965H7.15167ZM6.43638 18.8965H7.17403C7.03991 18.6507 6.90579 18.4271 6.79403 18.226C6.68226 18.4495 6.5705 18.6507 6.45874 18.8965H6.43638Z" fill="url(#paint14_linear_1915_37908)"/>
<path d="M28.6536 28.3034C28.5642 28.4375 28.4748 28.5717 28.3854 28.7058C28.3183 28.6834 28.2513 28.6387 28.1842 28.6164C27.7148 28.4152 27.3124 28.5046 26.9548 28.8399C26.5971 29.1752 26.4854 29.5999 26.6195 30.047C26.7983 30.5834 27.156 31.0082 27.6254 31.2987C28.0501 31.5446 28.6089 31.4552 29.0113 31.0975C29.3689 30.7846 29.4583 30.3375 29.2795 29.8458C29.2795 29.8011 29.2348 29.7564 29.2124 29.667C29.3689 29.5999 29.5254 29.5328 29.6595 29.4658C29.9724 30.0917 29.9277 30.6729 29.503 31.187C28.8101 32.014 27.8713 32.1705 27.0218 31.4999C26.4183 31.0305 25.9936 30.4493 26.0607 29.6446C26.1277 28.6164 27.4689 27.454 28.6313 28.2811L28.6536 28.3034Z" fill="url(#paint15_linear_1915_37908)"/>
<path d="M29.9735 24.581C30.1076 24.6704 30.2193 24.7374 30.3535 24.8268C30.1299 25.1845 29.9064 25.5198 29.6605 25.8998C30.5993 26.5033 31.5158 27.1068 32.4546 27.7327C32.3652 27.8668 32.2758 28.0009 32.1864 28.1574C31.2476 27.5539 30.3311 26.9504 29.3699 26.3245C29.1464 26.6821 28.9229 27.0174 28.6993 27.3751C28.5652 27.308 28.4535 27.2186 28.3193 27.1292C28.8782 26.2798 29.4146 25.4304 29.9958 24.5586L29.9735 24.581Z" fill="url(#paint16_linear_1915_37908)"/>
<path d="M5.00165 16.7051C5.00165 16.7051 4.91224 16.8169 4.88988 16.8616C4.73341 17.1522 4.55459 17.4204 4.39812 17.711C4.33106 17.8228 4.28635 17.8675 4.17459 17.7781C4.17459 17.7781 4.15224 17.7334 4.12988 17.711C4.24165 17.4651 4.35341 17.1969 4.46517 16.951C4.46517 16.9286 4.48753 16.8839 4.50988 16.8616C4.80047 16.3475 5.11341 15.8557 5.44871 15.2969C5.71694 15.7439 5.96283 16.1686 6.20871 16.5933C5.96283 16.7051 5.82871 16.5933 5.7393 16.3921C5.67224 16.2357 5.56047 16.0792 5.44871 15.878C5.29224 16.1686 5.15811 16.4369 5.024 16.6827L5.00165 16.7051Z" fill="url(#paint17_linear_1915_37908)"/>
<path d="M4.11167 17.7392C4.11167 17.7392 4.13403 17.7839 4.15638 17.8062C4.3352 18.1639 4.53638 18.4992 4.73756 18.8568C4.49168 18.9239 4.35756 18.8568 4.26815 18.6556C4.20109 18.4992 4.08932 18.365 4.02227 18.2309C4.02227 18.2086 3.99991 18.1862 3.97756 18.1639C3.70932 17.6945 3.46344 17.2251 3.17285 16.7109C3.61991 16.7109 3.99991 16.7109 4.40226 16.7109C4.44697 16.7109 4.46932 16.8227 4.51403 16.8898C4.51403 16.9121 4.49167 16.9568 4.46932 16.9792C4.22344 16.9792 3.97756 17.0015 3.70933 17.0239C3.8658 17.2921 3.99991 17.5156 4.13403 17.7392H4.11167Z" fill="url(#paint18_linear_1915_37908)"/>
<path d="M17.9475 17.8329C17.344 17.9446 17.1428 18.1905 17.1204 18.794C17.0981 19.554 17.2993 20.2246 17.7463 20.9175C17.9252 20.4481 18.0816 20.0011 18.2381 19.5764C18.4169 19.1293 18.5734 18.6599 18.7746 18.2129C18.8416 18.034 18.8416 17.8999 18.7075 17.7434C18.2381 17.1846 18.2157 16.6482 18.5957 16.1564C18.7075 16.0223 18.7746 15.9552 18.9534 16.0446C19.1769 16.1564 19.4452 16.2234 19.691 16.3128C19.9816 16.4023 20.1604 16.6034 20.1828 16.9164C20.1828 17.2293 20.1828 17.5423 20.1828 17.8552C20.1381 17.8552 20.1157 17.8999 20.0934 17.8776C19.624 17.8329 19.4898 18.1235 19.3781 18.5035C19.1098 19.2635 18.8193 20.0011 18.551 20.7611C18.5287 20.8281 18.5063 20.8952 18.484 20.9623C19.1993 21.2752 19.5793 21.1858 19.9593 20.5599C20.4734 19.7329 20.9875 18.8834 21.524 18.034C21.3228 17.9446 21.144 17.8552 20.9428 17.7658C20.6075 17.6093 20.451 17.3634 20.4957 17.0058C20.5404 16.6928 20.6522 16.4023 20.764 16.1117C20.764 16.067 20.9428 16.0223 21.0322 16.0446C21.3004 16.1117 21.5463 16.2234 21.8146 16.3128C22.2616 16.4693 22.3957 16.6705 22.4181 17.1846C22.4181 17.6317 22.3287 18.0564 22.1051 18.4587C21.4346 19.6658 20.7863 20.8728 20.1381 22.0799C19.8475 22.6387 19.4899 22.7952 18.864 22.7282C18.4616 22.6835 18.0593 22.7282 17.6793 22.7282C17.3663 22.7282 17.2098 22.6164 17.1428 22.3258C16.9193 21.2305 16.6957 20.1576 16.5169 19.0623C16.4722 18.794 16.5169 18.4811 16.584 18.2129C16.6063 18.0117 16.584 17.8552 16.4499 17.6987C16.0251 17.1846 16.0475 16.6481 16.4499 16.134C16.4946 16.0893 16.6063 16.0446 16.6734 16.067C17.0087 16.1787 17.3216 16.2681 17.6346 16.4246C17.7687 16.4917 17.9251 16.6705 17.9475 16.827C17.9922 17.1623 17.9475 17.5199 17.9475 17.8776V17.8329Z" fill="url(#paint19_linear_1915_37908)"/>
<path d="M23.3806 20.3198C23.2018 19.6492 23.336 19.1127 23.5818 18.5762C23.7607 18.1739 23.8724 17.8609 23.5595 17.4362C23.2242 17.0115 23.4254 16.4527 23.9171 15.9609C24.096 16.2962 24.3865 16.3186 24.7218 16.3186C25.2583 16.3186 25.7724 16.3186 26.3089 16.3186C26.9124 16.3186 27.2254 16.5198 27.4489 17.0786C27.7618 17.8162 27.8065 18.5986 27.7842 19.4033C27.7842 20.3645 27.6054 21.3033 27.2477 22.1974C27.0689 22.6445 27.0018 22.6892 26.5324 22.6892C25.5265 22.6892 24.5207 22.6892 23.4924 22.6892C23.023 22.6892 22.9783 22.6221 23.0677 22.1751C23.2465 21.1468 23.3136 21.1021 24.3642 21.1021C24.923 21.1021 25.5042 21.1021 26.063 21.0574C26.5771 21.0127 26.9124 20.6998 26.9571 20.1856C27.0018 19.6939 27.0018 19.1797 26.9571 18.6656C26.9348 18.2186 26.6442 17.995 26.1971 17.995C25.683 17.995 25.1689 18.0397 24.6324 18.0397C24.4089 18.0397 24.2748 18.1962 24.2524 18.375C24.2524 18.5762 24.3642 18.688 24.5654 18.7327C25.1689 18.8892 25.5265 19.6044 25.3254 20.2303C25.2807 20.3868 25.0571 20.4539 24.8783 20.3421C24.7442 20.2527 24.6324 20.1633 24.543 20.0515C24.3642 19.8503 24.163 19.8727 23.9618 20.0068C23.783 20.1186 23.5818 20.208 23.3583 20.3421L23.3806 20.3198Z" fill="url(#paint20_linear_1915_37908)"/>
<path d="M13.9934 17.8369C13.3899 17.8145 12.7417 17.7921 12.0934 17.7474C11.7358 17.7474 11.3781 17.7028 11.0205 17.6357C10.6405 17.5686 10.4393 17.3227 10.4616 16.9204C10.4616 16.6298 10.5511 16.3168 10.6181 16.0039C11.8699 16.2945 13.0993 16.2498 14.3287 16.2498C14.6864 16.2498 14.8205 16.4063 14.7981 16.7639C14.7758 17.1886 14.7087 17.6357 14.6863 18.0604C14.6416 18.7533 14.6193 19.4463 14.6193 20.1392C14.6193 20.7204 14.6193 21.3016 14.5969 21.8827C14.5746 22.3969 14.3287 22.5757 13.7922 22.5757C13.7922 22.5757 13.7475 22.531 13.7475 22.5086C13.7475 21.4357 13.7028 20.3404 13.7475 19.2675C13.7475 18.798 13.904 18.3286 14.0158 17.8145L13.9934 17.8369Z" fill="url(#paint21_linear_1915_37908)"/>
<path d="M19.0654 1.9C28.4984 1.9 36.1654 9.56708 36.1654 19C36.1654 28.433 28.4984 36.1 19.0654 36.1C9.63248 36.1 1.96543 28.433 1.96543 19C1.96543 9.56708 9.63248 1.9 19.0654 1.9ZM19.0654 0C8.58189 0 0.0654297 8.51649 0.0654297 19C0.0654297 29.4836 8.58189 38 19.0654 38C29.549 38 38.0654 29.4836 38.0654 19C38.0654 8.51649 29.549 0 19.0654 0Z" fill="url(#paint22_linear_1915_37908)"/>
<defs>
<linearGradient id="paint0_linear_1915_37908" x1="13.7897" y1="7.84766" x2="28.6332" y2="30.1121" gradientUnits="userSpaceOnUse">
<stop stop-color="#B9846F"/>
<stop offset="0.276451" stop-color="#EFD0B6"/>
<stop offset="1" stop-color="#B08271"/>
</linearGradient>
<linearGradient id="paint1_linear_1915_37908" x1="13.7897" y1="7.84766" x2="28.6332" y2="30.1121" gradientUnits="userSpaceOnUse">
<stop stop-color="#B9846F"/>
<stop offset="0.276451" stop-color="#EFD0B6"/>
<stop offset="1" stop-color="#B08271"/>
</linearGradient>
<linearGradient id="paint2_linear_1915_37908" x1="31.9641" y1="16.2148" x2="35.7013" y2="20.9492" gradientUnits="userSpaceOnUse">
<stop stop-color="#B9846F"/>
<stop offset="0.276451" stop-color="#EFD0B6"/>
<stop offset="1" stop-color="#B08271"/>
</linearGradient>
<linearGradient id="paint3_linear_1915_37908" x1="9.49447" y1="27.7031" x2="13.0416" y2="32.2881" gradientUnits="userSpaceOnUse">
<stop stop-color="#B9846F"/>
<stop offset="0.276451" stop-color="#EFD0B6"/>
<stop offset="1" stop-color="#B08271"/>
</linearGradient>
<linearGradient id="paint4_linear_1915_37908" x1="27.3238" y1="6.45703" x2="30.9175" y2="11.1038" gradientUnits="userSpaceOnUse">
<stop stop-color="#B9846F"/>
<stop offset="0.276451" stop-color="#EFD0B6"/>
<stop offset="1" stop-color="#B08271"/>
</linearGradient>
<linearGradient id="paint5_linear_1915_37908" x1="18.7957" y1="31.1562" x2="21.4665" y2="34.5325" gradientUnits="userSpaceOnUse">
<stop stop-color="#B9846F"/>
<stop offset="0.276451" stop-color="#EFD0B6"/>
<stop offset="1" stop-color="#B08271"/>
</linearGradient>
<linearGradient id="paint6_linear_1915_37908" x1="13.9475" y1="30.3516" x2="16.6299" y2="34.1938" gradientUnits="userSpaceOnUse">
<stop stop-color="#B9846F"/>
<stop offset="0.276451" stop-color="#EFD0B6"/>
<stop offset="1" stop-color="#B08271"/>
</linearGradient>
<linearGradient id="paint7_linear_1915_37908" x1="11.8279" y1="4.6875" x2="14.4845" y2="8.53654" gradientUnits="userSpaceOnUse">
<stop stop-color="#B9846F"/>
<stop offset="0.276451" stop-color="#EFD0B6"/>
<stop offset="1" stop-color="#B08271"/>
</linearGradient>
<linearGradient id="paint8_linear_1915_37908" x1="24.1104" y1="4.25024" x2="27.3435" y2="8.58939" gradientUnits="userSpaceOnUse">
<stop stop-color="#B9846F"/>
<stop offset="0.276451" stop-color="#EFD0B6"/>
<stop offset="1" stop-color="#B08271"/>
</linearGradient>
<linearGradient id="paint9_linear_1915_37908" x1="16.1739" y1="3.44141" x2="18.9491" y2="6.83096" gradientUnits="userSpaceOnUse">
<stop stop-color="#B9846F"/>
<stop offset="0.276451" stop-color="#EFD0B6"/>
<stop offset="1" stop-color="#B08271"/>
</linearGradient>
<linearGradient id="paint10_linear_1915_37908" x1="20.2137" y1="3.27344" x2="23.1346" y2="7.00989" gradientUnits="userSpaceOnUse">
<stop stop-color="#B9846F"/>
<stop offset="0.276451" stop-color="#EFD0B6"/>
<stop offset="1" stop-color="#B08271"/>
</linearGradient>
<linearGradient id="paint11_linear_1915_37908" x1="8.09644" y1="6.67188" x2="11.3714" y2="11.5394" gradientUnits="userSpaceOnUse">
<stop stop-color="#B9846F"/>
<stop offset="0.276451" stop-color="#EFD0B6"/>
<stop offset="1" stop-color="#B08271"/>
</linearGradient>
<linearGradient id="paint12_linear_1915_37908" x1="6.5302" y1="24.7695" x2="8.44784" y2="28.5858" gradientUnits="userSpaceOnUse">
<stop stop-color="#B9846F"/>
<stop offset="0.276451" stop-color="#EFD0B6"/>
<stop offset="1" stop-color="#B08271"/>
</linearGradient>
<linearGradient id="paint13_linear_1915_37908" x1="22.8317" y1="29.9961" x2="25.7624" y2="33.9377" gradientUnits="userSpaceOnUse">
<stop stop-color="#B9846F"/>
<stop offset="0.276451" stop-color="#EFD0B6"/>
<stop offset="1" stop-color="#B08271"/>
</linearGradient>
<linearGradient id="paint14_linear_1915_37908" x1="4.30726" y1="16.6836" x2="6.79026" y2="20.9552" gradientUnits="userSpaceOnUse">
<stop stop-color="#B9846F"/>
<stop offset="0.276451" stop-color="#EFD0B6"/>
<stop offset="1" stop-color="#B08271"/>
</linearGradient>
<linearGradient id="paint15_linear_1915_37908" x1="27.006" y1="28" x2="29.6463" y2="31.8497" gradientUnits="userSpaceOnUse">
<stop stop-color="#B9846F"/>
<stop offset="0.276451" stop-color="#EFD0B6"/>
<stop offset="1" stop-color="#B08271"/>
</linearGradient>
<linearGradient id="paint16_linear_1915_37908" x1="29.3532" y1="24.5586" x2="31.6096" y2="28.4478" gradientUnits="userSpaceOnUse">
<stop stop-color="#B9846F"/>
<stop offset="0.276451" stop-color="#EFD0B6"/>
<stop offset="1" stop-color="#B08271"/>
</linearGradient>
<linearGradient id="paint17_linear_1915_37908" x1="4.64959" y1="15.2969" x2="6.43653" y2="17.5004" gradientUnits="userSpaceOnUse">
<stop stop-color="#B9846F"/>
<stop offset="0.276451" stop-color="#EFD0B6"/>
<stop offset="1" stop-color="#B08271"/>
</linearGradient>
<linearGradient id="paint18_linear_1915_37908" x1="3.56403" y1="16.7109" x2="5.12723" y2="18.4009" gradientUnits="userSpaceOnUse">
<stop stop-color="#B9846F"/>
<stop offset="0.276451" stop-color="#EFD0B6"/>
<stop offset="1" stop-color="#B08271"/>
</linearGradient>
<linearGradient id="paint19_linear_1915_37908" x1="17.7093" y1="16.0039" x2="22.3157" y2="22.4416" gradientUnits="userSpaceOnUse">
<stop stop-color="#B9846F"/>
<stop offset="0.276451" stop-color="#EFD0B6"/>
<stop offset="1" stop-color="#B08271"/>
</linearGradient>
<linearGradient id="paint20_linear_1915_37908" x1="24.22" y1="15.9609" x2="29.0708" y2="21.1073" gradientUnits="userSpaceOnUse">
<stop stop-color="#B9846F"/>
<stop offset="0.276451" stop-color="#EFD0B6"/>
<stop offset="1" stop-color="#B08271"/>
</linearGradient>
<linearGradient id="paint21_linear_1915_37908" x1="11.5451" y1="16.0039" x2="16.2912" y2="20.7059" gradientUnits="userSpaceOnUse">
<stop stop-color="#B9846F"/>
<stop offset="0.276451" stop-color="#EFD0B6"/>
<stop offset="1" stop-color="#B08271"/>
</linearGradient>
<linearGradient id="paint22_linear_1915_37908" x1="9.56543" y1="0" x2="34.8988" y2="38" gradientUnits="userSpaceOnUse">
<stop stop-color="#B9846F"/>
<stop offset="0.276451" stop-color="#EFD0B6"/>
<stop offset="1" stop-color="#B08271"/>
</linearGradient>
</defs>
</svg>
