<svg width="16" height="16" viewBox="0 0 16 16" fill="none" xmlns="http://www.w3.org/2000/svg">
<g clip-path="url(#clip0_1331_28328)">
<path d="M13.3215 8.00944L11.8851 3.94916C11.8583 3.87342 11.8127 3.80576 11.7525 3.75257C11.6923 3.69939 11.6195 3.66244 11.541 3.64521L7.33465 2.72029C7.0879 2.66603 6.83113 2.67872 6.59094 2.75706C6.35074 2.83541 6.13587 2.97654 5.96857 3.16586L2.27141 7.3507C1.85745 7.82041 1.64668 8.43512 1.68535 9.06001C1.72401 9.68491 2.00895 10.269 2.47766 10.684L6.01724 13.8111C6.48694 14.2251 7.10166 14.4359 7.72655 14.3972C8.35144 14.3585 8.93548 14.0736 9.35057 13.6049L13.0477 9.42003C13.215 9.23067 13.3285 9.00003 13.3767 8.75202C13.4248 8.504 13.4058 8.24762 13.3215 8.00944V8.00944ZM8.64266 12.9795C8.39385 13.2611 8.04336 13.4323 7.66828 13.4555C7.29321 13.4788 6.92428 13.352 6.64266 13.1032L3.10308 9.97612C2.82145 9.72732 2.6502 9.37682 2.62699 9.00175C2.60378 8.62668 2.73052 8.25775 2.97933 7.97612L6.67648 3.79128C6.73226 3.72782 6.80404 3.68049 6.88434 3.65422C6.96464 3.62794 7.05052 3.62369 7.13302 3.6419L11.082 4.51148L12.4321 8.32346C12.4603 8.40308 12.4665 8.48878 12.4503 8.57164C12.4341 8.65451 12.3959 8.7315 12.3398 8.79461L8.64266 12.9795Z" fill="#3F3F46"/>
<path d="M9.09428 6.76116C9.3875 7.02022 9.83522 6.99252 10.0943 6.69929C10.3533 6.40606 10.3256 5.95834 10.0324 5.69929C9.73917 5.44023 9.29146 5.46793 9.0324 5.76116C8.77335 6.05439 8.80105 6.50211 9.09428 6.76116Z" fill="#3F3F46"/>
</g>
<defs>
<clipPath id="clip0_1331_28328">
<rect width="11.3353" height="11.3353" fill="white" transform="translate(7.50488) rotate(41.4594)"/>
</clipPath>
</defs>
</svg>
