<svg width="15" height="14" viewBox="0 0 15 14" fill="none" xmlns="http://www.w3.org/2000/svg">
<path d="M11.5832 4.914V4.08332C11.5832 1.82818 9.755 0 7.49983 0C5.24465 0 3.4165 1.82818 3.4165 4.08332V4.914C2.35486 5.37734 1.66804 6.42499 1.6665 7.58332V11.0833C1.66842 12.6934 2.97312 13.9981 4.58315 14H10.4165C12.0265 13.9981 13.3312 12.6934 13.3332 11.0833V7.58332C13.3316 6.42499 12.6448 5.37734 11.5832 4.914ZM8.08315 9.91668C8.08315 10.2388 7.82199 10.5 7.49983 10.5C7.17766 10.5 6.9165 10.2388 6.9165 9.91668V8.75C6.9165 8.42784 7.17766 8.16668 7.49983 8.16668C7.82199 8.16668 8.08315 8.42784 8.08315 8.75V9.91668ZM10.4165 4.66668H4.58315V4.08335C4.58315 2.47253 5.88898 1.16668 7.49983 1.16668C9.11068 1.16668 10.4165 2.4725 10.4165 4.08335V4.66668Z" fill="#2D2F36"/>
</svg>
