<svg viewBox="0 0 41 41" fill="none" xmlns="http://www.w3.org/2000/svg">
    <path d="M33.9472 7.05184C30.355 3.45969 25.579 1.48145 20.499 1.48145C15.419 1.48145 10.643 3.45969 7.05086 7.05184C3.45872 10.644 1.48047 15.42 1.48047 20.5C1.48047 25.58 3.45872 30.356 7.05086 33.9482C10.643 37.5403 15.419 39.5186 20.499 39.5186C25.579 39.5186 30.355 37.5403 33.9472 33.9482C37.5393 30.356 39.5176 25.58 39.5176 20.5C39.5176 15.42 37.5393 10.644 33.9472 7.05184ZM20.499 37.5166C11.116 37.5166 3.48242 29.883 3.48242 20.5C3.48242 11.117 11.116 3.4834 20.499 3.4834C29.882 3.4834 37.5156 11.117 37.5156 20.5C37.5156 29.883 29.882 37.5166 20.499 37.5166ZM17.5962 13.2942V27.7059C17.5962 28.2587 17.148 28.7069 16.5952 28.7069C16.0424 28.7069 15.5942 28.2587 15.5942 27.7059V13.2942C15.5942 12.7414 16.0424 12.2932 16.5952 12.2932C17.148 12.2932 17.5962 12.7413 17.5962 13.2942ZM25.4038 13.2942V27.7059C25.4038 28.2587 24.9556 28.7069 24.4028 28.7069C23.8501 28.7069 23.4019 28.2587 23.4019 27.7059V13.2942C23.4019 12.7414 23.8501 12.2932 24.4028 12.2932C24.9556 12.2932 25.4038 12.7413 25.4038 13.2942Z" fill="#FEFEFC"/>
    </svg>
    