<svg viewBox="0 0 45 45" fill="none" xmlns="http://www.w3.org/2000/svg">
<rect x="0.703125" y="0.703125" width="43.5938" height="43.5938" rx="21.7969" stroke="#FEFEFC" stroke-width="1.40625"/>
<g clip-path="url(#clip0_2233_7619)">
<path d="M31.5234 21.6797H23.3203V13.4766C23.3203 13.259 23.2339 13.0504 23.08 12.8965C22.9262 12.7427 22.7176 12.6562 22.5 12.6562V12.6562C22.2824 12.6562 22.0738 12.7427 21.92 12.8965C21.7661 13.0504 21.6797 13.259 21.6797 13.4766V21.6797H13.4766C13.259 21.6797 13.0504 21.7661 12.8965 21.92C12.7427 22.0738 12.6562 22.2824 12.6562 22.5V22.5C12.6562 22.7176 12.7427 22.9262 12.8965 23.08C13.0504 23.2339 13.259 23.3203 13.4766 23.3203H21.6797V31.5234C21.6797 31.741 21.7661 31.9496 21.92 32.1035C22.0738 32.2573 22.2824 32.3438 22.5 32.3438C22.7176 32.3438 22.9262 32.2573 23.08 32.1035C23.2339 31.9496 23.3203 31.741 23.3203 31.5234V23.3203H31.5234C31.741 23.3203 31.9496 23.2339 32.1035 23.08C32.2573 22.9262 32.3438 22.7176 32.3438 22.5C32.3438 22.2824 32.2573 22.0738 32.1035 21.92C31.9496 21.7661 31.741 21.6797 31.5234 21.6797Z" fill="#FEFEFC"/>
</g>
<defs>
<clipPath id="clip0_2233_7619">
<rect width="19.6875" height="19.6875" fill="white" transform="translate(12.6562 12.6562)"/>
</clipPath>
</defs>
</svg>
