<svg width="16" height="16" viewBox="0 0 16 16" fill="none" xmlns="http://www.w3.org/2000/svg">
<g clip-path="url(#clip0_990_113)">
<path d="M15.631 14.3999L11.3132 10.0821C12.1496 9.04902 12.6532 7.73627 12.6532 6.30651C12.6532 2.99272 9.95685 0.296387 6.64306 0.296387C3.32927 0.296387 0.632965 2.99269 0.632965 6.30648C0.632965 9.62027 3.3293 12.3166 6.64309 12.3166C8.07285 12.3166 9.3856 11.813 10.4187 10.9767L14.7365 15.2945C14.8599 15.4178 15.0218 15.4798 15.1838 15.4798C15.3458 15.4798 15.5077 15.4178 15.6311 15.2945C15.8784 15.0471 15.8784 14.6473 15.631 14.3999ZM6.64309 11.0513C4.02647 11.0513 1.89826 8.9231 1.89826 6.30648C1.89826 3.68986 4.02647 1.56165 6.64309 1.56165C9.25971 1.56165 11.3879 3.68986 11.3879 6.30648C11.3879 8.9231 9.25968 11.0513 6.64309 11.0513Z" fill="currentColor"/>
</g>
<defs>
<clipPath id="clip0_990_113">
<rect width="15.1836" height="15.1836" fill="white" transform="translate(0.632965 0.296387)"/>
</clipPath>
</defs>
</svg>