<svg width="15" height="16" viewBox="0 0 15 16" fill="none" xmlns="http://www.w3.org/2000/svg">
<g clip-path="url(#clip0_990_119)">
<path d="M13.125 4.13818H11.25C11.25 3.14362 10.8549 2.18979 10.1517 1.48653C9.44839 0.783272 8.49456 0.388184 7.5 0.388184C6.50544 0.388184 5.55161 0.783272 4.84835 1.48653C4.14509 2.18979 3.75 3.14362 3.75 4.13818H1.875C1.37772 4.13818 0.900805 4.33573 0.549175 4.68736C0.197544 5.03899 0 5.5159 0 6.01318L0 12.2632C0.000992411 13.0917 0.330551 13.886 0.916387 14.4718C1.50222 15.0576 2.2965 15.3872 3.125 15.3882H11.875C12.7035 15.3872 13.4978 15.0576 14.0836 14.4718C14.6694 13.886 14.999 13.0917 15 12.2632V6.01318C15 5.5159 14.8025 5.03899 14.4508 4.68736C14.0992 4.33573 13.6223 4.13818 13.125 4.13818ZM7.5 1.63818C8.16304 1.63818 8.79893 1.90158 9.26777 2.37042C9.73661 2.83926 10 3.47514 10 4.13818H5C5 3.47514 5.26339 2.83926 5.73223 2.37042C6.20107 1.90158 6.83696 1.63818 7.5 1.63818ZM13.75 12.2632C13.75 12.7605 13.5525 13.2374 13.2008 13.589C12.8492 13.9406 12.3723 14.1382 11.875 14.1382H3.125C2.62772 14.1382 2.15081 13.9406 1.79917 13.589C1.44754 13.2374 1.25 12.7605 1.25 12.2632V6.01318C1.25 5.84742 1.31585 5.68845 1.43306 5.57124C1.55027 5.45403 1.70924 5.38818 1.875 5.38818H3.75V6.63818C3.75 6.80394 3.81585 6.96291 3.93306 7.08013C4.05027 7.19734 4.20924 7.26318 4.375 7.26318C4.54076 7.26318 4.69973 7.19734 4.81694 7.08013C4.93415 6.96291 5 6.80394 5 6.63818V5.38818H10V6.63818C10 6.80394 10.0658 6.96291 10.1831 7.08013C10.3003 7.19734 10.4592 7.26318 10.625 7.26318C10.7908 7.26318 10.9497 7.19734 11.0669 7.08013C11.1842 6.96291 11.25 6.80394 11.25 6.63818V5.38818H13.125C13.2908 5.38818 13.4497 5.45403 13.5669 5.57124C13.6842 5.68845 13.75 5.84742 13.75 6.01318V12.2632Z" fill="currentColor"/>
</g>
<defs>
<clipPath id="clip0_990_119">
<rect width="15" height="15" fill="white" transform="translate(0 0.388184)"/>
</clipPath>
</defs>
</svg>