<svg viewBox="0 0 38 38" fill="none" xmlns="http://www.w3.org/2000/svg">
<g clip-path="url(#clip0_1915_37869)">
<path d="M18.9975 0.191406C8.6273 0.191406 0.1875 8.62741 0.1875 19.0014C0.1875 29.3754 8.6235 37.8114 18.9975 37.8114C29.3715 37.8114 37.8075 29.3716 37.8075 19.0014C37.8075 8.63121 29.3677 0.191406 18.9975 0.191406ZM18.9975 35.7974C14.7719 35.7974 10.9149 34.2166 7.9585 31.6288L11.5457 28.0378C11.9409 27.6426 11.9409 27.008 11.5457 26.6128C11.1505 26.2176 10.5159 26.2176 10.1207 26.6128L6.5259 30.2114C3.8469 27.236 2.2015 23.3106 2.2015 19.0014C2.2015 9.74081 9.7369 2.20541 18.9975 2.20541C23.3067 2.20541 27.2283 3.85081 30.2075 6.52981L26.6773 10.0638C26.2821 10.459 26.2821 11.0936 26.6773 11.4888C26.8749 11.6864 27.1333 11.7852 27.3879 11.7852C27.6425 11.7852 27.9047 11.6864 28.0985 11.4888L31.6211 7.96241C34.2089 10.9188 35.7897 14.772 35.7897 19.0014C35.7897 28.262 28.2543 35.7974 18.9937 35.7974H18.9975Z" fill="url(#paint0_linear_1915_37869)"/>
<path d="M18.7535 11L18.461 11.1338L11.2544 14.3761L11.0179 14.4757C10.9028 14.5255 10.8281 14.6375 10.8281 14.762V23.5151C10.8281 23.6271 10.8872 23.7298 10.9868 23.7858L11.1891 23.8978L18.3957 27.9056L18.6041 28.0239C18.6975 28.0768 18.8157 28.0768 18.9091 28.0239L19.1176 27.9056L26.3242 23.8978L26.5264 23.7858C26.6229 23.7298 26.6851 23.6271 26.6851 23.5151V14.762C26.6851 14.6375 26.6104 14.5224 26.4953 14.4757L26.2588 14.3761L19.0522 11.1338L18.7597 11H18.7535ZM18.8811 12.6336L23.6948 14.7869C23.9344 14.8927 23.9406 15.2318 23.7073 15.3501L18.8935 17.7554C18.8064 17.799 18.7037 17.799 18.6166 17.7554L13.8029 15.3501C13.5695 15.2318 13.5757 14.8958 13.8153 14.7869L18.629 12.6336C18.7099 12.5963 18.8033 12.5963 18.8842 12.6336H18.8811ZM12.72 16.4267L17.8636 18.9969C17.9694 19.0498 18.0347 19.1588 18.0347 19.2739V25.5128C18.0347 25.7492 17.7796 25.8986 17.5711 25.7835L12.4275 22.9301C12.3279 22.8741 12.2688 22.7714 12.2688 22.6594V16.7037C12.2688 16.4734 12.5115 16.3209 12.72 16.4267ZM25.2382 16.7037V22.6594C25.2382 22.7714 25.176 22.8772 25.0795 22.9301L19.9359 25.7835C19.7275 25.8986 19.4723 25.7492 19.4723 25.5128V19.2739C19.4723 19.1556 19.5376 19.0467 19.6434 18.9969L24.787 16.4267C24.9924 16.324 25.2382 16.4734 25.2382 16.7037Z" fill="url(#paint1_linear_1915_37869)"/>
</g>
<defs>
<linearGradient id="paint0_linear_1915_37869" x1="9.5925" y1="0.191406" x2="34.6725" y2="37.8114" gradientUnits="userSpaceOnUse">
<stop stop-color="#B9846F"/>
<stop offset="0.276451" stop-color="#EFD0B6"/>
<stop offset="1" stop-color="#B08271"/>
</linearGradient>
<linearGradient id="paint1_linear_1915_37869" x1="14.7924" y1="11" x2="26.4662" y2="27.2726" gradientUnits="userSpaceOnUse">
<stop stop-color="#B9846F"/>
<stop offset="0.276451" stop-color="#EFD0B6"/>
<stop offset="1" stop-color="#B08271"/>
</linearGradient>
<clipPath id="clip0_1915_37869">
<rect width="38" height="38" fill="white"/>
</clipPath>
</defs>
</svg>
