<svg  viewBox="0 0 39 38" fill="none" xmlns="http://www.w3.org/2000/svg">
<path d="M19.0889 38H19.0054C8.55499 38 0.0527344 29.4953 0.0527344 19.0418V18.9582C0.0527344 8.50474 8.55499 0 19.0054 0H19.0889C29.5393 0 38.0416 8.50474 38.0416 18.9582V19.0418C38.0416 29.4953 29.5393 38 19.0889 38ZM19.0054 1.28626C9.26351 1.28626 1.33862 9.21347 1.33862 18.9582V19.0418C1.33862 28.7865 9.26351 36.7137 19.0054 36.7137H19.0889C28.8308 36.7137 36.7557 28.7865 36.7557 19.0418V18.9582C36.7557 9.21347 28.8308 1.28626 19.0889 1.28626H19.0054Z" fill="url(#paint0_linear_1878_6640)"/>
<path d="M26.6841 15.0223V17.7735C26.2034 17.7265 25.5788 17.6173 24.8879 17.3641C23.9857 17.0334 23.3141 16.5811 22.8743 16.231V21.7917L22.8631 21.7743C22.8702 21.8845 22.8743 21.9968 22.8743 22.1102C22.8743 24.8716 20.628 27.1196 17.8663 27.1196C15.1047 27.1196 12.8584 24.8716 12.8584 22.1102C12.8584 19.3487 15.1047 17.0997 17.8663 17.0997C18.1368 17.0997 18.4021 17.1212 18.6614 17.163V19.8745C18.4124 19.7856 18.145 19.7377 17.8663 19.7377C16.559 19.7377 15.4945 20.8014 15.4945 22.1102C15.4945 23.4189 16.559 24.4827 17.8663 24.4827C19.1737 24.4827 20.2381 23.4179 20.2381 22.1102C20.2381 22.0612 20.2371 22.0122 20.2341 21.9632V11.1572H22.9825C22.9927 11.39 23.0019 11.6248 23.0121 11.8576C23.0304 12.3159 23.1937 12.7559 23.4785 13.1163C23.8122 13.54 24.3051 14.032 24.9971 14.425C25.6451 14.7915 26.2534 14.9498 26.6841 15.0243V15.0223Z" fill="url(#paint1_linear_1878_6640)"/>
<defs>
<linearGradient id="paint0_linear_1878_6640" x1="9.54994" y1="0" x2="34.8861" y2="37.9931" gradientUnits="userSpaceOnUse">
<stop stop-color="#C6937F"/>
<stop offset="0.276451" stop-color="#FFE5CF"/>
<stop offset="1" stop-color="#B08271"/>
</linearGradient>
<linearGradient id="paint1_linear_1878_6640" x1="16.3148" y1="11.1572" x2="27.4592" y2="25.6362" gradientUnits="userSpaceOnUse">
<stop stop-color="#C6937F"/>
<stop offset="0.276451" stop-color="#FFE5CF"/>
<stop offset="1" stop-color="#B08271"/>
</linearGradient>
</defs>
</svg>
