<svg viewBox="0 0 16 17"  xmlns="http://www.w3.org/2000/svg">
<g clip-path="url(#clip0_1007_11413)">
<path fill="currentColor" d="M14.0002 3.35319H11.9335C11.7788 2.6008 11.3694 1.92475 10.7743 1.439C10.1793 0.95325 9.43497 0.687493 8.66683 0.686523L7.3335 0.686523C6.56536 0.687493 5.82104 0.95325 5.226 1.439C4.63095 1.92475 4.22156 2.6008 4.06683 3.35319H2.00016C1.82335 3.35319 1.65378 3.42343 1.52876 3.54845C1.40373 3.67348 1.3335 3.84305 1.3335 4.01986C1.3335 4.19667 1.40373 4.36624 1.52876 4.49126C1.65378 4.61629 1.82335 4.68652 2.00016 4.68652H2.66683V13.3532C2.66789 14.2369 3.01942 15.0842 3.64431 15.709C4.2692 16.3339 5.11643 16.6855 6.00016 16.6865H10.0002C10.8839 16.6855 11.7311 16.3339 12.356 15.709C12.9809 15.0842 13.3324 14.2369 13.3335 13.3532V4.68652H14.0002C14.177 4.68652 14.3465 4.61629 14.4716 4.49126C14.5966 4.36624 14.6668 4.19667 14.6668 4.01986C14.6668 3.84305 14.5966 3.67348 14.4716 3.54845C14.3465 3.42343 14.177 3.35319 14.0002 3.35319ZM7.3335 2.01986H8.66683C9.08035 2.02036 9.48358 2.14877 9.82124 2.38749C10.1589 2.6262 10.4144 2.96352 10.5528 3.35319H5.4475C5.58588 2.96352 5.84143 2.6262 6.17909 2.38749C6.51675 2.14877 6.91998 2.02036 7.3335 2.01986ZM12.0002 13.3532C12.0002 13.8836 11.7894 14.3923 11.4144 14.7674C11.0393 15.1425 10.5306 15.3532 10.0002 15.3532H6.00016C5.46973 15.3532 4.96102 15.1425 4.58595 14.7674C4.21088 14.3923 4.00016 13.8836 4.00016 13.3532V4.68652H12.0002V13.3532Z"/>
<path fill="currentColor" d="M6.66667 12.6859C6.84348 12.6859 7.01304 12.6156 7.13807 12.4906C7.26309 12.3656 7.33333 12.196 7.33333 12.0192V8.0192C7.33333 7.84239 7.26309 7.67282 7.13807 7.5478C7.01304 7.42278 6.84348 7.35254 6.66667 7.35254C6.48985 7.35254 6.32029 7.42278 6.19526 7.5478C6.07024 7.67282 6 7.84239 6 8.0192V12.0192C6 12.196 6.07024 12.3656 6.19526 12.4906C6.32029 12.6156 6.48985 12.6859 6.66667 12.6859Z" fill="#71717A"/>
<path fill="currentColor" d="M9.33317 12.6859C9.50999 12.6859 9.67956 12.6156 9.80458 12.4906C9.92961 12.3656 9.99984 12.196 9.99984 12.0192V8.0192C9.99984 7.84239 9.92961 7.67282 9.80458 7.5478C9.67956 7.42278 9.50999 7.35254 9.33317 7.35254C9.15636 7.35254 8.98679 7.42278 8.86177 7.5478C8.73674 7.67282 8.6665 7.84239 8.6665 8.0192V12.0192C8.6665 12.196 8.73674 12.3656 8.86177 12.4906C8.98679 12.6156 9.15636 12.6859 9.33317 12.6859Z" fill="#71717A"/>
</g>
<defs>
<clipPath id="clip0_1007_11413">
<rect width="16" height="16" fill="currentColor" transform="translate(0 0.686523)"/>
</clipPath>
</defs>
</svg>
