<svg  viewBox="0 0 39 38" fill="none" xmlns="http://www.w3.org/2000/svg">
<path d="M19.2061 38H19.1225C8.67218 38 0.169922 29.4953 0.169922 19.0418V18.9582C0.169922 8.50474 8.67218 0 19.1225 0H19.2061C29.6565 0 38.1587 8.50474 38.1587 18.9582V19.0418C38.1587 29.4953 29.6565 38 19.2061 38ZM19.1225 1.28626C9.3807 1.28626 1.4558 9.21347 1.4558 18.9582V19.0418C1.4558 28.7865 9.3807 36.7137 19.1225 36.7137H19.2061C28.948 36.7137 36.8729 28.7865 36.8729 19.0418V18.9582C36.8729 9.21347 28.948 1.28626 19.2061 1.28626H19.1225Z" fill="url(#paint0_linear_1878_6643)"/>
<path d="M10.7283 11.1592L17.2732 19.9121L10.6875 27.0289H12.1701L17.9364 20.7984L22.595 27.0289H27.6394L20.7266 17.7836L26.8568 11.1592H25.3742L20.0643 16.8974L15.7737 11.1592H10.7293H10.7283ZM12.9079 12.2513H15.2248L25.4578 25.9368H23.1409L12.9079 12.2513Z" fill="url(#paint1_linear_1878_6643)"/>
<defs>
<linearGradient id="paint0_linear_1878_6643" x1="9.66712" y1="0" x2="35.0033" y2="37.9931" gradientUnits="userSpaceOnUse">
<stop stop-color="#C6937F"/>
<stop offset="0.276451" stop-color="#FFE5CF"/>
<stop offset="1" stop-color="#B08271"/>
</linearGradient>
<linearGradient id="paint1_linear_1878_6643" x1="14.9255" y1="11.1592" x2="25.2215" y2="27.6563" gradientUnits="userSpaceOnUse">
<stop stop-color="#C6937F"/>
<stop offset="0.276451" stop-color="#FFE5CF"/>
<stop offset="1" stop-color="#B08271"/>
</linearGradient>
</defs>
</svg>
