<svg width="23" height="14" viewBox="0 0 23 14" fill="none" xmlns="http://www.w3.org/2000/svg">
<path d="M4.82774 0.00158691H10.3435C11.1135 0.00158691 11.5924 0.629165 11.4127 1.40167L8.84475 12.427C8.66352 13.1969 7.89263 13.825 7.12214 13.825H1.6069C0.838023 13.825 0.358063 13.1969 0.537678 12.427L3.10674 1.40167C3.28636 0.629165 4.05685 0.00158691 4.82774 0.00158691Z" fill="#E21836"/>
<path d="M9.88599 0H16.229C16.9988 0 16.6517 0.627578 16.4706 1.40009L13.903 12.4255C13.7228 13.1953 13.779 13.8234 13.0076 13.8234H6.66461C5.89318 13.8234 5.41577 13.1953 5.597 12.4255L8.16445 1.40009C8.34676 0.627578 9.11563 0 9.88599 0Z" fill="#00447C"/>
<path d="M15.9756 0H21.4914C22.2624 0 22.7413 0.627578 22.5602 1.40009L19.9926 12.4255C19.8114 13.1953 19.0399 13.8234 18.269 13.8234H12.7558C11.9844 13.8234 11.5059 13.1953 11.6866 12.4255L14.2546 1.40009C14.4342 0.627578 15.2041 0 15.9756 0Z" fill="#007B84"/>
<path d="M6.26975 3.53338C5.70254 3.53916 5.53502 3.53338 5.48151 3.52075C5.46094 3.61849 5.07818 5.38412 5.07711 5.3856C4.9947 5.74281 4.93473 5.99745 4.73105 6.16187C4.61543 6.25746 4.48045 6.30357 4.32396 6.30357C4.07242 6.30357 3.92588 6.17867 3.90127 5.94179L3.89657 5.86045C3.89657 5.86045 3.9732 5.38197 3.9732 5.37928C3.9732 5.37928 4.37491 3.77027 4.44684 3.55758C4.45061 3.54548 4.45168 3.53916 4.45262 3.53338C3.6707 3.54024 3.53209 3.53338 3.52255 3.52075C3.51731 3.53809 3.49795 3.63784 3.49795 3.63784L3.08776 5.45134L3.05254 5.60514L2.98438 6.10823C2.98438 6.25746 3.01368 6.37926 3.07203 6.48225C3.25891 6.80881 3.79197 6.85774 4.09353 6.85774C4.48207 6.85774 4.84654 6.7752 5.09284 6.62449C5.52037 6.37187 5.63222 5.97701 5.73198 5.62612L5.77823 5.4461C5.77823 5.4461 6.19204 3.77498 6.26235 3.55758C6.26504 3.54548 6.26612 3.53916 6.26975 3.53338ZM7.67773 4.88149C7.57797 4.88149 7.39567 4.90569 7.23191 4.98595C7.17249 5.01647 7.11629 5.0517 7.057 5.08679L7.11051 4.89359L7.0812 4.86106C6.73394 4.93137 6.65623 4.94078 6.33545 4.98595L6.30856 5.00384C6.27132 5.31265 6.23825 5.54483 6.10018 6.15184C6.04761 6.37555 5.99303 6.60142 5.93831 6.82459L5.9531 6.85296C6.28181 6.83562 6.38156 6.83561 6.66725 6.84032L6.69038 6.81518C6.72668 6.62925 6.73138 6.58569 6.81178 6.20911C6.84956 6.03057 6.92834 5.63827 6.9672 5.49858C7.03859 5.46551 7.10903 5.43298 7.17625 5.43298C7.33638 5.43298 7.31688 5.57266 7.3107 5.62832C7.30384 5.72176 7.24549 6.02694 7.18567 6.28897L7.14574 6.4581C7.11791 6.583 7.08739 6.7044 7.05956 6.82822L7.07166 6.85296C7.39567 6.83562 7.49448 6.83561 7.77116 6.84032L7.8037 6.81518C7.85371 6.52478 7.86837 6.44708 7.9571 6.02425L8.00173 5.82998C8.08845 5.44978 8.13201 5.25699 8.0664 5.09996C7.99703 4.92398 7.83059 4.88149 7.67773 4.88149ZM9.2506 5.27956C9.07838 5.31264 8.96854 5.33468 8.85937 5.34894C8.75114 5.36628 8.64561 5.38201 8.47917 5.40513L8.46599 5.4171L8.45389 5.42664C8.43655 5.5506 8.42445 5.65775 8.40146 5.78372C8.38196 5.914 8.35198 6.06202 8.30318 6.27471C8.2654 6.43752 8.24591 6.49425 8.2244 6.55152C8.20342 6.6088 8.1803 6.66446 8.13781 6.82458L8.14776 6.83937L8.1561 6.85294C8.31165 6.84555 8.41342 6.84031 8.51802 6.83937C8.62248 6.8356 8.73071 6.83937 8.89822 6.84031L8.91288 6.82834L8.92861 6.81517C8.95281 6.67077 8.95644 6.63192 8.97122 6.56147C8.98588 6.48592 9.01115 6.38132 9.07313 6.10195C9.10244 5.97073 9.13511 5.83992 9.16549 5.70601C9.19709 5.57265 9.23016 5.4413 9.26162 5.31008L9.25692 5.29422L9.2506 5.27956ZM9.25427 4.74284C9.09778 4.65048 8.82311 4.67979 8.63825 4.80737C8.45393 4.93241 8.43296 5.10987 8.58891 5.20344C8.74271 5.29325 9.01845 5.2665 9.2017 5.13783C9.38562 5.01011 9.40861 4.83426 9.25427 4.74284ZM10.2007 6.88189C10.5173 6.88189 10.8418 6.79464 11.0861 6.5357C11.2741 6.3257 11.3602 6.01326 11.3901 5.88459C11.4873 5.45814 11.4116 5.25903 11.3165 5.13777C11.1722 4.95291 10.917 4.89362 10.6523 4.89362C10.4931 4.89362 10.114 4.90935 9.81778 5.1824C9.60509 5.37936 9.50682 5.64663 9.44753 5.90288C9.3877 6.16397 9.31887 6.63398 9.7511 6.80889C9.88447 6.86616 10.0767 6.88189 10.2007 6.88189ZM10.1759 5.92237C10.2489 5.59944 10.3351 5.32841 10.5551 5.32841C10.7274 5.32841 10.7399 5.53007 10.6633 5.85408C10.6496 5.926 10.5867 6.19341 10.5016 6.30728C10.4421 6.39131 10.3718 6.44226 10.2941 6.44226C10.271 6.44226 10.1335 6.44226 10.1313 6.23804C10.1302 6.13721 10.1508 6.03423 10.1759 5.92237ZM12.1816 6.84036L12.2063 6.81522C12.2414 6.62929 12.2472 6.58559 12.3249 6.20915C12.3637 6.03061 12.4441 5.63831 12.4819 5.49862C12.5534 5.46542 12.6227 5.43288 12.692 5.43288C12.8511 5.43288 12.8317 5.57257 12.8254 5.62823C12.8196 5.7218 12.7613 6.02685 12.7004 6.28888L12.6626 6.45801C12.6337 6.58304 12.6022 6.7043 12.5744 6.82826L12.5865 6.853C12.9116 6.83566 13.0066 6.83565 13.2849 6.84036L13.3185 6.81522C13.3673 6.52469 13.3805 6.44698 13.4719 6.02429L13.5155 5.82989C13.6026 5.44969 13.6467 5.25703 13.5822 5.1C13.5108 4.92402 13.3433 4.88153 13.1926 4.88153C13.0927 4.88153 12.9094 4.9056 12.7466 4.98599C12.6884 5.01651 12.6301 5.0516 12.5728 5.08683L12.6227 4.89363L12.5959 4.86096C12.2488 4.93141 12.1695 4.94082 11.8491 4.98599L11.8245 5.00388C11.7856 5.31269 11.754 5.54474 11.616 6.15188C11.5634 6.37559 11.5088 6.60146 11.4542 6.82463L11.4689 6.853C11.7981 6.83566 11.8964 6.83565 12.1816 6.84036ZM14.57 6.85293C14.5904 6.75318 14.7118 6.1619 14.7129 6.1619C14.7129 6.1619 14.8163 5.72805 14.8226 5.71232C14.8226 5.71232 14.8551 5.66715 14.8877 5.64927H14.9355C15.3871 5.64927 15.8971 5.64927 16.2968 5.35524C16.5688 5.15358 16.7547 4.85579 16.8376 4.49387C16.8591 4.40514 16.875 4.2996 16.875 4.19406C16.875 4.05545 16.8472 3.91832 16.7668 3.81117C16.563 3.52602 16.1571 3.52077 15.6886 3.51862C15.6871 3.51862 15.4576 3.52077 15.4576 3.52077C14.8578 3.52817 14.6173 3.52602 14.5185 3.51392C14.5102 3.55761 14.4944 3.63532 14.4944 3.63532C14.4944 3.63532 14.2796 4.631 14.2796 4.63261C14.2796 4.63261 13.7655 6.74954 13.7413 6.8493C14.2649 6.84298 14.4796 6.84298 14.57 6.85293ZM14.9681 5.0842C14.9681 5.0842 15.1965 4.09054 15.1954 4.0943L15.2028 4.04335L15.206 4.0045L15.2973 4.01391C15.2973 4.01391 15.7684 4.05437 15.7794 4.05545C15.9654 4.12738 16.042 4.31277 15.9885 4.55477C15.9397 4.77593 15.7962 4.96186 15.6119 5.05167C15.4601 5.12776 15.2742 5.13408 15.0826 5.13408H14.9587L14.9681 5.0842ZM16.3903 5.94078C16.3299 6.1981 16.2605 6.66811 16.6906 6.83563C16.8277 6.89398 16.9506 6.91132 17.0755 6.905C17.2074 6.89788 17.3296 6.83173 17.4428 6.73654C17.4326 6.77567 17.4224 6.81479 17.4122 6.85405L17.4317 6.87919C17.741 6.86615 17.837 6.86615 18.1722 6.8687L18.2026 6.84558C18.2515 6.55787 18.2976 6.2785 18.4248 5.72809C18.4868 5.46445 18.5486 5.20336 18.6122 4.94079L18.6022 4.91189C18.2562 4.97602 18.1637 4.98973 17.8308 5.03692L17.8055 5.05749C17.8022 5.08425 17.7987 5.10992 17.7955 5.1356C17.7437 5.05198 17.6687 4.98059 17.5529 4.93609C17.4049 4.87788 17.0572 4.95289 16.7584 5.22501C16.5484 5.41928 16.4475 5.68547 16.3903 5.94078ZM17.1171 5.95651C17.1911 5.63936 17.2762 5.37101 17.4967 5.37101C17.6361 5.37101 17.7095 5.49967 17.6946 5.71908C17.6828 5.7738 17.67 5.83148 17.6548 5.89668C17.6328 5.99093 17.6089 6.08436 17.5856 6.17794C17.5619 6.24193 17.5344 6.30229 17.5041 6.34249C17.4474 6.42289 17.3124 6.47277 17.2347 6.47277C17.2126 6.47277 17.0766 6.47277 17.0719 6.27218C17.0708 6.17229 17.0914 6.06944 17.1171 5.95651ZM20.9124 4.90932L20.8857 4.8788C20.5433 4.94818 20.4813 4.9592 20.1667 5.00168L20.1436 5.02481C20.1425 5.02857 20.1415 5.03435 20.1399 5.0396L20.1389 5.03435C19.9047 5.57468 19.9115 5.45812 19.7209 5.88349C19.7198 5.86413 19.7198 5.85203 19.7187 5.83146L19.671 4.90932L19.641 4.8788C19.2823 4.94818 19.2739 4.9592 18.9426 5.00168L18.9168 5.02481C18.9131 5.03583 18.9131 5.04793 18.911 5.06111L18.9131 5.06581C18.9546 5.27743 18.9446 5.23024 18.9861 5.56419C19.0055 5.72808 19.0313 5.8929 19.0507 6.05477C19.0834 6.32567 19.1016 6.45904 19.1416 6.87245C18.9179 7.24163 18.8649 7.38132 18.6495 7.70532L18.651 7.70855L18.4993 7.9484C18.482 7.97367 18.4663 7.99101 18.4442 7.99841C18.42 8.01037 18.3886 8.01253 18.3449 8.01253H18.2608L18.1359 8.42795L18.5644 8.43535C18.8159 8.43427 18.974 8.31663 19.0592 8.15853L19.3286 7.69685H19.3243L19.3526 7.66432C19.5339 7.27417 20.9124 4.90932 20.9124 4.90932ZM16.3903 10.3653H16.2085L16.8812 8.14018H17.1044L17.1753 7.91095L17.1821 8.16586C17.1738 8.32342 17.2977 8.46311 17.6234 8.43999H17.9999L18.1295 8.01152H17.9878C17.9064 8.01152 17.8686 7.99095 17.8733 7.94685L17.8664 7.68751H17.1691V7.68885C16.9436 7.69356 16.2703 7.7105 16.134 7.7468C15.969 7.78928 15.7952 7.91431 15.7952 7.91431L15.8635 7.68482H15.2112L15.0753 8.14018L14.3935 10.3994H14.2612L14.1315 10.8247H15.4307L15.3872 10.9666H16.0274L16.0699 10.8247H16.2495L16.3903 10.3653ZM15.8572 8.59231C15.7527 8.62121 15.5583 8.70887 15.5583 8.70887L15.7312 8.14018H16.2495L16.1245 8.55453C16.1245 8.55453 15.9643 8.56394 15.8572 8.59231ZM15.8671 9.40475C15.8671 9.40475 15.7043 9.42518 15.5972 9.44938C15.4916 9.48138 15.2937 9.58221 15.2937 9.58221L15.4723 8.99039H15.9932L15.8671 9.40475ZM15.5767 10.3706H15.0568L15.2076 9.87113H15.7258L15.5767 10.3706ZM16.8287 8.99039H17.5781L17.4704 9.33914H16.7111L16.5971 9.72042H17.2615L16.7584 10.4288C16.7232 10.4808 16.6916 10.4992 16.6565 10.5139C16.6213 10.5318 16.5751 10.5527 16.5215 10.5527H16.3372L16.2106 10.9703H16.6927C16.9433 10.9703 17.0913 10.8563 17.2006 10.7067L17.5456 10.2345L17.6197 10.7139C17.6354 10.8038 17.6999 10.8563 17.7436 10.8768C17.7919 10.901 17.8418 10.9425 17.9122 10.9487C17.9878 10.9519 18.0424 10.9545 18.0787 10.9545H18.3155L18.4578 10.4871H18.3644C18.3107 10.4871 18.2183 10.4781 18.2026 10.4613C18.1869 10.4409 18.1869 10.4094 18.1784 10.3616L18.1033 9.88107H17.7955L17.9305 9.72042H18.6884L18.8049 9.33914H18.1033L18.2126 8.99039H18.9121L19.0418 8.56031H16.9563L16.8287 8.99039ZM10.4994 10.4677L10.6743 9.88582H11.3932L11.5246 9.45305H10.805L10.9149 9.09489H11.618L11.7483 8.67584H9.98896L9.86137 9.09489H10.2611L10.1545 9.45305H9.75368L9.62085 9.89322H10.0204L9.78729 10.663C9.75583 10.7649 9.80208 10.8038 9.83139 10.8511C9.86137 10.8972 9.89175 10.9278 9.96005 10.9451C10.0305 10.9608 10.0788 10.9702 10.1444 10.9702H10.9548L11.0992 10.4908L10.74 10.5402C10.6706 10.5402 10.4785 10.5318 10.4994 10.4677ZM10.5819 7.6822L10.3997 8.01145C10.3607 8.08338 10.3256 8.12801 10.294 8.14858C10.2662 8.16592 10.2111 8.17318 10.1312 8.17318H10.0362L9.90914 8.59439H10.2248C10.3766 8.59439 10.4932 8.53873 10.5488 8.5109C10.6086 8.47891 10.6244 8.49719 10.6706 8.45256L10.7772 8.36019H11.763L11.8938 7.92164H11.1722L11.2982 7.6822H10.5819ZM12.0371 10.4761C12.0203 10.4519 12.0324 10.4093 12.0581 10.3206L12.3275 9.42884H13.286C13.4257 9.42682 13.5265 9.42521 13.5921 9.4205C13.6626 9.41311 13.7392 9.38797 13.8227 9.34279C13.9089 9.29547 13.953 9.24559 13.9902 9.18832C14.0317 9.13118 14.0984 9.00615 14.1557 8.81336L14.4944 7.68485L13.4997 7.69063C13.4997 7.69063 13.1935 7.7358 13.0586 7.78568C12.9226 7.84134 12.7282 7.99676 12.7282 7.99676L12.818 7.6874H12.2036L11.3434 10.5401C11.3129 10.6509 11.2925 10.7313 11.2878 10.7796C11.2862 10.8316 11.3534 10.8831 11.3969 10.922C11.4484 10.9608 11.5245 10.9545 11.5975 10.9608C11.6743 10.9666 11.7835 10.9702 11.9342 10.9702H12.4063L12.5513 10.4808L12.1286 10.5208C12.0834 10.5208 12.0507 10.4966 12.0371 10.4761ZM12.5014 8.82653H13.5081L13.4441 9.02712C13.4351 9.03183 13.4136 9.01717 13.3111 9.02927H12.4394L12.5014 8.82653ZM12.703 8.15378H13.7182L13.6452 8.39538C13.6452 8.39538 13.1667 8.39067 13.0901 8.40479C12.7529 8.46314 12.556 8.64329 12.556 8.64329L12.703 8.15378ZM13.4666 9.69884C13.4583 9.72882 13.4451 9.7471 13.4267 9.76082C13.4063 9.77399 13.3732 9.7787 13.3238 9.7787H13.1804L13.1889 9.53441H12.5922L12.568 10.7287C12.5671 10.8148 12.5754 10.8647 12.6385 10.9047C12.7015 10.9545 12.8958 10.9609 13.1573 10.9609H13.5312L13.6661 10.5138L13.3406 10.5317L13.2324 10.538C13.2176 10.5317 13.2035 10.5259 13.1878 10.5102C13.1741 10.4966 13.151 10.505 13.1547 10.4188L13.1573 10.1127L13.4986 10.0985C13.6829 10.0985 13.7617 10.0386 13.8289 9.98144C13.8931 9.92672 13.914 9.8638 13.9382 9.7787L13.9955 9.50766H13.5264L13.4666 9.69884Z" fill="#FEFEFE"/>
</svg>
