<svg width="15" height="15" viewBox="0 0 15 15" fill="none" xmlns="http://www.w3.org/2000/svg">
<path d="M0.406372 14.2147C0.406372 14.5641 0.689332 14.8474 1.03902 14.8474C1.3887 14.8474 1.67166 14.5641 1.67166 14.2147C1.67166 11.9822 2.95687 10.0058 4.96018 9.07116C5.65348 9.52171 6.47827 9.78621 7.36483 9.78621C8.25476 9.78621 9.08271 9.51993 9.77764 9.06622C10.3757 9.34853 10.9299 9.72837 11.3911 10.1893C12.4668 11.2653 13.0592 12.6949 13.0592 14.2147C13.0592 14.5641 13.3422 14.8474 13.6919 14.8474C14.0416 14.8474 14.3245 14.5641 14.3245 14.2147C14.3245 12.3569 13.6005 10.6098 12.2857 9.29474C11.8458 8.85458 11.3345 8.47717 10.786 8.16603C11.415 7.40121 11.7933 6.4229 11.7933 5.3577C11.7933 2.91579 9.80644 0.929199 7.36483 0.929199C4.92322 0.929199 2.93633 2.91579 2.93633 5.3577C2.93633 6.42031 3.31316 7.39623 3.93935 8.16023C1.76761 9.38297 0.406372 11.6676 0.406372 14.2147ZM7.36483 2.19449C9.10893 2.19449 10.5281 3.61361 10.5281 5.3577C10.5281 7.1018 9.10893 8.52092 7.36483 8.52092C5.62074 8.52092 4.20162 7.1018 4.20162 5.3577C4.20162 3.61361 5.62074 2.19449 7.36483 2.19449Z" fill="currentColor"/>
</svg>