<svg width="39" height="38" viewBox="0 0 39 38" fill="none" xmlns="http://www.w3.org/2000/svg">
<path d="M19.0289 38C8.53731 38 0 29.4752 0 18.9991C0 8.52293 8.53731 0 19.0289 0C29.5204 0 38.0559 8.52293 38.0559 18.9991C38.0559 29.4752 29.5204 38 19.0289 38ZM19.0289 2.03621C9.66035 2.03621 2.03921 9.64617 2.03921 18.9991C2.03921 28.352 9.66035 35.9638 19.0289 35.9638C28.3974 35.9638 36.0167 28.3538 36.0167 18.9991C36.0167 9.64432 28.3955 2.03621 19.0289 2.03621Z" fill="url(#paint0_linear_1915_37864)"/>
<path d="M10.3359 9.70938C11.0083 9.47883 11.6344 9.26119 12.3012 9.03064C14.3681 15.0065 16.4277 20.9583 18.5112 26.9766C18.5685 26.8309 18.6073 26.746 18.6368 26.652C19.3258 24.5826 20.0129 22.515 20.7056 20.4456C20.7647 20.2667 20.7702 20.1597 20.5929 20.0472C18.3099 18.603 17.3715 15.5247 19.0265 12.7563C19.8485 11.3786 21.0122 10.3512 22.3643 9.51572C23.4153 8.86649 24.5365 8.36113 25.7057 7.96827C25.9052 7.90003 26.0308 7.91663 26.1619 8.10845C27.381 9.86984 28.2972 11.7622 28.6149 13.8998C28.8513 15.4989 28.698 17.0611 27.804 18.4518C26.7511 20.0915 25.2051 20.8901 23.2583 20.8495C22.8593 20.8403 22.7226 20.9639 22.6025 21.3309C21.6919 24.1288 20.7517 26.9139 19.8356 29.7044C19.7451 29.9848 19.6158 30.0751 19.3295 30.0641C18.7883 30.0401 18.2452 30.0383 17.704 30.0641C17.4343 30.0751 17.3272 29.9737 17.2441 29.7339C15.6537 25.1082 14.0541 20.4862 12.4546 15.8623C11.7988 13.9625 11.1413 12.0647 10.4855 10.1649C10.4357 10.0248 10.3932 9.8846 10.3359 9.70569M24.4829 15.7018C24.1375 16.7439 23.8031 17.7546 23.4596 18.7912C24.0728 18.7801 24.6011 18.6123 25.085 18.3061C26.2173 17.5794 26.583 16.4543 26.6348 15.2001C26.7068 13.4498 26.1083 11.8858 25.2254 10.4102C25.2088 10.3863 25.1682 10.3752 25.1294 10.3512C23.5556 11.006 22.1371 11.8802 21.1415 13.3059C20.519 14.1913 20.1015 15.1503 20.3361 16.2773C20.4913 17.0169 20.8515 17.631 21.4758 18.129C21.8286 17.074 22.1648 16.067 22.5083 15.047C23.1788 15.2702 23.8069 15.4805 24.4829 15.7037" fill="url(#paint1_linear_1915_37864)"/>
<defs>
<linearGradient id="paint0_linear_1915_37864" x1="9.51397" y1="0" x2="34.833" y2="38.0343" gradientUnits="userSpaceOnUse">
<stop stop-color="#B9846F"/>
<stop offset="0.276451" stop-color="#EFD0B6"/>
<stop offset="1" stop-color="#B08271"/>
</linearGradient>
<linearGradient id="paint1_linear_1915_37864" x1="14.9305" y1="7.93164" x2="30.538" y2="27.3711" gradientUnits="userSpaceOnUse">
<stop stop-color="#B9846F"/>
<stop offset="0.276451" stop-color="#EFD0B6"/>
<stop offset="1" stop-color="#B08271"/>
</linearGradient>
</defs>
</svg>
