<svg width="17" height="17" viewBox="0 0 17 17" fill="none" xmlns="http://www.w3.org/2000/svg">
<path d="M4.83883 6.99208C2.74854 9.08171 2.74854 12.4818 4.83883 14.5714C6.92912 16.6611 10.3302 16.6611 12.4206 14.5714C14.5109 12.4818 14.5109 9.08171 12.4206 6.99208C11.5358 6.10757 10.4161 5.59759 9.26045 5.46186L9.26045 3.66758L10.5219 3.66758C10.8702 3.66758 11.1526 3.38528 11.1526 3.03706C11.1526 2.68885 10.8702 2.40655 10.5219 2.40655L9.26045 2.40655L9.26045 0.630395C9.26042 0.282182 8.97805 -0.000121111 8.62968 -0.00012112C8.28134 -0.000121129 7.99898 0.282182 7.99898 0.630395L7.99898 2.40655L6.73753 2.40655C6.38919 2.40655 6.10683 2.68885 6.10683 3.03706C6.10683 3.38528 6.38919 3.66758 6.73753 3.66758L7.99898 3.66758L7.99898 5.46183C6.84329 5.59759 5.72363 6.10757 4.83883 6.99208ZM11.5286 7.88378C13.127 9.48174 13.127 12.0818 11.5286 13.6798C9.93014 15.2777 7.32931 15.2778 5.73078 13.6798C4.13231 12.0818 4.13231 9.48174 5.73078 7.88378C7.32925 6.28585 9.93012 6.28585 11.5286 7.88378Z" fill="#2D2F36"/>
</svg>
