<svg width="17" height="16" viewBox="0 0 17 16" fill="none" xmlns="http://www.w3.org/2000/svg">
<g clip-path="url(#clip0_6001_23960)">
<path d="M16.4914 0.580729C16.484 0.523275 16.4714 0.467936 16.4504 0.416016C16.4497 0.414714 16.4497 0.412923 16.4494 0.411296C16.4494 0.41097 16.4491 0.410645 16.4487 0.410319C16.4256 0.355632 16.394 0.30599 16.3584 0.259928C16.3496 0.249023 16.341 0.238281 16.3317 0.228027C16.2936 0.185059 16.2523 0.145345 16.2043 0.112956C16.203 0.111979 16.2013 0.111654 16.2 0.110677C16.1536 0.0800781 16.1024 0.0569662 16.0487 0.038737C16.0353 0.0340169 16.0223 0.0299479 16.0086 0.0263672C15.9523 0.0110677 15.8944 0 15.8333 0H11.1667C10.7987 0 10.5 0.298665 10.5 0.666667C10.5 1.03467 10.7987 1.33333 11.1667 1.33333H14.2236L10.2446 5.31234C9.18359 4.4637 7.87728 4 6.5 4C3.19173 4 0.5 6.69173 0.5 10C0.5 13.3083 3.19173 16 6.5 16C9.80827 16 12.5 13.3083 12.5 10C12.5 8.62337 12.0366 7.31738 11.1873 6.25537L15.1667 2.27604V5.33333C15.1667 5.70133 15.4653 6 15.8333 6C16.2013 6 16.5 5.70133 16.5 5.33333V0.666667C16.5 0.652669 16.4967 0.639323 16.4959 0.625651C16.495 0.610352 16.4933 0.595703 16.4914 0.580729ZM6.5 14.6667C3.9266 14.6667 1.83333 12.5734 1.83333 10C1.83333 7.4266 3.9266 5.33333 6.5 5.33333C7.74593 5.33333 8.91895 5.81836 9.80094 6.69727C10.6816 7.58105 11.1667 8.75407 11.1667 10C11.1667 12.5734 9.07341 14.6667 6.5 14.6667Z" fill="#2D2F36"/>
</g>
<defs>
<clipPath id="clip0_6001_23960">
<rect width="16" height="16" fill="white" transform="translate(0.5)"/>
</clipPath>
</defs>
</svg>
