<svg width="17" height="16" viewBox="0 0 17 16" fill="none" xmlns="http://www.w3.org/2000/svg">
<path d="M9.03256 6.1626V3.85594L10.5419 4.72794C10.6638 4.7917 10.8056 4.8059 10.9377 4.76757C11.0698 4.72924 11.182 4.64135 11.2508 4.52226C11.3197 4.40317 11.3399 4.26208 11.3071 4.12847C11.2744 3.99486 11.1913 3.87907 11.0752 3.80527L9.56589 2.93327L11.0752 2.06127C11.1962 1.98923 11.2842 1.87282 11.3205 1.73684C11.3569 1.60086 11.3387 1.45605 11.2699 1.33327C11.1991 1.21101 11.0826 1.12185 10.9462 1.08535C10.8097 1.04885 10.6643 1.06801 10.5419 1.1386L9.03256 2.0106V0.799935C9.02911 0.659572 8.97181 0.525911 8.87253 0.42663C8.77325 0.327348 8.63959 0.270051 8.49923 0.266602C8.35791 0.267024 8.2225 0.323349 8.12257 0.423278C8.02264 0.523206 7.96631 0.658616 7.96589 0.799935V2.0106L6.45656 1.1386C6.33418 1.06801 6.18878 1.04885 6.05229 1.08535C5.9158 1.12185 5.79937 1.21101 5.72856 1.33327C5.66013 1.45614 5.64219 1.60081 5.67852 1.73668C5.71485 1.87254 5.80261 1.98895 5.92322 2.06127L7.43256 2.93327L5.92322 3.80527C5.80714 3.87907 5.72405 3.99486 5.69133 4.12847C5.6586 4.26208 5.67876 4.40317 5.7476 4.52226C5.81644 4.64135 5.92864 4.72924 6.06075 4.76757C6.19286 4.8059 6.33467 4.7917 6.45656 4.72794L7.96589 3.85594V6.1626C6.74668 6.29891 5.62594 6.89688 4.83384 7.83369C4.04174 8.77051 3.6384 9.97506 3.70666 11.2C3.77492 12.4249 4.3096 13.5771 5.20089 14.4201C6.09218 15.2631 7.27242 15.7329 8.49923 15.7329C9.72603 15.7329 10.9063 15.2631 11.7976 14.4201C12.6888 13.5771 13.2235 12.4249 13.2918 11.2C13.3601 9.97506 12.9567 8.77051 12.1646 7.83369C11.3725 6.89688 10.2518 6.29891 9.03256 6.1626ZM8.49923 14.6666C7.76084 14.6666 7.03904 14.4476 6.4251 14.0374C5.81115 13.6272 5.33264 13.0441 5.05007 12.362C4.76751 11.6798 4.69358 10.9291 4.83763 10.2049C4.98168 9.48074 5.33724 8.81552 5.85936 8.2934C6.38148 7.77129 7.04669 7.41572 7.77089 7.27167C8.49508 7.12762 9.24573 7.20155 9.92791 7.48412C10.6101 7.76669 11.1932 8.2452 11.6034 8.85914C12.0136 9.47308 12.2326 10.1949 12.2326 10.9333C12.2315 11.9231 11.8378 12.8721 11.1379 13.572C10.438 14.2719 9.48904 14.6655 8.49923 14.6666Z" fill="#2D2F36"/>
</svg>
