<svg width="12" height="12" viewBox="0 0 12 12" fill="none" xmlns="http://www.w3.org/2000/svg">
<g clip-path="url(#clip0_4951_24686)">
<path d="M10.982 6.4375C10.8856 7.57741 10.4024 8.6501 9.61246 9.47761C8.82257 10.3051 7.7735 10.8377 6.6393 10.987C5.5051 11.1363 4.35395 10.8933 3.37683 10.2984C2.39971 9.70343 1.65535 8.79232 1.26726 7.71618C0.879166 6.64004 0.87066 5.46356 1.24315 4.38192C1.61564 3.30028 2.34674 2.3785 3.31516 1.76951C4.28357 1.16051 5.43109 0.900921 6.56733 1.03379C7.70357 1.16666 8.76023 1.68401 9.56201 2.5H8.00101C7.86841 2.5 7.74123 2.55268 7.64746 2.64645C7.55369 2.74022 7.50101 2.86739 7.50101 3C7.50101 3.13261 7.55369 3.25979 7.64746 3.35355C7.74123 3.44732 7.86841 3.5 8.00101 3.5H10.0725C10.3187 3.49987 10.5548 3.402 10.7289 3.2279C10.903 3.0538 11.0009 2.81771 11.001 2.5715V0.5C11.001 0.367392 10.9483 0.240215 10.8546 0.146447C10.7608 0.0526784 10.6336 0 10.501 0V0C10.3684 0 10.2412 0.0526784 10.1475 0.146447C10.0537 0.240215 10.001 0.367392 10.001 0.5V1.539C8.99535 0.640365 7.71596 0.107242 6.36975 0.0258556C5.02354 -0.0555306 3.68924 0.319579 2.58264 1.09052C1.47604 1.86145 0.661858 2.98314 0.271768 4.27416C-0.118322 5.56518 -0.0615078 6.95004 0.433022 8.20477C0.927551 9.4595 1.83088 10.5107 2.99691 11.1884C4.16293 11.8661 5.52348 12.1307 6.8585 11.9393C8.19352 11.7479 9.42494 11.1118 10.3536 10.1338C11.2823 9.1558 11.8539 7.89313 11.976 6.55C11.9825 6.48037 11.9744 6.41016 11.9522 6.34384C11.93 6.27752 11.8943 6.21655 11.8472 6.16481C11.8002 6.11307 11.7429 6.07169 11.679 6.04331C11.6151 6.01494 11.5459 6.00019 11.476 6C11.354 5.99853 11.2359 6.04252 11.1446 6.12339C11.0532 6.20427 10.9953 6.31624 10.982 6.4375V6.4375Z" fill="#2D2F36"/>
</g>
<defs>
<clipPath id="clip0_4951_24686">
<rect width="12" height="12" fill="white"/>
</clipPath>
</defs>
</svg>
