<svg width="43" height="43" viewBox="0 0 43 43" fill="none" xmlns="http://www.w3.org/2000/svg">
<g clip-path="url(#clip0_4093_38147)">
<path d="M21.9778 0.498169C10.4002 0.498169 0.977783 9.91635 0.977783 21.4982C0.977783 33.08 10.396 42.4982 21.9778 42.4982C33.5596 42.4982 42.9778 33.0757 42.9778 21.4982C42.9778 9.92059 33.5554 0.498169 21.9778 0.498169ZM21.9778 40.2497C17.2602 40.2497 12.9541 38.4848 9.65354 35.5957L13.6584 31.5867C14.0996 31.1454 14.0996 30.437 13.6584 29.9957C13.2172 29.5545 12.5087 29.5545 12.0675 29.9957L8.05415 34.0133C5.06324 30.6915 3.22627 26.3091 3.22627 21.4982C3.22627 11.1594 11.639 2.74665 21.9778 2.74665C26.7887 2.74665 31.1669 4.58362 34.4929 7.57453L30.5517 11.52C30.1105 11.9612 30.1105 12.6697 30.5517 13.1109C30.7723 13.3315 31.0608 13.4418 31.3451 13.4418C31.6293 13.4418 31.922 13.3315 32.1384 13.1109L36.0711 9.17393C38.9602 12.4745 40.7251 16.7764 40.7251 21.4982C40.7251 31.837 32.3123 40.2497 21.9735 40.2497H21.9778Z" fill="url(#paint0_linear_4093_38147)"/>
<path d="M17.3844 11.5723H17.3971C17.8384 11.568 18.2965 11.2499 18.3093 10.6474V8.89532C18.3177 8.51774 18.0929 8.17835 17.7323 8.03411C17.3759 7.88562 16.9729 7.97472 16.7099 8.25472C16.5444 8.42865 16.4553 8.6535 16.4553 8.89108V10.6644C16.485 11.2626 16.9432 11.5723 17.3844 11.5723Z" fill="url(#paint1_linear_4093_38147)"/>
<path d="M28.185 25.3745C27.9432 25.2302 27.6589 25.209 27.4001 25.3066C27.3619 25.3236 26.3989 25.6842 25.2704 26.3375C24.3116 26.8933 23.5183 27.4872 22.9032 28.1108V26.032C23.7007 26.3842 24.5789 26.3884 25.4104 26.0278C26.3395 25.6205 27.171 24.789 27.8795 23.5587C28.4947 22.4939 28.8086 21.0345 28.8086 19.2187C28.8086 17.9714 28.6601 17.0423 28.6516 16.9957V13.6314C28.6432 13.2496 28.4141 12.9145 28.0619 12.7787C27.7098 12.6387 27.3195 12.7278 27.0523 13.0078C26.8868 13.1817 26.7977 13.4108 26.8019 13.6399V16.4017C26.4159 16.5714 25.9153 16.809 25.2747 17.1781C24.3074 17.7381 23.5141 18.332 22.9074 18.9514V18.349C23.5183 18.1581 24.0698 17.7636 24.4813 17.2078C25.0795 16.389 25.385 15.2563 25.385 13.8351C25.385 12.5878 24.9353 11.209 24.0189 9.6181C23.5353 8.7781 23.0856 8.17144 22.9032 7.92962V4.85386C22.9032 4.46356 22.6741 4.12416 22.3177 3.98416C21.9529 3.83992 21.5583 3.9375 21.2995 4.22174C21.1383 4.39568 21.0577 4.61628 21.0577 4.8581V7.9381C20.8583 8.20538 20.4256 8.78235 19.9419 9.62235C19.0383 11.192 18.5759 12.609 18.5759 13.8393C18.5759 15.2605 18.8813 16.3933 19.4838 17.212C19.8995 17.7763 20.4298 18.1581 21.0577 18.349V18.9557C20.451 18.3363 19.6577 17.7423 18.6904 17.1823C18.0498 16.8133 17.5365 16.5714 17.1632 16.4017V13.6442C17.1632 13.2623 16.9383 12.923 16.5862 12.783C16.2298 12.6387 15.831 12.7236 15.568 13.0036C15.4026 13.1775 15.3135 13.4066 15.3177 13.6442L15.3262 16.9193C15.3262 16.9193 15.1565 17.9036 15.1565 19.2272C15.1565 21.0387 15.4704 22.4981 16.0856 23.563C16.7898 24.7763 17.6426 25.6333 18.5632 26.0363C19.3904 26.3927 20.2686 26.4011 21.0619 26.0363V28.1151C20.3153 27.3514 19.4032 26.7448 18.6947 26.3417C17.5662 25.6884 16.6116 25.3278 16.5735 25.3151C16.2171 25.1751 15.8098 25.2726 15.551 25.5654C15.4365 25.7011 15.3601 25.8581 15.3304 26.0278C15.322 26.0702 15.1565 27.0842 15.1565 28.3866C15.1565 30.1981 15.4704 31.6533 16.0856 32.7181C16.7941 33.9484 17.6298 34.7799 18.5589 35.1872C19.3904 35.5478 20.2686 35.5478 21.0619 35.1957V37.0199C21.0832 37.6181 21.5413 37.932 21.9868 37.932C22.4323 37.932 22.8904 37.6181 22.9116 37.0072V35.1914C23.705 35.5436 24.5832 35.5436 25.4147 35.183C26.3438 34.7757 27.1753 33.9442 27.888 32.7096C28.5032 31.6448 28.8171 30.1896 28.8171 28.3781C28.8171 27.0714 28.6516 26.0617 28.6432 26.0193C28.5965 25.7478 28.4353 25.5102 28.1935 25.3702L28.185 25.3745ZM21.0407 32.4805C20.9941 32.9175 20.7904 33.2314 20.4256 33.4393C20.0607 33.6514 19.6832 33.6642 19.2886 33.4902C18.7456 33.2527 18.1729 32.6502 17.6765 31.7933C17.1165 30.826 16.9935 29.4005 16.9935 28.3823C16.9935 28.0302 17.0062 27.7587 17.0189 27.5381C17.248 27.6526 17.4941 27.7884 17.7613 27.9369C18.9874 28.6411 19.9419 29.4769 20.3789 30.232C20.8753 31.089 21.1086 31.8866 21.0407 32.4763V32.4805ZM21.0407 23.3254C20.9941 23.7666 20.7989 24.072 20.4171 24.2884C20.0607 24.4963 19.6874 24.5175 19.2886 24.3393C18.9747 24.2036 18.3468 23.8005 17.6765 22.6381C17.231 21.866 16.9892 20.6527 16.9977 19.2272C16.9977 18.8751 17.0104 18.6036 17.0232 18.3872C17.2098 18.4805 17.4389 18.6036 17.7571 18.7817C18.6438 19.2951 19.8189 20.1054 20.3789 21.0811C20.8753 21.9381 21.1086 22.7357 21.0407 23.3254ZM22.9159 23.3296C22.848 22.7399 23.0856 21.9423 23.5777 21.0811C23.7601 20.763 24.0232 20.4405 24.3498 20.1308C24.8589 19.6472 25.4274 19.2357 26.1953 18.7902C26.5219 18.6036 26.7468 18.4805 26.9335 18.3872C26.9462 18.6078 26.9547 18.8751 26.9589 19.2272C26.9589 20.6908 26.7256 21.866 26.2801 22.6381C25.7838 23.4993 25.211 24.106 24.668 24.3393C24.2777 24.509 23.8874 24.492 23.5268 24.2884C23.1704 24.0805 22.9626 23.7581 22.9159 23.3296ZM23.5395 13.8436C23.5395 14.832 23.3444 15.6423 22.9923 16.1217C22.7292 16.4739 22.411 16.6393 21.9826 16.6393C21.5541 16.6393 21.2274 16.4696 20.9686 16.1217C20.6165 15.6381 20.4213 14.832 20.4213 13.8478C20.4213 12.6514 21.1213 11.2684 21.5371 10.5514C21.7323 10.2248 21.868 10.0084 21.9826 9.83447C22.1013 10.0169 22.2413 10.2333 22.428 10.5514C22.8438 11.2726 23.5438 12.6599 23.5438 13.8478L23.5395 13.8436ZM26.9547 28.3823C26.9589 29.2139 26.8741 30.7623 26.2801 31.7933C25.6141 32.9472 24.9819 33.3545 24.668 33.4902C24.265 33.6642 23.8916 33.6472 23.5268 33.4393C23.162 33.2314 22.9626 32.9133 22.9159 32.4805C22.848 31.8951 23.0856 31.0975 23.5819 30.2363C23.7644 29.9223 24.0232 29.6042 24.3583 29.286C24.9777 28.6963 25.6989 28.2296 26.1953 27.9411C26.5219 27.763 26.7468 27.6399 26.9377 27.5423C26.9504 27.7587 26.9632 28.0133 26.9632 28.3823H26.9547Z" fill="url(#paint2_linear_4093_38147)"/>
<path d="M26.7067 11.5711H26.7194C27.1606 11.5669 27.6146 11.2487 27.6315 10.6463V8.89839C27.64 8.52082 27.4152 8.18142 27.0588 8.03718C26.7024 7.89294 26.2994 7.97355 26.0364 8.25355C25.8709 8.42749 25.7776 8.65658 25.7776 8.89415V10.6632C25.8073 11.2614 26.2612 11.5711 26.7067 11.5711Z" fill="url(#paint3_linear_4093_38147)"/>
</g>
<defs>
<linearGradient id="paint0_linear_4093_38147" x1="11.4778" y1="0.498169" x2="39.4778" y2="42.4982" gradientUnits="userSpaceOnUse">
<stop stop-color="#B9846F"/>
<stop offset="0.276451" stop-color="#EFD0B6"/>
<stop offset="1" stop-color="#B08271"/>
</linearGradient>
<linearGradient id="paint1_linear_4093_38147" x1="16.9189" y1="7.96301" x2="19.4395" y2="9.90537" gradientUnits="userSpaceOnUse">
<stop stop-color="#B9846F"/>
<stop offset="0.276451" stop-color="#EFD0B6"/>
<stop offset="1" stop-color="#B08271"/>
</linearGradient>
<linearGradient id="paint2_linear_4093_38147" x1="18.5716" y1="3.91809" x2="40.2883" y2="17.0008" gradientUnits="userSpaceOnUse">
<stop stop-color="#B9846F"/>
<stop offset="0.276451" stop-color="#EFD0B6"/>
<stop offset="1" stop-color="#B08271"/>
</linearGradient>
<linearGradient id="paint3_linear_4093_38147" x1="26.2411" y1="7.96692" x2="28.7591" y2="9.90997" gradientUnits="userSpaceOnUse">
<stop stop-color="#B9846F"/>
<stop offset="0.276451" stop-color="#EFD0B6"/>
<stop offset="1" stop-color="#B08271"/>
</linearGradient>
<clipPath id="clip0_4093_38147">
<rect width="42" height="42" fill="white" transform="translate(0.977783 0.498169)"/>
</clipPath>
</defs>
</svg>
