<svg width="43" height="43" viewBox="0 0 43 43" fill="none" xmlns="http://www.w3.org/2000/svg">
<g clip-path="url(#clip0_4093_38156)">
<path d="M38.8468 22.8602C38.4478 24.1846 37.7771 24.6473 36.6352 24.8766C35.1282 25.1737 33.7104 25.9081 32.2204 26.3241C30.7771 26.7274 29.3041 27.1179 27.8226 27.2325C26.0567 27.3684 25.2586 26.5491 24.9827 24.7789C24.6643 22.7328 24.346 20.6868 23.896 18.6322C22.9239 21.8414 22.7711 25.4114 19.5874 27.4787C17.6517 28.7352 15.474 29.1428 13.1435 29.0027C13.6699 28.7947 14.1835 28.5357 14.7269 28.3829C19.6341 26.999 21.7141 23.2422 22.7584 18.6959C23.1956 16.7941 23.3527 14.8287 23.879 12.8633C24.2483 14.9263 24.5879 17.0021 25.0039 19.0567C25.3223 20.6231 25.6619 22.1937 26.1458 23.7134C26.7529 25.6279 28.0094 26.3835 29.9578 25.8869C31.6983 25.4454 33.3665 24.728 35.0688 24.1337C35.073 23.9724 35.0773 23.8111 35.0815 23.6498C33.825 23.1955 32.5812 22.4145 31.312 22.372C30.0809 22.3296 28.8244 23.0427 27.6231 23.4163C28.7141 20.8056 30.3102 20.1179 32.7128 21.4551C34.6018 22.5036 36.5588 23.0894 38.8468 22.8602Z" fill="url(#paint0_linear_4093_38156)"/>
<path d="M5.76889 23.9721C5.76889 24.1504 5.77738 24.3329 5.76889 24.5112C5.65003 27.2407 6.46931 28.336 9.8186 27.6355C12.0727 27.1643 13.881 26.1328 13.499 22.9703C13.1424 20.0285 12.8283 17.0783 12.5184 14.1323C12.4632 13.5889 12.5099 13.0371 12.5099 12.1074C13.5117 13.2154 14.0381 13.8903 13.9872 15.1596C13.9023 17.333 14.2249 19.5319 14.4584 21.7095C14.955 26.2899 12.1533 29.4354 7.50933 29.4439C5.31468 29.4439 4.29164 28.2341 4.7501 26.0989C4.91141 25.3602 5.21704 24.6513 5.45901 23.9297C5.56089 23.9424 5.66701 23.9594 5.76889 23.9721Z" fill="url(#paint1_linear_4093_38156)"/>
<path d="M20.7623 22.6637C19.7011 20.4988 18.3257 19.0725 16.4961 17.9858C15.8636 17.608 15.6429 16.534 15.1122 15.5449C18.0625 16.1053 20.3463 19.0598 20.7623 22.6637Z" fill="url(#paint2_linear_4093_38156)"/>
<path d="M21.2342 2.59931C31.6599 2.59931 40.1456 11.0808 40.1456 21.5107C40.1456 31.9406 31.6641 40.422 21.2342 40.422C10.8043 40.422 2.32288 31.9363 2.32288 21.5107C2.32288 11.085 10.8086 2.59931 21.2342 2.59931ZM21.2342 0.498047C9.62848 0.498047 0.221619 9.90491 0.221619 21.5107C0.221619 33.1164 9.62848 42.5233 21.2342 42.5233C32.84 42.5233 42.2468 33.1164 42.2468 21.5107C42.2468 9.90491 32.84 0.498047 21.2342 0.498047Z" fill="url(#paint3_linear_4093_38156)"/>
</g>
<defs>
<linearGradient id="paint0_linear_4093_38156" x1="19.5693" y1="12.8633" x2="27.896" y2="32.7224" gradientUnits="userSpaceOnUse">
<stop stop-color="#B9846F"/>
<stop offset="0.276451" stop-color="#EFD0B6"/>
<stop offset="1" stop-color="#B08271"/>
</linearGradient>
<linearGradient id="paint1_linear_4093_38156" x1="7.11066" y1="12.1074" x2="19.4776" y2="22.6713" gradientUnits="userSpaceOnUse">
<stop stop-color="#B9846F"/>
<stop offset="0.276451" stop-color="#EFD0B6"/>
<stop offset="1" stop-color="#B08271"/>
</linearGradient>
<linearGradient id="paint2_linear_4093_38156" x1="16.5248" y1="15.5449" x2="21.5889" y2="21.5739" gradientUnits="userSpaceOnUse">
<stop stop-color="#B9846F"/>
<stop offset="0.276451" stop-color="#EFD0B6"/>
<stop offset="1" stop-color="#B08271"/>
</linearGradient>
<linearGradient id="paint3_linear_4093_38156" x1="10.7279" y1="0.498047" x2="38.7447" y2="42.5233" gradientUnits="userSpaceOnUse">
<stop stop-color="#B9846F"/>
<stop offset="0.276451" stop-color="#EFD0B6"/>
<stop offset="1" stop-color="#B08271"/>
</linearGradient>
<clipPath id="clip0_4093_38156">
<rect width="42" height="42" fill="white" transform="translate(0.169678 0.498169)"/>
</clipPath>
</defs>
</svg>
