<svg  viewBox="0 0 266 77" fill="none" xmlns="http://www.w3.org/2000/svg">
<path fill-rule="evenodd" clip-rule="evenodd" d="M153.737 16.1514C155.053 14.9638 155.723 13.3473 155.723 11.335C155.723 9.35234 155.047 7.74249 153.714 6.54169C152.328 5.29801 150.069 4.66463 147.001 4.66463H130.117V18.0053H147.001C150.102 18.0053 152.368 17.3818 153.737 16.1514ZM146.532 22.6634H130.117L130.113 22.6568V35.9942H125.36V0H146.997C149.118 0 151.022 0.257315 152.655 0.77524C154.344 1.30966 155.779 2.0783 156.927 3.06137C158.101 4.06753 158.999 5.29801 159.596 6.71324C160.18 8.09877 160.473 9.63605 160.473 11.2789C160.473 12.6413 160.262 13.9444 159.843 15.1419C159.424 16.3493 158.824 17.4313 158.065 18.3616C157.339 19.2457 156.462 19.9847 155.449 20.5653C155.471 20.5851 155.491 20.6048 155.512 20.6246C155.532 20.6444 155.553 20.6642 155.574 20.684C156.096 21.1887 156.587 21.8419 157.033 22.6238C157.425 23.3099 157.861 24.1709 158.319 25.187L163.215 35.9975H157.894L153.674 26.5164C153.252 25.5301 152.843 24.7647 152.454 24.2336C152.14 23.8048 151.771 23.4749 151.358 23.2539C150.916 23.0163 150.356 22.8613 149.689 22.792C148.858 22.7062 147.796 22.6634 146.532 22.6634ZM32.5637 29.4154V0.00579259H37.3175V35.9999H32.4548L31.9633 35.4886L4.75046 6.63656V35.9999H0V0.00579259H4.86592L32.5637 29.4154ZM73.5572 25.1698C74.1016 23.7348 74.3787 22.0622 74.3787 20.1951H74.382V0.0058727H79.1357V20.1951C79.1357 22.6626 78.7431 24.9224 77.9712 26.9083C77.1762 28.9536 75.9688 30.7152 74.382 32.1436C72.8117 33.5589 70.8323 34.6508 68.4967 35.3864C66.2237 36.1023 63.545 36.4652 60.5298 36.4652C57.5146 36.4652 54.8325 36.1023 52.5629 35.3864C50.2305 34.6508 48.2512 33.5622 46.6776 32.1436C45.0875 30.7119 43.8801 28.9503 43.0883 26.9083C42.3164 24.9224 41.9238 22.6659 41.9238 20.1951V0.0058727H46.6743V20.1951C46.6743 22.0688 46.9481 23.7414 47.4957 25.1698C48.0169 26.5388 48.8252 27.7099 49.9039 28.66C51.0091 29.6299 52.4342 30.3952 54.1464 30.9263C55.9179 31.4806 58.0622 31.761 60.5265 31.761C62.9908 31.761 65.1384 31.4806 66.9066 30.9263C68.6187 30.3952 70.0439 29.6332 71.149 28.66C72.2245 27.7132 73.036 26.5388 73.5572 25.1698ZM83.7365 0.00584642V4.66387H99.8715V36H104.622V4.66387H120.757V0.00584642H83.7365ZM165.775 0.00584642V4.66387H181.287V31.342H165.775V36H202.011V31.342H186.041V4.66387H202.011V0.00584642H165.775ZM4.75084 55.9757H24.7093C27.1901 55.9757 29.0078 55.4677 30.113 54.4714C31.2016 53.4917 31.7064 52.2711 31.7064 50.6084C31.7064 48.9458 31.2016 47.7087 30.1097 46.7157C29.0045 45.7096 27.1901 45.1983 24.7126 45.1983H4.75084V55.9757ZM24.8974 60.6338H4.75084V71.8764H24.8974C27.8433 71.8764 30.0173 71.3419 31.1917 70.3292C32.3398 69.3329 32.8742 68.076 32.8742 66.2781C32.8742 64.4802 32.3398 63.1772 31.1917 62.1842C30.0041 61.155 27.8862 60.6338 24.8974 60.6338ZM33.0325 57.9155C33.8012 58.341 34.494 58.8655 35.0977 59.4857L35.101 59.489C35.9125 60.3204 36.5459 61.3331 36.9846 62.491C37.4102 63.6291 37.6279 64.9223 37.6279 66.3276C37.6279 69.4616 36.5558 71.9852 34.4445 73.8359C32.3991 75.6272 29.1893 76.5344 24.9007 76.5344H0.000382073V40.5402H24.7588C28.4965 40.5402 31.4029 41.4573 33.3921 43.2585C35.4276 45.1059 36.4601 47.5471 36.4601 50.5161C36.4601 51.8059 36.249 53.0034 35.8333 54.0789C35.4177 55.1543 34.8568 56.0912 34.1641 56.8598C33.8177 57.2458 33.4383 57.5988 33.0325 57.9155ZM74.3789 60.7265C74.3789 62.597 74.1017 64.2695 73.5541 65.7045C73.0329 67.0703 72.2247 68.2447 71.1459 69.1948C70.0408 70.1679 68.6156 70.93 66.9035 71.4611C65.1353 72.0153 62.9877 72.2957 60.5267 72.2957C58.0657 72.2957 55.9148 72.0153 54.1465 71.4611C52.4377 70.93 51.0093 70.1646 49.9041 69.1948C48.8254 68.2447 48.0171 67.0736 47.4959 65.7045C46.9483 64.2728 46.6745 62.597 46.6745 60.7265V40.5373H41.924V60.7265C41.924 63.1908 42.3166 65.4505 43.0852 67.4398C43.877 69.4818 45.0844 71.2434 46.6745 72.6751C48.2481 74.0903 50.2274 75.1822 52.5598 75.9179C54.8294 76.6338 57.5115 76.9999 60.5267 76.9999C63.5419 76.9999 66.2239 76.6371 68.4936 75.9179C70.8259 75.1822 72.8086 74.0903 74.3789 72.6751C75.9689 71.2467 77.1763 69.4851 77.9681 67.4398C78.74 65.4538 79.1293 63.1941 79.1293 60.7265V40.5373H74.3789V60.7265ZM112.107 56.685C113.424 55.5007 114.093 53.8809 114.093 51.8686H114.097C114.097 49.886 113.417 48.2728 112.084 47.0753C110.702 45.8283 108.442 45.1983 105.371 45.1983H88.4871V58.539H105.371C108.472 58.539 110.738 57.9155 112.107 56.685ZM113.948 61.221C114.473 61.729 114.961 62.3789 115.406 63.1607L115.403 63.1574C115.796 63.8436 116.228 64.7046 116.686 65.7206L121.582 76.5278H116.264L112.045 67.0468C111.619 66.0604 111.21 65.2984 110.824 64.7673C110.511 64.3384 110.141 64.0085 109.729 63.7875C109.287 63.5533 108.726 63.3949 108.06 63.3256C107.228 63.2399 106.166 63.197 104.903 63.197H88.4871V76.5344H83.7367V40.5402H105.371C107.492 40.5402 109.396 40.8008 111.029 41.3155C112.718 41.8499 114.156 42.6185 115.301 43.6016C116.472 44.6045 117.373 45.8349 117.97 47.2535C118.55 48.6357 118.847 50.173 118.847 51.8191C118.847 53.1849 118.636 54.4846 118.217 55.6821C117.798 56.8862 117.198 57.9715 116.439 58.8985C115.713 59.7826 114.836 60.5216 113.823 61.1022L113.851 61.1281L113.886 61.1615C113.906 61.1813 113.927 61.2011 113.948 61.221ZM156.831 57.6619C155.103 57.0285 153.117 56.5865 150.923 56.3556C148.861 56.1411 146.697 55.9729 144.49 55.8607C142.366 55.7519 140.241 55.6298 138.176 55.4879C136.223 55.356 134.481 55.0855 133 54.6797C131.667 54.3168 130.592 53.7659 129.8 53.0336C129.15 52.4365 128.85 51.6217 128.85 50.467C128.85 49.7644 129.031 49.0782 129.388 48.4316C129.727 47.8147 130.381 47.2341 131.324 46.7096C132.386 46.1158 133.904 45.6276 135.834 45.2581C137.843 44.8754 140.449 44.6808 143.586 44.6808C146.512 44.6808 148.996 44.9183 150.966 45.3802C152.846 45.8255 154.357 46.4391 155.452 47.2011C156.475 47.9104 157.211 48.745 157.64 49.6753C158.095 50.6584 158.326 51.7701 158.326 52.9808V54.8909H163.076V52.9808C163.076 51.1004 162.71 49.3454 161.991 47.762C161.245 46.1257 160.038 44.7105 158.405 43.5493C156.845 42.4342 154.799 41.5633 152.332 40.9531C149.943 40.3659 147.001 40.0657 143.583 40.0657C140.165 40.0657 136.985 40.3032 134.606 40.7749C132.145 41.2598 130.133 41.9526 128.626 42.84C127.009 43.7868 125.831 44.9447 125.125 46.2775C124.439 47.5739 124.093 48.9825 124.093 50.467C124.093 52.7367 124.753 54.5775 126.049 55.9399C127.223 57.1704 128.761 58.1139 130.618 58.7472C132.337 59.3312 134.32 59.727 136.51 59.925C138.618 60.1163 140.779 60.2581 142.93 60.3538C145.048 60.4429 147.159 60.5748 149.204 60.7431C151.147 60.9047 152.879 61.2181 154.351 61.6767C155.683 62.089 156.765 62.6993 157.564 63.4845C158.223 64.1343 158.553 65.1042 158.553 66.371C158.553 67.2122 158.375 67.9907 158.019 68.6769C157.692 69.3037 157.049 69.8843 156.112 70.4055C155.033 70.9993 153.493 71.481 151.537 71.8306C149.504 72.2001 146.826 72.3882 143.583 72.3882C140.617 72.3882 138.113 72.1473 136.144 71.6657C134.237 71.2038 132.7 70.5738 131.571 69.7919C130.522 69.0695 129.764 68.215 129.318 67.2485C128.85 66.2324 128.612 65.091 128.612 63.8506V61.4721H123.859V63.8506C123.859 65.7607 124.231 67.5454 124.967 69.1618C125.722 70.8212 126.943 72.2694 128.586 73.4603C130.169 74.6083 132.241 75.5023 134.745 76.1093C137.163 76.6965 140.139 76.9967 143.583 76.9967C147.245 76.9967 150.326 76.7592 152.741 76.2907C155.231 75.8058 157.264 75.113 158.788 74.2289C160.437 73.2722 161.625 72.088 162.314 70.7057C162.974 69.3895 163.307 67.9314 163.307 66.3677C163.307 64.0255 162.661 62.1121 161.39 60.6837C160.219 59.3641 158.682 58.3448 156.825 57.6586L156.831 57.6619ZM165.775 45.198V40.54H202.011V45.198H186.268V76.5342H181.518V45.198H165.775Z" fill="url(#paint0_linear_1878_6522)"/>
<path fill-rule="evenodd" clip-rule="evenodd" d="M265.219 15.6815C265.219 24.2685 258.231 31.2555 249.644 31.2555C241.057 31.2555 234.07 24.2685 234.07 15.6815C234.07 7.09447 241.057 0.107422 249.644 0.107422C258.231 0.107422 265.219 7.09447 265.219 15.6815ZM249.641 3.86816C243.129 3.86816 237.828 9.16617 237.828 15.6815C237.828 22.1935 243.129 27.4948 249.641 27.4948C256.153 27.4948 261.454 22.1935 261.454 15.6815C261.454 9.16947 256.153 3.86816 249.641 3.86816ZM233.868 37.0684H265.416V40.8291H233.868V37.0684ZM251.482 46.9201H247.701V58.7036L237.403 52.9954L235.57 56.3019L245.681 61.9063L235.564 67.5138L237.397 70.8204L247.701 65.1089V76.8925H251.482V65.1197L261.787 70.8318L263.619 67.5253L253.48 61.9048L263.614 56.2875L261.781 52.981L251.482 58.6898V46.9201ZM248.178 64.3039H251.012L252.338 61.9117L251.006 59.5086H248.186L246.853 61.9132L248.178 64.3039Z" fill="url(#paint1_linear_1878_6522)"/>
<defs>
<linearGradient id="paint0_linear_1878_6522" x1="50.5026" y1="0" x2="77.0512" y2="104.476" gradientUnits="userSpaceOnUse">
<stop stop-color="#C6937F"/>
<stop offset="0.276451" stop-color="#FFE5CF"/>
<stop offset="1" stop-color="#B08271"/>
</linearGradient>
<linearGradient id="paint1_linear_1878_6522" x1="241.755" y1="0.107422" x2="291.293" y2="30.6371" gradientUnits="userSpaceOnUse">
<stop stop-color="#C6937F"/>
<stop offset="0.276451" stop-color="#FFE5CF"/>
<stop offset="1" stop-color="#B08271"/>
</linearGradient>
</defs>
</svg>
