<svg viewBox="0 0 1334 388" fill="none" xmlns="http://www.w3.org/2000/svg">
<path d="M163.547 0.757324V148.465L24.4385 0.757324H0V181.536H23.8586V34.0599L160.532 178.968L163 181.536H187.422V0.757324H163.547Z" fill="currentColor"/>
<path d="M373.552 102.156C373.552 111.534 372.16 119.934 369.427 127.141C366.809 134.017 362.733 139.916 357.332 144.671C351.781 149.559 344.624 153.386 336.025 156.053C327.144 158.837 316.358 160.245 303.981 160.245C291.605 160.245 280.835 158.837 271.938 156.053C263.339 153.386 256.181 149.542 250.631 144.671C245.213 139.899 241.154 134.017 238.536 127.141C235.786 119.967 234.41 111.567 234.41 102.156V0.757324H210.552V102.156C210.552 114.566 212.523 125.899 216.4 135.873C220.377 146.129 226.441 154.976 234.427 162.167C242.33 169.292 252.271 174.759 263.985 178.454C275.384 182.049 288.854 183.872 303.998 183.872C319.141 183.872 332.595 182.049 344.011 178.454C355.741 174.759 365.682 169.275 373.569 162.167C381.538 154.993 387.602 146.145 391.595 135.873C395.472 125.899 397.444 114.549 397.444 102.156V0.757324H373.569V102.156H373.552Z" fill="currentColor"/>
<path d="M420.557 0.757324V24.152H501.593V181.536H525.452V24.152H606.488V0.757324H420.557Z" fill="currentColor"/>
<path d="M782.097 57.6533C782.097 67.7601 778.734 75.8786 772.123 81.8433C765.247 88.0233 753.865 91.1547 738.29 91.1547H653.493V24.1519H738.29C753.699 24.1519 765.048 27.3331 772.007 33.5794C778.701 39.6103 782.097 47.6957 782.097 57.6533ZM653.493 114.549H735.937C742.283 114.549 747.618 114.765 751.793 115.196C755.14 115.544 757.957 116.322 760.177 117.515C762.248 118.625 764.104 120.282 765.678 122.436C767.633 125.103 769.687 128.947 771.808 133.901L792.999 181.519H819.724L795.137 127.224C792.834 122.121 790.646 117.797 788.675 114.351C786.438 110.424 783.969 107.143 781.352 104.608C781.136 104.409 780.937 104.211 780.722 104.012C785.808 101.096 790.216 97.3844 793.861 92.9441C797.671 88.2718 800.687 82.8374 802.791 76.7733C804.895 70.759 805.956 64.2144 805.956 57.3717C805.956 49.1206 804.481 41.3997 801.549 34.4409C798.55 27.3331 794.043 21.153 788.145 16.0996C782.379 11.1622 775.172 7.30181 766.689 4.61772C758.487 2.01647 748.927 0.724121 738.274 0.724121H629.601V181.502H653.476V114.516L653.493 114.549Z" fill="currentColor"/>
<path d="M832.581 0.757324V24.152H910.486V158.141H832.581V181.536H1014.57V158.141H934.361V24.152H1014.57V0.757324H832.581Z" fill="currentColor"/>
<path d="M124.114 281.858H23.8586V227.729H124.114C136.557 227.729 145.67 230.297 151.22 235.35C156.704 240.337 159.239 246.55 159.239 254.901C159.239 263.251 156.704 269.382 151.237 274.302C145.686 279.306 136.557 281.858 124.098 281.858M23.8586 305.252H125.042C140.053 305.252 150.69 307.87 156.655 313.039C162.421 318.027 165.105 324.571 165.105 333.601C165.105 342.631 162.421 348.943 156.655 353.947C150.756 359.034 139.838 361.718 125.042 361.718H23.8586V305.252ZM176.272 299.486C173.24 296.372 169.76 293.737 165.9 291.6C167.938 290.009 169.843 288.236 171.583 286.298C175.062 282.438 177.879 277.732 179.967 272.331C182.054 266.929 183.115 260.915 183.115 254.437C183.115 239.525 177.929 227.265 167.706 217.986C157.715 208.94 143.118 204.334 124.346 204.334H0V385.112H125.059C146.598 385.112 162.719 380.556 172.991 371.559C183.595 362.264 188.98 349.589 188.98 333.849C188.98 326.791 187.886 320.296 185.749 314.58C183.545 308.765 180.364 303.678 176.288 299.503" fill="currentColor"/>
<path d="M373.552 305.716C373.552 315.111 372.161 323.511 369.41 330.718C366.792 337.577 362.733 343.476 357.315 348.247C351.765 353.135 344.607 356.962 336.008 359.63C327.128 362.413 316.342 363.822 303.982 363.822C291.621 363.822 280.819 362.413 271.938 359.63C263.356 356.962 256.182 353.119 250.631 348.247C245.213 343.476 241.154 337.594 238.536 330.718C235.786 323.527 234.411 315.111 234.411 305.716V204.317H210.552V305.716C210.552 318.093 212.524 329.442 216.384 339.433C220.361 349.689 226.425 358.536 234.411 365.727C242.314 372.835 252.255 378.319 263.969 382.014C275.368 385.609 288.838 387.448 303.982 387.448C319.125 387.448 332.595 385.626 343.994 382.014C355.708 378.319 365.666 372.835 373.552 365.727C381.538 358.553 387.602 349.705 391.579 339.433C395.456 329.459 397.411 318.109 397.411 305.716V204.317H373.552V305.716Z" fill="currentColor"/>
<path d="M573.02 261.23C573.02 271.337 569.657 279.472 563.046 285.42C556.17 291.6 544.787 294.731 529.213 294.731H444.416V227.729H529.213C544.638 227.729 555.988 230.893 562.93 237.156C569.623 243.17 573.037 251.272 573.037 261.23M579.614 317.944C577.378 314.017 574.925 310.753 572.291 308.201C572.076 308.003 571.877 307.804 571.661 307.605C576.748 304.689 581.155 300.978 584.8 296.537C588.611 291.882 591.626 286.431 593.731 280.383C595.835 274.369 596.895 267.841 596.895 260.981C596.895 252.714 595.404 244.993 592.488 238.051C589.489 230.926 584.966 224.746 579.084 219.709C573.335 214.772 566.111 210.912 557.628 208.227C549.427 205.643 539.867 204.334 529.213 204.334H420.557V385.112H444.416V318.126H526.86C533.206 318.126 538.541 318.341 542.716 318.772C546.063 319.12 548.88 319.915 551.1 321.092C553.171 322.202 555.027 323.859 556.601 326.013C558.539 328.68 560.594 332.507 562.731 337.461L583.922 385.079H610.63L586.043 330.801C583.74 325.698 581.569 321.373 579.598 317.927" fill="currentColor"/>
<path d="M787.664 290.324C778.982 287.143 769.008 284.923 757.99 283.763C747.635 282.686 736.766 281.841 725.682 281.278C715.012 280.731 704.341 280.118 693.97 279.406C684.161 278.743 675.413 277.384 667.974 275.346C661.28 273.524 655.879 270.757 651.902 267.079C648.638 264.08 647.131 259.987 647.131 254.188C647.131 250.659 648.042 247.213 649.831 243.966C651.538 240.867 654.818 237.951 659.557 235.317C664.892 232.335 672.513 229.882 682.206 228.027C692.296 226.105 705.385 225.127 721.142 225.127C735.838 225.127 748.314 226.32 758.205 228.64C767.649 230.877 775.238 233.958 780.739 237.786C785.875 241.348 789.57 245.54 791.723 250.212C794.01 255.149 795.17 260.733 795.17 266.813V276.407H819.028V266.813C819.028 257.369 817.189 248.555 813.577 240.602C809.833 232.384 803.769 225.276 795.567 219.444C787.73 213.844 777.458 209.47 765.065 206.405C753.069 203.456 738.29 201.948 721.125 201.948C703.96 201.948 687.988 203.141 676.043 205.51C663.682 207.946 653.576 211.425 646.004 215.882C637.885 220.637 631.97 226.453 628.425 233.146C624.979 239.658 623.239 246.733 623.239 254.188C623.239 265.587 626.553 274.833 633.064 281.675C638.962 287.855 646.683 292.594 656.011 295.775C664.643 298.708 674.601 300.696 685.603 301.69C696.19 302.651 707.042 303.363 717.845 303.844C728.482 304.291 739.085 304.954 749.358 305.799C759.117 306.611 767.815 308.185 775.205 310.488C781.898 312.559 787.333 315.624 791.342 319.567C794.656 322.831 796.313 327.703 796.313 334.065C796.313 338.29 795.418 342.2 793.629 345.646C791.989 348.794 788.758 351.71 784.052 354.328C778.634 357.31 770.897 359.729 761.072 361.486C750.866 363.341 737.412 364.286 721.125 364.286C706.23 364.286 693.655 363.076 683.763 360.657C674.187 358.338 666.466 355.173 660.8 351.246C655.531 347.618 651.72 343.327 649.483 338.472C647.131 333.369 645.938 327.636 645.938 321.407V309.461H622.062V321.407C622.062 331 623.935 339.963 627.629 348.082C631.424 356.416 637.554 363.689 645.805 369.67C653.758 375.436 664.163 379.926 676.738 382.975C688.883 385.924 703.828 387.432 721.125 387.432C739.516 387.432 754.991 386.239 767.119 383.886C779.628 381.451 789.835 377.971 797.489 373.531C805.773 368.726 811.738 362.778 815.201 355.836C818.515 349.225 820.188 341.902 820.188 334.048C820.188 322.285 816.941 312.675 810.562 305.501C804.68 298.873 796.959 293.754 787.631 290.308" fill="currentColor"/>
<path d="M832.581 204.334V227.729H911.646V385.112H935.504V227.729H1014.57V204.334H832.581Z" fill="currentColor"/>
<path d="M1333.01 186.896H1174.57V205.784H1333.01V186.896Z" fill="currentColor"/>
<path d="M1253.8 157.702C1296.93 157.702 1332.02 122.61 1332.02 79.4822C1332.02 36.3546 1296.93 1.26257 1253.8 1.26257C1210.67 1.26257 1175.58 36.3546 1175.58 79.4822C1175.58 122.61 1210.67 157.702 1253.8 157.702ZM1194.45 79.4822C1194.45 46.7596 1221.08 20.1506 1253.78 20.1506C1286.49 20.1506 1313.11 46.7761 1313.11 79.4822C1313.11 112.188 1286.49 138.814 1253.78 138.814C1221.08 138.814 1194.45 112.188 1194.45 79.4822Z" fill="currentColor"/>
<path d="M1263.03 236.369H1244.04V299.594H1263.03V236.369Z" fill="currentColor"/>
<path d="M1263.03 323.685H1244.04V386.91H1263.03V323.685Z" fill="currentColor"/>
<path d="M1192.33 266.885L1183.12 283.492L1238.42 314.144L1247.62 297.537L1192.33 266.885Z" fill="currentColor"/>
<path d="M1268.69 309.21L1259.49 325.817L1314.79 356.469L1323.99 339.863L1268.69 309.21Z" fill="currentColor"/>
<path d="M1314.76 266.817L1259.46 297.47L1268.67 314.076L1323.96 283.424L1314.76 266.817Z" fill="currentColor"/>
<path d="M1238.39 309.152L1183.09 339.804L1192.3 356.411L1247.59 325.759L1238.39 309.152Z" fill="currentColor"/>
</svg>
