<svg width="256" height="82" viewBox="0 0 256 82" fill="none" xmlns="http://www.w3.org/2000/svg">
<path d="M239.169 52.9296C239.786 51.5075 240.376 50.166 240.94 48.9049C241.476 47.617 241.959 46.4767 242.388 45.4839C242.818 44.4644 243.18 43.6192 243.475 42.9484C243.797 42.2776 244.025 41.8215 244.159 41.58C244.374 41.258 244.696 41.0971 245.125 41.0971C245.501 41.0971 245.796 41.2178 246.011 41.4593C246.225 41.7008 246.145 42.0496 245.769 42.5057C245.581 42.7203 245.367 43.0691 245.125 43.5521C244.884 44.0082 244.629 44.5314 244.361 45.1217C245.085 43.7533 245.809 42.7203 246.534 42.0227C247.258 41.3251 247.875 40.9763 248.385 40.9763C248.707 40.9763 248.962 41.1239 249.15 41.419C249.365 41.6873 249.472 42.1301 249.472 42.7472C249.499 44.1961 249.767 45.2693 250.277 45.9669C250.813 46.6377 251.417 46.9731 252.088 46.9731C252.571 46.9731 253.04 46.8121 253.497 46.4901C253.953 46.1413 254.355 45.6583 254.704 45.0412C254.784 44.9071 254.892 44.84 255.026 44.84C255.16 44.84 255.281 44.8937 255.388 45.001C255.495 45.1083 255.522 45.2291 255.469 45.3632C255.12 46.1145 254.597 46.7182 253.899 47.1743C253.228 47.6036 252.517 47.8183 251.766 47.8183C250.907 47.8183 250.129 47.4829 249.432 46.8121C248.761 46.1413 248.385 45.0412 248.305 43.5119C248.251 43.1362 248.144 42.9484 247.983 42.9484C247.875 42.9484 247.741 43.0155 247.58 43.1496C247.446 43.257 247.272 43.4582 247.057 43.7533C246.574 44.3973 246.024 45.2291 245.407 46.2486C244.79 47.2682 244.186 48.2878 243.596 49.3074C243.006 50.327 242.482 51.2661 242.026 52.1246C241.543 52.9564 241.221 53.5199 241.06 53.815C240.792 54.298 240.457 54.5394 240.054 54.5394C239.705 54.5394 239.424 54.3785 239.209 54.0565C238.994 53.7613 238.981 53.3857 239.169 52.9296Z" fill="black"/>
<path d="M237.835 44.9609C237.674 45.2024 237.459 45.5244 237.191 45.9268C236.922 46.3025 236.654 46.7049 236.386 47.1342C236.117 47.5635 235.889 47.9928 235.702 48.4221C235.514 48.8514 235.393 49.2136 235.339 49.5088C235.232 50.1259 235.286 50.5686 235.5 50.8369C235.742 51.0784 236.05 51.1991 236.426 51.1991C236.802 51.1991 237.218 51.0918 237.674 50.8772C238.157 50.6357 238.572 50.354 238.921 50.032C239.431 49.5759 239.927 49.0527 240.41 48.4624C240.893 47.8721 241.323 47.322 241.698 46.8123C242.101 46.2756 242.423 45.8195 242.664 45.4439C242.933 45.0414 243.094 44.8133 243.147 44.7597C243.228 44.6792 243.322 44.6389 243.429 44.6389C243.563 44.6389 243.684 44.7194 243.791 44.8804C243.898 45.0414 243.885 45.2024 243.751 45.3634C243.375 45.9268 242.906 46.5976 242.342 47.3757C241.806 48.1538 241.202 48.9051 240.531 49.6295C239.887 50.3271 239.19 50.9308 238.438 51.4406C237.687 51.9236 236.922 52.1651 236.144 52.1651C235.527 52.1651 234.991 51.9772 234.534 51.6016C234.105 51.226 233.85 50.6357 233.77 49.8308C233.501 50.1527 233.193 50.4881 232.844 50.8369C232.522 51.1857 232.16 51.5077 231.757 51.8028C231.382 52.098 230.979 52.3395 230.55 52.5273C230.121 52.7151 229.691 52.809 229.262 52.809C228.591 52.809 228.014 52.5944 227.531 52.1651C227.049 51.7089 226.861 51.0113 226.968 50.0722C227.075 49.0527 227.37 48.0867 227.853 47.1745C228.31 46.2622 228.873 45.4573 229.544 44.7597C230.188 44.0621 230.885 43.512 231.637 43.1096C232.415 42.7071 233.139 42.5059 233.81 42.5059C234.508 42.5059 235.084 42.7205 235.541 43.1498C235.648 43.2303 235.728 43.3242 235.782 43.4315C235.863 43.5389 235.93 43.6596 235.983 43.7938C236.091 43.6328 236.211 43.4852 236.345 43.351C236.506 43.1901 236.694 43.1096 236.909 43.1096C237.097 43.1096 237.271 43.1632 237.432 43.2705C237.62 43.3779 237.754 43.5254 237.835 43.7133C237.942 43.9011 237.996 44.1023 237.996 44.317C238.022 44.5316 237.969 44.7463 237.835 44.9609ZM235.138 44.6792C235.219 44.4109 235.192 44.2096 235.058 44.0755C234.923 43.9145 234.709 43.834 234.414 43.834C234.065 43.834 233.729 43.9413 233.407 44.156C232.925 44.4511 232.415 44.8536 231.878 45.3634C231.341 45.8463 230.845 46.3964 230.389 47.0135C229.933 47.6038 229.544 48.2343 229.222 48.9051C228.873 49.549 228.672 50.1661 228.618 50.7564C228.591 51.3467 228.806 51.6419 229.262 51.6419C229.611 51.6419 230.054 51.4809 230.59 51.1589C231.154 50.8101 231.717 50.3271 232.281 49.71C232.844 49.0929 233.381 48.355 233.89 47.4964C234.427 46.6379 234.843 45.6988 235.138 44.6792Z" fill="black"/>
<path d="M210.804 41.58C211.314 40.9897 211.824 40.6946 212.333 40.6946C212.816 40.6946 213.111 40.9495 213.219 41.4593C213.353 41.9691 213.111 42.5728 212.494 43.2704C211.931 43.8875 211.354 44.6119 210.764 45.4437C210.2 46.2486 209.677 47.0536 209.194 47.8585C208.711 48.6366 208.322 49.3476 208.027 49.9916C207.732 50.6087 207.584 51.038 207.584 51.2795C207.853 50.9307 208.268 50.4209 208.832 49.7501C209.395 49.0525 210.012 48.3549 210.683 47.6573C211.381 46.9596 212.065 46.3559 212.736 45.8462C213.433 45.3095 214.024 45.0412 214.507 45.0412C214.99 45.0412 215.298 45.2559 215.432 45.6852C215.567 46.0876 215.526 46.423 215.312 46.6913C214.936 47.1206 214.507 47.7109 214.024 48.4622C213.541 49.1866 213.058 49.9781 212.575 50.8367C212.092 51.6685 211.649 52.5271 211.247 53.4125C210.844 54.3248 210.549 55.1566 210.361 55.9078C210.173 56.6591 210.12 57.2896 210.2 57.7994C210.281 58.336 210.576 58.658 211.086 58.7653C211.569 58.8727 212.119 58.7251 212.736 58.3226C213.38 57.947 214.037 57.3969 214.708 56.6725C215.406 55.9749 216.09 55.17 216.76 54.2577C217.431 53.3455 218.048 52.4198 218.612 51.4807C217.941 51.2124 217.458 50.7831 217.163 50.1928C216.895 49.5757 216.935 48.7573 217.284 47.7377C217.445 47.2548 217.686 46.7852 218.008 46.3291C218.33 45.873 218.679 45.4839 219.055 45.162C219.457 44.84 219.846 44.6119 220.222 44.4778C220.597 44.3436 220.933 44.3436 221.228 44.4778C221.55 44.6388 221.738 44.9205 221.791 45.3229C221.872 45.7254 221.845 46.2218 221.711 46.8121C221.604 47.3755 221.402 48.0061 221.107 48.7037C220.839 49.4013 220.503 50.1391 220.101 50.9172C220.825 50.9441 221.657 50.8367 222.596 50.5953C223.562 50.3538 224.501 49.9781 225.414 49.4684C226.353 48.9586 227.225 48.328 228.03 47.5768C228.834 46.7987 229.478 45.9266 229.961 44.9607C230.069 44.7461 230.23 44.6388 230.444 44.6388C230.579 44.6388 230.699 44.7058 230.807 44.84C230.914 44.9741 230.9 45.1485 230.766 45.3632C230.149 46.4633 229.371 47.4426 228.432 48.3012C227.52 49.133 226.54 49.8172 225.494 50.3538C224.474 50.8904 223.441 51.2795 222.395 51.5209C221.375 51.7624 220.463 51.8295 219.658 51.7222C219.068 52.7418 218.411 53.7479 217.686 54.7407C216.962 55.7334 216.21 56.6188 215.432 57.397C214.681 58.1751 213.93 58.8056 213.179 59.2885C212.454 59.7715 211.77 60.013 211.126 60.013C210.589 60.013 210.133 59.8386 209.758 59.4898C209.328 59.1141 209.047 58.6178 208.912 58.0007C208.751 57.3835 208.698 56.6993 208.751 55.9481C208.805 55.1968 208.953 54.3919 209.194 53.5333C209.462 52.7015 209.771 51.8697 210.12 51.038C209.771 51.6819 209.409 52.2454 209.033 52.7283C208.711 53.1845 208.349 53.5869 207.946 53.9357C207.544 54.2845 207.142 54.4589 206.739 54.4589C206.39 54.4589 206.082 54.3248 205.813 54.0565C205.491 53.7345 205.424 53.0771 205.612 52.0844C205.773 51.0916 206.109 49.9781 206.618 48.7439C207.128 47.4829 207.759 46.2084 208.51 44.9205C209.234 43.6058 209.999 42.4923 210.804 41.58ZM219.055 50.716C219.43 50.0452 219.752 49.4147 220.02 48.8244C220.316 48.2073 220.53 47.6573 220.664 47.1743C220.825 46.6913 220.892 46.3023 220.866 46.0071C220.839 45.712 220.705 45.5376 220.463 45.4839C220.088 45.4034 219.685 45.6181 219.256 46.1279C218.853 46.6377 218.505 47.2145 218.209 47.8585C217.861 48.6366 217.78 49.2671 217.968 49.7501C218.156 50.2062 218.518 50.5282 219.055 50.716Z" fill="black"/>
<path d="M192.224 52.809C192.546 52.0041 192.962 51.1187 193.472 50.1527C193.955 49.1868 194.465 48.2343 195.001 47.2952C195.538 46.3561 196.075 45.4573 196.611 44.5987C197.148 43.7401 197.631 43.0157 198.06 42.4254C198.382 41.9424 198.758 41.7009 199.187 41.7009C199.563 41.7009 199.858 41.8753 200.073 42.2241C200.287 42.5461 200.26 42.8547 199.992 43.1498C199.59 43.6059 199.12 44.2767 198.583 45.1621C198.047 46.0476 197.524 46.9196 197.014 47.7782C196.423 48.7978 195.833 49.871 195.243 50.9979C195.78 50.3003 196.303 49.6295 196.813 48.9856C197.322 48.3148 197.792 47.6977 198.221 47.1342C198.677 46.5708 199.08 46.0878 199.429 45.6854C199.804 45.2829 200.126 45.0146 200.395 44.8804C200.851 44.6121 201.28 44.4779 201.682 44.4779C202.219 44.4779 202.568 44.706 202.729 45.1621C202.89 45.6183 202.863 46.1549 202.648 46.772C202.541 47.094 202.38 47.5099 202.165 48.0197C201.951 48.5026 201.749 48.999 201.562 49.5088C201.374 49.9917 201.226 50.4613 201.119 50.9174C201.012 51.3467 200.985 51.6821 201.038 51.9236C201.119 52.1919 201.267 52.3261 201.481 52.3261C201.803 52.3261 202.259 52.0846 202.85 51.6016C203.44 51.0918 204.097 50.4747 204.822 49.7503C205.546 48.999 206.284 48.1806 207.035 47.2952C207.813 46.4098 208.538 45.5914 209.209 44.8402C209.289 44.7328 209.396 44.6792 209.531 44.6792C209.691 44.6792 209.812 44.7597 209.893 44.9207C210 45.0548 209.987 45.2024 209.852 45.3634C209.182 46.0878 208.551 46.7988 207.961 47.4965C207.397 48.1672 206.821 48.8246 206.23 49.4685C205.667 50.1125 205.077 50.7296 204.459 51.3199C203.842 51.9102 203.145 52.4736 202.367 53.0102C201.857 53.3859 201.293 53.5737 200.676 53.5737C200.247 53.5737 199.858 53.453 199.509 53.2115C199.187 52.97 198.972 52.5675 198.865 52.0041C198.811 51.6016 198.838 51.1455 198.946 50.6357C199.053 50.1259 199.187 49.6295 199.348 49.1466C199.509 48.6636 199.67 48.2209 199.831 47.8184C200.019 47.416 200.166 47.1342 200.274 46.9732C199.925 47.1611 199.455 47.5769 198.865 48.2209C198.275 48.838 197.671 49.5222 197.054 50.2735C196.464 50.9979 195.914 51.7089 195.404 52.4065C194.867 53.1042 194.478 53.5871 194.237 53.8554C193.861 54.3116 193.485 54.5396 193.11 54.5396C192.734 54.5396 192.452 54.3518 192.265 53.9762C192.077 53.6274 192.063 53.2383 192.224 52.809Z" fill="black"/>
<path d="M191.575 44.9609C191.414 45.2024 191.199 45.5244 190.931 45.9268C190.662 46.3025 190.394 46.7049 190.126 47.1342C189.857 47.5635 189.629 47.9928 189.441 48.4221C189.254 48.8514 189.133 49.2136 189.079 49.5088C188.972 50.1259 189.026 50.5686 189.24 50.8369C189.482 51.0784 189.79 51.1991 190.166 51.1991C190.542 51.1991 190.957 51.0918 191.414 50.8772C191.896 50.6357 192.312 50.354 192.661 50.032C193.171 49.5759 193.667 49.0527 194.15 48.4624C194.633 47.8721 195.063 47.322 195.438 46.8123C195.841 46.2756 196.163 45.8195 196.404 45.4439C196.672 45.0414 196.833 44.8133 196.887 44.7597C196.968 44.6792 197.061 44.6389 197.169 44.6389C197.303 44.6389 197.424 44.7194 197.531 44.8804C197.638 45.0414 197.625 45.2024 197.491 45.3634C197.115 45.9268 196.646 46.5976 196.082 47.3757C195.546 48.1538 194.942 48.9051 194.271 49.6295C193.627 50.3271 192.929 50.9308 192.178 51.4406C191.427 51.9236 190.662 52.1651 189.884 52.1651C189.267 52.1651 188.73 51.9772 188.274 51.6016C187.845 51.226 187.59 50.6357 187.51 49.8308C187.241 50.1527 186.933 50.4881 186.584 50.8369C186.262 51.1857 185.9 51.5077 185.497 51.8028C185.122 52.098 184.719 52.3395 184.29 52.5273C183.861 52.7151 183.431 52.809 183.002 52.809C182.331 52.809 181.754 52.5944 181.271 52.1651C180.788 51.7089 180.601 51.0113 180.708 50.0722C180.815 49.0527 181.11 48.0867 181.593 47.1745C182.049 46.2622 182.613 45.4573 183.284 44.7597C183.928 44.0621 184.625 43.512 185.377 43.1096C186.155 42.7071 186.879 42.5059 187.55 42.5059C188.247 42.5059 188.824 42.7205 189.28 43.1498C189.388 43.2303 189.468 43.3242 189.522 43.4315C189.602 43.5389 189.67 43.6596 189.723 43.7938C189.831 43.6328 189.951 43.4852 190.085 43.351C190.246 43.1901 190.434 43.1096 190.649 43.1096C190.837 43.1096 191.011 43.1632 191.172 43.2705C191.36 43.3779 191.494 43.5254 191.575 43.7133C191.682 43.9011 191.736 44.1023 191.736 44.317C191.762 44.5316 191.709 44.7463 191.575 44.9609ZM188.878 44.6792C188.958 44.4109 188.932 44.2096 188.798 44.0755C188.663 43.9145 188.449 43.834 188.154 43.834C187.805 43.834 187.469 43.9413 187.147 44.156C186.664 44.4511 186.155 44.8536 185.618 45.3634C185.081 45.8463 184.585 46.3964 184.129 47.0135C183.673 47.6038 183.284 48.2343 182.962 48.9051C182.613 49.549 182.412 50.1661 182.358 50.7564C182.331 51.3467 182.546 51.6419 183.002 51.6419C183.351 51.6419 183.794 51.4809 184.33 51.1589C184.894 50.8101 185.457 50.3271 186.02 49.71C186.584 49.0929 187.121 48.355 187.63 47.4964C188.167 46.6379 188.583 45.6988 188.878 44.6792Z" fill="black"/>
<path d="M191.027 6.44473C188.988 8.37657 186.935 10.456 184.869 12.683C182.83 14.9099 180.778 17.1906 178.712 19.5249C176.672 21.8324 174.633 24.1667 172.594 26.5278C170.582 28.889 168.583 31.183 166.597 33.41C164.612 35.637 162.653 37.7566 160.721 39.769C158.816 41.7813 156.938 43.6058 155.087 45.2425C157.985 45.6182 160.923 46.6109 163.901 48.2208C166.879 49.8306 169.871 52.1784 172.876 55.264C175.183 57.6519 177.518 59.946 179.879 62.1461C182.24 64.3731 184.547 66.3452 186.801 68.0624C189.082 69.8064 191.242 71.1882 193.281 72.2078C195.347 73.2542 197.212 73.7774 198.875 73.7774C200.163 73.7774 201.277 73.442 202.216 72.7713C202.618 72.4761 202.967 72.3285 203.262 72.3285C203.611 72.3285 203.745 72.5164 203.665 72.892C203.584 73.2945 203.289 73.6433 202.779 73.9384C202.082 74.3409 201.344 74.6494 200.566 74.8641C199.814 75.1056 199.009 75.2263 198.151 75.2263C196.782 75.2263 195.266 74.9043 193.603 74.2604C191.939 73.6164 190.021 72.5432 187.848 71.0406C185.701 69.5649 183.273 67.6197 180.563 65.2049C177.853 62.7901 174.781 59.8118 171.347 56.2701C169.656 54.4993 167.993 53.0235 166.356 51.843C164.719 50.6624 163.136 49.7099 161.607 48.9855C160.077 48.261 158.602 47.7378 157.18 47.4158C155.784 47.0939 154.456 46.9195 153.195 46.8926C152.578 47.3756 151.974 47.8451 151.384 48.3013C150.821 48.7306 150.257 49.133 149.694 49.5087C147.842 53.8017 146.031 58.2154 144.26 62.7498C142.49 67.3111 140.759 71.9797 139.069 76.7557C138.881 77.3191 138.613 77.6009 138.264 77.6009C138.049 77.6009 137.888 77.4801 137.781 77.2386C137.673 76.9972 137.687 76.6886 137.821 76.313C139.136 72.2615 140.611 68.0892 142.248 63.7962C143.858 59.5301 145.562 55.2371 147.359 50.9173C145.454 51.9637 143.67 52.5808 142.007 52.7687C141.175 52.8491 140.544 52.7687 140.115 52.5272C139.659 52.2857 139.417 51.9503 139.391 51.521C139.337 51.0649 139.498 50.5685 139.874 50.0319C140.249 49.4684 140.853 48.9184 141.685 48.3818C144.26 46.7451 146.944 45.7255 149.734 45.323C151.156 42.0228 152.592 38.8031 154.04 35.6638C155.489 32.4977 156.898 29.4792 158.266 26.6083C159.662 23.7106 161.003 21.0006 162.291 18.4785C163.579 15.9295 164.773 13.6221 165.873 11.5561C167 9.49006 168.006 7.70579 168.891 6.20325C169.804 4.67388 170.568 3.47989 171.186 2.62129C171.668 1.95052 172.151 1.46756 172.634 1.17241C173.144 0.850439 173.6 0.689453 174.003 0.689453C174.62 0.689453 175.049 0.984595 175.291 1.57488C175.532 2.16517 175.411 2.9701 174.928 3.98968C174.499 4.90194 173.828 6.06909 172.916 7.49114C172.031 8.91319 170.984 10.5096 169.777 12.2805C168.596 14.0514 167.295 15.9429 165.873 17.9553C164.478 19.9676 163.056 22.0202 161.607 24.113C159.997 27.1986 158.347 30.4988 156.656 34.0137C154.993 37.5286 153.303 41.2313 151.585 45.1218C151.854 45.1218 152.122 45.1218 152.39 45.1218C152.659 45.095 152.927 45.095 153.195 45.1218C153.571 44.8266 153.933 44.5181 154.282 44.1961C154.658 43.8473 155.033 43.4851 155.409 43.1095C156.482 42.063 157.757 40.7483 159.232 39.1653C160.735 37.5554 162.345 35.798 164.062 33.893C165.806 31.988 167.617 29.989 169.495 27.8962C171.4 25.8034 173.265 23.7374 175.089 21.6982C176.914 19.6322 178.658 17.6467 180.322 15.7417C182.012 13.8367 183.528 12.1329 184.869 10.6304C186.211 9.12784 187.324 7.88019 188.21 6.88744C189.122 5.89469 189.712 5.27758 189.981 5.0361C190.437 4.6068 190.853 4.39215 191.228 4.39215C191.604 4.39215 191.792 4.6068 191.792 5.0361C191.819 5.46539 191.564 5.93494 191.027 6.44473ZM173.721 3.54697C172.782 4.7812 171.736 6.32399 170.582 8.17533C169.428 10.0267 168.167 12.1463 166.799 14.5343C167.845 12.8708 168.824 11.328 169.737 9.90594C170.649 8.48389 171.427 7.26308 172.071 6.24349C172.715 5.22391 173.184 4.47264 173.48 3.98968C173.802 3.47989 173.882 3.33232 173.721 3.54697ZM150.861 46.9731H150.78L150.74 47.0536L150.861 46.9731ZM148.325 48.6635C148.406 48.422 148.486 48.194 148.567 47.9793C148.674 47.7378 148.782 47.5098 148.889 47.2951C147.306 47.6171 145.937 48.0732 144.784 48.6635C143.657 49.2538 142.785 49.777 142.168 50.2331C141.873 50.4478 141.752 50.6222 141.805 50.7563C141.859 50.8905 142.034 50.9576 142.329 50.9576C142.838 50.9576 143.603 50.7832 144.623 50.4343C145.669 50.0855 146.903 49.4953 148.325 48.6635Z" fill="black"/>
<path d="M115.347 52.809C115.669 52.0041 116.085 51.1187 116.595 50.1527C117.078 49.1868 117.587 48.2343 118.124 47.2952C118.661 46.3561 119.197 45.4573 119.734 44.5987C120.27 43.7401 120.753 43.0157 121.183 42.4254C121.505 41.9424 121.88 41.7009 122.31 41.7009C122.685 41.7009 122.98 41.8753 123.195 42.2241C123.41 42.5461 123.383 42.8547 123.115 43.1498C122.712 43.6059 122.243 44.2767 121.706 45.1621C121.169 46.0476 120.646 46.9196 120.136 47.7782C119.546 48.7978 118.956 49.871 118.365 50.9979C118.902 50.3003 119.425 49.6295 119.935 48.9856C120.445 48.3148 120.914 47.6977 121.344 47.1342C121.8 46.5708 122.202 46.0878 122.551 45.6854C122.927 45.2829 123.249 45.0146 123.517 44.8804C123.973 44.6121 124.402 44.4779 124.805 44.4779C125.342 44.4779 125.69 44.706 125.851 45.1621C126.012 45.6183 125.986 46.1549 125.771 46.772C125.664 47.094 125.503 47.5099 125.288 48.0197C125.073 48.5026 124.872 48.999 124.684 49.5088C124.496 49.9917 124.349 50.4613 124.242 50.9174C124.134 51.3467 124.107 51.6821 124.161 51.9236C124.241 52.1919 124.389 52.3261 124.604 52.3261C124.926 52.3261 125.382 52.0846 125.972 51.6016C126.562 51.0918 127.22 50.4747 127.944 49.7503C128.669 48.999 129.406 48.1806 130.158 47.2952C130.936 46.4098 131.66 45.5914 132.331 44.8402C132.412 44.7328 132.519 44.6792 132.653 44.6792C132.814 44.6792 132.935 44.7597 133.015 44.9207C133.123 45.0548 133.109 45.2024 132.975 45.3634C132.304 46.0878 131.674 46.7988 131.083 47.4965C130.52 48.1672 129.943 48.8246 129.353 49.4685C128.789 50.1125 128.199 50.7296 127.582 51.3199C126.965 51.9102 126.267 52.4736 125.489 53.0102C124.979 53.3859 124.416 53.5737 123.799 53.5737C123.369 53.5737 122.98 53.453 122.632 53.2115C122.31 52.97 122.095 52.5675 121.988 52.0041C121.934 51.6016 121.961 51.1455 122.068 50.6357C122.176 50.1259 122.31 49.6295 122.471 49.1466C122.632 48.6636 122.793 48.2209 122.954 47.8184C123.141 47.416 123.289 47.1342 123.396 46.9732C123.048 47.1611 122.578 47.5769 121.988 48.2209C121.397 48.838 120.794 49.5222 120.177 50.2735C119.586 50.9979 119.036 51.7089 118.526 52.4065C117.99 53.1042 117.601 53.5871 117.359 53.8554C116.984 54.3116 116.608 54.5396 116.232 54.5396C115.857 54.5396 115.575 54.3518 115.387 53.9762C115.199 53.6274 115.186 53.2383 115.347 52.809Z" fill="black"/>
<path d="M114.697 44.9609C114.536 45.2024 114.321 45.5244 114.053 45.9268C113.785 46.3025 113.517 46.7049 113.248 47.1342C112.98 47.5635 112.752 47.9928 112.564 48.4221C112.376 48.8514 112.255 49.2136 112.202 49.5088C112.094 50.1259 112.148 50.5686 112.363 50.8369C112.604 51.0784 112.913 51.1991 113.288 51.1991C113.664 51.1991 114.08 51.0918 114.536 50.8772C115.019 50.6357 115.435 50.354 115.784 50.032C116.294 49.5759 116.79 49.0527 117.273 48.4624C117.756 47.8721 118.185 47.322 118.561 46.8123C118.963 46.2756 119.285 45.8195 119.527 45.4439C119.795 45.0414 119.956 44.8133 120.01 44.7597C120.09 44.6792 120.184 44.6389 120.291 44.6389C120.426 44.6389 120.546 44.7194 120.654 44.8804C120.761 45.0414 120.748 45.2024 120.613 45.3634C120.238 45.9268 119.768 46.5976 119.205 47.3757C118.668 48.1538 118.064 48.9051 117.394 49.6295C116.75 50.3271 116.052 50.9308 115.301 51.4406C114.55 51.9236 113.785 52.1651 113.007 52.1651C112.39 52.1651 111.853 51.9772 111.397 51.6016C110.968 51.226 110.713 50.6357 110.632 49.8308C110.364 50.1527 110.055 50.4881 109.706 50.8369C109.385 51.1857 109.022 51.5077 108.62 51.8028C108.244 52.098 107.842 52.3395 107.412 52.5273C106.983 52.7151 106.554 52.809 106.125 52.809C105.454 52.809 104.877 52.5944 104.394 52.1651C103.911 51.7089 103.723 51.0113 103.83 50.0722C103.938 49.0527 104.233 48.0867 104.716 47.1745C105.172 46.2622 105.735 45.4573 106.406 44.7597C107.05 44.0621 107.748 43.512 108.499 43.1096C109.277 42.7071 110.002 42.5059 110.672 42.5059C111.37 42.5059 111.947 42.7205 112.403 43.1498C112.51 43.2303 112.591 43.3242 112.645 43.4315C112.725 43.5389 112.792 43.6596 112.846 43.7938C112.953 43.6328 113.074 43.4852 113.208 43.351C113.369 43.1901 113.557 43.1096 113.771 43.1096C113.959 43.1096 114.134 43.1632 114.295 43.2705C114.482 43.3779 114.617 43.5254 114.697 43.7133C114.804 43.9011 114.858 44.1023 114.858 44.317C114.885 44.5316 114.831 44.7463 114.697 44.9609ZM112.001 44.6792C112.081 44.4109 112.054 44.2096 111.92 44.0755C111.786 43.9145 111.571 43.834 111.276 43.834C110.927 43.834 110.592 43.9413 110.27 44.156C109.787 44.4511 109.277 44.8536 108.741 45.3634C108.204 45.8463 107.708 46.3964 107.251 47.0135C106.795 47.6038 106.406 48.2343 106.084 48.9051C105.735 49.549 105.534 50.1661 105.481 50.7564C105.454 51.3467 105.668 51.6419 106.125 51.6419C106.473 51.6419 106.916 51.4809 107.453 51.1589C108.016 50.8101 108.58 50.3271 109.143 49.71C109.706 49.0929 110.243 48.355 110.753 47.4964C111.29 46.6379 111.705 45.6988 112.001 44.6792Z" fill="black"/>
<path d="M91.2701 52.9296C91.8872 51.5075 92.4775 50.166 93.0409 48.9049C93.5775 47.617 94.0605 46.4767 94.4898 45.4839C94.9191 44.4644 95.2813 43.6192 95.5764 42.9484C95.8984 42.2776 96.1265 41.8215 96.2606 41.58C96.4753 41.258 96.7973 41.0971 97.2266 41.0971C97.6022 41.0971 97.8973 41.2178 98.112 41.4593C98.3266 41.7008 98.2461 42.0496 97.8705 42.5057C97.6827 42.7203 97.468 43.0691 97.2266 43.5521C96.9851 44.0082 96.7302 44.5314 96.4619 45.1217C97.1863 43.7533 97.9108 42.7203 98.6352 42.0227C99.3596 41.3251 99.9768 40.9763 100.487 40.9763C100.809 40.9763 101.063 41.1239 101.251 41.419C101.466 41.6873 101.573 42.1301 101.573 42.7472C101.6 44.1961 101.868 45.2693 102.378 45.9669C102.915 46.6377 103.518 46.9731 104.189 46.9731C104.672 46.9731 105.142 46.8121 105.598 46.4901C106.054 46.1413 106.456 45.6583 106.805 45.0412C106.886 44.9071 106.993 44.84 107.127 44.84C107.261 44.84 107.382 44.8937 107.489 45.001C107.597 45.1083 107.624 45.2291 107.57 45.3632C107.221 46.1145 106.698 46.7182 106 47.1743C105.33 47.6036 104.619 47.8183 103.867 47.8183C103.009 47.8183 102.231 47.4829 101.533 46.8121C100.862 46.1413 100.487 45.0412 100.406 43.5119C100.352 43.1362 100.245 42.9484 100.084 42.9484C99.9768 42.9484 99.8426 43.0155 99.6816 43.1496C99.5475 43.257 99.3731 43.4582 99.1584 43.7533C98.6754 44.3973 98.1254 45.2291 97.5083 46.2486C96.8912 47.2682 96.2875 48.2878 95.6972 49.3074C95.1069 50.327 94.5837 51.2661 94.1276 52.1246C93.6446 52.9564 93.3226 53.5199 93.1616 53.815C92.8933 54.298 92.5579 54.5394 92.1555 54.5394C91.8067 54.5394 91.5249 54.3785 91.3103 54.0565C91.0956 53.7613 91.0822 53.3857 91.2701 52.9296Z" fill="black"/>
<path d="M75.0491 52.2859C75.2369 51.6419 75.5186 50.8906 75.8942 50.032C76.2431 49.1466 76.6187 48.2612 77.0212 47.3758C77.4236 46.4903 77.8261 45.6317 78.2286 44.8C78.631 43.9682 78.9798 43.2706 79.275 42.7072C79.436 42.4388 79.6372 42.3047 79.8787 42.3047C80.0397 42.3047 80.2141 42.3583 80.4019 42.4657C80.5897 42.5462 80.7507 42.6669 80.8848 42.8279C81.019 42.962 81.1129 43.1096 81.1666 43.2706C81.2202 43.4048 81.2202 43.5255 81.1666 43.6328C81.408 43.4182 81.6495 43.2706 81.891 43.1901C82.1593 43.0828 82.4142 43.0291 82.6557 43.0291C83.1923 43.0291 83.6216 43.2572 83.9436 43.7133C84.2924 44.1426 84.3326 44.7463 84.0643 45.5244C83.9838 45.7659 83.8094 46.1818 83.5411 46.7721C83.2996 47.3355 83.0582 47.9258 82.8167 48.5429C82.5752 49.1332 82.3605 49.6832 82.1727 50.193C82.0117 50.676 81.9715 50.9577 82.052 51.0382C82.1593 51.1724 82.3606 51.0516 82.6557 50.676C82.9777 50.2735 83.3399 49.804 83.7424 49.2674C84.1448 48.7039 84.5741 48.1673 85.0302 47.6575C85.4864 47.1209 85.9023 46.7855 86.2779 46.6513C86.6535 46.5172 87.0023 46.6111 87.3243 46.9331C87.6463 47.2282 87.7268 47.6307 87.5658 48.1405C87.4585 48.4088 87.2841 48.8246 87.0426 49.3881C86.8011 49.9247 86.5865 50.4882 86.3986 51.0785C86.2376 51.6687 86.1572 52.192 86.1572 52.6481C86.184 53.1042 86.3986 53.3591 86.8011 53.4128C87.3109 53.4664 87.8475 53.3189 88.411 52.9701C89.0012 52.6213 89.5915 52.1651 90.1818 51.6017C90.7721 51.0382 91.349 50.4077 91.9124 49.7101C92.4759 49.0125 92.9857 48.3417 93.4418 47.6977C93.8979 47.0538 94.287 46.4903 94.609 46.0074C94.9309 45.5244 95.1322 45.2159 95.2127 45.0817C95.32 44.8939 95.4676 44.8 95.6554 44.8C95.7895 44.8 95.8968 44.8671 95.9773 45.0012C96.0578 45.1085 96.0713 45.2293 96.0176 45.3634C95.9103 45.5781 95.6688 45.9671 95.2932 46.5306C94.9175 47.094 94.4614 47.738 93.9248 48.4624C93.415 49.16 92.8381 49.8979 92.1942 50.676C91.5502 51.4273 90.8928 52.1115 90.2221 52.7286C89.5513 53.3189 88.8805 53.7884 88.2097 54.1372C87.5658 54.5128 86.9621 54.647 86.3986 54.5397C85.7279 54.4324 85.2717 54.1372 85.0302 53.6543C84.7888 53.1713 84.668 52.6347 84.668 52.0444C84.6949 51.4541 84.8156 50.8638 85.0302 50.2735C85.2449 49.6832 85.4461 49.2137 85.6339 48.8649C85.4461 49.0259 85.2315 49.2808 84.99 49.6296C84.7485 49.9784 84.4936 50.354 84.2253 50.7565C83.957 51.159 83.6619 51.5614 83.3399 51.9639C83.0179 52.3664 82.6691 52.6883 82.2935 52.9298C82.052 53.0908 81.7971 53.1713 81.5288 53.1713C81.18 53.1713 80.8714 53.0371 80.6031 52.7688C80.3616 52.5005 80.2409 52.1383 80.2409 51.6822C80.2409 51.0919 80.3348 50.4479 80.5226 49.7503C80.7104 49.0527 80.9117 48.3819 81.1263 47.738C81.3678 47.094 81.569 46.5306 81.73 46.0476C81.891 45.5647 81.9447 45.2695 81.891 45.1622C81.8373 45.028 81.7569 44.961 81.6495 44.961C81.408 44.961 81.0727 45.2695 80.6434 45.8866C80.2141 46.4769 79.7579 47.2014 79.275 48.06C78.792 48.8917 78.3359 49.7772 77.9066 50.7162C77.4505 51.6553 77.0882 52.4469 76.8199 53.0908C76.6858 53.4128 76.4443 53.5738 76.0955 53.5738C75.8003 53.5738 75.5186 53.453 75.2503 53.2115C74.982 52.9701 74.9149 52.6615 75.0491 52.2859Z" fill="black"/>
<path d="M68.6442 37.9981C68.8052 37.6493 68.993 37.287 69.2077 36.9114C69.4223 36.5358 69.637 36.2004 69.8516 35.9052C70.0931 35.6101 70.3211 35.3686 70.5358 35.1808C70.7773 34.993 71.0188 34.9259 71.2602 34.9796C71.5822 35.0064 71.8908 35.1808 72.1859 35.5028C72.5079 35.8247 72.6018 36.1467 72.4676 36.4687C72.3871 36.6565 72.2396 36.898 72.0249 37.1931C71.8103 37.4614 71.5688 37.7432 71.3005 38.0383C71.0322 38.3066 70.7639 38.5615 70.4955 38.803C70.2541 39.0176 70.026 39.1786 69.8114 39.286C69.704 39.3396 69.5565 39.3396 69.3686 39.286C69.2076 39.2055 69.0467 39.0981 68.8857 38.964C68.7515 38.8298 68.6576 38.6823 68.6039 38.5213C68.5503 38.3334 68.5637 38.159 68.6442 37.9981ZM66.9136 44.1156C66.1623 44.9205 65.4647 45.8059 64.8208 46.7718C64.2036 47.7378 63.7207 48.6903 63.3719 49.6293C62.9962 50.5416 62.795 51.3868 62.7682 52.1649C62.7414 52.943 62.9694 53.5601 63.4524 54.0162C63.667 54.2041 63.9756 54.298 64.3781 54.298C64.9415 54.298 65.6257 54.1101 66.4306 53.7345C67.2356 53.3589 68.0942 52.8759 69.0064 52.2856C69.9455 51.6685 70.8846 50.9977 71.8237 50.2733C72.7896 49.5489 73.7019 48.8378 74.5605 48.1402C75.4459 47.4158 76.224 46.7584 76.8948 46.1681C77.5924 45.551 78.129 45.0681 78.5046 44.7193C78.612 44.6119 78.7193 44.5717 78.8266 44.5985C78.9339 44.6253 79.0144 44.679 79.0681 44.7595C79.1486 44.84 79.1888 44.9473 79.1888 45.0815C79.2157 45.1888 79.1754 45.2827 79.0681 45.3632C78.8266 45.551 78.3839 45.9535 77.74 46.5706C77.1228 47.1609 76.385 47.8451 75.5264 48.6232C74.6678 49.4013 73.7153 50.2196 72.6689 51.0782C71.6493 51.9368 70.6163 52.7149 69.5699 53.4125C68.5503 54.1101 67.5441 54.687 66.5514 55.1431C65.5855 55.6261 64.7269 55.8676 63.9756 55.8676C63.6536 55.8676 63.3719 55.8273 63.1304 55.7468C62.0572 55.398 61.3461 54.848 60.9973 54.0967C60.6485 53.3455 60.5278 52.5003 60.6351 51.5612C60.7424 50.5953 61.0242 49.6025 61.4803 48.5829C61.9364 47.5634 62.4328 46.6243 62.9694 45.7657C63.506 44.9071 64.0158 44.1826 64.4988 43.5923C64.9818 43.0021 65.3171 42.6667 65.505 42.5862C65.8269 42.452 66.0684 42.3849 66.2294 42.3849C66.6855 42.3849 66.9807 42.5996 67.1148 43.0289C67.2758 43.4314 67.2087 43.7936 66.9136 44.1156Z" fill="black"/>
<path d="M46.7173 25.24C46.3685 25.5083 46.0465 25.6693 45.7514 25.7229C45.4562 25.7766 45.2282 25.7632 45.0672 25.6827C44.933 25.5754 44.8928 25.4278 44.9465 25.24C45.0001 25.0253 45.2014 24.7839 45.5502 24.5155C47.6161 23.013 49.4943 21.4702 51.1847 19.8872C52.8751 18.3041 54.3508 16.7614 55.6118 15.2588C56.8729 13.7563 57.9193 12.3342 58.7511 10.9927C59.5828 9.62428 60.1731 8.43029 60.5219 7.41071C60.8707 6.3643 60.9646 5.51911 60.8036 4.87517C60.6695 4.20439 60.2536 3.81534 59.556 3.70802C58.0535 3.46653 56.1484 3.62752 53.841 4.19098C51.5335 4.75443 49.0248 5.59961 46.3148 6.72651C43.6317 7.82659 40.8413 9.15473 37.9435 10.7109C35.0726 12.2403 32.2822 13.877 29.5722 15.621C26.8891 17.3382 24.4072 19.0957 22.1266 20.8933C19.8459 22.6642 17.9543 24.3411 16.4518 25.9242C14.9493 27.5072 13.9431 28.9427 13.4333 30.2306C12.9503 31.4916 13.1516 32.471 14.037 33.1686C15.0029 33.9199 16.425 34.5772 18.3032 35.1407C20.1813 35.7041 22.301 36.2542 24.6621 36.7908C27.0233 37.3006 29.5051 37.8372 32.1078 38.4007C34.7104 38.9641 37.2057 39.6349 39.5936 40.413C42.0084 41.1643 44.1952 42.0631 46.1539 43.1095C48.1394 44.1559 49.6822 45.4304 50.7822 46.9329C54.0288 46.2622 56.7924 45.739 59.073 45.3633C61.3537 44.9609 62.8831 44.6657 63.6612 44.4779C63.8221 44.4242 63.9295 44.4377 63.9831 44.5181C64.0636 44.5986 64.1173 44.706 64.1441 44.8401C64.171 44.9474 64.1575 45.0548 64.1039 45.1621C64.077 45.2694 64.0234 45.3365 63.9429 45.3633C62.3062 45.6853 60.4146 46.0609 58.2681 46.4902C56.1484 46.8927 53.8544 47.3622 51.3859 47.8989C51.9225 48.838 52.2445 49.871 52.3518 50.9979C52.486 52.1248 52.3787 53.359 52.0299 54.7006C51.6811 56.0421 51.0639 57.491 50.1785 59.0472C49.2931 60.6302 48.0991 62.3474 46.5966 64.1988C44.1818 67.1502 41.5255 69.6857 38.6277 71.8054C35.7568 73.9251 32.8322 75.6691 29.8539 77.0375C26.8757 78.4059 23.9243 79.412 20.9997 80.056C18.0751 80.6999 15.3517 81.0219 12.8296 81.0219C10.8173 81.0219 8.99275 80.8207 7.35606 80.4182C5.69253 80.0426 4.31072 79.4925 3.21065 78.7681C2.11057 78.0436 1.31905 77.1448 0.836094 76.0715C0.353134 75.0251 0.286056 73.8311 0.63486 72.4896C0.956834 71.148 1.73494 69.6723 2.96917 68.0625C4.2034 66.4794 5.97425 64.7756 8.28173 62.9511C9.97209 61.6096 11.8503 60.3619 13.9163 59.2082C15.9823 58.0544 18.1422 56.9678 20.396 55.9482C22.6766 54.9555 25.0243 54.0432 27.4391 53.2114C29.8808 52.3528 32.309 51.5747 34.7238 50.8771C37.1654 50.1795 39.5534 49.549 41.8877 48.9855C44.222 48.3952 46.449 47.872 48.5687 47.4159C47.6296 46.2085 46.3283 45.1889 44.6647 44.3572C43.028 43.5254 41.1767 42.8144 39.1107 42.2241C37.0447 41.607 34.858 41.0838 32.5505 40.6545C30.243 40.1983 27.9892 39.7556 25.789 39.3263C23.5889 38.8702 21.5095 38.3872 19.5508 37.8774C17.5921 37.3677 15.9286 36.7371 14.5602 35.9859C13.2187 35.2077 12.2393 34.2821 11.6222 33.2088C11.0051 32.1356 10.9246 30.8343 11.3807 29.3049C11.7295 28.178 12.4942 26.9169 13.6748 25.5217C14.8822 24.1265 16.3847 22.6642 18.1824 21.1348C20.0069 19.6055 22.0461 18.0627 24.2999 16.5065C26.5806 14.9234 28.9551 13.394 31.4236 11.9183C33.9189 10.4426 36.441 9.06082 38.9899 7.77293C41.5657 6.48504 44.0342 5.35813 46.3953 4.39221C48.7565 3.42629 50.9566 2.67502 52.9958 2.13839C55.0618 1.57494 56.8192 1.29321 58.2681 1.29321C59.3682 1.29321 60.2536 1.46762 60.9244 1.81642C62.0513 2.4067 62.7221 3.21164 62.9367 4.23122C63.1514 5.25081 63.0038 6.41796 62.494 7.73268C62.011 9.02058 61.2329 10.4158 60.1597 11.9183C59.1133 13.4209 57.8656 14.9503 56.4168 16.5065C54.9947 18.0358 53.4385 19.5518 51.7481 21.0543C50.0846 22.5569 48.4077 23.9521 46.7173 25.24ZM49.2126 48.3818C45.8319 49.1331 42.2902 50.0051 38.5875 50.9979C34.8848 51.9906 31.2626 53.1041 27.7209 54.3383C24.1792 55.5994 20.8253 56.9946 17.6592 58.524C14.4931 60.0534 11.7295 61.7437 9.36839 63.5951C7.27556 65.2318 5.6657 66.7611 4.53879 68.1832C3.41188 69.6321 2.68744 70.9468 2.36547 72.1274C2.04349 73.3348 2.08374 74.408 2.48621 75.3471C2.88867 76.2862 3.57287 77.0777 4.53879 77.7217C5.50471 78.3924 6.71211 78.9022 8.16099 79.251C9.60987 79.5998 11.2332 79.7742 13.0308 79.7742C15.3115 79.7742 17.7799 79.4657 20.4362 78.8486C23.1193 78.2583 25.8293 77.3326 28.5661 76.0715C31.3297 74.8105 34.0396 73.1872 36.6959 71.2017C39.3522 69.2162 41.8072 66.8282 44.061 64.0378C45.5636 62.1864 46.7576 60.4961 47.643 58.9667C48.5284 57.4373 49.1589 56.0287 49.5346 54.7408C49.937 53.4529 50.098 52.2858 50.0175 51.2393C49.937 50.1929 49.6687 49.2404 49.2126 48.3818Z" fill="black"/>
</svg>
