<svg width="62" height="61" viewBox="0 0 62 61" fill="none" xmlns="http://www.w3.org/2000/svg">
<rect x="7" y="0.3125" width="48.375" height="48.375" rx="24.1875" fill="#FFF2EE"/>
<g filter="url(#filter0_d_3474_54587)">
<path d="M34.8125 12H27.5625C26.7125 12 25.5125 12.5 24.9125 13.1L19.7875 18.225C19.1875 18.825 18.6875 20.025 18.6875 20.875V28.125C18.6875 28.975 19.1875 30.175 19.7875 30.775L24.9125 35.9C25.5125 36.5 26.7125 37 27.5625 37H34.8125C35.6625 37 36.8625 36.5 37.4625 35.9L42.5875 30.775C43.1875 30.175 43.6875 28.975 43.6875 28.125V20.875C43.6875 20.025 43.1875 18.825 42.5875 18.225L37.4625 13.1C36.8625 12.5 35.6625 12 34.8125 12Z" fill="#DC2626"/>
<path d="M32.5133 24.5L36.2258 20.7875C36.5883 20.425 36.5883 19.825 36.2258 19.4625C35.8633 19.1 35.2633 19.1 34.9008 19.4625L31.1883 23.175L27.4758 19.4625C27.1133 19.1 26.5133 19.1 26.1508 19.4625C25.7883 19.825 25.7883 20.425 26.1508 20.7875L29.8633 24.5L26.1508 28.2125C25.7883 28.575 25.7883 29.175 26.1508 29.5375C26.3383 29.725 26.5758 29.8125 26.8133 29.8125C27.0508 29.8125 27.2883 29.725 27.4758 29.5375L31.1883 25.825L34.9008 29.5375C35.0883 29.725 35.3258 29.8125 35.5633 29.8125C35.8008 29.8125 36.0383 29.725 36.2258 29.5375C36.5883 29.175 36.5883 28.575 36.2258 28.2125L32.5133 24.5Z" fill="white"/>
</g>
<defs>
<filter id="filter0_d_3474_54587" x="-1.8125" y="-2.5" width="66" height="66" filterUnits="userSpaceOnUse" color-interpolation-filters="sRGB">
<feFlood flood-opacity="0" result="BackgroundImageFix"/>
<feColorMatrix in="SourceAlpha" type="matrix" values="0 0 0 0 0 0 0 0 0 0 0 0 0 0 0 0 0 0 127 0" result="hardAlpha"/>
<feOffset dy="6"/>
<feGaussianBlur stdDeviation="9"/>
<feComposite in2="hardAlpha" operator="out"/>
<feColorMatrix type="matrix" values="0 0 0 0 0.8925 0 0 0 0 0.00749999 0 0 0 0 0.00750031 0 0 0 0.32 0"/>
<feBlend mode="normal" in2="BackgroundImageFix" result="effect1_dropShadow_3474_54587"/>
<feBlend mode="normal" in="SourceGraphic" in2="effect1_dropShadow_3474_54587" result="shape"/>
</filter>
</defs>
</svg>
