<svg  viewBox="0 0 191 55" fill="none" xmlns="http://www.w3.org/2000/svg">
<path d="M10.0742 0.194336L12.1667 7.31424L19.5848 7.10417L13.46 11.2944L15.9521 18.2845L10.0742 13.7543L4.19637 18.2845L6.68846 11.2944L0.563654 7.10417L7.9817 7.31424L10.0742 0.194336Z" fill="#2D2F36"/>
<path d="M33.0635 0.194336L35.156 7.31424L42.574 7.10417L36.4492 11.2944L38.9413 18.2845L33.0635 13.7543L27.1856 18.2845L29.6777 11.2944L23.5529 7.10417L30.971 7.31424L33.0635 0.194336Z" fill="#2D2F36"/>
<path d="M56.0527 0.194336L58.1453 7.31424L65.5633 7.10417L59.4385 11.2944L61.9306 18.2845L56.0527 13.7543L50.1749 18.2845L52.667 11.2944L46.5422 7.10417L53.9602 7.31424L56.0527 0.194336Z" fill="#2D2F36"/>
<path d="M79.042 0.194336L81.1345 7.31424L88.5526 7.10417L82.4278 11.2944L84.9198 18.2845L79.042 13.7543L73.1641 18.2845L75.6562 11.2944L69.5314 7.10417L76.9495 7.31424L79.042 0.194336Z" fill="#2D2F36"/>
<path d="M102.031 0.194336L104.124 7.31424L111.542 7.10417L105.417 11.2944L107.909 18.2845L102.031 13.7543L96.1534 18.2845L98.6455 11.2944L92.5207 7.10417L99.9387 7.31424L102.031 0.194336Z" fill="url(#paint0_linear_1878_6545)"/>
<path d="M115.587 14.9943C114.267 13.4343 113.571 11.4183 113.571 9.41434C113.571 7.39834 114.267 5.39434 115.587 3.83434H117.075C115.779 5.39434 115.071 7.39834 115.071 9.41434C115.071 11.4183 115.779 13.4343 117.075 14.9943H115.587ZM118.837 13.1943C118.837 10.8303 119.893 7.18234 122.185 5.04634H117.349V3.76234H123.949V5.07034C121.465 7.27834 120.433 10.8183 120.433 13.1943H118.837ZM125.903 13.1943C125.903 10.8303 126.959 7.18234 129.251 5.04634H124.415V3.76234H131.015V5.07034C128.531 7.27834 127.499 10.8183 127.499 13.1943H125.903ZM133.451 13.1943V6.39034C133.007 6.93034 132.251 7.36234 131.507 7.50634V5.95834C132.647 5.65834 133.487 4.78234 133.487 3.83434H134.963V13.1943H133.451ZM139.923 13.1943V6.52234H141.315V7.65034H141.363C141.699 6.91834 142.407 6.33034 143.331 6.33034C143.547 6.33034 143.763 6.35434 144.003 6.45034V8.03434C143.751 7.93834 143.403 7.90234 143.187 7.90234C141.675 7.90234 141.339 9.33034 141.339 10.4223V13.1943H139.923ZM147.809 13.3983C145.853 13.3983 144.389 12.0063 144.389 9.88234C144.389 7.83034 145.769 6.33034 147.713 6.33034C149.261 6.33034 150.881 7.30234 150.881 9.82234V10.2423H145.829C145.937 11.4303 146.765 12.1263 147.809 12.1263C148.637 12.1263 149.285 11.6343 149.597 10.8663L150.929 11.3943C150.473 12.5703 149.321 13.3983 147.809 13.3983ZM145.901 9.22234H149.441C149.345 8.01034 148.529 7.55434 147.701 7.55434C146.717 7.55434 146.069 8.23834 145.901 9.22234ZM153.814 13.1943L151.366 6.52234H152.914C153.526 8.16634 154.066 9.76234 154.678 11.5143H154.702C155.302 9.76234 155.842 8.16634 156.442 6.52234H157.954L155.518 13.1943H153.814ZM158.966 13.1943V6.52234H160.382V13.1943H158.966ZM158.75 4.36234C158.75 3.87034 159.146 3.45034 159.686 3.45034C160.202 3.45034 160.598 3.87034 160.598 4.36234C160.598 4.89034 160.202 5.31034 159.686 5.31034C159.146 5.31034 158.75 4.89034 158.75 4.36234ZM165.141 13.3983C163.185 13.3983 161.721 12.0063 161.721 9.88234C161.721 7.83034 163.101 6.33034 165.045 6.33034C166.593 6.33034 168.213 7.30234 168.213 9.82234V10.2423H163.161C163.269 11.4303 164.097 12.1263 165.141 12.1263C165.969 12.1263 166.617 11.6343 166.929 10.8663L168.261 11.3943C167.805 12.5703 166.653 13.3983 165.141 13.3983ZM163.233 9.22234H166.773C166.677 8.01034 165.861 7.55434 165.033 7.55434C164.049 7.55434 163.401 8.23834 163.233 9.22234ZM171.013 13.1943L168.745 6.52234H170.365C170.869 8.13034 171.397 9.73834 171.901 11.3463H171.937C172.477 9.73834 173.029 8.13034 173.569 6.52234H174.853C175.393 8.13034 175.945 9.73834 176.485 11.3463H176.509C177.025 9.73834 177.553 8.13034 178.057 6.52234H179.665L177.397 13.1943H175.705C175.201 11.6823 174.697 10.1223 174.217 8.59834H174.205C173.713 10.1223 173.185 11.6823 172.657 13.1943H171.013ZM182.891 13.3983C181.427 13.3983 180.359 12.6423 180.023 11.5263L181.343 11.0943C181.655 11.8743 182.303 12.2223 182.879 12.2223C183.323 12.2223 183.935 12.0303 183.935 11.4183C183.935 10.8543 183.383 10.6863 182.867 10.5303L182.171 10.3263C181.403 10.0983 180.335 9.61834 180.335 8.35834C180.335 7.07434 181.439 6.33034 182.759 6.33034C184.043 6.33034 184.967 7.05034 185.255 7.99834L183.935 8.43034C183.755 7.93834 183.371 7.49434 182.699 7.49434C182.159 7.49434 181.763 7.79434 181.763 8.25034C181.763 8.85034 182.483 9.07834 183.047 9.23434L183.599 9.39034C184.259 9.58234 185.447 9.93034 185.447 11.2743C185.447 12.5343 184.439 13.3983 182.891 13.3983ZM185.525 14.9943C186.821 13.4343 187.529 11.4183 187.529 9.41434C187.529 7.39834 186.821 5.39434 185.525 3.83434H187.001C188.321 5.39434 189.017 7.39834 189.017 9.41434C189.017 11.4183 188.321 13.4343 187.001 14.9943H185.525Z" fill="#2D2F36"/>
<g clip-path="url(#clip0_1878_6545)">
<path d="M49.2795 47.4365L44.3901 41.1423C47.5293 40.4076 49.7238 38.3588 49.7238 34.962V34.9039C49.7238 33.2003 49.1011 31.6845 48.0487 30.631C46.7039 29.2863 44.5981 28.4819 41.9708 28.4819H34.2146C33.4525 28.4819 32.7959 29.1322 32.7959 29.9302V48.433C32.7959 49.231 33.4525 49.8812 34.2146 49.8812C35.0094 49.8812 35.6617 49.2299 35.6617 48.433V41.6806H41.2182L46.971 49.155C47.2866 49.5762 47.7141 49.8812 48.2756 49.8812C49.0018 49.8812 49.7238 49.2247 49.7238 48.4615C49.7238 48.0741 49.5592 47.7522 49.2795 47.4365ZM46.8285 34.9926V35.0517C46.8285 37.5713 44.7026 39.0512 41.7628 39.0512H35.6617V31.1704H41.7924C44.9527 31.1704 46.8285 32.587 46.8285 34.9926Z" fill="#2D2F36"/>
<path d="M53.9004 48.2852C53.9004 49.0822 54.5569 49.7324 55.3191 49.7324H68.3446C69.0835 49.7324 69.6736 49.1413 69.6736 48.4024C69.6736 47.6645 69.0835 47.0734 68.3446 47.0734H56.7662V40.3474H66.8647C67.6036 40.3474 68.1947 39.7574 68.1947 39.0185C68.1947 38.3165 67.6036 37.6885 66.8647 37.6885H56.7662V31.1419H68.1968C68.9347 31.1419 69.5268 30.5508 69.5268 29.8119C69.5268 29.073 68.9347 28.4819 68.1968 28.4819H55.3191C54.5569 28.4819 53.9004 29.1322 53.9004 29.9302V48.2852Z" fill="#2D2F36"/>
<path d="M81.7228 49.9697H81.878C82.6539 49.956 83.1362 49.519 83.4434 48.8371L91.4709 30.2942C91.5427 30.1158 91.5786 29.9374 91.5786 29.7231C91.5786 28.9937 90.9621 28.334 90.1599 28.334C89.5245 28.334 89.0178 28.8143 88.7697 29.3083C88.7666 29.3135 88.7634 29.3188 88.7613 29.3252L81.8126 45.9702L74.8913 29.3843C74.6443 28.7837 74.1408 28.334 73.4346 28.334C72.6345 28.334 71.9854 29.0275 71.9854 29.7516C71.9854 30.0049 72.0234 30.1844 72.131 30.3997L80.1184 48.8308C80.396 49.5253 80.9238 49.9697 81.7228 49.9697Z" fill="#2D2F36"/>
<path d="M95.3711 29.7822V48.4328C95.3711 49.2308 96.0277 49.881 96.7898 49.881C97.5857 49.881 98.2369 49.2287 98.2369 48.4328V29.7822C98.2369 28.9853 97.5857 28.334 96.7898 28.334C96.0277 28.334 95.3711 28.9842 95.3711 29.7822Z" fill="#2D2F36"/>
<path d="M117.811 28.483L117.777 28.4819H104.898C104.137 28.4819 103.48 29.1322 103.48 29.9302V48.2852C103.48 49.0822 104.137 49.7324 104.898 49.7324H117.925C118.661 49.7324 119.254 49.1413 119.254 48.4024C119.254 47.6645 118.663 47.0734 117.925 47.0734H106.346V40.3474H116.444C117.184 40.3474 117.774 39.7574 117.774 39.0185C117.774 38.3165 117.184 37.6885 116.444 37.6885H106.346V31.1419H117.777C118.514 31.1419 119.107 30.5508 119.107 29.8119C119.107 29.0847 118.533 28.5009 117.811 28.483Z" fill="#2D2F36"/>
<path d="M143.2 49.9986H143.443C144.133 49.9849 144.63 49.511 144.873 48.8153C144.872 48.8185 151.504 30.4054 151.504 30.4054C151.505 30.4022 151.506 30.4001 151.506 30.398C151.573 30.1953 151.668 29.9557 151.668 29.7531C151.668 29.0268 150.982 28.3354 150.22 28.3354C149.538 28.3354 149.061 28.7862 148.844 29.4322C148.845 29.4301 143.359 45.2117 143.359 45.2117L138.184 29.4332C137.97 28.7883 137.495 28.3354 136.78 28.3354V28.3376L136.632 28.3354C135.88 28.3354 135.441 28.7883 135.227 29.4332L130.052 45.2106L124.595 29.4881C124.384 28.8537 123.841 28.3354 123.132 28.3354C122.337 28.3354 121.655 29.0237 121.655 29.7826C121.655 29.9884 121.718 30.1943 121.786 30.3991L128.419 48.8164C128.663 49.5447 129.16 49.986 129.85 49.9986H130.092C130.782 49.9849 131.28 49.511 131.522 48.8153L136.633 33.628L141.771 48.8153C142.014 49.511 142.512 49.9849 143.2 49.9986Z" fill="#2D2F36"/>
<path d="M166.62 44.0811V44.1402C166.62 46.0529 164.871 47.3997 162.266 47.3997C159.705 47.3997 157.804 46.6239 155.906 45.0152L155.901 45.01C155.713 44.8274 155.382 44.6754 155.013 44.6754C154.247 44.6754 153.623 45.2918 153.623 46.094C153.623 46.569 153.847 46.9701 154.173 47.195C156.529 49.0633 159.096 50.0291 162.177 50.0291C166.458 50.0291 169.515 47.5992 169.515 43.9037V43.8436C169.515 40.5597 167.344 38.7685 162.558 37.7256C162.558 37.7245 162.557 37.7245 162.557 37.7245C158.208 36.7925 157.141 35.8203 157.141 33.9562V33.8971C157.141 32.1565 158.774 30.8159 161.288 30.8159C163.157 30.8159 164.795 31.3352 166.491 32.5713C166.492 32.5713 166.492 32.5724 166.493 32.5724C166.746 32.7539 167 32.8289 167.328 32.8289C168.095 32.8289 168.716 32.2082 168.716 31.4397C168.716 30.8982 168.397 30.4992 168.107 30.2818C168.105 30.2807 168.104 30.2797 168.102 30.2786C166.163 28.8853 164.135 28.1865 161.348 28.1865C157.245 28.1865 154.274 30.7114 154.274 34.105L154.538 34.3689L154.274 34.1061V34.162L154.538 34.427L154.274 34.1631C154.274 37.6886 156.504 39.329 161.44 40.4014C161.44 40.4014 161.44 40.4014 161.442 40.4014C165.584 41.2765 166.62 42.2486 166.62 44.0811Z" fill="#2D2F36"/>
<path d="M172.777 46.9707H172.753C172.196 46.9707 171.8 47.3686 171.8 47.907V48.2384C171.8 48.7746 172.197 49.1916 172.753 49.1916C173.289 49.1916 173.689 48.7757 173.689 48.2384C173.689 48.325 173.619 48.3968 173.531 48.3968C173.531 48.3968 173.689 48.3788 173.689 48.23V47.907C173.689 47.376 173.302 46.9823 172.777 46.9707ZM171.972 48.3936C171.963 48.3957 171.958 48.3968 171.958 48.3968C171.962 48.3968 171.968 48.3957 171.972 48.3957V48.3936Z" fill="#2D2F36"/>
<path d="M176.156 40.952V48.3863C176.156 48.8391 176.507 49.1906 176.959 49.1906C177.415 49.1906 177.748 48.8402 177.748 48.3863V40.952C177.748 40.4971 177.396 40.1477 176.944 40.1477C176.51 40.1477 176.156 40.5182 176.156 40.952ZM176.04 37.9215C176.04 38.4071 176.438 38.7586 176.944 38.7586C177.468 38.7586 177.863 38.406 177.863 37.9215V37.7073C177.863 37.2006 177.468 36.8691 176.944 36.8691C176.438 36.8691 176.04 37.1995 176.04 37.7073V37.9215Z" fill="#2D2F36"/>
<path fill-rule="evenodd" clip-rule="evenodd" d="M189.107 44.6817V44.6458C189.107 42.1409 187.153 40.0488 184.495 40.0488C181.821 40.0488 179.865 42.1747 179.865 44.6785V44.7112C179.865 47.2139 181.803 49.3071 184.461 49.3071C187.136 49.3071 189.106 47.1823 189.107 44.6817ZM187.482 44.7112V44.6785C187.482 42.9294 186.179 41.4907 184.461 41.4907C182.697 41.4907 181.49 42.9284 181.49 44.6458V44.6785C181.49 46.4265 182.779 47.8473 184.495 47.8473C186.258 47.8473 187.482 46.4265 187.482 44.7112Z" fill="#2D2F36"/>
<g clip-path="url(#clip1_1878_6545)">
<path fill-rule="evenodd" clip-rule="evenodd" d="M24.1777 30.124L22.9047 30.7616C25.3863 32.7661 26.5991 35.3543 26.824 38.4851C26.6361 44.5302 23.784 48.4157 18.8851 50.0814C13.2242 51.7872 9.63846 50.4076 6.1678 46.8704L5.94824 48.23L7.35952 49.7004C12.2679 54.8156 20.4062 54.9834 25.5204 50.0751C30.6356 45.1667 30.8034 37.0295 25.8951 31.9142L24.1777 30.124Z" fill="#FEEF7C"/>
<path fill-rule="evenodd" clip-rule="evenodd" d="M5.25021 47.4735L6.1031 46.7283C2.5596 41.7081 2.41182 34.3572 7.25999 30.3112C10.8542 27.3114 17.9855 25.7565 23.6908 30.7799L24.1172 30.0315L22.726 28.5822C17.8177 23.467 9.68038 23.2992 4.56516 28.2075C-0.550064 33.1159 -0.717897 41.2542 4.19044 46.3684L5.25021 47.4735Z" fill="#5CD3CB"/>
<path d="M15.055 50.9904C21.5796 50.9904 26.8688 45.7011 26.8688 39.1766C26.8688 32.652 21.5796 27.3628 15.055 27.3628C8.53042 27.3628 3.24121 32.652 3.24121 39.1766C3.24121 45.7011 8.53042 50.9904 15.055 50.9904Z" fill="white"/>
<path d="M2.18457 39.177C2.18457 46.2841 7.94685 52.0464 15.0539 52.0464C22.162 52.0464 27.9243 46.2841 27.9243 39.177C27.9243 32.0689 22.162 26.3066 15.0539 26.3066C7.94685 26.3066 2.18457 32.0689 2.18457 39.177ZM11.142 41.5045C11.2771 41.077 11.1272 40.6105 10.7673 40.3413C9.81518 39.6299 7.93629 38.227 6.6749 37.2855C6.49229 37.1493 6.4184 36.9118 6.49018 36.6954C6.56196 36.4801 6.76357 36.3344 6.99051 36.3344H11.882C12.3369 36.3344 12.7412 36.0431 12.8837 35.6103C13.269 34.446 14.0353 32.1312 14.5441 30.5975C14.6148 30.3821 14.8164 30.2365 15.0444 30.2354C15.2713 30.2354 15.473 30.3811 15.5458 30.5964C16.0588 32.1312 16.8346 34.4492 17.2241 35.6135C17.3677 36.0441 17.7709 36.3344 18.2248 36.3344C19.3817 36.3344 21.611 36.3344 23.1278 36.3344C23.3548 36.3344 23.5564 36.479 23.6282 36.6944C23.7 36.9097 23.6271 37.1472 23.4456 37.2834C22.1873 38.2313 20.3085 39.6468 19.3574 40.3624C19.0006 40.6316 18.8518 41.0971 18.9869 41.5246C19.3542 42.6857 20.091 45.0132 20.5892 46.5849C20.6589 46.8055 20.5776 47.0451 20.3887 47.1771C20.2008 47.309 19.9475 47.3038 19.7648 47.1634C18.5003 46.1933 16.6541 44.7757 15.6872 44.0336C15.3072 43.7423 14.7784 43.7434 14.3995 44.0358C13.441 44.7768 11.6202 46.1849 10.3672 47.1539C10.1846 47.2953 9.93129 47.3016 9.74235 47.1697C9.55235 47.0367 9.47107 46.7971 9.54074 46.5775C10.039 45.0005 10.7747 42.6688 11.142 41.5045Z" fill="#2D2F36"/>
</g>
</g>
<defs>
<linearGradient id="paint0_linear_1878_6545" x1="97.5742" y1="9.19434" x2="105.574" y2="9.19434" gradientUnits="userSpaceOnUse">
<stop stop-color="#222221"/>
<stop offset="0.725099" stop-color="#222221"/>
<stop offset="0.785882" stop-color="#FDE9B2" stop-opacity="0"/>
<stop offset="1" stop-color="#FEFEFC" stop-opacity="0"/>
</linearGradient>
<clipPath id="clip0_1878_6545">
<rect width="190" height="30.6111" fill="white" transform="translate(0.0742188 24.1943)"/>
</clipPath>
<clipPath id="clip1_1878_6545">
<rect width="30.6111" height="30.6111" fill="white" transform="translate(0.0742188 24.1943)"/>
</clipPath>
</defs>
</svg>
