<svg width="122" height="20" viewBox="0 0 122 20" fill="none" xmlns="http://www.w3.org/2000/svg">
<g clip-path="url(#clip0_1446_26851)">
<path d="M31.9695 15.0261L28.8726 11.0394C30.861 10.574 32.251 9.27633 32.251 7.12483V7.08806C32.251 6.00896 31.8565 5.04888 31.1899 4.38163C30.3382 3.52986 29.0044 3.0204 27.3402 3.0204H22.4275C21.9448 3.0204 21.5289 3.43225 21.5289 3.9377V15.6573C21.5289 16.1627 21.9448 16.5746 22.4275 16.5746C22.9309 16.5746 23.3441 16.1621 23.3441 15.6573V11.3804H26.8635L30.5073 16.1146C30.7072 16.3814 30.978 16.5746 31.3337 16.5746C31.7937 16.5746 32.251 16.1587 32.251 15.6753C32.251 15.43 32.1467 15.226 31.9695 15.0261ZM30.4171 7.14422V7.18166C30.4171 8.77756 29.0705 9.71492 27.2085 9.71492H23.3441V4.72328H27.2273C29.229 4.72328 30.4171 5.62052 30.4171 7.14422Z" fill="#2D2F36"/>
<path d="M34.8961 15.5637C34.8961 16.0685 35.312 16.4803 35.7947 16.4803H44.045C44.513 16.4803 44.8867 16.1059 44.8867 15.6379C44.8867 15.1705 44.513 14.7961 44.045 14.7961H36.7113V10.5359H43.1076C43.5757 10.5359 43.9501 10.1622 43.9501 9.69419C43.9501 9.24958 43.5757 8.85178 43.1076 8.85178H36.7113V4.70523H43.9514C44.4187 4.70523 44.7938 4.33082 44.7938 3.86281C44.7938 3.39481 44.4187 3.0204 43.9514 3.0204H35.7947C35.312 3.0204 34.8961 3.43225 34.8961 3.9377V15.5637Z" fill="#2D2F36"/>
<path d="M52.5189 16.6306H52.6172C53.1086 16.6219 53.4141 16.3451 53.6087 15.9132L58.6932 4.16821C58.7387 4.05522 58.7614 3.94223 58.7614 3.80651C58.7614 3.34451 58.371 2.92665 57.8628 2.92665C57.4604 2.92665 57.1394 3.23086 56.9823 3.54375C56.9803 3.5471 56.9783 3.55044 56.977 3.55445L52.5757 14.0973L48.1918 3.59189C48.0354 3.21147 47.7164 2.92665 47.2692 2.92665C46.7624 2.92665 46.3512 3.36591 46.3512 3.82456C46.3512 3.98502 46.3753 4.09868 46.4435 4.23507L51.5026 15.9092C51.6785 16.3491 52.0128 16.6306 52.5189 16.6306Z" fill="#2D2F36"/>
<path d="M61.1637 3.84395V15.6571C61.1637 16.1626 61.5796 16.5744 62.0623 16.5744C62.5664 16.5744 62.9789 16.1612 62.9789 15.6571V3.84395C62.9789 3.33917 62.5664 2.92665 62.0623 2.92665C61.5796 2.92665 61.1637 3.3385 61.1637 3.84395Z" fill="#2D2F36"/>
<path d="M75.3771 3.02107L75.3557 3.0204H67.1983C66.7163 3.0204 66.3004 3.43225 66.3004 3.9377V15.5637C66.3004 16.0685 66.7163 16.4803 67.1983 16.4803H75.4493C75.916 16.4803 76.291 16.1059 76.291 15.6379C76.291 15.1705 75.9166 14.7961 75.4493 14.7961H68.1156V10.5359H74.5113C74.98 10.5359 75.3537 10.1622 75.3537 9.69419C75.3537 9.24958 74.98 8.85178 74.5113 8.85178H68.1156V4.70523H75.3557C75.8224 4.70523 76.1981 4.33082 76.1981 3.86281C76.1981 3.40216 75.8344 3.03244 75.3771 3.02107Z" fill="#2D2F36"/>
<path d="M91.4586 16.648H91.6123C92.0496 16.6393 92.3645 16.3391 92.5183 15.8985C92.5176 15.9005 96.7183 4.23774 96.7183 4.23774C96.719 4.23574 96.7196 4.2344 96.7196 4.23306C96.7618 4.10469 96.8219 3.95293 96.8219 3.82456C96.8219 3.36457 96.3874 2.92665 95.9046 2.92665C95.4727 2.92665 95.1705 3.21214 95.0335 3.62131C95.0341 3.61997 91.5589 13.6159 91.5589 13.6159L88.2815 3.62198C88.1457 3.21347 87.8449 2.92665 87.3922 2.92665V2.92799L87.298 2.92665C86.822 2.92665 86.5438 3.21347 86.4081 3.62198L83.1307 13.6153L79.6741 3.65674C79.5404 3.25493 79.1968 2.92665 78.7475 2.92665C78.244 2.92665 77.8121 3.36257 77.8121 3.84328C77.8121 3.97365 77.8516 4.10402 77.895 4.23373L82.0964 15.8992C82.2509 16.3605 82.5658 16.6399 83.0023 16.648H83.1561C83.5927 16.6393 83.9083 16.3391 84.0614 15.8985L87.2986 6.27892L90.5533 15.8985C90.7071 16.3391 91.0226 16.6393 91.4586 16.648Z" fill="#2D2F36"/>
<path d="M106.292 12.9004V12.9379C106.292 14.1493 105.185 15.0024 103.535 15.0024C101.913 15.0024 100.708 14.511 99.5063 13.4921L99.503 13.4888C99.384 13.3731 99.174 13.2768 98.9407 13.2768C98.4553 13.2768 98.0602 13.6673 98.0602 14.1754C98.0602 14.4763 98.2019 14.7303 98.4085 14.8727C99.9008 16.0561 101.527 16.6679 103.478 16.6679C106.189 16.6679 108.126 15.1288 108.126 12.7881V12.75C108.126 10.67 106.751 9.53544 103.72 8.87488C103.72 8.87421 103.719 8.87421 103.719 8.87421C100.965 8.28385 100.289 7.66809 100.289 6.48737V6.44993C100.289 5.34744 101.323 4.49834 102.915 4.49834C104.099 4.49834 105.136 4.82728 106.211 5.61019C106.212 5.61019 106.212 5.61086 106.212 5.61086C106.372 5.72586 106.533 5.77333 106.741 5.77333C107.226 5.77333 107.62 5.3802 107.62 4.89347C107.62 4.55049 107.418 4.29777 107.234 4.16004C107.233 4.15937 107.232 4.1587 107.231 4.15803C106.003 3.2755 104.719 2.8329 102.953 2.8329C100.354 2.8329 98.4727 4.43215 98.4727 6.58164L98.6398 6.74879L98.4727 6.58231V6.61775L98.6398 6.78556L98.4727 6.61841C98.4727 8.85148 99.8847 9.89046 103.012 10.5697C103.012 10.5697 103.012 10.5697 103.012 10.5697C105.636 11.124 106.292 11.7398 106.292 12.9004Z" fill="#2D2F36"/>
<path d="M110.193 14.7312H110.178C109.825 14.7312 109.574 14.9832 109.574 15.3242V15.5341C109.574 15.8738 109.825 16.1379 110.178 16.1379C110.517 16.1379 110.771 15.8744 110.771 15.5341C110.771 15.589 110.726 15.6344 110.67 15.6344C110.67 15.6344 110.771 15.6231 110.771 15.5288V15.3242C110.771 14.9879 110.525 14.7385 110.193 14.7312ZM109.683 15.6324C109.677 15.6338 109.674 15.6344 109.674 15.6344C109.677 15.6344 109.68 15.6338 109.683 15.6338V15.6324Z" fill="#2D2F36"/>
<path d="M112.333 10.919V15.6278C112.333 15.9146 112.555 16.1373 112.842 16.1373C113.131 16.1373 113.341 15.9153 113.341 15.6278V10.919C113.341 10.6308 113.119 10.4095 112.832 10.4095C112.557 10.4095 112.333 10.6442 112.333 10.919ZM112.26 8.99948C112.26 9.30703 112.512 9.52966 112.832 9.52966C113.164 9.52966 113.414 9.30636 113.414 8.99948V8.86376C113.414 8.54284 113.164 8.3329 112.832 8.3329C112.512 8.3329 112.26 8.54217 112.26 8.86376V8.99948Z" fill="#2D2F36"/>
<path fill-rule="evenodd" clip-rule="evenodd" d="M120.537 13.281V13.2582C120.537 11.6717 119.299 10.3466 117.616 10.3466C115.922 10.3466 114.683 11.6931 114.683 13.279V13.2997C114.683 14.8849 115.911 16.2107 117.594 16.2107C119.288 16.2107 120.536 14.8649 120.537 13.281ZM119.508 13.2997V13.279C119.508 12.1711 118.682 11.2599 117.594 11.2599C116.477 11.2599 115.712 12.1705 115.712 13.2582V13.279C115.712 14.3861 116.529 15.2861 117.616 15.2861C118.732 15.2861 119.508 14.3861 119.508 13.2997Z" fill="#2D2F36"/>
<g clip-path="url(#clip1_1446_26851)">
<path fill-rule="evenodd" clip-rule="evenodd" d="M16.0714 4.05946L15.2651 4.46329C16.837 5.73292 17.6052 7.37229 17.7476 9.3553C17.6286 13.1843 15.8221 15.6453 12.7192 16.7004C9.13356 17.7808 6.86239 16.9069 4.66409 14.6665L4.52502 15.5277L5.41892 16.459C8.52783 19.6989 13.6826 19.8052 16.9219 16.6963C20.1618 13.5874 20.2681 8.43333 17.1592 5.19338L16.0714 4.05946Z" fill="#FEEF7C"/>
<path fill-rule="evenodd" clip-rule="evenodd" d="M4.08322 15.0498L4.62343 14.5777C2.379 11.398 2.2854 6.74195 5.3562 4.17928C7.63272 2.27917 12.1497 1.29435 15.7634 4.47613L16.0335 4.0021L15.1523 3.08414C12.0434 -0.15581 6.88926 -0.262115 3.64931 2.84679C0.40936 5.9557 0.303055 11.1105 3.41196 14.3498L4.08322 15.0498Z" fill="#5CD3CB"/>
<path d="M10.293 17.277C14.4256 17.277 17.7757 13.9268 17.7757 9.79419C17.7757 5.66157 14.4256 2.31142 10.293 2.31142C6.16033 2.31142 2.81018 5.66157 2.81018 9.79419C2.81018 13.9268 6.16033 17.277 10.293 17.277Z" fill="white"/>
<path d="M2.14221 9.79352C2.14221 14.2951 5.792 17.9449 10.2936 17.9449C14.7958 17.9449 18.4456 14.2951 18.4456 9.79352C18.4456 5.29129 14.7958 1.64149 10.2936 1.64149C5.792 1.64149 2.14221 5.29129 2.14221 9.79352ZM7.8158 11.2677C7.90138 10.997 7.80644 10.7015 7.57846 10.531C6.97539 10.0803 5.78532 9.1918 4.98636 8.59542C4.8707 8.50917 4.8239 8.35874 4.86936 8.22168C4.91482 8.08529 5.04252 7.99303 5.18627 7.99303H8.28448C8.57264 7.99303 8.8287 7.8085 8.91896 7.53438C9.163 6.79693 9.64839 5.33073 9.97064 4.35928C10.0154 4.22289 10.1431 4.13063 10.2876 4.12996C10.4313 4.12996 10.559 4.22222 10.6051 4.35861C10.9301 5.33073 11.4215 6.79894 11.6682 7.53639C11.7591 7.80917 12.0145 7.99303 12.302 7.99303C13.0348 7.99303 14.4468 7.99303 15.4076 7.99303C15.5513 7.99303 15.679 8.08462 15.7245 8.22101C15.7699 8.35741 15.7238 8.50784 15.6088 8.59408C14.8118 9.19447 13.6218 10.091 13.0194 10.5443C12.7934 10.7148 12.6991 11.0097 12.7847 11.2804C13.0174 12.0159 13.484 13.4901 13.7996 14.4856C13.8437 14.6254 13.7923 14.7771 13.6726 14.8607C13.5536 14.9443 13.3931 14.9409 13.2775 14.852C12.4765 14.2376 11.3071 13.3397 10.6947 12.8697C10.454 12.6851 10.1191 12.6858 9.87905 12.871C9.27197 13.3404 8.11867 14.2322 7.32506 14.846C7.2094 14.9356 7.04894 14.9396 6.92926 14.856C6.80892 14.7718 6.75744 14.62 6.80156 14.481C7.11713 13.4821 7.58314 12.0052 7.8158 11.2677Z" fill="#2D2F36"/>
</g>
</g>
<defs>
<clipPath id="clip0_1446_26851">
<rect width="120.345" height="19.3889" fill="white" transform="translate(0.806274 0.305557)"/>
</clipPath>
<clipPath id="clip1_1446_26851">
<rect width="19.3889" height="19.3889" fill="white" transform="translate(0.806274 0.305557)"/>
</clipPath>
</defs>
</svg>
