<svg viewBox="0 0 577 24" fill="none" xmlns="http://www.w3.org/2000/svg">
<g filter="url(#filter0_iiii_2789_14386)">
<path d="M0 4.50765C0 2.01815 2.01814 0 4.50765 0H572.471C574.961 0 576.979 2.01814 576.979 4.50765V23.8905H0V4.50765Z" fill="#191C1F"/>
<g clip-path="url(#clip0_2789_14386)">
<path d="M508.688 15.5393C510.775 15.5393 512.504 13.8069 512.504 11.7228C512.504 9.63492 510.772 7.90625 508.684 7.90625C506.6 7.90625 504.871 9.63492 504.871 11.7228C504.871 13.8069 506.604 15.5393 508.688 15.5393ZM508.688 14.9032C506.922 14.9032 505.511 13.4889 505.511 11.7228C505.511 9.9567 506.918 8.54234 508.684 8.54234C510.45 8.54234 511.864 9.9567 511.868 11.7228C511.872 13.4889 510.454 14.9032 508.688 14.9032ZM508.688 9.81826C508.527 9.81826 508.407 9.93425 508.407 10.0989V11.9697L508.437 12.7592L508.063 12.3102L507.618 11.8612C507.565 11.8126 507.498 11.7789 507.419 11.7789C507.266 11.7789 507.15 11.8986 507.15 12.0483C507.15 12.1269 507.172 12.1942 507.221 12.2429L508.471 13.4889C508.545 13.5637 508.609 13.5936 508.688 13.5936C508.77 13.5936 508.837 13.56 508.908 13.4889L510.154 12.2429C510.203 12.1942 510.233 12.1269 510.233 12.0483C510.233 11.8986 510.113 11.7789 509.96 11.7789C509.877 11.7789 509.81 11.8088 509.761 11.8612L509.32 12.3102L508.938 12.763L508.968 11.9697V10.0989C508.968 9.93425 508.852 9.81826 508.688 9.81826Z" fill="#999C9F"/>
<path d="M527.17 12.7399C527.331 12.7399 527.466 12.6052 527.466 12.448V8.6053L527.443 8.04404L527.698 8.3097L528.263 8.91586C528.315 8.97572 528.394 9.00566 528.465 9.00566C528.622 9.00566 528.738 8.89341 528.738 8.74C528.738 8.66142 528.708 8.60155 528.652 8.54543L527.387 7.32564C527.312 7.2508 527.245 7.22461 527.17 7.22461C527.095 7.22461 527.028 7.2508 526.953 7.32564L525.689 8.54543C525.632 8.60155 525.599 8.66142 525.599 8.74C525.599 8.89341 525.715 9.00566 525.868 9.00566C525.943 9.00566 526.022 8.97572 526.074 8.91586L526.643 8.3097L526.897 8.04404L526.871 8.6053V12.448C526.871 12.6052 527.009 12.7399 527.17 12.7399ZM525.023 15.6696H529.314C530.096 15.6696 530.489 15.2805 530.489 14.5097V10.7755C530.489 10.0047 530.096 9.61556 529.314 9.61556H528.27V10.218H529.303C529.673 10.218 529.887 10.42 529.887 10.8092V14.476C529.887 14.8652 529.673 15.0672 529.303 15.0672H525.03C524.656 15.0672 524.45 14.8652 524.45 14.476V10.8092C524.45 10.42 524.656 10.218 525.03 10.218H526.066V9.61556H525.023C524.241 9.61556 523.848 10.0047 523.848 10.7755V14.5097C523.848 15.2805 524.241 15.6696 525.023 15.6696Z" fill="#999C9F"/>
<path d="M545.645 14.8772C545.829 14.8772 545.982 14.7313 545.982 14.5517V12.0634H548.399C548.579 12.0634 548.732 11.91 548.732 11.7267C548.732 11.5433 548.579 11.3937 548.399 11.3937H545.982V8.9017C545.982 8.7221 545.829 8.57617 545.645 8.57617C545.462 8.57617 545.312 8.7221 545.312 8.9017V11.3937H542.892C542.712 11.3937 542.559 11.5433 542.559 11.7267C542.559 11.91 542.712 12.0634 542.892 12.0634H545.312V14.5517C545.312 14.7313 545.462 14.8772 545.645 14.8772Z" fill="#999C9F"/>
<path d="M561.351 13.915H561.991V14.4875C561.991 15.2583 562.38 15.6475 563.165 15.6475H566.922C567.7 15.6475 568.093 15.2583 568.093 14.4875V10.7009C568.093 9.93014 567.7 9.541 566.922 9.541H566.278V8.96852C566.278 8.19773 565.886 7.80859 565.107 7.80859H561.351C560.565 7.80859 560.176 8.19773 560.176 8.96852V12.7551C560.176 13.5259 560.565 13.915 561.351 13.915ZM561.358 13.3126C560.984 13.3126 560.778 13.1106 560.778 12.7214V9.0022C560.778 8.61306 560.984 8.41101 561.358 8.41101H565.096C565.467 8.41101 565.676 8.61306 565.676 9.0022V9.541H563.165C562.38 9.541 561.991 9.9264 561.991 10.7009V13.3126H561.358ZM563.173 15.045C562.802 15.045 562.593 14.843 562.593 14.4539V10.7346C562.593 10.3455 562.802 10.1434 563.173 10.1434H566.911C567.281 10.1434 567.491 10.3455 567.491 10.7346V14.4539C567.491 14.843 567.281 15.045 566.911 15.045H563.173Z" fill="#999C9F"/>
</g>
<g clip-path="url(#clip1_2789_14386)">
<path d="M69.0874 14.869L66.1202 11.9729C66.0491 11.9018 66.0117 11.8158 66.0117 11.7222C66.0117 11.625 66.0529 11.5314 66.124 11.4715L69.0874 8.57173C69.151 8.50812 69.2333 8.4707 69.3306 8.4707C69.5252 8.4707 69.6711 8.62037 69.6711 8.81494C69.6711 8.90474 69.6337 8.99454 69.5738 9.05815L66.8499 11.7222L69.5738 14.3863C69.6337 14.4499 69.6711 14.536 69.6711 14.6295C69.6711 14.8241 69.5252 14.97 69.3306 14.97C69.2333 14.97 69.151 14.9326 69.0874 14.869Z" fill="#999C9F"/>
<path d="M81.2272 14.9738C81.3245 14.9738 81.4068 14.9364 81.4704 14.8728L84.4376 11.9729C84.5087 11.9018 84.5461 11.8158 84.5461 11.7222C84.5461 11.625 84.5087 11.5352 84.4376 11.4715L81.4742 8.57547C81.4068 8.50812 81.3245 8.4707 81.2272 8.4707C81.0326 8.4707 80.8867 8.62037 80.8867 8.81494C80.8867 8.90474 80.9241 8.99454 80.984 9.05815L83.708 11.7222L80.984 14.3863C80.9241 14.4499 80.8867 14.536 80.8867 14.6295C80.8867 14.8241 81.0326 14.9738 81.2272 14.9738Z" fill="#3D4043"/>
</g>
<path d="M45.671 15.1736H52.1441C52.9299 15.1736 53.319 14.7845 53.319 14.0137V9.44508C53.319 8.67429 52.9299 8.28516 52.1441 8.28516H45.671C44.889 8.28516 44.4961 8.67055 44.4961 9.44508V14.0137C44.4961 14.7882 44.889 15.1736 45.671 15.1736ZM45.6785 14.5712C45.3043 14.5712 45.0985 14.3729 45.0985 13.9838V9.47502C45.0985 9.08588 45.3043 8.88757 45.6785 8.88757H47.3473V14.5712H45.6785ZM52.1366 8.88757C52.5071 8.88757 52.7166 9.08588 52.7166 9.47502V13.9838C52.7166 14.3729 52.5071 14.5712 52.1366 14.5712H47.9347V8.88757H52.1366ZM46.6251 10.2757C46.7411 10.2757 46.8384 10.1747 46.8384 10.0662C46.8384 9.95395 46.7411 9.85667 46.6251 9.85667H45.8244C45.7121 9.85667 45.6111 9.95395 45.6111 10.0662C45.6111 10.1747 45.7121 10.2757 45.8244 10.2757H46.6251ZM46.6251 11.2448C46.7411 11.2448 46.8384 11.1438 46.8384 11.0316C46.8384 10.9193 46.7411 10.8258 46.6251 10.8258H45.8244C45.7121 10.8258 45.6111 10.9193 45.6111 11.0316C45.6111 11.1438 45.7121 11.2448 45.8244 11.2448H46.6251ZM46.6251 12.2102C46.7411 12.2102 46.8384 12.1167 46.8384 12.0044C46.8384 11.8922 46.7411 11.7949 46.6251 11.7949H45.8244C45.7121 11.7949 45.6111 11.8922 45.6111 12.0044C45.6111 12.1167 45.7121 12.2102 45.8244 12.2102H46.6251Z" fill="#999C9F"/>
<g filter="url(#filter1_i_2789_14386)">
<path fill-rule="evenodd" clip-rule="evenodd" d="M12.1694 14.4248C13.6631 14.4248 14.874 13.2139 14.874 11.7202C14.874 10.2265 13.6631 9.01562 12.1694 9.01562C10.6757 9.01562 9.46484 10.2265 9.46484 11.7202C9.46484 13.2139 10.6757 14.4248 12.1694 14.4248Z" fill="#EE6A5F"/>
</g>
<path d="M14.7613 11.7202C14.7613 13.1517 13.6009 14.3121 12.1694 14.3121C10.738 14.3121 9.57753 13.1517 9.57753 11.7202C9.57753 10.2887 10.738 9.12832 12.1694 9.12832C13.6009 9.12832 14.7613 10.2887 14.7613 11.7202Z" stroke="#CE5347" stroke-width="0.225382"/>
<g filter="url(#filter2_i_2789_14386)">
<path fill-rule="evenodd" clip-rule="evenodd" d="M21.1851 14.4248C22.6788 14.4248 23.8896 13.2139 23.8896 11.7202C23.8896 10.2265 22.6788 9.01562 21.1851 9.01562C19.6914 9.01562 18.4805 10.2265 18.4805 11.7202C18.4805 13.2139 19.6914 14.4248 21.1851 14.4248Z" fill="#F5BD4F"/>
</g>
<path d="M23.777 11.7202C23.777 13.1517 22.6165 14.3121 21.1851 14.3121C19.7536 14.3121 18.5932 13.1517 18.5932 11.7202C18.5932 10.2887 19.7536 9.12832 21.1851 9.12832C22.6165 9.12832 23.777 10.2887 23.777 11.7202Z" stroke="#D6A243" stroke-width="0.225382"/>
<g filter="url(#filter3_i_2789_14386)">
<path fill-rule="evenodd" clip-rule="evenodd" d="M30.2007 14.4248C31.6944 14.4248 32.9053 13.2139 32.9053 11.7202C32.9053 10.2265 31.6944 9.01562 30.2007 9.01562C28.707 9.01562 27.4961 10.2265 27.4961 11.7202C27.4961 13.2139 28.707 14.4248 30.2007 14.4248Z" fill="#61C454"/>
</g>
<path d="M32.7926 11.7202C32.7926 13.1517 31.6321 14.3121 30.2007 14.3121C28.7692 14.3121 27.6088 13.1517 27.6088 11.7202C27.6088 10.2887 28.7692 9.12832 30.2007 9.12832C31.6321 9.12832 32.7926 10.2887 32.7926 11.7202Z" stroke="#58A942" stroke-width="0.225382"/>
<g clip-path="url(#clip2_2789_14386)">
<path d="M160.699 15.6032C160.759 15.6032 160.856 15.5807 160.95 15.5283C163.079 14.3347 163.809 13.8296 163.809 12.4639V9.60147C163.809 9.20859 163.64 9.08511 163.322 8.95041C162.881 8.76707 161.455 8.25446 161.013 8.10105C160.912 8.06737 160.804 8.04492 160.699 8.04492C160.594 8.04492 160.486 8.07486 160.389 8.10105C159.947 8.22827 158.518 8.77081 158.076 8.95041C157.762 9.08137 157.59 9.20859 157.59 9.60147V12.4639C157.59 13.8296 158.323 14.331 160.449 15.5283C160.546 15.5807 160.639 15.6032 160.699 15.6032ZM160.849 8.68101C161.414 8.90551 162.51 9.30213 163.09 9.50044C163.191 9.53786 163.214 9.59024 163.214 9.71746V12.3254C163.214 13.4816 162.66 13.7847 160.931 14.8361C160.823 14.9035 160.763 14.9222 160.703 14.9259V8.64734C160.74 8.64734 160.789 8.65856 160.849 8.68101Z" fill="#999C9F"/>
<rect x="172.191" y="5.4082" width="232.595" height="12.6214" rx="2.70459" fill="#0C0F12"/>
<g clip-path="url(#clip3_2789_14386)">
<path d="M264.878 14.2975H267.393C267.733 14.2975 267.9 14.1285 267.9 13.7587V11.8201C267.9 11.4873 267.762 11.3156 267.48 11.2865V10.621C267.48 9.62523 266.827 9.14453 266.135 9.14453C265.443 9.14453 264.791 9.62523 264.791 10.621V11.2998C264.532 11.3394 264.371 11.5084 264.371 11.8201V13.7587C264.371 14.1285 264.537 14.2975 264.878 14.2975ZM265.216 10.5655C265.216 9.90256 265.642 9.55128 266.135 9.55128C266.629 9.55128 267.055 9.90256 267.055 10.5655V11.2839L265.216 11.2865V10.5655Z" fill="#DBDBDC"/>
<path d="M271.132 14.2207V10.0918H271.633L273.873 13.3051H273.919V10.0918H274.428V14.2207H273.927L271.687 11.0189H271.641V14.2207H271.132ZM276.428 14.2751C275.727 14.2751 275.366 13.863 275.366 13.1334V11.1362H275.864V13.0132C275.864 13.5683 276.064 13.8344 276.556 13.8344C277.1 13.8344 277.389 13.5025 277.389 12.9617V11.1362H277.887V14.2207H277.389V13.76H277.343C277.192 14.0891 276.88 14.2751 276.428 14.2751ZM279.889 14.2436C279.254 14.2436 278.988 14.009 278.988 13.4195V11.5482H278.502V11.1362H278.988V10.3379H279.503V11.1362H280.178V11.5482H279.503V13.2936C279.503 13.657 279.629 13.803 279.949 13.803C280.038 13.803 280.087 13.8001 280.178 13.7915V14.215C280.081 14.2321 279.987 14.2436 279.889 14.2436ZM280.899 14.2207V11.1362H281.397V11.594H281.442C281.56 11.2707 281.849 11.0819 282.266 11.0819C282.361 11.0819 282.467 11.0933 282.515 11.1019V11.5854C282.412 11.5683 282.318 11.5568 282.209 11.5568C281.734 11.5568 281.397 11.8573 281.397 12.3094V14.2207H280.899ZM283.37 10.5411C283.182 10.5411 283.027 10.3866 283.027 10.1977C283.027 10.0089 283.182 9.85436 283.37 9.85436C283.559 9.85436 283.714 10.0089 283.714 10.1977C283.714 10.3866 283.559 10.5411 283.37 10.5411ZM283.119 14.2207V11.1362H283.616V14.2207H283.119ZM286.065 14.2751C285.636 14.2751 285.293 14.0719 285.104 13.7286H285.058V14.2207H284.56V9.91159H285.058V11.6226H285.104C285.273 11.2936 285.642 11.0819 286.065 11.0819C286.849 11.0819 287.358 11.7085 287.358 12.6756V12.6813C287.358 13.6427 286.846 14.2751 286.065 14.2751ZM285.951 13.8344C286.514 13.8344 286.849 13.3995 286.849 12.6813V12.6756C286.849 11.9574 286.514 11.5225 285.951 11.5225C285.39 11.5225 285.047 11.9631 285.047 12.6756V12.6813C285.047 13.3938 285.39 13.8344 285.951 13.8344ZM289.141 14.2751C288.44 14.2751 288.079 13.863 288.079 13.1334V11.1362H288.577V13.0132C288.577 13.5683 288.777 13.8344 289.269 13.8344C289.813 13.8344 290.102 13.5025 290.102 12.9617V11.1362H290.6V14.2207H290.102V13.76H290.056C289.905 14.0891 289.593 14.2751 289.141 14.2751ZM291.506 14.2207V11.1362H292.004V11.594H292.05C292.167 11.2707 292.456 11.0819 292.874 11.0819C292.968 11.0819 293.074 11.0933 293.123 11.1019V11.5854C293.02 11.5683 292.925 11.5568 292.817 11.5568C292.342 11.5568 292.004 11.8573 292.004 12.3094V14.2207H291.506ZM294.716 14.2751C294.029 14.2751 293.557 13.9432 293.5 13.4338H294.009C294.092 13.6914 294.338 13.8602 294.733 13.8602C295.148 13.8602 295.443 13.6627 295.443 13.3823V13.3766C295.443 13.1677 295.286 13.0218 294.905 12.9303L294.427 12.8158C293.849 12.6785 293.589 12.4267 293.589 11.9832V11.9803C293.589 11.4681 294.081 11.0819 294.736 11.0819C295.383 11.0819 295.832 11.4052 295.901 11.9088H295.411C295.346 11.6656 295.105 11.4967 294.733 11.4967C294.367 11.4967 294.098 11.6856 294.098 11.9574V11.9631C294.098 12.172 294.253 12.3036 294.616 12.3923L295.091 12.5068C295.672 12.647 295.952 12.8988 295.952 13.3394V13.3451C295.952 13.8945 295.417 14.2751 294.716 14.2751ZM297.769 14.2436C297.133 14.2436 296.867 14.009 296.867 13.4195V11.5482H296.381V11.1362H296.867V10.3379H297.382V11.1362H298.058V11.5482H297.382V13.2936C297.382 13.657 297.508 13.803 297.829 13.803C297.917 13.803 297.966 13.8001 298.058 13.7915V14.215C297.96 14.2321 297.866 14.2436 297.769 14.2436ZM299.184 14.2493C298.981 14.2493 298.812 14.0805 298.812 13.8773C298.812 13.6713 298.981 13.5054 299.184 13.5054C299.39 13.5054 299.556 13.6713 299.556 13.8773C299.556 14.0805 299.39 14.2493 299.184 14.2493ZM301.642 14.2751C300.778 14.2751 300.225 13.6484 300.225 12.6699V12.6642C300.225 11.7056 300.775 11.0819 301.639 11.0819C302.388 11.0819 302.838 11.5139 302.929 12.0633L302.932 12.0805H302.437L302.434 12.0719C302.357 11.7686 302.082 11.5225 301.639 11.5225C301.084 11.5225 300.735 11.9689 300.735 12.6642V12.6699C300.735 13.3795 301.089 13.8344 301.639 13.8344C302.054 13.8344 302.317 13.6513 302.431 13.3079L302.437 13.2908L302.929 13.2879L302.924 13.3194C302.798 13.8773 302.383 14.2751 301.642 14.2751ZM304.903 14.2751C304.025 14.2751 303.481 13.6685 303.481 12.6813V12.6756C303.481 11.6856 304.025 11.0819 304.903 11.0819C305.781 11.0819 306.325 11.6856 306.325 12.6756V12.6813C306.325 13.6685 305.781 14.2751 304.903 14.2751ZM304.903 13.8344C305.487 13.8344 305.816 13.4081 305.816 12.6813V12.6756C305.816 11.946 305.487 11.5225 304.903 11.5225C304.319 11.5225 303.99 11.946 303.99 12.6756V12.6813C303.99 13.4081 304.319 13.8344 304.903 13.8344ZM307.074 14.2207V11.1362H307.572V11.6055H307.618C307.755 11.2736 308.047 11.0819 308.45 11.0819C308.868 11.0819 309.16 11.3022 309.303 11.6226H309.349C309.515 11.2965 309.867 11.0819 310.293 11.0819C310.923 11.0819 311.275 11.4424 311.275 12.089V14.2207H310.777V12.2035C310.777 11.7485 310.568 11.5225 310.133 11.5225C309.704 11.5225 309.42 11.8458 309.42 12.2378V14.2207H308.923V12.1262C308.923 11.76 308.671 11.5225 308.282 11.5225C307.878 11.5225 307.572 11.8744 307.572 12.3094V14.2207H307.074Z" fill="white"/>
</g>
<path d="M399.507 11.5468C399.573 11.5468 399.623 11.5256 399.66 11.486L400.748 10.3926C400.796 10.3477 400.814 10.2948 400.814 10.2341C400.814 10.176 400.79 10.1179 400.748 10.0756L399.66 8.97159C399.623 8.92933 399.57 8.9082 399.507 8.9082C399.388 8.9082 399.298 9.00329 399.298 9.12478C399.298 9.18025 399.319 9.23307 399.356 9.27533L400.061 9.96732C399.911 9.94091 399.758 9.92507 399.604 9.92507C398.31 9.92507 397.27 10.9631 397.27 12.2572C397.27 13.5541 398.31 14.5947 399.604 14.5947C400.899 14.5947 401.937 13.5541 401.937 12.2572C401.937 12.1305 401.847 12.038 401.717 12.038C401.593 12.038 401.511 12.1305 401.511 12.2572C401.511 13.319 400.663 14.1695 399.604 14.1695C398.545 14.1695 397.695 13.319 397.695 12.2572C397.695 11.1981 398.545 10.3503 399.604 10.3503C399.805 10.3503 399.99 10.3661 400.148 10.4005L399.359 11.1849C399.319 11.2272 399.298 11.28 399.298 11.3355C399.298 11.457 399.388 11.5468 399.507 11.5468Z" fill="#DBDBDC"/>
</g>
</g>
<defs>
<filter id="filter0_iiii_2789_14386" x="0" y="0" width="576.98" height="23.8906" filterUnits="userSpaceOnUse" color-interpolation-filters="sRGB">
<feFlood flood-opacity="0" result="BackgroundImageFix"/>
<feBlend mode="normal" in="SourceGraphic" in2="BackgroundImageFix" result="shape"/>
<feColorMatrix in="SourceAlpha" type="matrix" values="0 0 0 0 0 0 0 0 0 0 0 0 0 0 0 0 0 0 127 0" result="hardAlpha"/>
<feOffset dx="0.450765"/>
<feComposite in2="hardAlpha" operator="arithmetic" k2="-1" k3="1"/>
<feColorMatrix type="matrix" values="0 0 0 0 0.278431 0 0 0 0 0.286275 0 0 0 0 0.298039 0 0 0 1 0"/>
<feBlend mode="normal" in2="shape" result="effect1_innerShadow_2789_14386"/>
<feColorMatrix in="SourceAlpha" type="matrix" values="0 0 0 0 0 0 0 0 0 0 0 0 0 0 0 0 0 0 127 0" result="hardAlpha"/>
<feOffset dx="-0.450765"/>
<feComposite in2="hardAlpha" operator="arithmetic" k2="-1" k3="1"/>
<feColorMatrix type="matrix" values="0 0 0 0 0.278431 0 0 0 0 0.286275 0 0 0 0 0.294118 0 0 0 1 0"/>
<feBlend mode="normal" in2="effect1_innerShadow_2789_14386" result="effect2_innerShadow_2789_14386"/>
<feColorMatrix in="SourceAlpha" type="matrix" values="0 0 0 0 0 0 0 0 0 0 0 0 0 0 0 0 0 0 127 0" result="hardAlpha"/>
<feOffset dy="0.450765"/>
<feComposite in2="hardAlpha" operator="arithmetic" k2="-1" k3="1"/>
<feColorMatrix type="matrix" values="0 0 0 0 1 0 0 0 0 1 0 0 0 0 1 0 0 0 0.4 0"/>
<feBlend mode="normal" in2="effect2_innerShadow_2789_14386" result="effect3_innerShadow_2789_14386"/>
<feColorMatrix in="SourceAlpha" type="matrix" values="0 0 0 0 0 0 0 0 0 0 0 0 0 0 0 0 0 0 127 0" result="hardAlpha"/>
<feOffset dy="0.225382"/>
<feComposite in2="hardAlpha" operator="arithmetic" k2="-1" k3="1"/>
<feColorMatrix type="matrix" values="0 0 0 0 1 0 0 0 0 1 0 0 0 0 1 0 0 0 0.4 0"/>
<feBlend mode="normal" in2="effect3_innerShadow_2789_14386" result="effect4_innerShadow_2789_14386"/>
</filter>
<filter id="filter1_i_2789_14386" x="9.46484" y="9.01562" width="5.41016" height="5.4082" filterUnits="userSpaceOnUse" color-interpolation-filters="sRGB">
<feFlood flood-opacity="0" result="BackgroundImageFix"/>
<feBlend mode="normal" in="SourceGraphic" in2="BackgroundImageFix" result="shape"/>
<feColorMatrix in="SourceAlpha" type="matrix" values="0 0 0 0 0 0 0 0 0 0 0 0 0 0 0 0 0 0 127 0" result="hardAlpha"/>
<feOffset/>
<feGaussianBlur stdDeviation="1.35229"/>
<feComposite in2="hardAlpha" operator="arithmetic" k2="-1" k3="1"/>
<feColorMatrix type="matrix" values="0 0 0 0 0.92549 0 0 0 0 0.427451 0 0 0 0 0.384314 0 0 0 1 0"/>
<feBlend mode="normal" in2="shape" result="effect1_innerShadow_2789_14386"/>
</filter>
<filter id="filter2_i_2789_14386" x="18.4805" y="9.01562" width="5.41016" height="5.4082" filterUnits="userSpaceOnUse" color-interpolation-filters="sRGB">
<feFlood flood-opacity="0" result="BackgroundImageFix"/>
<feBlend mode="normal" in="SourceGraphic" in2="BackgroundImageFix" result="shape"/>
<feColorMatrix in="SourceAlpha" type="matrix" values="0 0 0 0 0 0 0 0 0 0 0 0 0 0 0 0 0 0 127 0" result="hardAlpha"/>
<feOffset/>
<feGaussianBlur stdDeviation="1.35229"/>
<feComposite in2="hardAlpha" operator="arithmetic" k2="-1" k3="1"/>
<feColorMatrix type="matrix" values="0 0 0 0 0.960784 0 0 0 0 0.768627 0 0 0 0 0.317647 0 0 0 1 0"/>
<feBlend mode="normal" in2="shape" result="effect1_innerShadow_2789_14386"/>
</filter>
<filter id="filter3_i_2789_14386" x="27.4961" y="9.01562" width="5.41016" height="5.4082" filterUnits="userSpaceOnUse" color-interpolation-filters="sRGB">
<feFlood flood-opacity="0" result="BackgroundImageFix"/>
<feBlend mode="normal" in="SourceGraphic" in2="BackgroundImageFix" result="shape"/>
<feColorMatrix in="SourceAlpha" type="matrix" values="0 0 0 0 0 0 0 0 0 0 0 0 0 0 0 0 0 0 127 0" result="hardAlpha"/>
<feOffset/>
<feGaussianBlur stdDeviation="1.35229"/>
<feComposite in2="hardAlpha" operator="arithmetic" k2="-1" k3="1"/>
<feColorMatrix type="matrix" values="0 0 0 0 0.407843 0 0 0 0 0.8 0 0 0 0 0.345098 0 0 0 1 0"/>
<feBlend mode="normal" in2="shape" result="effect1_innerShadow_2789_14386"/>
</filter>
<clipPath id="clip0_2789_14386">
<rect width="70.3193" height="12.6214" fill="white" transform="translate(501.25 5.4082)"/>
</clipPath>
<clipPath id="clip1_2789_14386">
<rect width="29.7505" height="12.6214" fill="white" transform="translate(60.4023 5.4082)"/>
</clipPath>
<clipPath id="clip2_2789_14386">
<rect width="270.459" height="12.6214" fill="white" transform="translate(153.262 5.4082)"/>
</clipPath>
<clipPath id="clip3_2789_14386">
<rect x="264.371" y="8.2207" width="48.2332" height="7" fill="white"/>
</clipPath>
</defs>
</svg>
