<svg width="51" height="53" viewBox="0 0 51 53" fill="none" xmlns="http://www.w3.org/2000/svg">
<rect x="1" width="49" height="49" rx="24.5" fill="#FFFDEE"/>
<g filter="url(#filter0_d_2180_50063)">
<path d="M37.9556 29.502L29.789 14.802C28.6916 12.8241 27.1731 11.7395 25.5015 11.7395C23.8298 11.7395 22.3114 12.8241 21.214 14.802L13.0473 29.502C12.0137 31.3778 11.8989 33.177 12.7283 34.5934C13.5577 36.0098 15.191 36.7882 17.3348 36.7882H33.6681C35.8119 36.7882 37.4452 36.0098 38.2746 34.5934C39.1041 33.177 38.9892 31.365 37.9556 29.502Z" fill="#F59E0B"/>
<path d="M25.5 28.0091C24.9768 28.0091 24.543 27.5753 24.543 27.0521V20.6719C24.543 20.1487 24.9768 19.7148 25.5 19.7148C26.0232 19.7148 26.457 20.1487 26.457 20.6719V27.0521C26.457 27.5753 26.0232 28.0091 25.5 28.0091Z" fill="white"/>
<path d="M25.4987 32.1563C25.4221 32.1563 25.3328 32.1436 25.2435 32.1308C25.1669 32.1181 25.0904 32.0925 25.0138 32.0543C24.9372 32.0287 24.8607 31.9905 24.7841 31.9394C24.7203 31.8884 24.6565 31.8373 24.5927 31.7863C24.363 31.5438 24.2227 31.2121 24.2227 30.8803C24.2227 30.5485 24.363 30.2168 24.5927 29.9743C24.6565 29.9233 24.7203 29.8722 24.7841 29.8212C24.8607 29.7701 24.9372 29.7319 25.0138 29.7063C25.0904 29.6681 25.1669 29.6425 25.2435 29.6298C25.4094 29.5915 25.588 29.5915 25.7411 29.6298C25.8305 29.6425 25.907 29.6681 25.9836 29.7063C26.0602 29.7319 26.1367 29.7701 26.2133 29.8212C26.2771 29.8722 26.3409 29.9233 26.4047 29.9743C26.6344 30.2168 26.7747 30.5485 26.7747 30.8803C26.7747 31.2121 26.6344 31.5438 26.4047 31.7863C26.3409 31.8373 26.2771 31.8884 26.2133 31.9394C26.1367 31.9905 26.0602 32.0287 25.9836 32.0543C25.907 32.0925 25.8305 32.1181 25.7411 32.1308C25.6646 32.1436 25.5753 32.1563 25.4987 32.1563Z" fill="white"/>
</g>
<defs>
<filter id="filter0_d_2180_50063" x="-1.8125" y="1.1875" width="54.625" height="54.625" filterUnits="userSpaceOnUse" color-interpolation-filters="sRGB">
<feFlood flood-opacity="0" result="BackgroundImageFix"/>
<feColorMatrix in="SourceAlpha" type="matrix" values="0 0 0 0 0 0 0 0 0 0 0 0 0 0 0 0 0 0 127 0" result="hardAlpha"/>
<feOffset dy="4"/>
<feGaussianBlur stdDeviation="6"/>
<feComposite in2="hardAlpha" operator="out"/>
<feColorMatrix type="matrix" values="0 0 0 0 0.8925 0 0 0 0 0.4854 0 0 0 0 0.00749999 0 0 0 0.32 0"/>
<feBlend mode="normal" in2="BackgroundImageFix" result="effect1_dropShadow_2180_50063"/>
<feBlend mode="normal" in="SourceGraphic" in2="effect1_dropShadow_2180_50063" result="shape"/>
</filter>
</defs>
</svg>
