<svg  viewBox="0 0 106 106" fill="none" xmlns="http://www.w3.org/2000/svg">
    <g clip-path="url(#clip0_2751_21071)">
    <path d="M62.4458 60.1993C61.8612 60.6449 61.2232 61.0159 60.5467 61.3034C59.3964 61.7663 58.2159 62.15 57.0133 62.4518C56.8133 62.493 56.6238 62.5746 56.4565 62.6916C56.2891 62.8086 56.1473 62.9585 56.0398 63.1321C55.9324 63.3057 55.8614 63.4994 55.8313 63.7014C55.8013 63.9034 55.8127 64.1094 55.865 64.3068C55.9068 64.5078 55.9883 64.6984 56.1046 64.8675C56.2209 65.0367 56.3698 65.181 56.5424 65.292C56.7151 65.403 56.9082 65.4785 57.1104 65.5141C57.3125 65.5497 57.5198 65.5446 57.72 65.4993C59.0958 65.2337 60.4531 64.8796 61.7833 64.4393C62.752 64.124 63.6733 63.6782 64.5217 63.1143C66.8044 61.6279 68.6155 59.5209 69.7421 57.0408C70.8687 54.5606 71.2641 51.8105 70.8817 49.1134C70.5118 46.3551 69.4062 43.7472 67.681 41.5635C65.9558 39.3798 63.6745 37.7007 61.0767 36.7026C58.7656 35.9274 56.3036 35.7113 53.8928 36.0722C51.482 36.433 49.1911 37.3605 47.2083 38.7784C45.2864 40.1789 43.7211 42.0122 42.6392 44.13C41.5573 46.2477 40.9892 48.5904 40.9808 50.9684C40.8799 54.3034 42.0121 57.5585 44.1608 60.1109C46.1719 62.6246 49.0292 64.3202 52.1992 64.8809C52.5611 64.949 52.9353 64.8775 53.2467 64.6808C53.558 64.4842 53.7834 64.177 53.8775 63.8209C53.9228 63.6436 53.9309 63.4589 53.9013 63.2783C53.8717 63.0977 53.805 62.9252 53.7054 62.7717C53.6058 62.6182 53.4755 62.4869 53.3227 62.3863C53.1699 62.2856 52.9979 62.2177 52.8175 62.1868C50.4176 61.5681 48.3183 60.1111 46.8992 58.0793C45.6018 56.0644 45.0691 53.6514 45.3975 51.2776C45.5416 49.6099 46.0616 47.9965 46.9183 46.5585C47.775 45.1204 48.9462 43.895 50.3442 42.9743C51.6679 42.0748 53.1789 41.4881 54.7628 41.2585C56.3467 41.029 57.962 41.1626 59.4867 41.6493C61.2241 42.3095 62.7603 43.4096 63.9449 44.8419C65.1295 46.2742 65.9217 47.9896 66.2442 49.8201C66.6477 51.7323 66.5055 53.7193 65.8339 55.5546C65.1623 57.3898 63.9883 58.9993 62.4458 60.1993Z" fill="#00955F"/>
    <path d="M18.5957 55.7818C20.0974 53.9268 21.5991 52.116 23.0124 50.2609C25.1766 47.5226 27.4291 44.6959 29.3724 41.8251C29.5193 41.6812 29.636 41.5094 29.7157 41.3198C29.7953 41.1302 29.8364 40.9266 29.8364 40.721C29.8364 40.5153 29.7953 40.3117 29.7157 40.1221C29.636 39.9325 29.5193 39.7607 29.3724 39.6168C29.076 39.3307 28.6802 39.1709 28.2682 39.1709C27.8563 39.1709 27.4605 39.3307 27.1641 39.6168C12.9424 54.0151 15.2832 51.4093 14.1349 53.5734C14.1566 53.3974 14.1566 53.2194 14.1349 53.0434C13.2711 49.6077 13.2711 46.0117 14.1349 42.576C15.1539 39.0943 16.5459 35.7329 18.2866 32.5501C21.2353 27.1872 25.0906 22.3755 29.6816 18.3285C34.1767 14.2182 39.5562 11.196 45.4049 9.49512C51.0192 7.60283 56.9788 6.95841 62.8678 7.60681C68.7568 8.25522 74.4335 10.1808 79.5016 13.2493C84.5842 16.4417 88.9219 20.6884 92.2213 25.7022C95.5206 30.7161 97.7047 36.38 98.6257 42.3109C98.6726 42.7209 98.8804 43.0955 99.2034 43.3523C99.5264 43.609 99.9382 43.727 100.348 43.6801C100.758 43.6333 101.133 43.4255 101.39 43.1024C101.646 42.7794 101.764 42.3676 101.717 41.9576C100.985 35.4185 98.8402 29.1167 95.4313 23.4886C92.0224 17.8605 87.431 13.0406 81.9749 9.36262C76.3827 5.79032 70.0717 3.49494 63.4912 2.63993C56.9107 1.78492 50.2226 2.39133 43.9032 4.41595C37.3767 6.48042 31.4194 10.0336 26.5016 14.7951C21.6608 19.4197 17.6957 24.8811 14.7974 30.916C12.6473 35.077 11.1573 39.5471 10.3807 44.166C10.0727 46.334 10.0727 48.5346 10.3807 50.7026C9.58574 49.9518 8.74657 49.201 7.99574 48.4059C4.41824 44.5193 3.5349 40.8976 2.38657 40.2793C2.2389 40.1656 2.0702 40.0823 1.89019 40.034C1.71018 39.9858 1.52241 39.9737 1.33769 39.9983C1.15297 40.0229 0.974941 40.0839 0.813854 40.1776C0.652767 40.2713 0.511801 40.3959 0.39907 40.5443C0.206174 40.7465 0.0683453 40.9947 -0.00124658 41.2654C-0.0708384 41.536 -0.0698688 41.82 0.00156961 42.0901C0.660397 44.0852 1.51862 46.0088 2.56324 47.8318C3.41652 49.3788 4.39125 50.8557 5.47824 52.2484C6.49407 53.6176 7.59824 54.8984 8.79074 56.2676C9.36673 57.0523 9.98602 57.8043 10.6457 58.5201C11.1782 59.059 11.8282 59.4672 12.5449 59.7126C12.9834 59.8824 13.4556 59.9469 13.9235 59.9009C14.3915 59.8549 14.8421 59.6996 15.2391 59.4476C16.4797 58.343 17.6044 57.1147 18.5957 55.7818Z" fill="#00955F"/>
    <path d="M105.332 76.4066L103.83 70.3558C103.345 67.838 102.59 65.3798 101.577 63.0241C101.26 62.4746 100.833 61.9955 100.325 61.6159C99.816 61.2362 99.2354 60.964 98.6183 60.8158C97.6247 60.6247 96.5956 60.7807 95.7033 61.2574C94.7021 61.815 93.7557 62.4656 92.8766 63.2008L81.2607 72.8291C80.9646 73.0351 80.7585 73.3466 80.6846 73.6997C80.6107 74.0528 80.6746 74.4208 80.8633 74.7283C80.9616 74.8855 81.0909 75.0212 81.2433 75.1269C81.3957 75.2327 81.568 75.3065 81.7497 75.3436C81.9314 75.3808 82.1188 75.3807 82.3005 75.3432C82.4822 75.3058 82.6544 75.2318 82.8066 75.1258C85.3683 73.7566 88.2391 72.1666 90.8008 70.7091L95.9683 67.4849C93.7983 73.8909 90.2835 79.7589 85.6597 84.695C81.0358 89.6312 75.4098 93.5215 69.1591 96.1049C62.9352 98.3185 56.2729 99.015 49.7257 98.1366C43.0182 97.2186 36.5947 94.8361 30.9108 91.1582C28.1201 89.4255 25.5023 87.4289 23.0933 85.1958C20.6801 82.9812 18.5711 80.4564 16.8216 77.6874C16.5948 77.3417 16.2454 77.0948 15.8438 76.9964C15.4422 76.8981 15.0183 76.9556 14.6574 77.1574C14.3031 77.3767 14.0491 77.7264 13.9499 78.1311C13.8508 78.5359 13.9145 78.9634 14.1274 79.3216C15.9061 82.3868 18.0572 85.2203 20.5316 87.7574C23.0034 90.2896 25.7097 92.5818 28.6141 94.6033C34.5854 98.9507 41.4762 101.867 48.7541 103.127C56.1839 104.375 63.8125 103.597 70.8374 100.875C77.7072 97.9395 83.7962 93.44 88.6194 87.735C93.4426 82.03 96.8665 75.2772 98.6183 68.0149C99.1041 69.5608 99.5016 71.4157 99.7666 71.9899L101.931 77.2016C102.593 79.3216 103.256 79.8516 103.3 79.8516C103.444 79.9985 103.616 80.1152 103.805 80.1949C103.995 80.2745 104.198 80.3156 104.404 80.3156C104.61 80.3156 104.813 80.2745 105.003 80.1949C105.193 80.1152 105.364 79.9985 105.508 79.8516C105.795 79.4718 105.936 79.0016 105.906 78.5266C105.785 77.8027 105.592 77.0926 105.332 76.4066Z" fill="#00955F"/>
    </g>
    <defs>
    <clipPath id="clip0_2751_21071">
    <rect width="106" height="106" fill="white"/>
    </clipPath>
    </defs>
    </svg>
    