<svg  viewBox="0 0 106 106" fill="none" xmlns="http://www.w3.org/2000/svg">
    <g clip-path="url(#clip0_2751_21087)">
    <path fill-rule="evenodd" clip-rule="evenodd" d="M31.8478 59.6974C32.0316 59.3953 32.0992 59.0366 32.0381 58.6883C31.977 58.34 31.7913 58.0257 31.5157 57.8041C31.2401 57.5825 30.8933 57.4687 30.54 57.4839C30.1867 57.4991 29.8509 57.6422 29.5953 57.8866C28.4803 59.4148 27.0448 60.681 25.3893 61.5965C23.7338 62.512 21.8983 63.0547 20.0111 63.1866C18.2443 63.1634 16.5037 62.7564 14.9098 61.9938C13.3159 61.2311 11.9069 60.1311 10.7803 58.7699C9.71561 57.014 9.07362 55.0347 8.90499 52.9882C8.73636 50.9416 9.04571 48.8839 9.80862 46.9774C10.4375 45.042 11.6583 43.3528 13.2986 42.1483C14.939 40.9438 16.9161 40.2847 18.9511 40.2641C20.7836 40.2096 22.6103 40.4941 24.3395 41.1033C26.0066 41.7204 27.5154 42.701 28.7561 43.9741C28.8576 44.1162 28.9861 44.2369 29.1343 44.3294C29.2824 44.4218 29.4473 44.4842 29.6196 44.5129C29.7918 44.5416 29.9681 44.5361 30.1382 44.4967C30.3083 44.4573 30.469 44.3848 30.6111 44.2833C30.7532 44.1818 30.8739 44.0533 30.9664 43.9051C31.0588 43.757 31.1212 43.592 31.1499 43.4198C31.1786 43.2475 31.1731 43.0713 31.1337 42.9012C31.0943 42.7311 31.0218 42.5704 30.9203 42.4283C29.4904 40.6944 27.6756 39.3182 25.6203 38.4091C23.5486 37.4426 21.319 36.8591 19.0395 36.6866C16.113 36.4716 13.1964 37.2181 10.733 38.8125C8.26964 40.4069 6.39425 42.7621 5.39195 45.5199C4.29682 48.1481 3.86501 51.0053 4.13458 53.8397C4.40416 56.6741 5.36685 59.3987 6.93779 61.7733C7.50165 62.3309 8.14093 62.8066 8.83695 63.1866C7.52623 64.0559 6.31212 65.0627 5.21529 66.1899C4.41032 67.092 3.71364 68.0851 3.13945 69.1491C2.55633 70.1925 2.06852 71.2864 1.68195 72.4174C0.809862 75.0068 0.246519 77.6901 0.00362134 80.4116C-0.0627556 80.7796 0.0148378 81.159 0.220353 81.4714C0.425869 81.7838 0.743584 82.0052 1.10779 82.0899C1.30328 82.1348 1.50608 82.1376 1.70272 82.098C1.89936 82.0584 2.08532 81.9775 2.24826 81.8605C2.41119 81.7435 2.54736 81.5932 2.64771 81.4195C2.74806 81.2459 2.8103 81.0528 2.83029 80.8533C3.58734 78.5277 4.53269 76.2677 5.65695 74.0958L7.11445 71.4458C7.60029 70.6066 8.13029 69.7674 8.66029 68.9283C9.57492 67.5513 10.5627 66.2244 11.6195 64.9533C14.327 66.3934 17.4026 66.9931 20.4528 66.6758C22.7382 66.3866 24.936 65.6148 26.9006 64.4117C28.8651 63.2087 30.5514 61.6017 31.8478 59.6974Z" fill="#00955F"/>
    <path fill-rule="evenodd" clip-rule="evenodd" d="M104.54 72.4174C104.154 71.2864 103.666 70.1925 103.083 69.1491C102.509 68.0851 101.812 67.092 101.007 66.1899C99.9101 65.0627 98.696 64.0559 97.3853 63.1866C98.0147 62.7357 98.5794 62.2007 99.0636 61.5966C100.605 59.2428 101.551 56.5496 101.82 53.749C102.09 50.9484 101.674 48.1243 100.609 45.5199C99.6072 42.7621 97.7318 40.4069 95.2684 38.8125C92.805 37.2181 89.8884 36.4716 86.962 36.6866C84.7357 36.8328 82.5527 37.3711 80.5136 38.2766C78.4583 39.1857 76.6435 40.5619 75.2136 42.2958C74.9911 42.5418 74.8753 42.8661 74.8919 43.1974C74.9085 43.5287 75.056 43.8399 75.302 44.0624C75.548 44.285 75.8723 44.4007 76.2036 44.3842C76.5349 44.3676 76.8461 44.2201 77.0686 43.9741C78.3094 42.701 79.8182 41.7204 81.4853 41.1033C83.2172 40.5091 85.0439 40.2396 86.8736 40.3083C88.9086 40.3289 90.8858 40.988 92.5261 42.1925C94.1665 43.397 95.3872 45.0861 96.0161 47.0216C96.7982 48.9086 97.1333 50.9509 96.9954 52.9889C96.8575 55.0269 96.2503 57.0055 95.2211 58.7699C94.0615 60.0667 92.6378 61.1002 91.0457 61.801C89.4535 62.5019 87.7298 62.8538 85.9903 62.8333C84.1316 62.7436 82.3139 62.2555 80.6603 61.4021C79.0068 60.5486 77.5559 59.3497 76.4061 57.8866C76.1505 57.6422 75.8148 57.4991 75.4614 57.4839C75.1081 57.4687 74.7613 57.5826 74.4857 57.8041C74.2101 58.0257 74.0244 58.34 73.9633 58.6883C73.9022 59.0366 73.9699 59.3953 74.1536 59.6974C75.4648 61.6442 77.1819 63.2839 79.1871 64.5038C81.1923 65.7236 83.4379 66.4948 85.7695 66.7641C88.7466 67.0373 91.7389 66.4388 94.382 65.0416C95.4387 66.3128 96.4265 67.6397 97.3411 69.0166C97.8711 69.8558 98.4011 70.6949 98.887 71.5341L100.344 74.1841C101.464 76.3276 102.41 78.5579 103.171 80.8533C103.203 81.0404 103.272 81.2192 103.374 81.3791C103.476 81.5389 103.61 81.6765 103.767 81.7837C103.923 81.8909 104.1 81.9654 104.286 82.0028C104.472 82.0403 104.664 82.0398 104.849 82.0016C105.204 81.927 105.519 81.7227 105.731 81.4286C105.943 81.1346 106.039 80.772 105.998 80.4116C105.827 77.699 105.337 75.0159 104.54 72.4174Z" fill="#00955F"/>
    <path fill-rule="evenodd" clip-rule="evenodd" d="M72.9306 63.4495C72.2392 62.1839 71.4096 60.9989 70.4572 59.9161C68.9724 58.2369 67.2806 56.7528 65.4222 55.4995C67.4204 53.5768 68.9587 51.2278 69.9223 48.6277C70.8859 46.0275 71.2499 43.2433 70.9872 40.4828C70.9757 38.2324 70.5209 36.0063 69.649 33.9316C68.7771 31.8569 67.5051 29.9742 65.9056 28.3912C64.3061 26.8081 62.4105 25.5555 60.3269 24.705C58.2433 23.8546 56.0127 23.4228 53.7622 23.4345C48.8783 23.2545 44.1207 25.0092 40.5233 28.3172C36.9258 31.6253 34.7791 36.2193 34.5497 41.1011C34.433 44.3096 35.2904 47.4783 37.0089 50.1902C38.7275 52.9021 41.2269 55.0302 44.1781 56.2945C41.6762 57.69 39.3103 59.3165 37.1114 61.1528C35.1292 62.8409 33.4164 64.8218 32.0322 67.027C30.7473 68.8971 29.8508 71.006 29.3956 73.2288C28.9404 75.4516 28.9358 77.7432 29.3822 79.9678C29.4349 80.3426 29.6344 80.6812 29.9367 80.909C30.239 81.1367 30.6195 81.2351 30.9943 81.1824C31.3691 81.1297 31.7077 80.9302 31.9355 80.6279C32.1633 80.3256 32.2616 79.9451 32.2089 79.5703C32.2182 75.9341 33.535 72.4226 35.9189 69.677C37.2439 67.9103 38.7897 66.1878 40.3356 64.5095C42.8089 61.9036 45.2822 59.4303 47.5789 57.4428C49.3126 57.8872 51.09 58.139 52.8789 58.1936C53.0472 58.2056 53.2162 58.1843 53.3762 58.1308C53.5362 58.0773 53.6841 57.9927 53.8113 57.8819C53.9385 57.7711 54.0426 57.6362 54.1175 57.4851C54.1925 57.3339 54.2368 57.1695 54.2481 57.0011C54.2603 56.6687 54.1427 56.3444 53.9201 56.0971C53.6976 55.8498 53.3875 55.6988 53.0556 55.6761C43.4272 54.7928 38.8781 48.8303 38.7456 42.4261C40.0509 43.1137 41.4746 43.5483 42.9414 43.707C43.629 43.816 44.3296 43.816 45.0172 43.707C45.7307 43.6041 46.4282 43.4112 47.0931 43.1328C48.7954 42.5429 50.3167 41.5237 51.5097 40.1736C51.5097 40.1736 51.5097 39.8203 51.7306 39.6878L53.4089 40.5711C54.9027 41.2702 56.4742 41.7891 58.0906 42.117C61.1333 42.6055 64.2345 42.6055 67.2772 42.117C67.6421 45.3729 66.7541 48.6456 64.7936 51.2706C62.8331 53.8956 59.947 55.676 56.7214 56.2503C56.3422 56.2948 55.9956 56.4862 55.7561 56.7836C55.5165 57.0809 55.4033 57.4603 55.4406 57.8403C55.4624 58.0265 55.521 58.2065 55.613 58.3698C55.705 58.5331 55.8286 58.6765 55.9766 58.7916C56.1246 58.9067 56.294 58.9912 56.4749 59.0402C56.6558 59.0892 56.8447 59.1017 57.0306 59.077C59.1382 58.9043 61.1854 58.2872 63.0372 57.2661C64.5206 58.8877 65.8651 60.631 67.0564 62.4778C67.7189 63.4936 68.3814 64.5095 68.9997 65.5695C69.6181 66.6295 70.1922 67.7336 70.7664 68.882C72.1159 71.5708 73.2101 74.3804 74.0347 77.2736C74.1193 77.647 74.3474 77.9721 74.6697 78.1788C74.992 78.3854 75.3826 78.4569 75.7572 78.3778C75.9404 78.341 76.1144 78.2682 76.2693 78.1637C76.4241 78.0592 76.5567 77.925 76.6594 77.769C76.7621 77.6129 76.8328 77.438 76.8675 77.2544C76.9022 77.0709 76.9001 76.8822 76.8614 76.6995C76.4742 73.5968 75.7485 70.5458 74.6972 67.6011C74.2386 66.1653 73.6472 64.7754 72.9306 63.4495ZM47.4464 38.672H45.3264L43.2064 38.9811C41.7634 39.3805 40.2836 39.6321 38.7897 39.732C39.5199 36.4503 41.4394 33.5553 44.1781 31.6053C45.4015 34.0244 47.0812 36.1841 49.1247 37.9653C49.1971 37.984 49.2731 37.984 49.3456 37.9653C48.7495 38.2903 48.1099 38.5283 47.4464 38.672ZM58.9297 37.7886C57.6578 37.38 56.4178 36.8781 55.2197 36.287C54.0044 35.7208 52.8374 35.0561 51.7306 34.2995C49.8945 33.0514 48.2312 31.5663 46.7839 29.8828C49.0212 28.8797 51.4429 28.3532 53.8947 28.337C56.9678 28.2324 59.9702 29.2723 62.3203 31.2551C64.6704 33.238 66.2007 36.0226 66.6147 39.0695C64.0099 38.9623 61.4285 38.532 58.9297 37.7886Z" fill="#00955F"/>
    <path fill-rule="evenodd" clip-rule="evenodd" d="M55.0331 63.4468C55.0331 63.1071 54.8981 62.7814 54.6579 62.5412C54.4177 62.301 54.0919 62.166 53.7522 62.166C53.4125 62.166 53.0867 62.301 52.8465 62.5412C52.6063 62.7814 52.4714 63.1071 52.4714 63.4468C52.0739 65.0368 51.5881 66.4943 51.3231 68.0843C51.2569 68.76 51.2569 69.4404 51.3231 70.116C51.2792 70.7778 51.2792 71.4417 51.3231 72.1035C51.3231 73.6935 51.9414 75.151 52.2506 76.741C52.2502 76.9285 52.2883 77.1141 52.3625 77.2862C52.4368 77.4583 52.5456 77.6134 52.6823 77.7418C52.8189 77.8701 52.9805 77.9691 53.1569 78.0324C53.3334 78.0958 53.521 78.1223 53.7081 78.1102C53.8974 78.1103 54.0849 78.0723 54.2593 77.9985C54.4337 77.9248 54.5915 77.8167 54.7234 77.6807C54.8552 77.5448 54.9584 77.3837 55.0268 77.2071C55.0951 77.0305 55.1273 76.842 55.1214 76.6527C55.1214 75.1068 55.6956 73.6493 55.8722 72.236C55.9161 71.589 55.9161 70.9397 55.8722 70.2927C55.9383 69.6318 55.9383 68.966 55.8722 68.3052C55.7397 66.4502 55.2981 65.0368 55.0331 63.4468Z" fill="#00955F"/>
    </g>
    <defs>
    <clipPath id="clip0_2751_21087">
    <rect width="106" height="106" fill="white"/>
    </clipPath>
    </defs>
    </svg>
    