<svg viewBox="0 0 106 106" fill="none" xmlns="http://www.w3.org/2000/svg">
    <g clip-path="url(#clip0_2751_21066)">
    <path fill-rule="evenodd" clip-rule="evenodd" d="M47.8317 87.9829C46.4795 91.4346 44.4182 94.5643 41.7809 97.1696C41.295 97.6996 41.7809 98.4946 41.7809 89.8379C42.2094 83.3048 41.928 76.7445 40.9417 70.2721C40.2717 67.2962 39.8726 64.2658 39.7492 61.2179C39.819 61.0321 39.8476 60.8333 39.8329 60.6354C39.8183 60.4375 39.7608 60.2451 39.6644 60.0715C39.5681 59.898 39.4351 59.7475 39.2748 59.6305C39.1145 59.5135 38.9307 59.4327 38.736 59.3938C38.5414 59.3548 38.3406 59.3587 38.1476 59.4051C37.9546 59.4514 37.774 59.5392 37.6183 59.6623C37.4626 59.7854 37.3356 59.9409 37.2459 60.118C37.1563 60.2951 37.1062 60.4895 37.0992 60.6879C36.6269 63.9929 36.4937 67.3375 36.7017 70.6696C36.4638 77.1435 36.7296 83.626 37.4967 90.0587C37.4967 91.1187 38.2475 95.8887 38.2475 97.9646C35.6867 96.6073 33.3604 94.8477 31.3575 92.7529C28.7517 89.8379 28.31 87.6296 26.9409 88.3362C26.6295 88.5052 26.3957 88.7882 26.2886 89.1259C26.1816 89.4636 26.2096 89.8296 26.3667 90.1471C28.1078 94.4427 30.8127 98.2809 34.2725 101.365C36.6134 103.265 40.9417 105.164 43.7684 102.823C44.6677 102.02 45.4157 101.063 45.9767 99.9962C48.1351 96.9334 49.7625 93.5292 50.7909 89.9262C50.9595 89.307 51.0486 88.6688 51.0559 88.0271C51.0617 87.5995 50.8975 87.1871 50.5993 86.8807C50.3011 86.5742 49.8934 86.3988 49.4659 86.3929C49.0383 86.387 48.6259 86.5513 48.3195 86.8494C48.013 87.1476 47.8376 87.5553 47.8317 87.9829Z" fill="#00955F"/>
    <path fill-rule="evenodd" clip-rule="evenodd" d="M75.8384 68.9879C74.8148 66.6108 73.5728 64.3338 72.1284 62.1862C70.6709 59.7571 69.2134 58.0345 66.3867 58.2554C59.1434 59.0945 55.4776 66.117 52.4742 72.0354C52.3494 72.3522 52.3471 72.7041 52.4678 73.0225C52.5885 73.341 52.8235 73.603 53.1269 73.7574C53.4304 73.9119 53.7805 73.9478 54.1089 73.858C54.4374 73.7683 54.7207 73.5594 54.9034 73.2721L57.6859 69.5179C59.6675 67.3938 61.9431 65.5644 64.4434 64.0854C64.885 65.3221 63.5601 73.3162 63.1625 80.0296C63.1625 83.5187 62.9417 97.9171 63.1625 98.2704C63.1625 100.258 63.1625 102.996 65.0617 102.687C65.4351 102.602 65.7602 102.374 65.9668 102.052C66.1734 101.73 66.2449 101.339 66.1659 100.965C65.8567 97.3871 67.6676 94.2512 68.3301 84.137C68.6392 78.7045 68.3301 66.4704 67.9767 64.4829C70.7483 67.228 72.9147 70.5228 74.3367 74.1554C74.3367 74.5595 74.4972 74.9471 74.783 75.2328C75.0688 75.5186 75.4563 75.6791 75.8605 75.6791C76.2646 75.6791 76.6522 75.5186 76.9379 75.2328C77.2237 74.9471 77.3842 74.5595 77.3842 74.1554C77.0883 72.3747 76.5689 70.6385 75.8384 68.9879Z" fill="#00955F"/>
    <path fill-rule="evenodd" clip-rule="evenodd" d="M93.9003 34.0531C96.8146 30.2556 98.3699 25.5897 98.317 20.8031C96.8153 3.13648 65.1478 -7.19852 54.1503 14.0015C53.5098 13.1987 52.7501 12.4987 51.8978 11.9256C48.796 9.6327 45.0844 8.31007 41.2315 8.12471C37.3787 7.93934 33.5572 8.89955 30.2496 10.8841C26.942 12.8687 24.2964 15.7887 22.6468 19.2755C20.9973 22.7623 20.4177 26.6597 20.9812 30.4756C6.31784 28.4881 -5.51883 43.019 2.69617 59.0956C5.21367 63.954 15.0187 67.7081 17.9778 66.2065C18.1344 66.1282 18.2741 66.0198 18.3888 65.8875C18.5035 65.7553 18.5911 65.6017 18.6464 65.4356C18.7018 65.2695 18.7239 65.0941 18.7115 64.9195C18.6991 64.7448 18.6524 64.5743 18.5741 64.4177C18.4958 64.2611 18.3874 64.1215 18.2551 64.0068C18.1229 63.892 17.9693 63.8045 17.8032 63.7491C17.6371 63.6938 17.4617 63.6717 17.2871 63.6841C17.1124 63.6965 16.9419 63.7432 16.7853 63.8215C14.5643 63.6903 12.3985 63.0772 10.4383 62.0247C8.47818 60.9721 6.77069 59.5054 5.4345 57.7265C4.08133 54.8695 3.38703 51.7451 3.40284 48.584C3.43689 46.496 3.92195 44.4401 4.82477 42.5571C5.7276 40.6741 7.02685 39.0085 8.63349 37.6746C10.2401 36.3406 12.1162 35.3697 14.1331 34.8285C16.15 34.2873 18.26 34.1885 20.3187 34.539C21.6002 34.8145 22.8252 35.3075 23.9403 35.9965C24.4189 36.1943 24.9526 36.214 25.4444 36.0519C25.9363 35.8899 26.3537 35.5568 26.6209 35.1132C26.8881 34.6696 26.9874 34.1449 26.9008 33.6344C26.8141 33.1238 26.5473 32.6612 26.1487 32.3306C25.0445 31.2706 25.3095 28.7531 25.3537 27.119C25.5079 24.4503 26.3823 21.8732 27.8839 19.6616C29.3854 17.45 31.4581 15.6866 33.8816 14.5586C36.3052 13.4307 38.989 12.9803 41.648 13.2555C44.3069 13.5307 46.8417 14.5211 48.9828 16.1215C52.2512 18.374 51.2795 22.5698 54.5037 22.4815C56.5795 22.4815 56.7562 21.0681 58.567 16.6073C66.6053 -0.17602 92.3103 8.21565 93.9003 21.024C93.8855 25.2687 92.4557 29.3874 89.837 32.7281C89.837 32.7281 87.4078 34.1856 87.6728 34.8481C87.3735 35.0458 87.128 35.3148 86.9584 35.6309C86.7887 35.947 86.7004 36.3003 86.7012 36.659C86.7012 37.189 88.3353 39.6623 90.3228 38.1606C102.513 35.334 106.488 53.6631 98.4053 60.5531C94.7714 63.4608 90.4796 65.4323 85.9062 66.2948C85.5508 66.417 85.2521 66.6644 85.066 66.9908C84.8798 67.3173 84.8189 67.7003 84.8947 68.0684C84.9705 68.4364 85.1777 68.7643 85.4777 68.9906C85.7777 69.2169 86.1498 69.3263 86.5245 69.2981C91.6359 68.4431 96.4504 66.3168 100.525 63.1148C109.977 55.474 106.974 35.6873 93.9003 34.0531Z" fill="#00955F"/>
    </g>
    <defs>
    <clipPath id="clip0_2751_21066">
    <rect width="106" height="106" fill="white"/>
    </clipPath>
    </defs>
    </svg>
    