<svg  viewBox="0 0 106 106" fill="none" xmlns="http://www.w3.org/2000/svg">
    <g clip-path="url(#clip0_2751_21076)">
    <path fill-rule="evenodd" clip-rule="evenodd" d="M10.1956 53.7063C14.6122 57.063 17.7481 53.9272 14.3472 50.2172L13.9939 49.8638C13.2693 49.1692 12.5023 48.5201 11.6972 47.9205C10.8581 47.3022 9.97473 46.7722 9.0914 46.2422C6.95472 45.0407 4.70639 44.0497 2.37807 43.283C1.98566 43.0897 1.53254 43.0603 1.1184 43.2011C0.704255 43.3419 0.36301 43.6414 0.169734 44.0338C-0.0235426 44.4263 -0.0530188 44.8794 0.0877898 45.2935C0.228598 45.7077 0.528157 46.0489 0.920567 46.2422C2.81973 47.523 4.40973 49.1572 6.22057 50.6588C7.38164 51.6911 8.60596 52.6499 9.8864 53.5297L10.1956 53.7063Z" fill="#00955F"/>
    <path fill-rule="evenodd" clip-rule="evenodd" d="M52.9943 77.7752C52.8478 77.3652 52.5445 77.0302 52.1511 76.8438C51.7577 76.6574 51.3063 76.635 50.8963 76.7814C50.4864 76.9278 50.1513 77.2311 49.965 77.6246C49.7786 78.018 49.7562 78.4693 49.9026 78.8793C50.1484 80.1678 49.8724 81.5012 49.1353 82.5862C48.3981 83.6712 47.2602 84.419 45.9718 84.6652C45.1928 84.6862 44.4203 84.5196 43.7193 84.1793C42.9643 83.8903 42.2739 83.455 41.6876 82.8985C41.2962 82.4922 40.9276 82.0646 40.5834 81.6177C40.3817 81.3055 40.2325 80.9623 40.1418 80.6018C39.9624 79.7616 40.0877 78.8849 40.4951 78.1285C40.8043 77.8193 41.0251 77.5102 41.2901 77.201C41.6564 76.6869 42.1219 76.2514 42.6593 75.9202C43.6305 75.2837 44.7664 74.9446 45.9276 74.9446C47.0888 74.9446 48.2247 75.2837 49.1959 75.9202C49.4776 76.1527 49.8363 76.271 50.2011 76.2517C50.5658 76.2323 50.91 76.0768 51.1655 75.8157C51.421 75.5547 51.5692 75.2072 51.5807 74.8421C51.5922 74.477 51.4661 74.1209 51.2276 73.8443C50.1421 72.732 48.7825 71.9258 47.2858 71.5071C45.7891 71.0883 44.2085 71.0719 42.7034 71.4593C42.694 70.7711 42.5899 70.0875 42.3943 69.4277C42.2443 69.0144 41.9382 68.6765 41.5418 68.4866C41.1454 68.2966 40.6903 68.2698 40.2743 68.4118C40.0661 68.4811 39.874 68.5915 39.7095 68.7366C39.5449 68.8817 39.4113 69.0584 39.3165 69.2563C39.2217 69.4541 39.1677 69.669 39.1577 69.8881C39.1477 70.1073 39.182 70.3262 39.2584 70.5318C39.5013 71.2781 39.5013 72.0822 39.2584 72.8285C37.8982 73.6085 36.7701 74.7366 35.9901 76.0968C35.8139 76.1158 35.6362 76.1158 35.4601 76.0968C34.6943 76.1292 33.9332 75.9618 33.2518 75.611C32.4019 75.4135 31.6039 75.037 30.9109 74.5068C30.5128 74.119 30.1574 73.6896 29.8509 73.226C29.6192 72.9254 29.4537 72.5792 29.3651 72.2102C29.2226 71.2792 29.3815 70.327 29.8185 69.4927C30.2555 68.6584 30.9478 67.9856 31.7943 67.5727C32.7613 66.9251 33.8988 66.5795 35.0626 66.5795C36.2264 66.5795 37.3639 66.9251 38.3309 67.5727C38.6121 67.8421 38.9887 67.9888 39.378 67.9805C39.7673 67.9722 40.1373 67.8096 40.4068 67.5285C40.6762 67.2474 40.8229 66.8707 40.8146 66.4814C40.8063 66.0921 40.6437 65.7221 40.3626 65.4527C39.467 64.5028 38.3612 63.7763 37.1339 63.3314C35.9066 62.8865 34.5921 62.7357 33.2959 62.891C33.4535 61.658 33.2702 60.4054 32.7659 59.2693C32.6195 58.8593 32.3162 58.5243 31.9228 58.338C31.5293 58.1516 31.078 58.1292 30.668 58.2756C30.258 58.422 29.923 58.7253 29.7366 59.1187C29.5503 59.5122 29.5278 59.9635 29.6743 60.3735C29.8266 61.022 29.8302 61.6966 29.6849 62.3467C29.5395 62.9969 29.249 63.6057 28.8351 64.1277C27.9753 64.5851 27.1867 65.1653 26.4943 65.8502C26.2398 65.9786 25.9736 66.0822 25.6993 66.1593C24.9366 66.1595 24.1831 65.9937 23.4909 65.6735C22.736 65.3845 22.0455 64.9492 21.4593 64.3927C21.0556 63.9977 20.6863 63.5692 20.3551 63.1118C20.1267 62.798 19.9754 62.4349 19.9134 62.0518C19.7304 61.1068 19.8814 60.1276 20.3406 59.2817C20.7999 58.4357 21.5388 57.7756 22.4309 57.4143C23.4021 56.7778 24.5381 56.4388 25.6993 56.4388C26.8605 56.4388 27.9964 56.7778 28.9676 57.4143C29.2529 57.5817 29.5867 57.6471 29.9141 57.5996C30.2415 57.5522 30.543 57.3948 30.7691 57.1533C30.9952 56.9118 31.1324 56.6006 31.1581 56.2707C31.1839 55.9409 31.0967 55.6122 30.9109 55.3385C29.5159 54.0948 27.8074 53.2563 25.9702 52.9138C24.1329 52.5713 22.237 52.7377 20.4876 53.3952C18.6449 53.9915 17.0775 55.2297 16.0709 56.8843C14.7993 58.6634 14.2327 60.8508 14.4809 63.0235C14.6366 63.9533 14.9503 64.8496 15.4084 65.6735C16.0349 66.6561 16.7762 67.5605 17.6168 68.3677C18.9023 69.4735 20.4307 70.2604 22.0776 70.6643C22.7514 70.8711 23.4491 70.9899 24.1534 71.0177C24.0647 71.7363 24.0647 72.4632 24.1534 73.1818C24.3171 74.102 24.6463 74.9849 25.1251 75.7877C25.7228 76.8039 26.4669 77.7265 27.3334 78.526C28.6142 79.6139 30.1239 80.3989 31.7501 80.8227C32.7995 81.1094 33.8876 81.2286 34.9743 81.176C34.9958 81.2928 34.9958 81.4125 34.9743 81.5293C35.1256 82.4667 35.4555 83.3663 35.9459 84.1793C36.5446 85.1817 37.2888 86.0897 38.1543 86.8735C39.4174 87.9875 40.9336 88.7759 42.5709 89.1702C44.1878 89.6293 45.9007 89.6293 47.5176 89.1702C48.7008 88.8049 49.7989 88.2063 50.7471 87.4098C51.6953 86.6133 52.4744 85.6351 53.0384 84.5327C53.5249 83.4714 53.7731 82.3165 53.7655 81.149C53.7578 79.9816 53.4946 78.83 52.9943 77.7752Z" fill="#00955F"/>
    <path fill-rule="evenodd" clip-rule="evenodd" d="M47.6918 28.0452C48.2926 28.1602 48.8833 28.3226 49.4584 28.531C52.5059 29.7677 54.1843 26.5435 51.9759 25.1302C50.8765 24.4727 49.6858 23.9816 48.4426 23.6727C45.6843 23.0784 42.8412 22.9886 40.0509 23.4077C37.5869 23.5743 35.1119 23.4558 32.6751 23.0543L23.6209 19.6535C21.5294 18.7736 19.3541 18.1077 17.1284 17.666C16.9398 17.6817 16.7565 17.7364 16.59 17.8266C16.4236 17.9167 16.2777 18.0404 16.1615 18.1899C16.0452 18.3393 15.9613 18.5112 15.9149 18.6947C15.8684 18.8782 15.8606 19.0693 15.8918 19.256C15.9215 19.5857 16.0659 19.8945 16.3 20.1286C16.5341 20.3627 16.8429 20.5072 17.1726 20.5368C17.1726 20.5368 17.7026 20.8018 18.1884 21.0668C20.9268 22.4802 26.7126 26.1018 30.6434 28.0893C32.2582 29.0114 34.049 29.5832 35.8993 29.7677L40.8901 28.7518C43.1106 28.1852 45.4022 27.9472 47.6918 28.0452Z" fill="#00955F"/>
    <path fill-rule="evenodd" clip-rule="evenodd" d="M105.645 17.0924C105.416 16.7126 105.045 16.439 104.615 16.3314C104.185 16.2238 103.729 16.2909 103.348 16.5182L95.4865 20.9349C94.0779 21.7425 92.5998 22.4225 91.0699 22.9665C90.1715 23.2553 89.2307 23.3898 88.2874 23.364C86.8091 23.3415 85.3338 23.2235 83.8707 23.0107C82.5708 22.7866 81.2872 22.4768 80.0282 22.0832C78.1732 21.4649 76.4065 20.6699 74.5515 20.1399C73.1202 19.7063 71.6302 19.4977 70.1349 19.5215C68.9425 19.5771 67.7657 19.8154 66.6457 20.2282C65.0829 20.7479 63.5973 21.4758 62.229 22.3924C61.1249 23.0549 50.9665 32.4624 49.9949 33.4782C48.2933 35.0899 46.8087 36.916 45.5782 38.9107C44.7293 40.4115 44.2451 42.0908 44.1649 43.8132C44.0658 44.8204 44.1972 45.8369 44.5492 46.7858C44.9012 47.7347 45.4645 48.591 46.1965 49.2899C47.2353 50.1112 48.4455 50.6885 49.7375 50.979C51.0295 51.2695 52.3703 51.2658 53.6607 50.9682C55.9409 50.512 58.0773 49.512 59.8882 48.0532C61.6926 46.6179 63.3766 45.0373 64.9232 43.3274C67.1725 44.2725 69.5579 44.854 71.9899 45.0499C73.1344 45.182 74.2903 45.182 75.4349 45.0499C76.5697 44.8855 77.6814 44.5891 78.7474 44.1665C81.1843 43.1418 83.3917 41.6401 85.2399 39.7499C85.4014 39.6438 85.5395 39.5057 85.6456 39.3441C85.7517 39.1826 85.8235 39.001 85.8566 38.8106C85.8897 38.6201 85.8834 38.425 85.8381 38.2371C85.7928 38.0492 85.7095 37.8726 85.5932 37.7182C85.483 37.5615 85.3431 37.4281 85.1814 37.3255C85.0196 37.223 84.8393 37.1533 84.6506 37.1205C84.4619 37.0877 84.2686 37.0924 84.0817 37.1343C83.8949 37.1762 83.7181 37.2546 83.5615 37.3649C81.53 38.2263 79.3901 38.8058 77.2015 39.0874L73.359 39.7499C72.4757 39.7499 71.6807 40.059 70.7974 40.1032C69.4157 40.2138 68.0274 40.2138 66.6457 40.1032C66.6889 39.9441 66.6889 39.7764 66.6457 39.6174C66.5139 39.4811 66.3561 39.3728 66.1815 39.2988C66.007 39.2248 65.8194 39.1867 65.6299 39.1867C65.4403 39.1867 65.2527 39.2248 65.0782 39.2988C64.9037 39.3728 64.7458 39.4811 64.614 39.6174C62.5283 41.6887 60.2836 43.5937 57.9007 45.3149C56.4764 46.2953 54.8432 46.9305 53.1307 47.1699C51.9454 47.3634 50.7297 47.1452 49.6857 46.5515C49.2704 46.3247 48.939 45.9705 48.7402 45.5412C48.5414 45.1118 48.4858 44.6299 48.5815 44.1665C48.7668 43.1556 49.1577 42.1936 49.7299 41.3399C50.8297 39.7993 52.1043 38.3913 53.5282 37.144C55.6924 34.9799 57.9449 32.7274 60.2415 30.5632C61.6871 29.2328 63.238 28.0216 64.879 26.9415C65.7326 26.3651 66.634 25.8627 67.5732 25.4399C69.313 24.6763 71.2628 24.5359 73.094 25.0424C74.9049 25.4399 76.6274 26.1024 78.4382 26.6324C80.0209 27.0264 81.6297 27.3069 83.2524 27.4715C84.8411 27.5594 86.4336 27.5594 88.0224 27.4715C89.4399 27.4304 90.8416 27.162 92.174 26.6765C93.9268 25.9425 95.6116 25.0557 97.209 24.0265L104.85 19.2124C105.23 19.03 105.526 18.7075 105.674 18.3123C105.822 17.9172 105.812 17.48 105.645 17.0924Z" fill="#00955F"/>
    <path fill-rule="evenodd" clip-rule="evenodd" d="M82.0067 61.8335C81.7365 61.0606 81.4118 60.3079 81.0351 59.581C79.7859 57.4376 78.3048 55.4381 76.6184 53.6185L71.8926 48.2302C71.6528 47.9522 71.317 47.775 70.9523 47.7338C70.5875 47.6927 70.2207 47.7906 69.925 48.0082C69.6294 48.2257 69.4267 48.5468 69.3575 48.9073C69.2883 49.2678 69.3577 49.6411 69.5517 49.9527L73.0409 56.2243C74.1891 58.0576 75.1933 59.9773 76.0442 61.966C76.5821 63.0803 76.9399 64.2729 77.1042 65.4993C77.2448 66.2717 77.219 67.0652 77.0286 67.8268C76.8382 68.5884 76.4875 69.3006 76.0001 69.916C75.3808 70.621 74.5896 71.1535 73.7034 71.4618C73.6382 71.2962 73.5645 71.134 73.4826 70.976C72.5509 69.5909 71.5175 68.277 70.3909 67.0452L64.0309 59.846C63.9091 59.6662 63.7531 59.5121 63.5717 59.3926C63.3904 59.2731 63.1873 59.1905 62.974 59.1495C62.5433 59.0667 62.0973 59.1583 61.7342 59.4043C61.3711 59.6503 61.1206 60.0305 61.0377 60.4612C60.9549 60.8919 61.0466 61.3379 61.2926 61.701L66.2392 70.1368C67.0804 71.3188 67.8617 72.5423 68.5801 73.8027C68.962 74.454 69.2589 75.1516 69.4634 75.8785C69.7088 76.384 69.7813 76.9561 69.6695 77.5068C69.5578 78.0575 69.2681 78.5562 68.8451 78.926C68.2134 79.4486 67.4487 79.785 66.6367 79.8977C66.6367 79.8977 66.6367 79.6327 66.6367 79.5002C66.1678 78.4977 65.5902 77.5498 64.9142 76.6735C63.8542 75.3927 62.8384 74.156 61.6901 72.9635C60.5417 71.771 59.4817 70.6227 58.2892 69.5185C58.0472 69.2226 57.6986 69.0337 57.3186 68.9924C56.9386 68.9511 56.5575 69.0607 56.2576 69.2977C55.9587 69.5475 55.7686 69.9036 55.7274 70.2909C55.6862 70.6782 55.7971 71.0664 56.0367 71.3735C56.7434 72.4335 57.3617 73.4493 57.9801 74.5535C58.5984 75.6577 59.7026 77.7777 60.4976 79.456L61.7342 82.4593L61.1159 83.5193C60.8178 83.9966 60.4249 84.4075 59.9614 84.7266C59.498 85.0457 58.9739 85.2662 58.4217 85.3743C57.3548 85.6581 56.2203 85.5321 55.2417 85.021C55.0591 84.9076 54.8559 84.8314 54.6438 84.7967C54.4316 84.7619 54.2147 84.7694 54.0055 84.8186C53.7963 84.8679 53.5988 84.9579 53.4244 85.0836C53.25 85.2093 53.1021 85.3681 52.9892 85.551C52.758 85.9267 52.684 86.3782 52.7832 86.808C52.8824 87.2378 53.1468 87.6113 53.5192 87.8477C54.9389 89.0783 56.7642 89.7391 58.6426 89.7027C59.8663 89.7341 61.0832 89.5108 62.2161 89.047C63.3489 88.5832 64.373 87.8891 65.2234 87.0085C65.868 86.3455 66.4046 85.5854 66.8134 84.756C66.9482 84.3249 67.037 83.8808 67.0784 83.431C68.5983 83.5369 70.1199 83.2478 71.4951 82.5918C72.7949 81.8642 73.837 80.7513 74.4778 79.4065C75.1185 78.0618 75.3263 76.5513 75.0726 75.0835C76.7055 74.7773 78.2289 74.0461 79.4892 72.9635C80.4956 72.0467 81.3074 70.937 81.8765 69.7003C82.4455 68.4635 82.7602 67.1251 82.8017 65.7643C82.7005 64.4262 82.4334 63.1058 82.0067 61.8335Z" fill="#00955F"/>
    <path fill-rule="evenodd" clip-rule="evenodd" d="M105.985 56.4026C105.933 56.1935 105.841 55.9966 105.713 55.8234C105.585 55.6501 105.424 55.5039 105.239 55.393C105.054 55.2822 104.849 55.209 104.636 55.1776C104.423 55.1462 104.206 55.1573 103.997 55.2101C101.303 55.5193 98.6972 55.6076 96.0914 56.0493C94.318 56.3342 92.5738 56.7777 90.8797 57.3743C88.932 58.1088 87.0787 59.0725 85.3589 60.2451C81.7372 61.7468 83.9014 64.6618 87.3022 63.6901L91.4097 62.8509L94.5014 62.1001L97.5489 61.1284C99.978 60.2893 102.363 59.3618 104.792 58.3901C105.001 58.3385 105.198 58.246 105.371 58.118C105.545 57.99 105.691 57.8291 105.802 57.6444C105.913 57.4597 105.986 57.2549 106.017 57.0417C106.049 56.8286 106.038 56.6114 105.985 56.4026Z" fill="#00955F"/>
    </g>
    <defs>
    <clipPath id="clip0_2751_21076">
    <rect width="106" height="106" fill="white"/>
    </clipPath>
    </defs>
    </svg>
    