<svg viewBox="0 0 27 24" width="14" height="12" fill="none" xmlns="http://www.w3.org/2000/svg">
<path d="M9.14634 17.8955L9.14563 17.8962C9.09917 17.9429 9.04397 17.9799 8.98317 18.0051C8.92238 18.0304 8.85721 18.0434 8.79138 18.0434C8.72555 18.0434 8.66037 18.0304 8.59958 18.0051C8.53879 17.9799 8.48358 17.9429 8.43713 17.8962L8.4366 17.8957L3.09313 12.5472C3.09304 12.5471 3.09296 12.547 3.09288 12.547C2.95356 12.4072 2.78803 12.2962 2.60577 12.2205C2.42339 12.1448 2.22786 12.1058 2.03038 12.1058C1.8329 12.1058 1.63736 12.1448 1.45499 12.2205C1.27292 12.2962 1.10754 12.4069 0.968323 12.5465C0.828735 12.6857 0.717961 12.8511 0.642336 13.0332C0.566583 13.2156 0.527588 13.4111 0.527588 13.6086C0.527588 13.806 0.566583 14.0016 0.642336 14.184C0.718014 14.3662 0.828891 14.5316 0.968616 14.6709C0.968751 14.6711 0.968886 14.6712 0.969021 14.6713L6.31436 20.0157L6.31465 20.016C6.97234 20.6724 7.86363 21.0411 8.79288 21.0411C9.72213 21.0411 10.6134 20.6724 11.2711 20.016L11.2714 20.0157L25.089 6.20107C25.089 6.20105 25.089 6.20102 25.0891 6.201C25.2287 6.06168 25.3395 5.89618 25.4151 5.71397C25.4907 5.53173 25.5297 5.33637 25.5297 5.13907C25.5297 4.94177 25.4907 4.7464 25.4151 4.56417C25.3396 4.38216 25.2289 4.21682 25.0895 4.07759C24.9503 3.93797 24.7849 3.82717 24.6028 3.75153C24.4204 3.67577 24.2249 3.63678 24.0274 3.63678C23.8299 3.63678 23.6344 3.67577 23.452 3.75153C23.2697 3.82725 23.1041 3.93821 22.9648 4.07805C22.9647 4.07811 22.9647 4.07816 22.9646 4.07822L9.14634 17.8955Z" fill="currentColor" stroke="currentColor   "/>
</svg>
