<?xml version="1.0" encoding="UTF-8" standalone="no"?>
<svg

   viewBox="0 0 24 24"
   fill="none"
   version="1.1"
   id="svg3"
   xml:space="preserve"
   xmlns="http://www.w3.org/2000/svg"
   xmlns:svg="http://www.w3.org/2000/svg"><rect
     width="24"
     height="24"
     rx="12"
     fill="url(#paint0_linear_1446_31948)"
     id="rect1" /><defs
     id="defs3"><linearGradient
       id="paint0_linear_1446_31948"
       x1="6"
       y1="0"
       x2="22"
       y2="24"
       gradientUnits="userSpaceOnUse"><stop
         stop-color="#B9846F"
         id="stop1" /><stop
         offset="0.276451"
         stop-color="#EFD0B6"
         id="stop2" /><stop
         offset="1"
         stop-color="#B08271"
         id="stop3" /></linearGradient></defs><g
     style="fill:none"
     id="g3"
     transform="matrix(0.5,0,0,0.5,5.485678,5.83053)"><path
       d="m 9.14634,17.8955 -7.1e-4,7e-4 c -0.04646,0.0467 -0.10166,0.0837 -0.16246,0.1089 -0.06079,0.0253 -0.12596,0.0383 -0.19179,0.0383 -0.06583,0 -0.13101,-0.013 -0.1918,-0.0383 -0.06079,-0.0252 -0.116,-0.0622 -0.16245,-0.1089 l -5.3e-4,-5e-4 -5.34347,-5.3485 c -9e-5,-10e-5 -1.7e-4,-2e-4 -2.5e-4,-2e-4 C 2.95356,12.4072 2.78803,12.2962 2.60577,12.2205 2.42339,12.1448 2.22786,12.1058 2.03038,12.1058 c -0.19748,0 -0.39302,0.039 -0.57539,0.1147 -0.18207,0.0757 -0.34745,0.1864 -0.486667,0.326 -0.139588,0.1392 -0.250362,0.3046 -0.325987,0.4867 -0.075753,0.1824 -0.114748,0.3779 -0.114748,0.5754 0,0.1974 0.038995,0.393 0.114748,0.5754 0.075678,0.1822 0.186555,0.3476 0.32628,0.4869 1.35e-4,2e-4 2.7e-4,3e-4 4.05e-4,4e-4 l 5.345339,5.3444 2.9e-4,3e-4 c 0.65769,0.6564 1.54898,1.0251 2.47823,1.0251 0.92925,0 1.82052,-0.3687 2.47822,-1.0251 l 3e-4,-3e-4 L 25.089,6.20107 c 0,-2e-5 0,-5e-5 10e-5,-7e-5 0.1396,-0.13932 0.2504,-0.30482 0.326,-0.48703 0.0756,-0.18224 0.1146,-0.3776 0.1146,-0.5749 0,-0.1973 -0.039,-0.39267 -0.1146,-0.5749 C 25.3396,4.38216 25.2289,4.21682 25.0895,4.07759 24.9503,3.93797 24.7849,3.82717 24.6028,3.75153 24.4204,3.67577 24.2249,3.63678 24.0274,3.63678 c -0.1975,0 -0.393,0.03899 -0.5754,0.11475 -0.1823,0.07572 -0.3479,0.18668 -0.4872,0.32652 -10e-5,6e-5 -10e-5,1.1e-4 -2e-4,1.7e-4 z"
       stroke="#FEFEFC"
         fill="#FEFEFC"
       id="path1-3"
                     /></g></svg>
