<svg viewBox="0 0 18 18" fill="none" xmlns="http://www.w3.org/2000/svg">
<rect width="18" height="18" rx="9" fill="#00955F"/>
<g clip-path="url(#clip0_1446_32111)">
<path d="M12.946 6.10593L7.66226 11.3893C7.62673 11.4249 7.58452 11.4532 7.53803 11.4726C7.49154 11.4919 7.4417 11.5018 7.39136 11.5018C7.34102 11.5018 7.29118 11.4919 7.24469 11.4726C7.1982 11.4532 7.15599 11.4249 7.12046 11.3893L5.07717 9.34408C5.04164 9.30841 4.99943 9.28011 4.95294 9.2608C4.90645 9.2415 4.85661 9.23156 4.80627 9.23156C4.75593 9.23156 4.70609 9.2415 4.6596 9.2608C4.61312 9.28011 4.5709 9.30841 4.53537 9.34408C4.49971 9.3796 4.47141 9.42182 4.4521 9.46831C4.43279 9.51479 4.42285 9.56464 4.42285 9.61497C4.42285 9.66531 4.43279 9.71516 4.4521 9.76164C4.47141 9.80813 4.49971 9.85035 4.53537 9.88587L6.57943 11.9295C6.79506 12.1448 7.08727 12.2657 7.39193 12.2657C7.69659 12.2657 7.98881 12.1448 8.20443 11.9295L13.4878 6.64734C13.5234 6.61183 13.5516 6.56963 13.5709 6.52318C13.5902 6.47673 13.6001 6.42693 13.6001 6.37664C13.6001 6.32634 13.5902 6.27655 13.5709 6.23009C13.5516 6.18364 13.5234 6.14145 13.4878 6.10593C13.4523 6.07027 13.41 6.04197 13.3636 6.02266C13.3171 6.00335 13.2672 5.99341 13.2169 5.99341C13.1666 5.99341 13.1167 6.00335 13.0702 6.02266C13.0237 6.04197 12.9815 6.07027 12.946 6.10593Z" fill="#FEFEFC"/>
</g>
<defs>
<clipPath id="clip0_1446_32111">
<rect width="9.17647" height="9.17647" fill="white" transform="translate(4.41211 4.41174)"/>
</clipPath>
</defs>
</svg>
