<svg  viewBox="0 0 18 18" fill="none" xmlns="http://www.w3.org/2000/svg">
<rect width="18" height="18" rx="9" fill="#DC2626"/>
<g clip-path="url(#clip0_1446_32133)">
<path d="M13.4765 4.52381C13.4048 4.45213 13.3075 4.41187 13.2061 4.41187C13.1048 4.41187 13.0075 4.45213 12.9358 4.52381L9.00026 8.45937L5.0647 4.52381C4.993 4.45213 4.89577 4.41187 4.79438 4.41187C4.69299 4.41187 4.59576 4.45213 4.52406 4.52381C4.45238 4.59551 4.41211 4.69275 4.41211 4.79414C4.41211 4.89552 4.45238 4.99276 4.52406 5.06446L8.45962 9.00002L4.52406 12.9356C4.45238 13.0073 4.41211 13.1045 4.41211 13.2059C4.41211 13.3073 4.45238 13.4045 4.52406 13.4762C4.59576 13.5479 4.69299 13.5882 4.79438 13.5882C4.89577 13.5882 4.993 13.5479 5.0647 13.4762L9.00026 9.54067L12.9358 13.4762C13.0075 13.5479 13.1048 13.5882 13.2061 13.5882C13.3075 13.5882 13.4048 13.5479 13.4765 13.4762C13.5481 13.4045 13.5884 13.3073 13.5884 13.2059C13.5884 13.1045 13.5481 13.0073 13.4765 12.9356L9.54091 9.00002L13.4765 5.06446C13.5481 4.99276 13.5884 4.89552 13.5884 4.79414C13.5884 4.69275 13.5481 4.59551 13.4765 4.52381Z" fill="#FEFEFC"/>
</g>
<defs>
<clipPath id="clip0_1446_32133">
<rect width="9.17647" height="9.17647" fill="white" transform="translate(4.41211 4.41174)"/>
</clipPath>
</defs>
</svg>
