<svg viewBox="0 0 40 39" fill="none" xmlns="http://www.w3.org/2000/svg">
<g clip-path="url(#clip0_2445_8790)">
<path d="M38.2734 35.75H36.6484V22.75C36.6459 20.5959 35.789 18.5308 34.2658 17.0076C32.7427 15.4844 30.6775 14.6276 28.5234 14.625L22.0234 14.625L22.0234 9.81338C22.7473 9.49744 23.3634 8.97734 23.7964 8.31671C24.2293 7.65609 24.4602 6.88359 24.4609 6.09375C24.022 4.01664 23.0331 2.09558 21.5977 0.531379C21.4454 0.364864 21.2602 0.231881 21.0537 0.140899C20.8472 0.0499169 20.6241 0.00292969 20.3984 0.00292969C20.1728 0.00292969 19.9497 0.0499169 19.7432 0.140899C19.5367 0.231881 19.3514 0.364864 19.1992 0.531379C17.7638 2.09558 16.7749 4.01664 16.3359 6.09375C16.3367 6.88359 16.5676 7.65609 17.0005 8.31671C17.4334 8.97734 18.0495 9.49744 18.7734 9.81338L18.7734 14.625L12.2734 14.625C10.1193 14.6276 8.05422 15.4844 6.53104 17.0076C5.00787 18.5308 4.15102 20.5959 4.14844 22.75L4.14844 35.75H2.52344C2.09246 35.75 1.67914 35.9212 1.37439 36.226C1.06964 36.5307 0.898438 36.944 0.898438 37.375C0.898438 37.806 1.06964 38.2193 1.37439 38.5241C1.67914 38.8288 2.09246 39 2.52344 39L38.2734 39C38.7044 39 39.1177 38.8288 39.4225 38.5241C39.7272 38.2193 39.8984 37.806 39.8984 37.375C39.8984 36.944 39.7272 36.5307 39.4225 36.226C39.1177 35.9212 38.7044 35.75 38.2734 35.75ZM12.2734 17.875H28.5234C29.8164 17.875 31.0563 18.3886 31.9706 19.3029C32.8848 20.2171 33.3984 21.4571 33.3984 22.75V25.9675C31.8774 25.805 30.9609 24.83 30.9609 24.375C30.9609 23.944 30.7897 23.5307 30.485 23.226C30.1802 22.9212 29.7669 22.75 29.3359 22.75C28.905 22.75 28.4916 22.9212 28.1869 23.226C27.8821 23.5307 27.7109 23.944 27.7109 24.375C27.7109 24.9324 26.6027 26 24.8672 26C23.0976 26 22.0234 24.8723 22.0234 24.375C22.0234 23.944 21.8522 23.5307 21.5475 23.226C21.2427 22.9212 20.8294 22.75 20.3984 22.75C19.9675 22.75 19.5541 22.9212 19.2494 23.226C18.9446 23.5307 18.7734 23.944 18.7734 24.375C18.7734 24.9324 17.6652 26 15.9297 26C14.1601 26 13.0859 24.8723 13.0859 24.375C13.0859 23.944 12.9147 23.5307 12.61 23.226C12.3052 22.9212 11.8919 22.75 11.4609 22.75C11.03 22.75 10.6166 22.9212 10.3119 23.226C10.0071 23.5307 9.83594 23.944 9.83594 24.375C9.83594 24.8869 8.89506 25.818 7.39844 25.9691L7.39844 22.75C7.39844 21.4571 7.91205 20.2171 8.82629 19.3029C9.74053 18.3886 10.9805 17.875 12.2734 17.875ZM7.39844 29.2159C8.89132 29.1496 10.3201 28.5901 11.4609 27.625C12.7144 28.6699 14.2934 29.2441 15.9253 29.2486C17.5571 29.253 19.1393 28.6874 20.3984 27.6494C21.6576 28.6874 23.2397 29.253 24.8716 29.2486C26.5034 29.2441 28.0825 28.6699 29.3359 27.625C30.477 28.5896 31.9058 29.1485 33.3984 29.2143V35.75L7.39844 35.75L7.39844 29.2159Z" fill="url(#paint0_linear_2445_8790)"/>
</g>
<defs>
<linearGradient id="paint0_linear_2445_8790" x1="10.6484" y1="0.00292969" x2="36.6457" y2="39.0018" gradientUnits="userSpaceOnUse">
<stop stop-color="#B9846F"/>
<stop offset="0.276451" stop-color="#EFD0B6"/>
<stop offset="1" stop-color="#B08271"/>
</linearGradient>
<clipPath id="clip0_2445_8790">
<rect width="39" height="39" fill="white" transform="translate(0.898438)"/>
</clipPath>
</defs>
</svg>
