<svg width="40" height="39" viewBox="0 0 40 39" fill="none" xmlns="http://www.w3.org/2000/svg">
<g clip-path="url(#clip0_2445_17668)">
<path d="M11.4726 39.001C13.2676 39.001 14.7226 37.5459 14.7226 35.751C14.7226 33.956 13.2676 32.501 11.4726 32.501C9.67773 32.501 8.22266 33.956 8.22266 35.751C8.22266 37.5459 9.67773 39.001 11.4726 39.001Z" fill="url(#paint0_linear_2445_17668)"/>
<path d="M27.7227 39.001C29.5176 39.001 30.9726 37.5459 30.9726 35.751C30.9726 33.956 29.5176 32.501 27.7227 32.501C25.9277 32.501 24.4727 33.956 24.4727 35.751C24.4727 37.5459 25.9277 39.001 27.7227 39.001Z" fill="url(#paint1_linear_2445_17668)"/>
<path d="M38.5841 2.17011C38.2794 1.86547 37.8662 1.69434 37.4353 1.69434C37.0044 1.69434 36.5911 1.86547 36.2864 2.17011L27.903 10.5616L25.3826 7.93074C25.2348 7.77688 25.058 7.65365 24.8625 7.5681C24.667 7.48254 24.4566 7.43633 24.2432 7.43211C24.0298 7.42788 23.8177 7.46573 23.619 7.54347C23.4202 7.62122 23.2387 7.73735 23.0849 7.88524C22.931 8.03312 22.8078 8.20987 22.7222 8.40537C22.6367 8.60088 22.5905 8.81132 22.5863 9.02469C22.5777 9.4556 22.7407 9.87225 23.0394 10.183L25.6621 12.9114C25.9416 13.2132 26.2794 13.4552 26.655 13.6228C27.0307 13.7904 27.4365 13.8801 27.8478 13.8864H27.9014C28.3045 13.8877 28.7038 13.8089 29.0762 13.6547C29.4486 13.5004 29.7867 13.2737 30.0708 12.9877L38.5841 4.46786C38.8888 4.16313 39.0599 3.74988 39.0599 3.31899C39.0599 2.8881 38.8888 2.47485 38.5841 2.17011Z" fill="url(#paint2_linear_2445_17668)"/>
<path d="M35.6852 14.651C35.4751 14.613 35.2595 14.6169 35.0509 14.6622C34.8423 14.7076 34.6447 14.7936 34.4693 14.9154C34.2939 15.0372 34.1443 15.1923 34.0289 15.372C33.9136 15.5516 33.8347 15.7522 33.7969 15.9624L33.5889 17.1145C33.3862 18.2395 32.7946 19.2575 31.9174 19.9906C31.0403 20.7237 29.9334 21.1252 28.7903 21.125L8.90191 21.125L7.37441 8.125L17.9727 8.125C18.4036 8.125 18.817 7.95379 19.1217 7.64905C19.4265 7.3443 19.5977 6.93098 19.5977 6.5C19.5977 6.06902 19.4265 5.6557 19.1217 5.35095C18.817 5.0462 18.4036 4.875 17.9727 4.875L6.99091 4.875L6.92266 4.303C6.78262 3.11772 6.21263 2.025 5.32071 1.23192C4.42879 0.438838 3.27693 0.000508359 2.08341 0L1.72266 0C1.29168 0 0.878354 0.171205 0.573608 0.475951C0.268861 0.780698 0.0976563 1.19402 0.0976563 1.625C0.0976563 2.05598 0.268861 2.4693 0.573608 2.77405C0.878354 3.0788 1.29168 3.25 1.72266 3.25H2.08341C2.48142 3.25005 2.86558 3.39618 3.16301 3.66066C3.46044 3.92515 3.65046 4.28959 3.69703 4.68488L5.93303 23.6974C6.16517 25.6747 7.11518 27.4979 8.60276 28.821C10.0903 30.1441 12.0119 30.875 14.0028 30.875H30.9727C31.4036 30.875 31.817 30.7038 32.1217 30.399C32.4265 30.0943 32.5977 29.681 32.5977 29.25C32.5977 28.819 32.4265 28.4057 32.1217 28.101C31.817 27.7962 31.4036 27.625 30.9727 27.625H14.0028C12.9945 27.6252 12.011 27.3127 11.1876 26.7307C10.3643 26.1486 9.74175 25.3256 9.40566 24.375L28.7903 24.375C30.6953 24.3751 32.5397 23.7059 34.0014 22.4842C35.463 21.2625 36.449 19.5661 36.7869 17.6914L36.9949 16.5376C37.0711 16.1138 36.976 15.677 36.7304 15.3233C36.4848 14.9695 36.1089 14.7277 35.6852 14.651Z" fill="url(#paint3_linear_2445_17668)"/>
</g>
<defs>
<linearGradient id="paint0_linear_2445_17668" x1="9.84765" y1="32.501" x2="14.181" y2="39.001" gradientUnits="userSpaceOnUse">
<stop stop-color="#B9846F"/>
<stop offset="0.276451" stop-color="#EFD0B6"/>
<stop offset="1" stop-color="#B08271"/>
</linearGradient>
<linearGradient id="paint1_linear_2445_17668" x1="26.0977" y1="32.501" x2="30.431" y2="39.001" gradientUnits="userSpaceOnUse">
<stop stop-color="#B9846F"/>
<stop offset="0.276451" stop-color="#EFD0B6"/>
<stop offset="1" stop-color="#B08271"/>
</linearGradient>
<linearGradient id="paint2_linear_2445_17668" x1="26.7044" y1="1.69434" x2="33.6923" y2="15.8574" gradientUnits="userSpaceOnUse">
<stop stop-color="#B9846F"/>
<stop offset="0.276451" stop-color="#EFD0B6"/>
<stop offset="1" stop-color="#B08271"/>
</linearGradient>
<linearGradient id="paint3_linear_2445_17668" x1="9.32839" y1="0" x2="28.2955" y2="34.0237" gradientUnits="userSpaceOnUse">
<stop stop-color="#B9846F"/>
<stop offset="0.276451" stop-color="#EFD0B6"/>
<stop offset="1" stop-color="#B08271"/>
</linearGradient>
<clipPath id="clip0_2445_17668">
<rect width="39" height="39" fill="white" transform="translate(0.0976562)"/>
</clipPath>
</defs>
</svg>
