<svg width="40" height="39" viewBox="0 0 40 39" fill="none" xmlns="http://www.w3.org/2000/svg">
<g clip-path="url(#clip0_2445_11024)">
<path d="M31.7734 0L9.02344 0C6.86935 0.00258027 4.80422 0.859433 3.28104 2.38261C1.75787 3.90578 0.901018 5.97091 0.898438 8.125L0.898438 30.875C0.901018 33.0291 1.75787 35.0942 3.28104 36.6174C4.80422 38.1406 6.86935 38.9974 9.02344 39L31.7734 39C33.9275 38.9974 35.9927 38.1406 37.5158 36.6174C39.039 35.0942 39.8959 33.0291 39.8984 30.875L39.8984 8.125C39.8959 5.97091 39.039 3.90578 37.5158 2.38261C35.9927 0.859433 33.9275 0.00258027 31.7734 0V0ZM9.02344 3.25L31.7734 3.25C33.0664 3.25 34.3063 3.76361 35.2206 4.67785C36.1348 5.59209 36.6484 6.83207 36.6484 8.125L36.6484 30.875C36.6456 31.5989 36.479 32.3128 36.1609 32.9631L21.2711 18.0732C20.5166 17.3185 19.6208 16.7199 18.6349 16.3114C17.649 15.903 16.5922 15.6927 15.5251 15.6927C14.4579 15.6927 13.4012 15.903 12.4153 16.3114C11.4294 16.7199 10.5336 17.3185 9.77906 18.0732L4.14844 23.7023L4.14844 8.125C4.14844 6.83207 4.66205 5.59209 5.57629 4.67785C6.49053 3.76361 7.73051 3.25 9.02344 3.25ZM9.02344 35.75C7.73051 35.75 6.49053 35.2364 5.57629 34.3221C4.66205 33.4079 4.14844 32.1679 4.14844 30.875L4.14844 28.2977L12.0752 20.371C12.5279 19.918 13.0655 19.5586 13.6571 19.3134C14.2488 19.0682 14.883 18.942 15.5234 18.942C16.1639 18.942 16.7981 19.0682 17.3897 19.3134C17.9814 19.5586 18.519 19.918 18.9717 20.371L33.8616 35.2625C33.2112 35.5805 32.4974 35.7472 31.7734 35.75L9.02344 35.75Z" fill="url(#paint0_linear_2445_11024)"/>
<path d="M26.8984 17.062C28.0233 17.062 29.1229 16.7284 30.0582 16.1035C30.9935 15.4785 31.7225 14.5903 32.153 13.551C32.5835 12.5118 32.6961 11.3682 32.4767 10.2649C32.2572 9.16167 31.7155 8.14826 30.9201 7.35285C30.1247 6.55743 29.1113 6.01575 28.008 5.7963C26.9047 5.57684 25.7612 5.68948 24.7219 6.11995C23.6827 6.55042 22.7944 7.2794 22.1695 8.21471C21.5445 9.15001 21.2109 10.2496 21.2109 11.3745C21.2109 12.8829 21.8102 14.3296 22.8768 15.3962C23.9434 16.4628 25.39 17.062 26.8984 17.062ZM26.8984 8.93701C27.3805 8.93701 27.8518 9.07997 28.2526 9.34781C28.6535 9.61564 28.9659 9.99633 29.1504 10.4417C29.3349 10.8871 29.3832 11.3772 29.2891 11.85C29.1951 12.3229 28.9629 12.7572 28.622 13.0981C28.2811 13.439 27.8468 13.6711 27.374 13.7652C26.9011 13.8592 26.411 13.811 25.9656 13.6265C25.5203 13.442 25.1396 13.1296 24.8717 12.7287C24.6039 12.3279 24.4609 11.8566 24.4609 11.3745C24.4609 10.728 24.7177 10.1081 25.1749 9.65094C25.632 9.19382 26.252 8.93701 26.8984 8.93701Z" fill="url(#paint1_linear_2445_11024)"/>
</g>
<defs>
<linearGradient id="paint0_linear_2445_11024" x1="10.6484" y1="0" x2="36.6484" y2="39" gradientUnits="userSpaceOnUse">
<stop stop-color="#B9846F"/>
<stop offset="0.276451" stop-color="#EFD0B6"/>
<stop offset="1" stop-color="#B08271"/>
</linearGradient>
<linearGradient id="paint1_linear_2445_11024" x1="24.0547" y1="5.68701" x2="31.638" y2="17.062" gradientUnits="userSpaceOnUse">
<stop stop-color="#B9846F"/>
<stop offset="0.276451" stop-color="#EFD0B6"/>
<stop offset="1" stop-color="#B08271"/>
</linearGradient>
<clipPath id="clip0_2445_11024">
<rect width="39" height="39" fill="white" transform="translate(0.898438)"/>
</clipPath>
</defs>
</svg>
