<svg width="40" height="39" viewBox="0 0 40 39" fill="none" xmlns="http://www.w3.org/2000/svg">
<g clip-path="url(#clip0_2445_13040)">
<path d="M31.1758 39L8.42578 39C6.27169 38.9974 4.20656 38.1406 2.68339 36.6174C1.16021 35.0942 0.303362 33.0291 0.300781 30.875L0.300781 8.125C0.303362 5.97091 1.16021 3.90578 2.68339 2.38261C4.20656 0.859433 6.27169 0.00258027 8.42578 0L31.1758 0C33.3299 0.00258027 35.395 0.859433 36.9182 2.38261C38.4413 3.90578 39.2982 5.97091 39.3008 8.125L39.3008 30.875C39.2982 33.0291 38.4413 35.0942 36.9182 36.6174C35.395 38.1406 33.3299 38.9974 31.1758 39ZM8.42578 3.25C7.13285 3.25 5.89288 3.76361 4.97864 4.67785C4.0644 5.59209 3.55078 6.83207 3.55078 8.125L3.55078 30.875C3.55078 32.1679 4.0644 33.4079 4.97864 34.3221C5.89288 35.2364 7.13285 35.75 8.42578 35.75L31.1758 35.75C32.4687 35.75 33.7087 35.2364 34.6229 34.3221C35.5372 33.4079 36.0508 32.1679 36.0508 30.875L36.0508 8.125C36.0508 6.83207 35.5372 5.59209 34.6229 4.67785C33.7087 3.76361 32.4687 3.25 31.1758 3.25L8.42578 3.25ZM15.4815 27.6331C14.8041 27.6309 14.1393 27.4498 13.5543 27.1082C12.9763 26.7775 12.4967 26.2991 12.1643 25.722C11.832 25.145 11.6589 24.49 11.6628 23.8241L11.6628 15.1759C11.6622 14.5099 11.8368 13.8554 12.1691 13.2782C12.5014 12.701 12.9796 12.2213 13.5558 11.8873C14.132 11.5532 14.7859 11.3766 15.4519 11.3751C16.1179 11.3736 16.7726 11.5473 17.3503 11.8787L25.927 16.1606C26.5228 16.4822 27.0217 16.9573 27.372 17.5367C27.7224 18.116 27.9114 18.7785 27.9195 19.4554C27.9277 20.1324 27.7546 20.7993 27.4182 21.3868C27.0819 21.9744 26.5945 22.4613 26.0067 22.7971L17.2707 27.1635C16.7258 27.4743 16.1088 27.6362 15.4815 27.6331ZM15.4409 14.6331C15.3513 14.6331 15.2634 14.6566 15.1858 14.7014C15.1015 14.7482 15.0316 14.8172 14.9835 14.9008C14.9354 14.9844 14.9109 15.0795 14.9128 15.1759L14.9128 23.8241C14.9133 23.9191 14.9386 24.0123 14.986 24.0946C15.0335 24.1769 15.1016 24.2454 15.1835 24.2934C15.2655 24.3415 15.3585 24.3673 15.4535 24.3685C15.5485 24.3697 15.6421 24.3462 15.7253 24.3003L24.4613 19.9322C24.5263 19.8814 24.5781 19.8154 24.612 19.7402C24.646 19.6649 24.6612 19.5825 24.6563 19.5C24.6583 19.4033 24.6338 19.308 24.5854 19.2243C24.5369 19.1407 24.4665 19.0719 24.3817 19.0255L15.8114 14.7436C15.6997 14.6751 15.5719 14.637 15.4409 14.6331Z" fill="url(#paint0_linear_2445_13040)"/>
</g>
<defs>
<linearGradient id="paint0_linear_2445_13040" x1="10.0508" y1="0" x2="36.0508" y2="39" gradientUnits="userSpaceOnUse">
<stop stop-color="#B9846F"/>
<stop offset="0.276451" stop-color="#EFD0B6"/>
<stop offset="1" stop-color="#B08271"/>
</linearGradient>
<clipPath id="clip0_2445_13040">
<rect width="39" height="39" fill="white" transform="translate(0.300781)"/>
</clipPath>
</defs>
</svg>
