<svg width="40" height="39" viewBox="0 0 40 39" fill="none" xmlns="http://www.w3.org/2000/svg">
<g clip-path="url(#clip0_2445_5633)">
<path d="M13.5 6.49902L7 6.49902C5.27609 6.49902 3.62279 7.18384 2.40381 8.40283C1.18482 9.62182 0.5 11.2751 0.5 12.999L0.5 19.499C0.5 20.361 0.84241 21.1876 1.4519 21.7971C2.0614 22.4066 2.88805 22.749 3.75 22.749L13.3538 22.749C12.9682 25.0184 11.7929 27.0785 10.0356 28.5652C8.2782 30.052 6.0519 30.8698 3.75 30.874C3.31902 30.874 2.9057 31.0452 2.60095 31.35C2.2962 31.6547 2.125 32.068 2.125 32.499C2.125 32.93 2.2962 33.3433 2.60095 33.6481C2.9057 33.9528 3.31902 34.124 3.75 34.124C7.19663 34.1202 10.501 32.7493 12.9381 30.3121C15.3752 27.875 16.7461 24.5707 16.75 21.124L16.75 9.74902C16.75 8.88707 16.4076 8.06042 15.7981 7.45093C15.1886 6.84143 14.362 6.49902 13.5 6.49902Z" fill="url(#paint0_linear_2445_5633)"/>
<path d="M36.25 6.49902L29.75 6.49902C28.0261 6.49902 26.3728 7.18384 25.1538 8.40283C23.9348 9.62182 23.25 11.2751 23.25 12.999L23.25 19.499C23.25 20.361 23.5924 21.1876 24.2019 21.7971C24.8114 22.4066 25.638 22.749 26.5 22.749L36.1038 22.749C35.7182 25.0184 34.5429 27.0785 32.7855 28.5652C31.0282 30.052 28.8019 30.8698 26.5 30.874C26.069 30.874 25.6557 31.0452 25.351 31.35C25.0462 31.6547 24.875 32.068 24.875 32.499C24.875 32.93 25.0462 33.3433 25.351 33.6481C25.6557 33.9528 26.069 34.124 26.5 34.124C29.9466 34.1202 33.251 32.7493 35.6881 30.3121C38.1252 27.875 39.4961 24.5707 39.5 21.124V9.74902C39.5 8.88707 39.1576 8.06042 38.5481 7.45093C37.9386 6.84143 37.112 6.49902 36.25 6.49902Z" fill="url(#paint1_linear_2445_5633)"/>
</g>
<defs>
<linearGradient id="paint0_linear_2445_5633" x1="4.5625" y1="6.49902" x2="24.3586" y2="23.9662" gradientUnits="userSpaceOnUse">
<stop stop-color="#B9846F"/>
<stop offset="0.276451" stop-color="#EFD0B6"/>
<stop offset="1" stop-color="#B08271"/>
</linearGradient>
<linearGradient id="paint1_linear_2445_5633" x1="27.3125" y1="6.49902" x2="47.1086" y2="23.9662" gradientUnits="userSpaceOnUse">
<stop stop-color="#B9846F"/>
<stop offset="0.276451" stop-color="#EFD0B6"/>
<stop offset="1" stop-color="#B08271"/>
</linearGradient>
<clipPath id="clip0_2445_5633">
<rect width="39" height="39" fill="white" transform="translate(0.5)"/>
</clipPath>
</defs>
</svg>
