<svg viewBox="0 0 40 39" fill="none" xmlns="http://www.w3.org/2000/svg">
<g clip-path="url(#clip0_2445_17681)">
<path d="M20 3.24996C22.1555 3.25703 24.2883 3.69154 26.2748 4.52833C28.2614 5.36512 30.0623 6.58758 31.5732 8.12496L26.5 8.12496C26.069 8.12496 25.6557 8.29617 25.3509 8.60091C25.0462 8.90566 24.875 9.31898 24.875 9.74996C24.875 10.1809 25.0462 10.5943 25.3509 10.899C25.6557 11.2038 26.069 11.375 26.5 11.375L33.2323 11.375C34.0325 11.3745 34.7998 11.0565 35.3656 10.4906C35.9315 9.92482 36.2495 9.15753 36.25 8.35734V1.62496C36.25 1.19398 36.0788 0.780658 35.774 0.475912C35.4693 0.171165 35.0559 -3.98393e-05 34.625 -3.98393e-05C34.194 -3.98393e-05 33.7807 0.171165 33.4759 0.475912C33.1712 0.780658 33 1.19398 33 1.62496V5.00171C30.3141 2.58282 27.0079 0.959376 23.4516 0.313177C19.8953 -0.333021 16.2294 0.0235421 12.8642 1.34294C9.49912 2.66233 6.56774 4.89246 4.39836 7.78359C2.22897 10.6747 0.907256 14.1127 0.581213 17.7125C0.560223 17.9388 0.586601 18.1669 0.658665 18.3825C0.730729 18.598 0.8469 18.7962 0.999774 18.9643C1.15265 19.1325 1.33888 19.267 1.54659 19.3592C1.7543 19.4514 1.97895 19.4994 2.20621 19.5C2.60367 19.505 2.98871 19.3616 3.28596 19.0977C3.58321 18.8338 3.77127 18.4685 3.81334 18.0732C4.17508 14.0282 6.0363 10.2646 9.03134 7.52182C12.0264 4.77904 15.9388 3.25531 20 3.24996Z" fill="url(#paint0_linear_2445_17681)"/>
<path d="M37.7954 19.5004C37.3979 19.4953 37.0129 19.6388 36.7156 19.9027C36.4184 20.1665 36.2303 20.5319 36.1883 20.9271C35.9196 24.0199 34.7695 26.9707 32.8743 29.4295C30.9791 31.8883 28.4184 33.7518 25.496 34.7991C22.5736 35.8463 19.4121 36.0333 16.3866 35.3378C13.3611 34.6424 10.5986 33.0936 8.42675 30.8754H13.5C13.931 30.8754 14.3443 30.7042 14.649 30.3994C14.9538 30.0947 15.125 29.6814 15.125 29.2504C15.125 28.8194 14.9538 28.4061 14.649 28.1013C14.3443 27.7966 13.931 27.6254 13.5 27.6254H6.76763C6.37129 27.6252 5.97879 27.7031 5.61258 27.8547C5.24637 28.0062 4.91362 28.2285 4.63337 28.5088C4.35311 28.789 4.13084 29.1218 3.97927 29.488C3.82769 29.8542 3.74979 30.2467 3.75 30.643L3.75 37.3754C3.75 37.8064 3.92121 38.2197 4.22595 38.5245C4.5307 38.8292 4.94402 39.0004 5.375 39.0004C5.80598 39.0004 6.2193 38.8292 6.52405 38.5245C6.8288 38.2197 7 37.8064 7 37.3754L7 33.9987C9.68585 36.4176 12.992 38.041 16.5483 38.6872C20.1046 39.3334 23.7706 38.9768 27.1357 37.6574C30.5008 36.338 33.4322 34.1079 35.6016 31.2168C37.771 28.3256 39.0927 24.8877 39.4188 21.2879C39.4397 21.0616 39.4134 20.8334 39.3413 20.6179C39.2692 20.4023 39.1531 20.2042 39.0002 20.036C38.8473 19.8678 38.6611 19.7334 38.4534 19.6411C38.2457 19.5489 38.021 19.501 37.7938 19.5004H37.7954Z" fill="url(#paint1_linear_2445_17681)"/>
</g>
<defs>
<linearGradient id="paint0_linear_2445_17681" x1="9.49315" y1="-0.000488281" x2="18.5543" y2="24.8651" gradientUnits="userSpaceOnUse">
<stop stop-color="#B9846F"/>
<stop offset="0.276451" stop-color="#EFD0B6"/>
<stop offset="1" stop-color="#B08271"/>
</linearGradient>
<linearGradient id="paint1_linear_2445_17681" x1="12.6689" y1="19.5002" x2="21.7301" y2="44.3659" gradientUnits="userSpaceOnUse">
<stop stop-color="#B9846F"/>
<stop offset="0.276451" stop-color="#EFD0B6"/>
<stop offset="1" stop-color="#B08271"/>
</linearGradient>
<clipPath id="clip0_2445_17681">
<rect width="39" height="39" fill="white" transform="translate(0.5)"/>
</clipPath>
</defs>
</svg>
