<svg width="40" height="39" viewBox="0 0 40 39" fill="none" xmlns="http://www.w3.org/2000/svg">
<g clip-path="url(#clip0_2445_15572)">
<path d="M39.6992 26L39.6992 25.7887C39.6923 25.0615 39.4441 24.3571 38.9935 23.7863C38.5429 23.2154 37.9155 22.8103 37.2097 22.6346C36.5226 22.4465 35.9163 22.0378 35.4842 21.4714C35.0521 20.9051 34.818 20.2124 34.818 19.5C34.818 18.7876 35.0521 18.0949 35.4842 17.5286C35.9163 16.9622 36.5226 16.5535 37.2097 16.3654C37.9155 16.1897 38.5429 15.7846 38.9935 15.2137C39.4441 14.6429 39.6923 13.9385 39.6992 13.2113L39.6992 13C39.6966 10.8459 38.8398 8.78078 37.3166 7.25761C35.7934 5.73443 33.7283 4.87758 31.5742 4.875L5.57422 4.875C4.28129 4.875 3.04131 5.38861 2.12707 6.30285C1.21283 7.21709 0.699219 8.45707 0.699219 9.75L0.699218 13.2112C0.706127 13.9385 0.954364 14.6429 1.40496 15.2137C1.85554 15.7846 2.48297 16.1897 3.18872 16.3654C3.87583 16.5535 4.48209 16.9622 4.91423 17.5286C5.34637 18.0949 5.58045 18.7876 5.58045 19.5C5.58045 20.2124 5.34637 20.9051 4.91423 21.4714C4.48209 22.0378 3.87583 22.4465 3.18872 22.6346C2.48297 22.8103 1.85554 23.2154 1.40496 23.7863C0.954364 24.3571 0.706126 25.0615 0.699218 25.7887L0.699218 29.25C0.699218 30.5429 1.21283 31.7829 2.12707 32.6971C3.04131 33.6114 4.28129 34.125 5.57422 34.125L31.5742 34.125C33.7283 34.1224 35.7934 33.2656 37.3166 31.7424C38.8398 30.2192 39.6966 28.1541 39.6992 26V26ZM3.94922 29.25L4.05159 25.7676C5.43054 25.386 6.64502 24.56 7.50671 23.4177C8.3684 22.2755 8.82913 20.8809 8.81747 19.4502C8.8058 18.0194 8.32239 16.6325 7.44219 15.5045C6.562 14.3765 5.33421 13.5704 3.94922 13.2112L3.94922 9.75C3.94922 9.31902 4.12042 8.9057 4.42517 8.60095C4.72992 8.2962 5.14324 8.125 5.57422 8.125L12.0742 8.125L12.0742 11.375C12.0742 11.806 12.2454 12.2193 12.5502 12.524C12.8549 12.8288 13.2682 13 13.6992 13C14.1302 13 14.5435 12.8288 14.8483 12.524C15.153 12.2193 15.3242 11.806 15.3242 11.375L15.3242 8.125L31.5742 8.125C32.8671 8.125 34.1071 8.63861 35.0214 9.55285C35.9356 10.4671 36.4492 11.7071 36.4492 13L36.3468 13.2324C34.9763 13.613 33.7679 14.4316 32.9061 15.5633C32.0444 16.695 31.5766 18.0776 31.5742 19.5C31.5865 20.9416 32.0694 22.3398 32.9494 23.4817C33.8294 24.6237 35.0583 25.4469 36.4492 25.8261L36.4492 26C36.4492 27.2929 35.9356 28.5329 35.0214 29.4471C34.1071 30.3614 32.8671 30.875 31.5742 30.875L15.3242 30.875L15.3242 27.625C15.3242 27.194 15.153 26.7807 14.8483 26.4759C14.5435 26.1712 14.1302 26 13.6992 26C13.2682 26 12.8549 26.1712 12.5502 26.4759C12.2454 26.7807 12.0742 27.194 12.0742 27.625L12.0742 30.875L5.57422 30.875C5.14324 30.875 4.72991 30.7038 4.42517 30.399C4.12042 30.0943 3.94922 29.681 3.94922 29.25Z" fill="url(#paint0_linear_2445_15572)"/>
<path d="M15.3242 21.125L15.3242 17.875C15.3242 17.444 15.153 17.0307 14.8483 16.726C14.5435 16.4212 14.1302 16.25 13.6992 16.25C13.2682 16.25 12.8549 16.4212 12.5502 16.726C12.2454 17.0307 12.0742 17.444 12.0742 17.875L12.0742 21.125C12.0742 21.556 12.2454 21.9693 12.5502 22.274C12.8549 22.5788 13.2682 22.75 13.6992 22.75C14.1302 22.75 14.5435 22.5788 14.8483 22.274C15.153 21.9693 15.3242 21.556 15.3242 21.125Z" fill="url(#paint1_linear_2445_15572)"/>
</g>
<defs>
<linearGradient id="paint0_linear_2445_15572" x1="39.6992" y1="12.1875" x2="8.23025" y2="40.1599" gradientUnits="userSpaceOnUse">
<stop stop-color="#B9846F"/>
<stop offset="0.276451" stop-color="#EFD0B6"/>
<stop offset="1" stop-color="#B08271"/>
</linearGradient>
<linearGradient id="paint1_linear_2445_15572" x1="15.3242" y1="17.875" x2="11.0992" y2="19.2833" gradientUnits="userSpaceOnUse">
<stop stop-color="#B9846F"/>
<stop offset="0.276451" stop-color="#EFD0B6"/>
<stop offset="1" stop-color="#B08271"/>
</linearGradient>
<clipPath id="clip0_2445_15572">
<rect width="39" height="39" fill="white" transform="translate(39.6992) rotate(90)"/>
</clipPath>
</defs>
</svg>
