<svg viewBox="0 0 33 37" fill="none" xmlns="http://www.w3.org/2000/svg">
<path d="M32.1983 8.97331V15.341C31.0857 15.2323 29.6401 14.9795 28.041 14.3935C25.9529 13.628 24.3987 12.5813 23.3806 11.7709V24.6409L23.3547 24.6007C23.3712 24.8558 23.3806 25.1157 23.3806 25.378C23.3806 31.7693 18.1817 36.9721 11.7899 36.9721C5.39815 36.9721 0.199219 31.7693 0.199219 25.378C0.199219 18.9867 5.39815 13.7816 11.7899 13.7816C12.4159 13.7816 13.03 13.8312 13.63 13.928V20.2036C13.0536 19.998 12.4348 19.8869 11.7899 19.8869C8.76411 19.8869 6.30046 22.3489 6.30046 25.378C6.30046 28.4071 8.76411 30.8691 11.7899 30.8691C14.8157 30.8691 17.2794 28.4047 17.2794 25.378C17.2794 25.2646 17.277 25.1512 17.2699 25.0378V0.027832H23.631C23.6546 0.566544 23.6759 1.11001 23.6995 1.64872C23.742 2.7096 24.12 3.72798 24.779 4.56203C25.5514 5.54258 26.6923 6.6814 28.2937 7.59106C29.7937 8.4393 31.2015 8.80556 32.1983 8.97804V8.97331Z" fill="url(#paint0_linear_2445_10424)"/>
<defs>
<linearGradient id="paint0_linear_2445_10424" x1="8.19898" y1="0.027832" x2="33.9923" y2="33.5388" gradientUnits="userSpaceOnUse">
<stop stop-color="#B9846F"/>
<stop offset="0.276451" stop-color="#EFD0B6"/>
<stop offset="1" stop-color="#B08271"/>
</linearGradient>
</defs>
</svg>
