<svg width="40" height="39" viewBox="0 0 40 39" fill="none" xmlns="http://www.w3.org/2000/svg">
<g clip-path="url(#clip0_2445_17660)">
<path d="M20.1992 19.5C22.1276 19.5 24.0127 18.9282 25.616 17.8568C27.2194 16.7855 28.4691 15.2627 29.207 13.4812C29.945 11.6996 30.1381 9.73919 29.7619 7.84787C29.3857 5.95656 28.4571 4.21928 27.0935 2.85571C25.7299 1.49215 23.9927 0.563554 22.1013 0.187348C20.21 -0.188858 18.2496 0.00422454 16.4681 0.742179C14.6865 1.48013 13.1637 2.72982 12.0924 4.33319C11.021 5.93657 10.4492 7.82164 10.4492 9.75001C10.4518 12.3351 11.4799 14.8135 13.3078 16.6414C15.1357 18.4694 17.6142 19.4974 20.1992 19.5ZM20.1992 3.25C21.4848 3.25 22.7415 3.63122 23.8104 4.34545C24.8793 5.05968 25.7125 6.07484 26.2044 7.26256C26.6964 8.45028 26.8251 9.75722 26.5743 11.0181C26.3235 12.279 25.7045 13.4372 24.7954 14.3462C23.8864 15.2552 22.7282 15.8743 21.4673 16.1251C20.2064 16.3759 18.8995 16.2472 17.7118 15.7552C16.5241 15.2633 15.5089 14.4301 14.7947 13.3612C14.0804 12.2923 13.6992 11.0356 13.6992 9.75001C13.6992 8.0261 14.384 6.3728 15.603 5.15381C16.822 3.93482 18.4753 3.25 20.1992 3.25Z" fill="url(#paint0_linear_2445_17660)"/>
<path d="M20.1992 22.751C16.3217 22.7553 12.6043 24.2975 9.86253 27.0393C7.12074 29.7811 5.57852 33.4985 5.57422 37.376C5.57422 37.807 5.74542 38.2203 6.05017 38.525C6.35492 38.8298 6.76824 39.001 7.19922 39.001C7.6302 39.001 8.04352 38.8298 8.34827 38.525C8.65301 38.2203 8.82422 37.807 8.82422 37.376C8.82422 34.3591 10.0227 31.4659 12.1559 29.3326C14.2891 27.1994 17.1824 26.001 20.1992 26.001C23.2161 26.001 26.1093 27.1994 28.2426 29.3326C30.3758 31.4659 31.5742 34.3591 31.5742 37.376C31.5742 37.807 31.7454 38.2203 32.0502 38.525C32.3549 38.8298 32.7682 39.001 33.1992 39.001C33.6302 39.001 34.0435 38.8298 34.3483 38.525C34.653 38.2203 34.8242 37.807 34.8242 37.376C34.8199 33.4985 33.2777 29.7811 30.5359 27.0393C27.7941 24.2975 24.0767 22.7553 20.1992 22.751Z" fill="url(#paint1_linear_2445_17660)"/>
</g>
<defs>
<linearGradient id="paint0_linear_2445_17660" x1="15.3242" y1="0" x2="28.3242" y2="19.5" gradientUnits="userSpaceOnUse">
<stop stop-color="#B9846F"/>
<stop offset="0.276451" stop-color="#EFD0B6"/>
<stop offset="1" stop-color="#B08271"/>
</linearGradient>
<linearGradient id="paint1_linear_2445_17660" x1="12.8867" y1="22.751" x2="20.5315" y2="43.3918" gradientUnits="userSpaceOnUse">
<stop stop-color="#B9846F"/>
<stop offset="0.276451" stop-color="#EFD0B6"/>
<stop offset="1" stop-color="#B08271"/>
</linearGradient>
<clipPath id="clip0_2445_17660">
<rect width="39" height="39" fill="white" transform="translate(0.699219)"/>
</clipPath>
</defs>
</svg>
